<svg width="298" height="222" viewBox="0 0 298 222" fill="none" xmlns="http://www.w3.org/2000/svg">
<path d="M282.737 25.5575C283.822 21.1253 277.853 23.3414 276.767 20.5713C277.31 18.3551 280.566 16.6931 278.938 13.3689C277.31 10.0447 274.054 13.3688 271.883 12.2607C272.426 10.0446 274.054 8.93659 275.682 7.82852C276.767 6.72045 277.31 5.61234 276.225 4.50427C275.139 2.84217 274.054 2.8421 272.426 3.39614C271.341 3.95017 269.712 5.05838 268.627 5.61241C267.542 6.16645 266.456 6.16638 266.456 4.50427C266.456 2.84217 266.999 0.626098 264.286 0.0720627C261.572 -0.481972 261.03 2.2881 259.944 3.95021C259.402 5.05828 258.859 6.16631 257.231 6.16631C255.603 5.05824 256.145 1.18007 252.889 1.7341C250.176 2.28814 249.633 5.05831 249.091 7.27445C248.548 8.93655 249.091 11.1526 246.377 11.7067C244.749 10.5986 245.292 6.72045 242.579 7.82852C239.865 8.93659 238.78 11.7067 239.322 15.0309C239.865 16.693 240.951 18.3552 239.322 19.4633C237.694 20.5714 235.524 19.4632 234.438 18.3552C231.182 16.139 230.097 12.8147 231.182 8.93649C231.725 7.27438 233.353 5.61231 232.268 3.95021C224.127 6.16635 220.329 13.3688 224.127 20.0172C225.755 22.7874 225.213 24.4495 222.499 26.1116C220.871 26.6656 219.786 27.7737 218.158 28.8818C216.53 30.5439 213.817 32.206 214.359 34.9762C214.902 38.3004 218.158 35.5302 219.786 36.6382C220.329 36.6382 220.329 37.1923 220.871 37.7464C218.701 40.5165 215.987 41.6245 213.274 42.1786C210.561 42.7326 208.39 43.8408 207.304 46.0569C206.219 48.273 203.506 52.1512 207.847 53.2593C212.731 54.3674 210.561 57.1376 210.018 59.3537C207.304 66.0021 201.878 69.8803 195.908 72.6505C190.481 75.4207 183.427 73.7586 181.799 70.4344C180.17 66.0021 183.969 60.4619 190.481 58.2457C191.567 57.6917 192.652 57.6917 193.738 57.6917C194.823 57.1376 196.451 57.6917 196.451 55.4756C176.372 44.9489 167.146 46.611 153.037 63.232C151.409 64.8941 150.323 66.0021 148.152 67.1102C144.354 68.7723 140.555 69.3264 138.384 65.4481C135.671 61.0158 138.384 58.2456 141.64 56.0295C147.067 52.1512 152.494 48.8271 159.549 48.8271C154.665 44.9488 149.238 43.2868 143.268 43.8408C130.787 44.3948 123.732 52.1513 118.848 62.678C117.763 64.3401 117.22 68.2184 113.964 66.5563C111.25 64.8942 112.336 62.1239 113.421 59.9078C115.592 53.8134 119.933 49.3811 123.189 43.8408C120.476 44.9489 117.763 47.1649 115.049 48.273C105.824 52.7053 97.1408 57.1376 91.714 68.2183C89.5433 73.2046 85.7445 77.637 85.7445 83.1773C85.7445 84.2854 85.2019 84.8394 85.2019 85.9475C85.2019 87.0556 84.6592 88.1636 83.5738 88.1636C82.4884 88.1636 81.9457 87.0556 81.403 85.9475C80.8604 84.2854 81.403 83.1772 81.403 81.5151C81.9457 74.8667 84.1165 68.2183 87.3725 62.1239C80.8604 65.4481 75.4336 68.7723 70.5495 73.7587C64.0373 80.4071 62.4093 88.7175 65.1227 97.5821C66.208 101.46 66.7507 104.785 67.8361 108.663C68.3788 110.879 67.2934 112.541 65.6654 113.095C62.952 114.203 62.4093 111.987 61.324 110.325C59.1532 107.001 60.2386 103.677 58.6106 99.7984C55.8972 103.123 53.1838 105.893 51.0131 109.217C44.501 118.081 46.6717 126.392 55.3545 132.486C56.4399 133.04 57.5253 133.594 58.0679 134.148C59.696 135.257 61.324 136.919 59.1533 139.135C57.5252 141.351 55.3545 141.351 53.1838 140.243C51.5557 139.135 51.013 136.365 48.8423 136.365C46.129 145.783 48.2997 155.756 54.8118 159.634C58.0679 161.296 60.7813 162.958 59.6959 167.391C58.6105 171.269 55.3545 172.931 51.5557 172.931C46.129 173.485 41.2449 172.377 36.3608 171.823C32.0194 170.715 32.0193 169.607 34.7328 166.283C28.2206 165.729 22.2511 165.728 16.8243 165.174C11.3976 165.174 5.42807 164.62 0.00128174 164.62C2.71469 167.945 5.97073 169.607 8.14145 172.931C11.9402 177.917 17.367 180.687 22.2511 183.458C24.9645 185.12 28.2206 185.674 30.934 188.444C32.562 190.106 34.1901 191.214 36.3608 191.214C45.0437 190.66 52.0985 197.308 60.7813 196.2C63.4947 195.646 66.2081 196.2 68.3788 193.984C70.5495 191.768 73.2629 188.444 77.0617 189.552C80.8604 190.66 84.6591 190.106 88.4579 190.66C93.342 191.214 96.598 193.984 97.6834 198.971C97.6834 200.079 97.6834 201.187 96.5981 202.295C95.5127 202.849 94.97 202.849 94.4274 202.295C93.342 201.187 93.8847 198.417 91.714 199.525C90.0859 200.633 90.0859 202.849 90.0859 204.511C90.0859 208.943 94.4274 212.267 98.7688 211.159C100.397 210.605 102.025 209.497 103.11 208.943C105.281 207.835 106.909 208.389 107.452 210.605C108.537 212.822 106.909 213.929 105.281 214.484C104.196 215.038 102.568 214.483 100.939 216.7C105.281 219.47 109.622 224.456 115.592 220.578C121.019 217.254 118.848 212.267 116.677 207.281C121.019 206.173 121.019 208.943 121.019 211.713C121.019 213.375 120.476 216.146 122.647 215.592C125.36 215.038 127.531 212.822 129.159 210.605C130.787 208.389 130.244 206.173 129.159 203.957C126.988 201.187 124.275 199.525 121.019 198.971C112.878 197.308 105.824 193.984 102.025 185.674C101.482 184.012 100.397 184.566 99.3114 184.566C98.2261 184.566 98.7688 185.674 98.7688 186.228C102.025 191.214 102.568 197.308 109.08 200.079C111.793 201.187 114.506 199.525 116.677 202.849C113.964 205.619 109.08 207.835 114.506 212.267C115.592 213.375 115.049 215.592 113.964 216.7C112.878 217.808 111.25 217.808 110.165 217.254C107.994 216.146 109.622 214.484 110.165 212.821C111.25 208.943 108.537 207.281 106.366 205.065C104.196 202.849 102.568 204.511 101.482 206.173C100.397 207.281 98.7688 208.389 97.6834 206.727C96.0554 205.065 97.6834 203.957 98.2261 202.849C101.482 196.2 99.8541 190.66 92.7993 188.444C84.1165 185.674 74.891 184.012 66.2081 188.998C61.324 191.768 55.8972 188.444 51.0131 191.768C50.4704 191.768 49.385 191.214 48.8423 190.66C46.129 187.336 42.3302 186.782 37.9888 186.782C35.2754 186.782 33.6474 185.674 31.4767 184.566C25.5072 181.241 21.1658 175.701 14.6537 174.039C13.0256 173.485 10.8549 172.377 10.8549 169.607C17.367 170.715 23.3365 172.931 30.3913 175.701C27.6779 175.701 26.5926 176.255 24.9645 176.255C35.2754 184.012 65.1228 176.809 74.3483 164.62C73.2629 164.066 72.7202 164.62 71.6349 165.174C70.0069 165.728 68.9215 166.837 67.2935 165.728C65.6654 164.62 66.7508 162.404 67.2935 161.296C67.8361 159.08 68.9214 156.864 69.4641 153.54C64.58 157.418 60.2386 159.08 55.3545 156.864C53.1838 155.756 51.0131 151.878 53.1838 151.324C58.6106 149.107 61.8667 145.783 62.952 140.243C62.952 139.689 64.58 139.135 65.1227 139.135C70.0068 138.027 70.0068 135.257 67.8361 131.378C66.208 128.054 62.952 126.392 60.2386 123.622C57.5252 120.852 54.8119 118.081 55.3545 113.095C55.8972 113.649 56.4399 113.649 56.4399 113.649C59.1533 118.636 62.4093 121.406 68.3788 118.636C72.7202 116.419 74.3483 112.541 72.7202 105.893C71.0922 99.7982 71.6349 93.704 74.3483 85.9475C74.891 90.3798 75.9763 93.1499 77.6043 95.92C78.6897 98.1362 80.8604 98.6902 83.0311 98.6902C85.7445 98.6902 86.8298 96.474 87.3725 94.8119C87.9152 92.0417 88.4579 89.2716 88.4579 87.0555C87.9152 75.9748 94.4274 69.3264 101.482 62.678C103.11 61.5699 104.738 59.9078 106.366 61.0159C108.537 62.124 106.909 64.3401 106.909 66.0022C106.909 67.6643 105.824 69.3264 105.824 70.9885C105.824 73.2046 105.824 75.9748 107.994 77.0829C109.622 78.191 111.25 75.4208 112.336 74.8668C114.506 73.2047 116.135 70.9885 117.763 68.7724C120.476 64.3401 123.189 59.9078 126.445 55.4756C129.701 51.5973 133.5 48.827 139.47 50.4891C137.842 53.2593 135.671 55.4754 135.128 58.7996C134.586 64.34 132.958 68.7724 126.988 71.5425C124.275 72.6506 122.647 75.4207 123.189 78.7449C123.732 82.0691 126.445 83.1772 129.159 84.2853C135.128 86.5014 138.927 83.1772 142.183 78.7449C149.238 69.3263 156.835 61.0159 167.689 55.4756C172.03 53.2594 176.914 52.1513 181.799 52.1513C183.427 52.1513 185.055 52.1513 185.597 53.8134C186.14 55.4755 185.055 56.0295 183.969 57.1376C180.171 59.9078 177.457 63.786 174.744 67.6642C170.945 73.7586 173.116 78.745 180.713 79.299C188.311 79.853 194.823 77.6368 200.792 72.6505C206.762 68.2182 210.018 61.5698 215.445 56.0295C216.53 54.9214 217.073 53.8134 216.53 52.1513C214.359 48.8271 217.073 48.273 219.243 47.7189C221.957 47.1649 225.213 45.5028 223.042 42.1786C220.871 38.3003 223.042 37.1924 224.67 35.5303C226.841 33.3141 229.012 31.6521 231.725 30.544C234.438 28.8819 237.694 27.2197 237.694 23.3414C237.152 17.247 240.951 18.3552 243.664 19.4633C248.548 21.6794 253.432 22.2333 258.316 22.7874C260.487 22.7874 262.658 22.2334 264.286 24.4496C262.658 26.6657 259.944 27.7737 257.773 28.8818C249.633 32.76 245.835 39.9625 243.664 48.273C242.036 54.3674 244.207 56.5836 250.176 55.4756C259.944 54.3675 268.627 57.1376 272.969 62.678C270.255 62.678 266.456 59.9078 265.914 63.232C264.828 67.1103 269.17 67.6643 271.883 68.2183C275.682 69.3264 280.023 70.4345 283.822 71.5425C285.45 72.0966 288.164 72.0965 288.164 73.7587C288.164 75.4208 286.535 77.0828 285.45 78.7449C284.907 79.853 283.279 79.299 282.194 79.299C281.109 79.299 280.023 79.853 279.481 81.5151C278.938 83.1772 280.023 84.2853 281.109 84.8393C285.45 85.9474 287.621 89.8257 291.42 90.9338C289.249 94.258 287.078 95.92 283.279 92.5958C280.023 89.2716 276.767 91.4878 274.054 94.258C272.968 94.812 271.883 96.474 272.969 97.5821C274.054 99.2442 275.139 97.5822 276.225 97.0282C279.481 94.812 281.651 94.2579 283.822 98.6902C284.365 100.352 285.45 100.906 287.621 100.352C289.249 99.7982 290.877 98.1361 292.505 100.352C294.133 102.568 292.505 104.785 291.42 106.447C289.249 110.325 285.45 110.325 281.651 108.663C278.938 107.555 276.225 105.893 272.969 105.893C269.712 105.893 266.999 107.001 265.371 109.771C263.743 113.095 265.914 115.311 268.084 116.973C269.17 118.081 270.798 118.635 270.255 120.298C269.712 122.514 267.542 123.068 265.914 123.622C262.115 124.176 258.859 123.068 256.146 119.743C252.889 115.865 252.889 111.433 255.06 107.001C255.603 105.893 257.774 104.785 256.146 103.122C253.432 103.676 252.889 105.893 251.804 107.555C249.091 111.433 245.292 110.325 241.493 109.771C238.237 109.217 237.694 105.893 237.152 103.122C236.609 98.1361 238.78 94.2579 239.865 89.2716C236.066 90.3796 236.609 94.258 233.896 96.4741C232.81 90.3797 236.609 84.2852 233.353 78.1909C230.097 72.6505 230.097 66.5562 229.012 60.4618C229.012 71.5425 228.469 82.0691 230.097 92.5958C231.725 102.014 233.896 112.541 246.92 112.541C249.091 112.541 250.176 114.203 250.719 116.973C252.889 125.838 265.914 129.162 272.426 123.068C275.682 119.744 275.682 117.527 271.34 115.311C268.084 113.095 267.542 109.771 270.798 108.663C273.511 107.001 275.139 109.217 277.31 110.879C282.194 114.757 287.621 114.203 292.505 109.771C297.389 104.785 298.474 99.7982 294.676 94.8119C294.133 94.2579 293.59 93.7039 294.676 93.1499C299.56 88.7176 294.133 88.7176 291.962 87.0555C293.048 84.2853 296.846 84.2852 295.761 80.961C294.676 78.1909 291.42 79.2989 289.792 78.1909C290.877 75.9747 294.676 75.4208 293.59 72.0966C292.505 69.3264 289.249 71.5426 287.621 69.3264C288.706 67.6643 290.877 66.0022 289.792 63.7861C288.706 61.57 285.993 62.6779 284.365 62.1239C283.822 62.1239 282.737 62.1239 282.194 62.1239C281.109 62.1239 280.023 62.124 279.481 61.0159C278.938 59.9078 280.023 58.7998 280.566 58.2457C285.993 53.2594 287.078 47.1649 286.535 39.9625C286.535 36.6383 287.078 33.8681 290.334 32.206C294.676 29.9899 295.761 26.1116 294.133 21.1253C293.59 20.0173 293.048 17.8011 291.42 17.8011C289.249 17.8011 290.334 20.0173 289.792 21.6794C288.164 28.3278 280.566 31.098 275.139 27.2197C276.225 28.8818 281.651 29.9898 282.737 25.5575ZM261.572 21.1253C257.774 19.4632 253.432 18.9092 249.091 18.3552C248.005 18.3552 246.92 18.3552 246.92 16.6931C247.463 15.585 247.463 14.4769 249.091 15.0309C253.432 16.139 257.231 15.0309 261.572 15.0309C263.743 15.0309 263.743 15.585 264.286 16.6931C264.828 19.4633 265.914 20.0173 268.627 18.3552C269.712 17.2471 271.34 16.1389 272.969 17.247C274.054 18.3551 272.969 19.4632 272.426 20.5713C271.883 22.2334 270.798 23.8955 268.627 23.8955C265.914 23.3415 263.743 21.6794 261.572 21.1253ZM257.231 47.165C252.889 48.2731 252.347 53.2594 249.091 55.4756C248.548 49.3812 252.347 43.2868 256.688 41.6247C258.316 41.0707 259.402 41.0707 261.03 41.6247C262.658 42.7328 262.115 44.3948 261.572 45.5028C259.944 48.827 259.402 53.2593 256.146 56.0295C253.432 52.7053 257.231 50.4893 257.231 47.165ZM276.225 49.9352C272.426 50.4893 270.798 53.2594 268.627 54.3674C268.627 54.3674 268.084 53.8134 268.627 53.8134C269.712 49.3811 272.426 46.0568 276.767 44.9488C277.853 44.3947 279.481 44.9488 279.481 46.0569C280.566 50.4892 277.853 53.2593 275.682 56.5835C274.597 58.2456 272.968 59.9077 271.34 62.1239C270.798 56.5835 274.054 53.2594 276.225 49.9352ZM230.097 18.9092C231.182 19.4633 231.725 20.5713 230.097 21.6794C229.012 22.2334 227.926 21.1253 227.384 20.5713C225.213 18.3551 224.67 15.5849 226.841 11.7067C227.926 14.4768 228.469 17.2471 230.097 18.9092Z" fill="black"/>
<path d="M233.895 150.769C230.096 150.769 225.754 151.323 221.956 149.661C218.157 147.999 217.072 145.783 221.413 143.013C221.956 142.459 223.041 141.905 223.584 140.797C218.157 143.567 212.187 142.459 206.761 145.229C200.791 148.553 194.279 147.445 188.852 143.567C187.224 142.459 186.139 141.351 186.139 139.689C186.139 138.58 186.682 138.026 187.767 137.472C189.938 137.472 189.395 139.689 190.48 140.797C194.279 145.783 202.962 145.783 206.218 140.243C207.303 138.581 207.846 136.364 205.133 135.81C201.877 135.256 202.962 133.594 204.047 131.932C206.218 129.162 208.931 128.054 212.187 128.608C215.444 129.162 217.072 131.932 217.072 135.256C217.072 136.364 215.986 138.58 218.157 139.134C220.328 139.134 221.956 138.026 223.584 136.364C224.669 135.256 225.212 134.148 224.126 132.486C220.87 129.162 223.584 128.608 226.297 128.608C229.553 128.608 232.809 129.162 234.437 132.486C236.065 135.81 233.895 138.026 231.724 140.243C231.181 141.351 229.553 141.905 229.011 143.013C227.925 144.121 224.126 144.121 225.754 146.891C227.382 149.661 230.096 147.445 232.267 146.337C234.437 144.675 236.608 140.243 239.321 145.229C241.492 149.107 240.407 152.431 236.608 155.202C230.096 159.08 223.041 159.634 216.529 155.756C212.73 153.539 208.931 152.431 204.59 153.539C199.706 154.648 194.279 153.539 188.852 152.985C186.682 152.431 185.054 151.877 183.426 150.215C182.883 149.661 182.883 148.553 183.426 147.999C183.968 146.891 185.054 147.445 185.596 147.999C190.48 152.985 196.45 152.431 202.419 150.769C207.303 149.661 211.645 150.215 216.529 152.431C221.956 153.54 227.925 154.648 233.895 150.769Z" fill="black"/>
<path d="M285.991 169.606C280.564 165.728 279.479 162.404 284.363 158.525C285.449 157.417 285.991 156.309 284.906 153.539C282.735 160.187 278.936 162.404 272.967 161.295C270.254 160.741 267.54 160.187 268.083 156.309C268.083 154.647 268.083 153.539 266.455 153.539C264.284 153.539 264.827 155.201 264.827 156.309C264.284 161.296 261.028 164.066 256.144 165.728C250.174 167.39 244.748 166.282 240.949 161.85C245.833 163.512 250.717 164.066 255.059 162.404C257.229 161.85 259.943 160.742 259.943 157.971C260.485 154.647 257.772 154.647 255.601 152.985C258.315 150.215 261.571 149.661 264.827 149.661C268.083 149.661 271.339 150.769 271.339 155.201C271.339 159.079 274.595 159.079 276.766 158.525C279.479 157.971 281.107 156.309 278.936 152.985C276.766 150.215 278.394 149.661 281.107 149.661C284.363 149.661 287.077 150.769 288.705 153.539C290.333 156.309 288.705 159.079 287.077 161.295C285.449 163.512 284.363 165.174 287.619 166.836C288.162 167.39 289.247 166.836 289.79 166.836C290.875 166.282 290.333 165.728 289.79 164.62C288.162 161.296 290.333 161.85 291.961 161.85C295.217 162.404 297.93 164.066 297.93 167.39C298.473 170.714 295.759 172.376 293.046 173.484C290.333 174.592 287.619 174.038 285.449 173.484C275.138 171.268 264.827 170.714 253.973 171.268C250.174 171.268 246.376 171.822 243.662 168.498C257.229 169.052 271.339 162.404 285.991 169.606Z" fill="black"/>
<path d="M198.077 197.862C197.534 197.308 197.534 196.754 197.534 196.754C189.937 197.862 182.882 194.538 175.284 195.092C168.772 195.646 164.973 191.214 160.632 188.444C159.004 187.336 160.632 185.673 162.26 186.227C163.888 186.227 166.601 186.782 167.144 187.89C169.857 191.768 173.656 192.322 177.455 191.214C178.54 190.66 180.168 191.768 181.796 192.322C185.595 193.984 188.851 194.538 193.193 192.876C198.077 191.214 201.875 193.43 204.046 197.308C206.217 201.186 206.217 204.511 200.79 206.727C199.705 204.511 200.247 201.74 198.077 200.078C196.991 199.524 195.906 198.97 194.821 199.524C194.278 200.078 193.735 200.632 193.735 201.186C195.363 204.511 195.906 207.281 192.65 210.051C189.394 212.821 187.223 212.821 181.254 211.713C180.711 209.497 185.595 210.051 183.424 207.281C182.339 205.619 180.711 206.173 179.083 207.281C169.315 212.821 169.315 212.821 162.26 203.403C162.803 202.295 163.888 202.849 164.431 202.849C166.059 203.403 168.772 205.065 169.315 203.403C170.4 201.186 167.687 199.524 166.059 198.416C164.973 197.862 164.431 197.308 163.345 196.754C157.376 195.092 150.321 196.754 147.065 189.552C146.522 189.552 147.608 188.998 148.15 188.998C155.205 192.876 163.888 191.768 170.4 197.862C173.656 201.186 175.284 204.511 170.943 208.389C174.199 209.497 175.827 206.727 177.455 205.619C183.424 201.74 186.681 202.849 188.309 210.605C191.565 208.943 195.363 207.281 191.022 202.849C189.394 201.186 191.022 200.078 192.107 198.416C193.735 198.416 195.906 198.416 198.077 197.862Z" fill="black"/>
<path d="M281.105 104.231C280.563 106.447 278.935 107.001 277.307 107.555C275.679 108.11 274.593 107.556 274.593 105.339C274.593 103.123 276.221 102.015 278.392 102.015C279.477 102.015 280.563 103.123 281.105 104.231Z" fill="black"/>
<path d="M285.448 110.325C283.82 110.325 283.277 109.217 283.82 108.109C284.362 106.447 285.99 104.785 287.618 104.785C288.704 104.785 289.789 105.339 289.789 107.001C289.246 109.217 287.076 109.771 285.448 110.325Z" fill="black"/>
</svg>
