<svg width="351" height="108" viewBox="0 0 351 108" fill="none" xmlns="http://www.w3.org/2000/svg">
<path d="M116.272 4.69772C113.807 8.3954 110.725 11.8877 108.466 15.9962C108.671 16.2016 108.876 16.2016 108.876 16.4071C114.012 11.4768 119.148 6.34114 124.283 1.41089C119.764 7.5737 113.807 12.2985 109.287 18.4613C112.574 17.6396 114.628 14.5582 118.121 13.9419C115.655 15.7908 113.19 17.6396 110.725 19.4885C109.698 20.1047 109.287 20.9265 109.493 22.159C109.698 23.597 109.698 25.035 109.493 26.473C109.287 29.5544 108.055 32.2249 105.384 34.2792C104.152 35.1009 104.562 35.7172 105.384 36.5389C106.822 37.566 107.644 39.2095 108.466 40.6474C109.493 42.7017 110.109 44.9614 111.752 46.8103C113.396 48.6591 113.19 51.7405 113.19 54.4111C116.272 52.5622 117.915 49.8917 120.38 48.0428C123.051 46.194 125.721 45.7831 126.954 47.0157C128.803 49.2754 128.597 53.5893 126.132 55.4382C124.694 56.4653 123.873 57.4925 123.462 59.3413C123.256 60.5739 122.024 61.601 120.586 61.1902C119.148 60.7793 118.737 59.3413 119.148 57.9033C119.764 55.6436 121.407 54.6165 123.462 54.0002C124.694 53.5894 125.927 53.1785 125.105 51.5351C124.489 49.8917 123.256 49.8917 121.613 50.3025C120.38 50.7134 119.764 51.7405 119.148 52.5622C117.299 54.6165 115.45 56.6708 113.19 58.3142C110.931 59.7522 111.136 60.7793 112.574 62.6281C114.628 65.0933 115.245 68.1747 114.834 71.4615C114.834 72.4886 114.628 73.3103 114.423 74.3375C114.217 75.1592 114.012 75.9809 115.45 76.1863C116.888 76.3918 117.504 77.4189 117.093 78.8569C116.683 80.2949 116.272 81.1166 114.423 81.1166C110.109 80.9111 109.698 80.2949 110.109 76.1863C110.314 73.3103 112.369 70.6398 110.931 67.5584C110.725 66.9421 110.52 66.3258 110.314 65.915C109.493 65.0933 109.082 64.2715 107.644 65.7095C104.357 69.4072 100.248 72.4886 95.7291 73.7212C91.6205 74.7483 88.95 77.4189 85.4577 79.884C86.6903 80.5003 87.7174 80.2949 88.5391 80.0894C89.1554 79.884 89.5662 79.6786 90.1825 79.6786C92.0314 79.4732 94.0856 79.0623 94.9073 81.322C95.5236 83.1708 94.2911 85.4305 92.0314 86.4577C91.4151 86.8685 90.7988 87.0739 90.1825 87.6902C91.8259 88.3065 92.2368 89.3337 91.6205 90.9771C91.0042 92.4151 88.3337 93.853 86.6903 93.4422C85.0468 93.0313 84.4306 92.0042 84.636 90.3608C84.8414 88.1011 85.6631 86.0468 87.7174 84.8143C88.1282 84.6088 88.7445 84.4034 88.7445 83.5817C86.2794 82.5546 84.4306 83.7871 82.1709 84.4034C81.1437 84.6088 81.5546 85.636 81.3492 86.2522C80.5275 89.1282 78.0623 90.5662 75.1863 90.5662C73.5429 90.5662 71.4887 91.1825 71.2832 94.0585C70.667 91.5934 71.8995 90.1554 74.3646 89.3336C75.1863 89.1282 76.0081 88.9228 76.6243 88.5119C78.4732 87.4848 78.4732 86.0468 76.8298 84.8143C75.8026 84.198 74.9809 83.1709 73.5429 82.9654C73.9538 81.7329 75.1863 81.5274 75.5972 80.7057C75.3918 80.0894 74.9809 80.5003 74.5701 80.5003C73.9538 80.7057 73.1321 81.1166 72.5158 80.5003C72.3104 80.2949 72.3104 79.884 72.5158 79.884C73.1321 79.0623 73.7484 80.0894 74.5701 79.884C76.6243 79.2677 76.4189 81.1166 77.0352 82.76C77.6515 80.9111 78.0623 79.6786 78.4732 78.446H78.2678L78.4732 78.6515C78.0623 77.4189 77.446 76.5972 76.4189 78.446C76.0081 79.2677 75.1863 79.6786 74.3646 80.0894C74.5701 79.6786 74.7755 79.4732 74.9809 79.0623C75.1864 78.446 75.1863 78.2406 74.3646 77.4189C73.5429 76.5972 74.1592 73.9266 75.5972 73.9266C77.446 73.7212 76.8298 73.1049 76.2135 72.2832H76.4189V72.0778C75.5972 73.1049 73.7484 73.1049 73.3375 75.57C73.1321 71.8724 75.1864 68.9964 78.884 67.1475C87.3066 63.2444 94.4965 57.4925 101.481 51.3296C103.33 49.6862 104.562 47.4266 103.741 44.9614C102.714 42.2909 100.454 40.442 97.7833 39.4149C96.5508 39.004 94.9073 40.0312 93.4694 40.442C91.6205 41.0583 89.9771 41.2637 88.1283 40.8529C85.6631 40.442 84.0197 41.2637 82.5817 42.9072C82.1709 43.318 81.9654 43.5234 81.5546 43.9343C81.1437 44.3451 80.322 44.5506 80.1166 44.1397C79.5003 43.5234 80.322 43.318 80.7329 42.9072C81.3492 42.4963 81.9654 42.0854 82.3763 41.4691C82.7871 41.0583 83.8143 40.6474 83.4034 40.0312C82.9926 39.2095 82.1709 39.4149 81.3492 39.8258C78.6786 41.4692 75.8026 43.318 72.9267 44.9614C70.8724 46.194 69.0235 47.2211 66.9693 48.4537C66.353 48.6591 65.7367 49.07 64.5042 48.2482C70.4615 45.5777 75.3918 42.0854 80.9383 38.5932C77.2406 37.566 75.1864 41.2637 71.8995 40.6474C73.1321 39.004 74.9809 38.7986 76.6243 38.1823C78.0623 37.566 78.4732 36.9497 77.6515 35.3063C76.4189 33.2521 75.5972 30.9924 75.5972 28.3218C75.5972 26.8838 73.9538 25.2404 72.9267 23.8024C72.5158 23.1862 71.4887 22.5699 72.3104 21.7482C72.9266 20.9265 73.7484 21.7482 74.3646 21.7482C75.8026 22.159 76.4189 21.9536 77.0352 20.3102C78.0623 16.8179 80.1166 14.1473 83.4034 12.7094C85.4577 11.8877 86.4848 10.8605 85.8685 8.60083C85.6631 8.18998 85.8685 7.57369 85.8685 7.16284C86.074 6.34113 85.2523 5.314 86.2794 4.90314C87.1011 4.69771 87.512 5.51942 88.1283 6.1357C89.5662 7.36826 90.7988 8.18997 93.0585 7.16284C96.9616 5.31399 103.741 8.60084 106.411 13.1202C106.617 13.5311 106.822 13.7365 107.028 14.3528C109.904 11.8877 111.341 8.3954 113.601 5.93028C114.628 5.314 115.039 4.28686 116.272 4.69772ZM97.5779 14.7636C96.1399 16.407 97.167 17.6396 98.1942 18.8722C99.0159 19.6939 100.248 19.8993 101.07 19.0776C102.097 17.845 102.919 16.407 101.686 14.7636C100.659 13.3256 99.6322 13.3256 98.1942 14.3528C97.9887 14.3528 97.7833 14.5582 97.5779 14.7636ZM89.5662 31.1978C92.2368 30.9924 93.8802 29.3489 93.6748 27.0893C93.4694 24.8296 91.6205 24.6242 89.9771 24.4187C88.3337 24.2133 86.2794 26.8839 86.6903 28.5273C86.8957 30.3761 88.1283 31.1978 89.5662 31.1978ZM105.179 60.3685C107.438 56.8762 108.466 53.5893 107.438 49.6862C106.822 53.1785 102.303 55.8491 105.179 60.3685ZM79.2949 72.2832C79.0895 72.2832 79.0895 72.0778 78.884 72.0778C78.884 72.2832 78.6786 72.2832 78.6786 72.4886L78.884 72.6941C79.0895 72.4886 79.2949 72.2832 79.2949 72.2832ZM80.1166 79.884C79.9112 79.884 79.9112 79.6786 79.7057 79.6786C79.7057 79.884 79.5003 79.884 79.5003 80.0894L79.7057 80.2949C80.1166 80.2949 80.1166 80.0894 80.1166 79.884Z" fill="black"/>
<path d="M61.8336 75.57C64.0933 73.9266 66.5584 74.5429 69.0235 74.7483C66.1476 75.3646 63.8878 77.4189 61.2173 78.0351C60.3956 78.2406 59.7793 78.8568 59.3685 79.6786C59.163 80.2948 58.5467 80.7057 58.1359 81.1165C53.8219 83.5817 49.7134 86.8685 43.9614 85.8414C39.2366 85.0197 38.4149 83.5817 39.6475 79.4731C41.2909 73.9266 46.0157 71.6669 50.9459 69.6126C52.1785 69.2018 52.3839 70.6398 53.4111 70.6398C53.4111 71.2561 53.0002 72.0777 52.5894 72.2832C50.1242 73.5157 48.2754 75.7754 45.8103 77.008C44.1669 77.8297 43.1397 79.2677 43.5506 80.7057C43.756 81.9383 45.6049 82.5545 47.2483 82.5545C50.3297 82.1437 53.2057 81.7328 55.4653 79.6786C55.6708 79.6786 55.6708 79.6786 55.8762 79.6786C55.6708 79.6786 55.6708 79.6786 55.4653 79.6786C56.9033 78.8568 57.725 76.3917 59.9847 77.6243C60.1902 76.5972 59.163 77.2134 59.163 76.3917C59.7793 75.9809 60.8064 75.7754 61.8336 75.57C62.039 75.57 62.039 75.57 62.2444 75.57C62.039 75.57 61.8336 75.57 61.8336 75.57ZM53.4111 83.3762C53.2057 83.3762 53.2056 83.1708 53.0002 83.1708C52.7948 83.1708 52.5894 83.3762 52.5894 83.3762C52.5894 83.7871 52.7948 83.7871 53.0002 83.5817C53.2056 83.5817 53.4111 83.5817 53.4111 83.3762ZM48.4808 84.8142H48.6862C48.6862 84.8142 48.6863 84.6088 48.4808 84.8142C48.4808 84.6088 48.4808 84.6088 48.4808 84.8142Z" fill="black"/>
<path d="M74.1591 93.2364C75.1863 92.6201 76.4188 91.3876 77.6514 92.8255C78.4731 93.6473 78.6785 94.8798 77.6514 95.9069C76.2134 97.1395 74.57 97.5504 72.9266 96.7287C72.1049 96.3178 71.694 95.7015 71.4886 94.6744C72.7211 95.0853 73.9537 95.7015 74.7754 94.469C75.5971 93.6473 74.57 93.6473 74.1591 93.2364ZM75.3917 95.9069C75.5971 95.9069 75.8026 95.907 75.8026 95.7015C75.8026 95.2907 75.5971 95.2907 75.3917 95.4961C75.1863 95.4961 75.1863 95.7015 74.9809 95.7015C74.9809 95.7015 75.1863 95.7015 75.3917 95.9069Z" fill="black"/>
<path d="M41.0854 102.892C42.9342 101.248 44.7831 100.632 46.8373 100.837C47.4536 100.837 48.2753 101.043 48.2753 101.865C48.4808 102.686 47.6591 102.892 47.0428 102.892C45.1939 103.508 43.1397 103.713 41.0854 102.892Z" fill="black"/>
<path d="M48.8916 107.411C47.8645 107.617 46.6319 107.822 46.4265 106.179C46.2211 104.33 47.8645 104.741 48.8916 104.535C49.9188 104.33 51.5622 104.124 51.5622 105.768C51.7676 107 50.3296 107.411 49.3025 107.411C49.3025 107.617 49.097 107.617 48.8916 107.411Z" fill="black"/>
<path d="M38.2094 100.016C37.3877 99.8104 36.3606 99.3996 35.3335 98.9887C34.9226 98.7833 35.128 98.3725 35.3335 98.167C36.3606 97.3453 37.3877 96.7291 38.6203 97.3453C39.442 97.7562 40.88 96.7291 40.88 98.3725C40.6746 99.605 39.442 99.8104 38.2094 100.016Z" fill="black"/>
<path d="M113.19 85.8416C114.012 86.2524 115.655 85.6361 115.861 87.2795C116.066 88.7175 114.834 88.7175 113.807 88.923C112.574 89.1284 111.547 88.5121 111.341 87.485C111.136 86.2524 112.369 86.047 113.19 85.8416Z" fill="black"/>
<path d="M100.248 90.7716C99.2212 90.7716 98.194 90.5662 97.9886 89.5391C97.7832 88.3065 99.0158 88.512 99.8375 88.512H100.043C101.275 88.3065 102.919 87.6902 103.124 89.3337C103.124 90.3608 101.07 90.1554 100.248 90.7716Z" fill="black"/>
<path d="M103.535 83.787C104.768 83.787 106 83.3761 106 84.8141C106 86.2521 104.562 86.0467 103.535 86.0467C102.508 86.2521 101.481 86.0467 101.481 85.0196C101.275 83.787 102.713 83.787 103.535 83.787Z" fill="black"/>
<path d="M46.0156 95.7017C45.1939 95.7017 43.756 96.1125 43.9614 94.88C44.1668 93.6474 45.6048 93.442 46.6319 93.2366C47.4536 93.2366 48.6862 93.442 48.4808 94.2637C48.4808 95.4963 47.2482 95.9071 46.0156 95.7017Z" fill="black"/>
<path d="M22.597 96.9343C23.6241 96.7289 24.6512 97.5506 24.4458 97.9614C24.0349 98.9886 23.0078 99.6048 21.9807 99.194C21.159 98.9886 19.5155 99.6048 19.721 98.1669C19.721 96.9343 21.5698 97.1397 22.597 96.9343Z" fill="black"/>
<path d="M104.768 93.4424C106.617 93.4424 108.055 93.6478 108.26 95.2912C108.466 96.113 107.644 96.1129 107.028 96.1129C105.795 95.9075 104.152 96.1129 103.741 94.675C103.535 93.6478 104.562 93.4424 104.768 93.4424Z" fill="black"/>
<path d="M11.7094 94.0587C12.5311 92.2098 13.9691 92.0044 15.407 92.0044C16.0233 92.0044 16.6396 92.2098 16.6396 92.8261C16.6396 93.4424 16.2287 93.8532 15.6125 93.8532C14.5853 94.0587 13.3528 94.6749 11.7094 94.0587Z" fill="black"/>
<path d="M54.4381 99.1941C53.6164 98.7832 51.973 99.6049 52.1784 98.3724C52.1784 96.9344 53.8218 97.1398 55.0544 97.1398C55.8761 97.1398 56.9032 97.1398 56.9032 98.1669C56.4924 99.1941 55.2598 99.1941 54.4381 99.1941Z" fill="black"/>
<path d="M30.4032 93.0316C31.2249 93.0316 32.252 92.6207 32.252 93.8533C32.4574 94.8804 31.6357 95.4967 30.814 95.2913C29.7869 95.0858 28.1435 95.2913 27.9381 94.2641C27.7326 93.0316 29.5815 93.4424 30.4032 93.0316Z" fill="black"/>
<path d="M5.95747 95.9073C6.77918 95.9073 7.80631 95.4965 8.01174 96.5236C8.21717 97.5507 7.19002 97.9616 6.36832 97.7562C5.54661 97.5508 4.10863 98.3724 3.9032 96.9345C3.9032 95.7019 5.13576 96.1128 5.95747 95.9073Z" fill="black"/>
<path d="M60.8063 94.4695C62.0389 93.0315 63.4769 93.2369 64.9149 93.0315C65.3257 93.0315 65.7366 93.2369 65.7366 93.6478C65.942 94.2641 65.3257 94.4695 65.1203 94.4695C63.6823 95.0858 62.4498 95.4966 60.8063 94.4695Z" fill="black"/>
<path d="M1.84884 93.6475C1.23256 93.4421 0 94.2638 0 92.8258C0 91.7987 1.23256 91.5933 2.05427 91.5933C2.87598 91.5933 4.10854 91.5933 3.90312 92.6204C4.10854 94.0584 2.67055 93.6475 1.84884 93.6475Z" fill="black"/>
<path d="M71.6939 75.3646C71.0777 75.3646 70.2559 75.5701 70.4614 74.5429C70.4614 73.9266 71.0777 73.7212 71.4885 73.9266C72.3102 74.1321 71.8994 74.7483 71.6939 75.3646Z" fill="black"/>
<path d="M71.4885 75.3647C72.3102 76.1865 72.7211 77.0082 71.4885 78.0353C71.0777 77.0082 71.694 76.1865 71.4885 75.3647C71.694 75.3647 71.4885 75.3647 71.4885 75.3647Z" fill="black"/>
<path d="M1.23256 101.865C1.23256 102.481 1.23256 102.686 0.821703 102.892C0.205422 103.097 0.205427 102.686 0 102.276C0 101.865 0.205421 101.659 0.410848 101.659C0.821702 101.454 1.02713 101.865 1.23256 101.865Z" fill="black"/>
<path d="M72.7212 81.7326C72.3103 81.9381 72.3103 81.9381 72.1049 81.9381C71.8995 81.9381 71.8995 81.7326 71.694 81.7326C71.4886 81.5272 71.694 81.3218 71.8995 81.3218C72.1049 81.3218 72.3103 81.5272 72.7212 81.7326Z" fill="black"/>
<path d="M75.1862 91.3881C75.3916 91.1827 75.5971 91.1827 75.8025 90.9773L76.0079 91.1827C76.0079 91.3882 75.8025 91.3881 75.5971 91.3881C75.3916 91.799 75.3916 91.5936 75.1862 91.3881Z" fill="black"/>
<path d="M116.272 4.69769C116.066 4.49226 116.066 4.28683 115.861 4.0814C115.861 4.0814 115.861 4.0814 116.066 3.87598C116.066 4.28683 116.066 4.49226 116.272 4.69769Z" fill="black"/>
<path d="M74.3646 93.0315C74.1592 93.0315 74.1592 93.0315 74.3646 93.0315C74.1592 93.0315 74.1592 93.0315 74.3646 93.0315C74.1592 93.2369 74.3646 93.0315 74.3646 93.0315Z" fill="black"/>
<path d="M49.3025 107.411C49.097 108.028 48.8916 107.822 48.8916 107.411C49.097 107.617 49.3025 107.617 49.3025 107.411Z" fill="black"/>
<path d="M91.8258 29.1436C91.8258 29.9654 91.2096 29.9654 90.5933 29.9654C89.1553 29.5545 87.9227 28.7328 87.9227 27.2948C87.9227 26.6785 88.7444 26.2677 89.3607 26.4731C90.7987 26.6785 91.8258 27.5002 91.8258 29.1436Z" fill="black"/>
<path d="M97.5778 14.5584C97.7832 14.353 97.9887 14.1476 97.9887 13.9421C99.0158 14.5584 100.454 14.5584 100.865 15.9964C101.07 16.6127 101.481 17.4344 100.659 18.0507C99.8375 18.667 99.2212 17.8453 98.8104 17.229C98.3995 16.6127 97.7832 15.5856 97.5778 14.5584Z" fill="black"/>
<path d="M144.004 40.6471C144.21 38.5929 144.621 36.3332 144.826 34.2789C145.031 33.2518 145.648 32.6355 146.675 32.6355C147.907 32.6355 147.907 33.6626 147.907 34.2789C148.113 36.3332 148.318 38.3874 148.524 40.4417C146.88 40.4417 145.442 40.4417 144.004 40.6471Z" fill="black"/>
<path d="M126.338 13.7363C129.008 14.558 131.679 14.558 134.349 14.9689C135.787 15.1743 137.225 15.3798 138.663 14.9689C139.485 14.7635 140.307 14.5581 140.717 15.5852C140.923 16.2015 141.539 16.8177 141.128 17.434C140.512 18.2557 139.69 17.8449 138.869 17.8449C137.636 17.6394 136.404 17.434 135.376 17.8449C136.404 18.872 137.225 19.6937 138.252 20.7209C138.869 21.3371 139.485 22.3643 139.074 23.186C138.458 24.0077 137.431 23.3914 136.814 23.186C133.733 21.748 131.679 18.872 129.008 17.0232C127.981 16.4069 127.159 15.3798 126.338 14.5581C126.132 14.1472 126.132 13.9418 126.338 13.7363Z" fill="black"/>
<path d="M167.628 11.8877C165.985 14.1474 164.342 15.1745 162.904 16.4071C160.849 18.2559 158.59 19.8993 156.946 21.9536C156.33 22.7753 155.508 22.7753 154.687 22.3645C153.659 21.7482 154.687 21.1319 154.892 20.7211C155.508 19.6939 156.33 18.6668 157.152 17.4342C155.714 17.4342 154.687 17.6397 153.454 17.6397C152.632 17.6397 152.016 17.0234 151.811 16.4071C151.605 15.5854 152.427 15.1745 153.043 14.9691C155.097 14.1474 157.152 14.3528 159.411 13.7365C162.082 13.3257 164.547 13.1203 167.628 11.8877Z" fill="black"/>
<path d="M147.907 1C147.907 5.10854 149.345 8.80622 150.373 12.7093C150.783 13.9419 150.167 14.7636 149.345 14.969C147.907 15.3799 148.729 13.9419 148.318 13.3256C147.907 12.7093 147.702 11.8876 147.291 10.8605C145.442 12.2985 145.237 14.9691 143.388 16.2016C142.155 14.9691 141.95 13.7365 142.772 12.0931C144.621 8.60082 146.675 4.90311 147.907 1Z" fill="black"/>
<path d="M130.241 36.128C132.09 33.0466 133.938 29.7597 135.787 26.6783C135.993 26.2674 136.609 25.4458 137.431 25.8566C138.047 26.2675 138.458 26.8837 138.252 27.7054C138.047 28.7326 137.02 29.5543 137.02 30.7868C138.252 30.376 139.279 29.7597 140.307 29.5543C140.923 29.3489 141.745 28.7326 141.95 29.5543C142.361 30.376 141.539 30.7869 140.923 30.9923C138.663 32.4303 136.403 33.6628 133.938 34.69C132.911 35.1008 131.679 35.7171 130.652 36.3334C130.446 36.3334 130.241 36.3334 130.241 36.128Z" fill="black"/>
<path d="M159.001 35.3061C156.33 34.279 154.07 33.4572 152.221 32.2247C151.4 31.6084 149.962 31.1976 150.783 29.965C151.4 28.527 152.632 29.3487 153.454 29.965C153.659 30.1704 154.07 30.3759 154.481 30.5813C154.687 28.7324 153.659 27.7053 153.249 26.2673C153.043 25.651 152.632 24.8293 153.454 24.6239C154.07 24.4185 155.097 24.4185 155.303 25.2402C156.33 28.527 158.384 31.403 159.001 35.3061Z" fill="black"/>
<path d="M147.086 24.0078C147.907 26.2675 147.702 27.7055 147.497 29.3489C147.291 30.7869 145.853 30.9924 145.031 30.5815C144.004 30.1706 144.826 29.3489 145.237 28.7326C146.059 27.2947 146.469 25.8567 147.086 24.0078Z" fill="black"/>
<path d="M146.675 16.2014C146.88 17.6394 147.907 18.8719 146.675 19.8991C146.469 20.1045 144.826 20.31 144.826 19.6937C144.415 18.2557 145.648 17.2286 146.675 16.2014Z" fill="black"/>
<path d="M138.869 19.4885C140.512 19.283 142.361 18.8722 142.772 20.9264C142.772 21.3373 142.977 21.7482 142.566 22.159C142.155 22.5699 141.745 22.159 141.539 21.9536C140.718 21.1319 139.69 20.3102 138.869 19.4885Z" fill="black"/>
<path d="M140.307 27.0896C140.717 25.857 141.745 25.2407 142.566 24.6245C143.388 23.8028 144.004 24.2136 144.415 24.8299C145.031 25.6516 144.21 26.0625 143.593 26.2679C142.566 26.4733 141.745 27.0896 140.307 27.0896Z" fill="black"/>
<path d="M153.043 20.1044C151.605 20.5153 151.811 23.1858 149.756 22.1587C149.551 21.9532 148.729 21.5424 149.14 21.1315C149.962 19.899 151.4 19.6936 153.043 20.1044Z" fill="black"/>
<path d="M152.427 28.5272C149.962 27.5001 149.14 26.062 149.756 23.5969C150.783 24.8295 151.4 26.4729 152.427 28.5272Z" fill="black"/>
<path d="M292.323 37.7716C291.912 38.3878 291.706 39.0041 291.296 39.6204C290.679 40.853 290.063 41.0584 289.036 40.0312C287.803 39.0041 286.571 38.1824 285.338 36.9498C284.927 36.539 284.516 36.539 284.106 37.1553C283.284 37.977 282.668 39.0041 282.051 40.0312C281.846 40.2367 281.846 40.4421 281.64 40.6475C281.024 41.4692 280.408 41.6747 279.586 41.0584C278.764 40.4421 278.148 39.6204 277.532 38.7987C276.505 37.3607 275.478 35.9227 274.451 34.2793C274.04 33.663 274.04 33.663 273.218 33.8684C272.396 34.2793 271.575 34.6901 270.753 35.3064C270.342 35.7173 269.931 36.1282 269.315 35.7173C269.109 35.7173 269.109 35.7173 268.904 35.9227C266.644 37.977 264.179 40.0313 261.919 42.291C261.303 42.9072 260.892 43.5235 260.276 44.1398C258.427 46.8103 255.962 48.8646 253.292 50.9189C251.854 51.946 250.21 52.1514 248.361 52.3569C247.129 52.5623 246.102 52.3569 244.869 52.7677C244.047 52.9731 243.226 53.1786 242.609 53.384C242.198 53.5894 242.198 53.5894 242.404 54.0003C243.431 55.6437 244.458 57.0817 245.691 58.5197C247.129 60.3685 248.567 62.2174 249.799 64.2716C251.237 66.5313 253.086 68.3802 254.729 70.229C256.989 72.8996 259.249 75.5701 261.714 78.0352C263.152 79.4732 264.59 80.5004 266.233 81.7329C269.315 84.1981 272.602 86.4578 275.888 88.512C277.121 89.3337 278.354 89.95 279.792 90.3609C281.846 91.1826 284.106 92.2097 286.365 92.826C287.392 93.0314 288.42 93.0314 289.241 93.4423C289.652 93.6477 289.858 93.8531 289.858 94.264C289.858 94.8803 289.652 95.0857 289.036 95.0857C287.803 95.0857 286.571 94.6748 285.338 94.4694C283.9 94.0585 282.462 94.0585 281.024 93.8531C276.916 93.2368 272.807 92.4152 268.904 91.1826C264.59 89.95 260.481 88.3066 256.578 86.0469C253.292 84.1981 250.21 81.9384 247.334 79.4732C246.307 78.4461 245.28 77.419 244.458 76.1864C241.993 72.2833 239.322 68.5856 237.063 64.4771C235.009 60.574 232.749 56.4654 230.695 52.5623C228.64 48.6592 225.764 45.3723 222.888 42.0855C222.067 41.0584 221.039 40.0313 220.218 39.2096C218.574 37.3607 216.931 35.9227 214.671 34.8956C213.644 34.2793 212.617 33.663 212.206 32.6359C211.795 31.8142 211.179 31.1979 210.768 30.5816C209.946 29.3491 208.508 28.5273 207.276 27.7056C206.865 27.5002 206.454 27.5002 206.249 27.7056C205.427 28.1165 204.811 28.7328 204.194 29.349C201.729 31.4033 199.47 33.663 197.415 35.9227C197.21 36.1281 197.005 36.3336 196.799 36.539C195.772 37.7716 194.539 37.977 193.101 37.1553C191.663 36.539 190.225 35.5119 188.993 34.4847C188.787 34.2793 188.787 34.0739 188.582 34.4847C187.144 36.1281 185.295 37.3607 183.652 38.7987C179.543 42.4964 175.229 45.9886 171.121 49.6863C170.504 50.3026 169.683 50.9189 169.066 51.3297C167.834 52.1514 166.396 52.5623 164.958 52.3569C163.314 52.1514 161.671 52.3569 160.028 52.5623C159.411 52.7677 159.001 52.9732 158.59 53.1786C156.33 54.6166 154.276 56.0546 152.632 58.1088C151.4 59.7522 149.756 60.9848 148.113 62.0119C144.826 64.2716 141.334 66.3259 138.047 68.3802C135.993 69.6127 134.144 71.2562 131.884 72.4887C131.268 72.8996 130.857 72.8996 130.857 72.4887C130.652 71.8724 131.062 71.667 131.473 71.4616C135.993 68.5856 140.718 65.5042 145.237 62.6282C147.086 61.6011 148.729 60.3685 150.373 58.9305C150.989 58.3142 151.605 57.698 152.016 57.0817C153.659 55.0274 155.919 53.384 158.179 51.946C159.001 51.5352 159.822 51.1243 160.644 51.1243C162.082 50.9189 163.52 50.7135 164.958 50.9189C166.601 51.1243 167.834 50.7134 169.066 49.6863C170.915 48.2483 172.559 46.8104 174.202 45.3724C178.311 41.8801 182.214 38.3878 186.322 34.8956C186.939 34.2793 187.555 33.663 188.171 33.0467C188.787 32.4305 188.993 32.4305 189.404 33.0467C189.609 33.4576 189.815 33.663 190.225 33.8684C191.253 34.6901 192.074 35.3064 193.101 35.7173C194.334 36.3336 195.156 36.3336 196.183 35.3064C198.648 32.4304 201.318 29.9653 204.194 27.5002C204.811 27.0894 205.222 26.6785 205.838 26.2676C206.454 25.8568 207.07 25.8568 207.892 26.2676C209.33 27.2948 210.768 28.1165 211.795 29.5545C212.001 29.9653 212.412 30.3762 212.822 30.787C213.028 30.9925 213.233 30.9925 213.439 30.9925C217.547 32.225 221.45 34.0739 225.148 36.3336C225.559 36.539 225.97 36.9499 226.381 37.1553C229.667 39.0041 232.543 41.4692 235.214 44.1398C237.679 46.8103 239.939 49.4809 241.993 52.1515C242.198 52.3569 242.198 52.3569 242.404 52.1515C242.609 51.946 242.815 51.946 243.02 51.946C244.458 51.5352 246.102 51.1243 247.745 51.1243C248.978 51.1243 250.005 50.9189 251.237 50.7134C252.059 50.508 252.675 50.3026 253.292 49.8918C255.757 48.0429 258.222 45.7832 260.071 43.1127C260.892 41.8801 261.919 41.0584 262.947 40.0312C266.439 36.9498 269.931 33.663 273.423 30.5816C275.272 28.7328 277.326 27.2948 279.175 25.4459C279.997 24.8297 280.613 24.2134 281.23 23.3917C281.64 22.9808 281.846 22.57 282.257 22.1591C282.668 21.9537 283.078 21.9537 283.284 22.3645C284.106 23.5971 285.133 24.8296 285.954 26.0622C286.365 26.6785 286.982 27.5002 287.392 28.3219C288.214 29.7599 289.241 30.787 290.268 32.225C291.706 34.0739 292.939 35.9227 293.761 37.977C294.993 40.853 296.842 43.729 298.896 45.9886C300.129 47.2212 301.567 48.0429 303.416 47.8375C304.032 47.8375 304.648 47.8375 305.47 47.8375C307.113 47.6321 308.346 48.4537 309.373 49.6863C309.989 50.508 310.606 51.1243 311.017 51.946C312.249 53.5894 313.482 55.4383 314.714 57.0817C315.125 57.698 315.536 58.1088 315.947 58.7251C316.358 59.136 316.768 59.3414 317.385 59.136C317.59 59.136 317.796 59.136 317.796 59.136C319.85 58.3143 321.288 59.3414 322.52 60.5739C323.548 61.8065 324.369 63.0391 324.986 64.4771C325.602 66.3259 326.629 67.9693 327.862 69.4073C330.121 72.2833 332.586 75.3647 334.846 78.2407C335.668 79.2678 336.695 80.0895 337.722 80.7058C340.393 82.9655 343.474 84.4035 346.555 86.0469C346.966 86.2523 347.583 86.6632 347.993 86.8686C348.61 87.074 349.021 87.4849 349.637 87.6903C350.048 87.6903 350.253 87.8957 350.253 88.3066C350.253 88.7174 349.842 88.7174 349.431 88.7174C348.815 88.512 348.199 88.3066 347.788 87.8957C345.734 86.8686 343.679 85.8415 341.625 84.6089C338.338 82.7601 335.462 80.7058 333.203 77.6244C331.148 74.9538 329.094 72.4887 327.04 69.8182C325.807 68.3802 324.986 66.7368 324.164 64.8879C323.342 63.0391 322.315 61.6011 320.877 60.3685C320.261 59.9577 319.644 59.7522 319.028 59.9577C318.617 60.1631 318.001 60.1631 317.385 60.1631C317.179 60.1631 317.179 60.3685 317.179 60.5739C317.59 61.6011 318.001 62.6282 318.823 63.4499C319.644 64.2717 320.261 64.8879 321.082 65.5042C322.11 66.3259 322.931 67.3531 323.548 68.5856C324.78 70.6399 326.013 72.4887 327.451 74.543C328.067 75.5701 328.683 76.5973 329.3 77.6244C329.71 78.2407 330.327 78.8569 330.943 79.4732C332.175 80.2949 333.203 81.5275 334.23 82.7601C335.462 84.6089 336.9 86.2523 338.544 87.6903C339.16 88.3066 339.982 88.9229 340.803 89.3337C341.009 89.3337 341.009 89.5392 341.214 89.5392C341.42 89.7446 341.625 89.95 341.42 90.3609C341.214 90.5663 341.009 90.5663 340.598 90.3609C339.571 89.5392 338.544 88.9229 337.517 88.1012C335.873 86.6632 334.641 84.8143 333.203 83.1709C332.381 81.9384 331.148 80.9112 329.916 80.0895C329.3 79.6787 328.889 79.2678 328.683 78.6515C327.04 75.5701 324.78 72.6942 322.931 69.6128C322.11 68.3802 321.288 67.1476 320.261 66.3259C319.644 65.9151 319.234 65.2988 318.823 64.8879C317.796 63.8608 316.974 62.6282 316.768 61.1902C316.563 60.574 316.358 60.1631 315.947 59.9577C315.536 59.7522 315.125 59.3414 314.92 58.7251C313.276 56.26 311.633 53.7949 309.784 51.5352C309.373 50.7135 308.757 50.0972 307.935 49.6863C307.524 49.4809 306.908 49.2755 306.497 49.2755C305.675 49.2755 305.059 49.2755 304.237 49.4809C301.978 49.6863 300.129 48.6592 298.691 47.0158C296.226 44.3452 294.582 41.2638 293.144 38.1824C292.528 37.977 292.528 37.7716 292.323 37.7716Z" fill="black"/>
<path d="M288.42 80.295C289.447 80.5005 290.063 80.7059 290.679 81.3222C291.912 82.7602 292.117 85.0198 290.268 86.6632C289.036 87.8958 285.954 88.5121 284.106 86.8687C283.695 86.4578 283.284 86.047 283.078 85.4307C283.078 85.0199 283.078 84.609 283.284 84.4036C283.695 83.9927 284.106 84.1981 284.516 84.4036C284.927 84.609 285.133 84.8144 285.133 85.2253C285.133 85.6361 285.338 85.6361 285.544 85.8416C286.16 86.2524 287.187 86.047 287.803 85.6361C288.009 85.4307 288.42 85.0198 288.625 84.8144C289.036 84.4036 289.036 83.9927 288.83 83.3764C288.625 82.9656 288.214 82.9656 287.803 82.9656C287.187 82.9656 286.365 81.9384 286.776 81.3222C286.982 80.7059 286.982 80.0896 287.187 79.2679C287.187 79.0625 287.187 79.0625 286.982 78.857C286.776 78.6516 286.776 78.2408 286.776 77.8299C286.776 77.4191 286.982 77.2136 287.392 77.2136C287.803 77.2136 288.009 77.419 288.214 77.6245C288.625 78.6516 288.625 78.6516 289.652 78.4462C290.679 78.4462 291.706 78.2407 292.733 78.4462C293.35 78.4462 293.555 78.857 293.555 79.2679C293.555 79.6787 293.144 80.0896 292.733 79.8842C291.501 79.8842 290.268 79.8842 289.036 79.8842C288.83 80.295 288.625 80.0896 288.42 80.295Z" fill="black"/>
<path d="M312.66 79.4731C313.892 79.4731 315.125 79.6786 315.947 80.9112C316.358 81.5274 316.563 82.3491 316.358 82.9654C316.152 84.8143 314.714 86.4577 313.071 86.8685C309.989 87.4848 308.551 84.4034 309.373 82.3491C309.784 81.322 310.4 80.5003 311.222 79.884C311.633 79.4732 312.044 79.4731 312.66 79.4731ZM311.633 83.7871C311.633 83.9926 311.633 84.198 311.838 84.198C312.044 84.198 312.249 84.4034 312.454 84.198C313.071 83.5817 313.687 82.9654 314.098 82.1437C314.303 81.9383 314.098 81.7328 313.892 81.5274C313.276 81.322 312.454 81.7329 312.249 82.3491C311.838 82.76 311.633 83.3763 311.633 83.7871Z" fill="black"/>
<path d="M161.26 78.4458C160.028 78.4458 159.411 78.035 159.001 76.8024C159.001 76.3916 158.795 75.9807 158.795 75.3644C158.795 75.159 158.795 74.9536 158.384 74.9536C158.384 74.9536 158.384 74.9536 158.179 74.9536C156.33 74.7482 155.508 73.3102 156.33 71.6668C156.741 71.0505 157.357 70.4342 158.179 70.4342C158.384 70.4342 158.59 70.2288 158.795 70.2288C159.617 70.2288 160.233 70.8451 160.233 71.6668C160.233 72.2831 160.233 72.6939 160.028 73.3102C159.822 73.721 160.028 73.721 160.439 73.721C161.055 73.721 161.671 73.721 162.287 73.721C163.109 73.9265 163.52 74.5427 163.725 75.3644C163.931 76.1861 163.725 77.0079 162.904 77.6241C162.493 78.2404 161.877 78.2404 161.26 78.4458ZM161.671 76.597C161.877 76.597 162.082 76.597 162.082 76.597C162.287 76.597 162.493 76.597 162.493 76.3916C162.493 76.1861 162.287 75.9807 162.082 75.9807C161.671 75.7753 161.26 75.5699 160.849 75.7753C160.644 75.7753 160.439 75.7753 160.439 75.9807C160.439 76.1861 160.439 76.3916 160.644 76.597C161.055 76.597 161.26 76.597 161.671 76.597Z" fill="black"/>
<path d="M225.97 69.2019C224.943 69.4073 224.121 68.791 223.505 68.1747C223.299 67.7639 223.094 67.353 223.299 67.1476C223.505 66.7367 224.121 66.7368 224.532 66.9422C224.943 67.1476 225.353 67.1476 225.764 67.353C226.586 67.5585 226.997 67.353 227.408 66.7367C227.819 66.1205 227.819 65.2988 228.024 64.6825C228.024 64.477 228.024 64.4771 227.819 64.4771C227.408 64.4771 226.997 64.4771 226.586 64.4771C225.559 64.2716 224.943 63.4499 224.943 62.2174C224.943 61.8065 224.943 61.3956 225.148 60.9848C225.559 60.1631 225.559 60.1631 226.381 60.1631C226.791 60.1631 227.408 60.1631 227.819 60.1631C228.64 60.3685 229.257 60.7794 229.873 61.3957C230.284 62.0119 230.284 62.8336 229.873 63.4499C229.667 63.6554 229.667 64.0662 229.667 64.2716C229.667 65.5042 229.462 66.7367 228.846 67.7639C228.024 68.5856 227.202 69.2019 225.97 69.2019ZM226.791 61.3957C226.586 61.3957 226.381 61.1902 226.175 61.6011C226.175 61.8065 226.175 62.0119 226.381 62.0119C226.791 62.2173 227.408 62.4228 227.819 62.2174C228.229 62.2174 228.229 62.0119 228.024 61.6011C227.819 61.3956 227.408 61.3957 226.791 61.3957Z" fill="black"/>
<path d="M282.051 51.1241C281.846 51.3295 281.64 51.5349 281.23 51.7404C280.408 52.3567 279.175 52.5621 278.148 51.9458C277.121 51.3295 276.916 49.6861 277.737 48.659C278.148 48.0427 278.97 47.6318 279.792 47.6318C280.202 47.6318 280.613 47.6318 281.024 47.6318C281.64 47.6318 282.257 48.0427 282.462 48.659C282.873 49.4807 283.284 50.3024 283.9 51.1241C284.311 51.7404 284.516 52.3567 284.722 53.1784C284.722 54.411 284.106 55.4381 282.668 55.6435C282.051 55.6435 281.23 55.8489 280.819 55.2327C280.202 54.8218 280.408 54.2055 280.819 53.7946C281.23 53.5892 281.435 53.1784 282.051 53.3838C282.257 53.3838 282.257 53.1784 282.257 53.1784C282.257 52.5621 282.257 51.7404 282.051 51.1241ZM279.792 50.7132C280.202 50.7132 280.819 50.097 280.819 49.8915C280.819 49.6861 280.202 49.0699 279.792 49.0699C279.175 49.0699 278.764 49.4807 278.97 50.097C278.97 50.7133 279.175 50.9187 279.792 50.7132Z" fill="black"/>
<path d="M263.974 54.8221C263.768 54.8221 263.563 55.233 263.357 55.233C262.741 55.6439 261.919 55.4384 261.919 54.6167C261.714 53.3842 262.536 52.5624 263.768 52.357C264.795 52.1516 265.823 52.5625 266.028 53.5896C266.028 54.0004 266.028 54.2059 266.028 54.6167C266.028 54.8222 266.028 55.0276 266.439 55.0276C267.466 55.233 268.288 55.8493 268.904 56.671C269.52 57.4927 269.52 58.3144 269.109 58.9307C268.288 60.3687 266.644 61.1904 265.001 60.5741C264.59 60.3687 263.974 59.547 264.179 58.9307C264.179 58.5198 264.59 58.3144 265.206 58.3144C265.412 58.3144 265.617 58.5198 265.823 58.5198C266.028 58.7253 266.233 58.7253 266.439 58.7253C267.261 58.7253 267.466 58.5198 267.055 57.9035C266.85 57.4927 266.644 57.0818 266.233 56.8764C265.823 56.671 265.617 56.671 265.206 56.8764C264.795 57.2873 264.179 57.0818 263.974 56.8764C263.563 56.4656 263.563 56.0547 263.974 55.6439C263.974 55.0276 263.974 55.0276 263.974 54.8221Z" fill="black"/>
<path d="M233.16 70.8455C232.543 71.051 231.927 71.051 231.516 71.2564C231.311 71.4618 230.9 71.4618 230.695 71.051C230.489 70.6401 230.695 70.4347 231.105 70.2292C231.311 70.0238 231.516 70.0238 231.722 70.0238C232.543 69.8184 233.16 69.613 233.981 69.4076C234.392 69.4076 234.803 69.2021 235.009 69.613C235.214 70.0238 235.009 70.2293 234.598 70.6401C234.187 71.051 233.776 71.6673 233.365 72.0781C233.571 72.2835 233.571 72.0781 233.776 72.0781C234.803 72.0781 235.419 72.6944 235.83 73.5161C236.447 75.9812 234.187 78.0355 232.338 78.2409C231.311 78.2409 230.284 78.0355 229.667 77.2138C229.257 76.8029 229.051 76.3921 229.257 75.7758C229.462 75.1595 229.873 74.9541 230.489 74.9541C231.105 74.9541 231.311 75.3649 231.105 75.7758C231.105 75.9812 231.105 75.9812 231.311 76.1866C231.927 76.3921 232.749 76.1867 233.16 75.7758C233.571 75.3649 233.776 74.9541 233.981 74.3378C234.187 74.1324 234.187 73.9269 233.776 73.9269C233.16 73.9269 232.749 73.7215 232.133 73.9269C231.927 73.9269 231.516 73.927 231.516 73.7215C231.311 73.5161 231.105 73.1052 231.311 72.8998C231.516 72.489 231.927 71.8727 232.133 71.4618C232.543 71.6672 232.954 71.4618 233.16 70.8455Z" fill="black"/>
<path d="M304.854 60.9846C305.47 60.9846 305.881 61.6009 305.47 62.2172C304.854 63.2443 304.443 64.2715 303.621 65.0932C303.416 65.2986 303.416 65.504 303.827 65.7094C304.237 65.9149 304.443 66.3257 304.854 66.1203C305.059 66.1203 305.265 65.504 305.47 65.2986C305.675 64.8877 305.881 64.4769 306.292 64.2715C306.497 63.8606 306.908 63.6552 307.319 63.8606C307.73 64.066 307.73 64.4769 307.73 64.8878C307.73 65.0932 307.524 65.2986 307.524 65.504C307.319 65.9149 307.113 66.3257 306.908 66.5312C306.703 66.7366 306.703 66.942 307.113 66.942C307.524 67.1474 307.935 67.3529 308.551 67.5583C309.168 67.7637 309.373 68.1746 309.168 68.5854C308.962 68.9963 308.551 69.2017 307.935 68.9963C307.319 68.7909 306.908 68.5854 306.292 68.38C306.086 68.1746 305.881 68.38 305.881 68.5854C305.675 69.4072 305.265 70.0234 304.854 70.8451C304.854 71.0505 304.854 71.0506 304.648 71.0506C304.443 71.4614 304.032 71.6668 303.621 71.4614C303.21 71.256 303.005 70.8451 303.21 70.4343C303.621 69.6126 303.827 68.7908 304.237 68.1746C304.443 67.7637 304.237 67.7637 304.032 67.5583C303.416 67.1475 302.799 66.942 301.978 66.7366C301.361 66.7366 301.156 65.9149 301.567 65.504C303.005 64.4769 303.621 63.0389 304.443 61.8063C304.237 61.1901 304.443 60.9846 304.854 60.9846Z" fill="black"/>
<path d="M241.788 80.7058C241.788 82.9655 241.171 84.8144 239.528 86.6632C238.912 87.2795 238.09 87.6904 237.268 87.2795C236.447 87.0741 236.036 86.2524 236.036 85.4307C235.83 83.3764 236.241 81.3221 237.268 79.6787C237.884 78.6516 238.706 78.2407 239.939 78.2407C240.966 78.2407 241.582 79.0624 241.788 80.0896C241.582 80.295 241.788 80.5004 241.788 80.7058ZM237.474 84.6089C237.474 84.8144 237.474 85.0198 237.474 85.2252C237.474 85.4307 237.474 85.6361 237.885 85.8415C238.09 85.8415 238.295 85.8415 238.501 85.6361C239.733 84.1981 240.35 82.5547 240.35 80.7058C240.35 80.0896 239.733 79.8841 239.322 80.0896C239.117 80.295 238.912 80.5004 238.706 80.7058C237.679 81.733 237.474 83.171 237.474 84.6089Z" fill="black"/>
<path d="M211.795 73.1053C211.384 73.1053 211.179 73.1052 210.768 73.3107C210.563 73.5161 210.152 73.3107 209.946 73.1053C209.741 72.489 209.33 71.6673 208.919 71.051C208.508 70.0239 208.919 69.4076 209.946 69.2021C210.768 68.9967 211.384 68.9967 212.206 68.7913C212.822 68.5859 213.233 68.7913 213.233 69.2021C213.233 69.613 213.028 69.8184 212.412 69.8184C211.795 70.0238 210.974 70.0238 210.357 70.2293C209.946 70.2293 209.946 70.4347 210.152 70.8456C210.152 71.051 210.357 71.051 210.357 71.2564C210.357 71.4618 210.563 71.4618 210.768 71.4618C211.795 71.051 213.028 71.051 214.055 71.4618C215.493 71.8727 216.52 73.3107 216.315 74.7487C216.315 75.1595 216.109 75.5704 215.904 75.7758C215.082 76.803 213.439 77.2138 212.206 76.3921C211.795 75.9812 211.384 75.5704 211.59 74.9541C211.795 74.5432 212.206 74.3378 212.822 74.3378C213.028 74.3378 213.439 74.3378 213.644 74.3378C213.85 74.3378 214.055 74.3378 214.055 74.1324C214.055 73.927 214.055 73.7216 213.85 73.7216C213.439 73.5161 213.233 73.3107 212.617 73.3107C212.617 73.1052 212.206 73.1053 211.795 73.1053Z" fill="black"/>
<path d="M293.144 70.0237C293.35 70.0237 293.35 70.0237 293.555 70.0237C293.966 69.8183 294.172 70.0237 294.377 70.2292C294.582 70.4346 294.582 70.8455 294.377 71.0509C293.966 71.6672 293.35 71.8726 292.734 71.8726C292.323 71.8726 292.117 72.078 291.912 72.4889C291.706 72.8997 291.501 73.3106 291.501 73.9268C291.501 74.3377 291.296 74.5431 290.885 74.5431C290.474 74.5431 290.063 74.3377 290.063 73.9268C290.063 73.516 290.063 73.1052 290.268 72.6943C290.268 72.4889 290.474 72.2834 290.474 72.078C290.268 72.078 290.063 72.2834 289.858 72.2834C289.447 72.4889 289.036 72.2834 288.83 72.078C288.625 71.6672 288.83 71.2563 289.241 71.0509C289.858 70.64 290.474 70.4346 291.09 70.4346C291.296 70.4346 291.501 70.2292 291.706 70.0237C291.912 69.6129 292.323 68.9966 292.528 68.3803C291.912 68.3803 291.501 68.3803 290.885 68.3803C290.679 68.3803 290.679 68.5858 290.679 68.5858C290.474 68.9966 290.063 69.202 289.652 68.7912C289.241 68.5857 288.83 68.3803 288.625 67.9695C288.42 67.7641 288.214 67.5586 288.42 67.1478C288.625 66.7369 288.83 66.5315 289.241 66.5315C289.652 66.5315 290.063 66.5315 290.474 66.5315C291.501 66.7369 292.528 66.5315 293.761 66.5315C294.172 66.5315 294.582 66.5315 294.788 66.9423C294.993 67.3532 294.993 67.764 294.788 68.1749C293.761 68.7912 293.555 69.4075 293.144 70.0237Z" fill="black"/>
<path d="M223.505 55.0276C223.915 54.6168 224.121 54.2059 224.326 53.7951C224.737 53.1788 225.148 52.7679 225.97 52.7679C226.586 52.7679 227.202 52.9734 227.819 53.1788C228.846 53.5897 229.257 54.6168 229.051 55.6439C228.846 56.6711 227.819 57.2873 226.791 57.4928C224.737 57.6982 223.299 56.6711 222.272 55.0276C221.861 54.4114 221.861 53.5896 222.067 52.7679C222.477 51.9462 222.888 51.1245 223.71 50.5083C224.326 50.0974 224.737 50.0974 225.353 50.0974C225.764 50.0974 225.97 50.3028 225.97 50.7137C225.97 51.1245 225.559 51.1245 225.353 51.1245C223.915 51.1245 222.683 52.768 222.888 54.0005C223.094 54.6168 223.299 54.8222 223.505 55.0276ZM226.175 56.4656C226.381 56.4656 227.408 55.6439 227.408 55.4385V55.2331C227.408 55.0277 226.997 54.8222 226.791 54.6168C226.381 54.4114 225.764 54.4114 225.353 54.8222C224.943 55.2331 224.737 55.6439 224.737 56.0548C224.943 56.4656 225.764 56.4656 226.175 56.4656Z" fill="black"/>
<path d="M192.691 70.8453C191.869 70.8453 191.047 70.8453 190.02 71.0507C189.404 71.0507 188.787 70.4344 188.582 70.0236C188.582 69.6127 188.993 68.9964 189.609 68.791C189.815 68.791 190.02 68.791 190.225 68.9965C190.431 69.2019 190.431 69.4073 190.225 69.6127C190.225 69.8182 190.02 69.8182 190.02 69.8182C190.225 70.0236 190.431 70.0236 190.431 70.0236C191.663 70.0236 192.896 69.8182 194.128 69.4073C194.539 69.2019 194.745 69.2019 194.95 69.6127C195.156 70.0236 194.745 70.229 194.539 70.4344C194.334 70.4344 194.129 70.6399 193.923 70.8453C193.512 71.4616 193.101 72.0779 192.896 72.6941C192.691 72.8996 192.896 72.8996 193.101 72.8996C193.718 72.8996 194.128 73.3104 194.128 73.9267C194.128 74.1321 193.923 74.3375 193.718 74.3375C193.512 74.3375 193.512 74.3375 193.307 74.3375C192.074 74.3375 192.074 74.3376 191.869 75.5701C191.869 75.981 191.663 76.3918 191.663 76.8027C191.663 77.2135 191.458 77.4189 191.047 77.4189C190.636 77.4189 190.636 77.0081 190.636 76.5972C190.636 75.981 190.842 75.3647 191.047 74.7484C191.047 74.543 191.047 74.3375 190.842 74.3375C190.02 74.3375 189.404 73.7213 189.609 72.8996C189.609 72.4887 189.815 72.4887 190.225 72.4887C190.636 72.4887 191.047 72.4887 191.663 72.4887C191.869 72.4887 192.074 72.4887 192.28 72.0779C192.485 71.667 192.485 71.4616 192.691 71.0507C192.28 71.4616 192.485 71.2561 192.691 70.8453Z" fill="black"/>
<path d="M290.063 47.6319C289.652 47.8374 289.447 48.0428 289.241 48.2482C288.83 48.4537 288.42 48.4537 288.214 48.2482C288.009 47.8374 288.009 47.4265 288.42 47.2211C289.241 46.6048 289.858 45.9886 290.268 44.9614C290.474 44.756 290.679 44.5505 291.09 44.5505C291.501 44.5505 291.706 44.9614 291.706 45.3723C291.912 46.3994 291.912 47.4265 292.117 48.4537C292.323 49.2754 292.733 50.0971 292.733 50.9188C292.733 51.1242 292.733 51.1242 292.939 51.3296C293.144 51.3296 293.35 51.5351 293.555 51.5351C293.761 51.7405 293.966 52.1513 293.761 52.3568C293.555 52.5622 293.35 52.973 293.144 52.7676C291.912 52.3568 290.885 52.7676 289.858 52.9731H289.652C289.241 52.9731 288.83 52.7676 288.83 52.3568C288.83 51.9459 289.036 51.5351 289.447 51.5351C289.858 51.3296 290.474 51.3296 291.09 51.3296C291.296 51.3296 291.501 51.3296 291.501 50.9188C291.296 50.0971 291.09 49.0699 290.885 48.2482C290.063 48.0428 290.063 48.0428 290.063 47.6319Z" fill="black"/>
<path d="M170.504 72.0777C171.121 71.6668 171.737 71.2559 172.353 71.0505C172.559 71.0505 172.353 70.8451 172.353 70.6397C172.148 70.0234 172.148 69.4071 172.148 68.9962C172.148 68.7908 172.148 68.38 172.559 68.38C172.764 68.1745 172.97 68.38 173.38 68.5854C173.791 68.7908 173.997 69.2017 173.997 69.8179C173.997 70.6397 173.997 70.6396 174.613 70.2288C174.818 70.2288 174.818 70.2288 175.024 70.0234C175.229 70.0234 175.64 70.0234 175.64 70.4342C175.64 70.6397 175.64 70.8451 175.435 71.0505C175.229 71.2559 174.818 71.2559 174.613 71.4614C174.408 71.4614 174.408 71.6668 174.408 71.8722C174.613 72.6939 174.818 73.3102 175.024 74.1319C175.229 74.5428 175.024 75.159 174.408 75.3645C173.997 75.5699 173.791 75.3645 173.586 74.7482C173.38 74.1319 173.175 73.3102 172.97 72.4885C172.97 72.0776 172.764 72.0776 172.353 72.2831C171.737 72.4885 171.121 72.8993 170.71 73.3102C170.504 73.5156 170.094 73.7211 169.683 73.5156C169.272 73.3102 169.272 72.8994 169.272 72.6939C169.272 71.4614 169.066 70.0234 169.066 68.7908C169.066 68.5854 169.066 68.38 169.066 68.38C169.066 68.1745 169.272 67.7637 169.477 67.7637C169.888 67.7637 169.888 67.9691 170.094 68.1745C170.299 68.9962 170.299 69.818 170.299 70.6397C170.504 70.8451 170.504 71.4614 170.504 72.0777Z" fill="black"/>
<path d="M200.702 80.9112C199.059 80.9112 198.237 79.8841 198.853 78.2407C198.853 78.0352 198.853 78.0352 199.059 78.0352C199.264 77.8298 199.059 77.6244 198.853 77.4189C198.032 76.8026 197.415 75.9809 197.415 74.9538C197.415 73.9267 198.237 73.105 199.264 73.3104C199.675 73.3104 199.88 73.105 200.291 73.105C201.113 73.105 201.318 73.5158 201.318 74.1321C201.318 75.1593 201.113 75.981 200.702 76.8027C200.497 77.0081 200.497 77.2135 200.908 77.4189C201.524 77.8298 201.935 78.2407 202.14 78.8569C202.346 80.2949 201.935 80.9112 200.702 80.9112ZM199.264 74.3375C198.648 74.3375 198.442 74.543 198.442 75.1593C198.442 75.981 199.059 76.3918 199.47 76.8027C199.675 77.0081 199.675 76.8027 199.675 76.5972C199.88 75.981 200.086 75.3647 200.291 74.543C200.291 74.3375 200.291 74.1321 199.88 74.1321C199.675 74.1321 199.47 74.1321 199.264 74.3375ZM200.702 79.8841C200.908 79.8841 201.113 79.8841 201.113 79.4732C201.113 79.0623 200.291 78.2407 200.086 78.2407C199.675 78.4461 199.675 78.8569 199.675 79.2678C199.675 79.6786 200.086 79.8841 200.702 79.8841Z" fill="black"/>
<path d="M202.551 38.5933C202.551 39.415 202.346 40.4421 201.935 41.2638C201.729 41.6747 201.935 41.6747 202.14 41.8801C202.551 41.8801 202.962 42.0855 203.373 42.0855C203.784 42.0855 204.194 42.0855 204.4 41.6747C204.4 41.4693 204.811 41.2638 205.016 41.4692C205.222 41.4692 205.427 41.8801 205.427 42.0855C205.427 42.7018 204.811 43.3181 204.194 43.3181C203.373 43.3181 202.551 43.3181 201.935 43.1127C201.729 42.9072 201.524 42.9072 201.318 43.3181C201.113 43.5235 200.908 43.7289 200.702 43.7289C200.291 43.9344 199.675 43.9344 199.47 43.5235C199.264 43.1127 199.264 42.4964 199.675 42.291C199.881 42.0855 200.291 41.8801 200.702 41.8801C200.908 41.8801 201.113 41.8801 201.318 41.6747C201.729 40.6475 202.14 39.8258 201.935 38.7987C201.935 38.5933 201.935 38.3878 201.729 38.3878C201.729 38.1824 201.524 38.1824 201.318 38.1824C201.113 38.1824 201.113 38.3878 201.113 38.5933V38.7987C201.113 39.0041 201.113 39.415 200.702 39.415C200.291 39.415 200.086 39.2095 200.086 39.0041C199.881 38.1824 200.086 37.5661 200.702 37.3607C201.524 36.9498 202.346 37.1553 202.756 37.977C202.551 37.5661 202.551 37.977 202.551 38.5933Z" fill="black"/>
<path d="M271.164 46.1943C270.958 46.3997 270.753 46.6052 270.547 46.8106C269.931 47.2214 269.315 47.4269 268.699 47.2214C268.082 47.2214 267.671 46.8106 267.466 46.1943C267.261 45.3726 267.261 44.7563 267.877 44.14C268.699 43.3183 269.931 43.1129 270.958 43.7292C271.369 43.9346 271.78 44.3455 271.575 44.9618C271.575 45.3726 271.575 45.578 271.78 45.7835C271.985 46.3997 272.396 47.016 272.396 47.6323C272.602 48.2486 272.396 48.6594 271.985 49.0703C271.369 49.4812 270.753 49.892 269.931 49.892C269.726 49.892 269.52 49.892 269.315 49.6866C269.109 49.4811 268.699 49.2757 268.904 49.0703C269.109 48.6594 269.315 48.8649 269.52 48.8649C270.342 49.0703 270.958 48.8649 271.575 48.2486C271.78 48.0431 271.78 47.8377 271.78 47.8377C271.575 47.2214 271.369 46.8106 271.164 46.1943ZM269.726 44.3455C269.315 44.5509 268.699 44.7563 268.493 45.3726C268.082 45.9889 268.493 46.6052 269.109 46.6052C269.726 46.6052 270.137 46.3997 270.342 45.9889C270.547 45.7835 270.753 45.578 270.342 45.1672L270.137 44.9618C270.547 44.1401 270.137 44.3455 269.726 44.3455Z" fill="black"/>
<path d="M184.268 51.9459C184.268 51.7404 184.268 51.3296 184.268 51.1242C184.474 50.7133 184.268 50.5079 183.857 50.3024C183.035 49.6861 182.419 49.0699 182.625 48.0428C182.83 47.221 183.035 47.0156 183.857 46.8102C184.268 46.8102 184.679 46.6047 185.09 46.6047C185.706 46.6047 186.117 47.0156 186.117 47.6319C186.117 48.4536 185.911 49.0699 185.706 49.6861C185.501 50.097 185.501 50.5078 185.911 50.7133C186.322 50.9187 186.528 51.1241 186.733 51.3296C187.349 52.1513 187.144 52.973 186.117 53.3838C185.911 53.3838 185.911 53.3838 185.706 53.5893C184.679 53.5893 184.268 53.1784 184.268 51.9459ZM183.446 48.2482C183.446 48.659 184.063 49.4807 184.679 49.6861C184.884 49.6861 184.884 49.6862 184.884 49.4807C185.09 48.8645 185.501 48.2482 185.501 47.6319C185.501 47.221 185.295 47.221 185.09 47.221C184.679 47.221 184.474 47.4265 184.268 47.4265C183.446 47.6319 183.446 47.8373 183.446 48.2482ZM185.09 51.9459C185.09 52.1513 185.09 52.3567 185.295 52.5621C185.501 52.7676 186.322 52.5621 186.322 52.3567C186.528 51.9458 186.322 51.7404 185.911 51.535C185.706 51.3296 185.501 51.1241 185.295 51.3296C185.09 51.1241 185.09 51.535 185.09 51.9459Z" fill="black"/>
<path d="M179.749 65.2988C180.776 65.9151 181.598 65.7097 182.419 65.5043C182.83 65.2988 183.241 65.0934 183.446 64.888C183.652 64.6826 183.857 64.6826 184.063 64.888C184.268 65.0934 184.063 65.2988 183.857 65.5043C182.83 66.1205 181.803 66.5314 180.57 66.326C179.543 66.326 178.927 65.7097 178.516 64.888C178.516 64.888 178.516 64.6826 178.516 64.4771C178.722 63.45 179.132 62.8337 180.16 62.4229C181.187 62.012 182.008 61.8066 183.036 62.012C183.446 62.012 183.857 62.2174 184.063 62.6283C184.063 63.0391 183.857 63.45 183.446 63.6554C182.625 64.2717 181.392 64.6826 180.365 64.888C180.16 65.0934 180.16 65.2988 179.749 65.2988ZM183.036 63.2446C181.598 63.0391 179.954 63.6554 179.749 64.4771C180.776 64.0663 182.008 63.8608 183.036 63.2446Z" fill="black"/>
<path d="M274.861 74.9536C275.067 74.9536 275.272 74.9536 275.683 74.9536C276.71 75.159 276.916 76.3916 276.299 77.2133C276.094 77.4188 275.888 77.6242 275.683 77.6242C275.272 77.8296 275.272 78.035 275.478 78.2405C275.683 78.6513 276.094 79.2676 276.094 79.6784C276.299 80.5001 275.888 81.1164 275.067 81.3219C274.245 81.5273 273.423 81.5273 272.602 80.911C272.191 80.2947 271.985 79.6784 272.396 79.0622C272.807 78.6513 273.012 78.035 273.629 77.8296C274.04 77.6242 274.04 77.4187 273.834 77.0079C273.629 76.8025 273.629 76.3916 273.629 75.9807C273.629 75.3645 274.04 75.159 274.861 74.9536ZM274.245 80.911C274.45 80.911 274.656 80.911 274.861 80.7056C275.067 80.5001 275.272 80.5001 275.272 80.0893C275.272 79.473 274.861 78.8567 274.45 78.4459C274.04 78.6513 273.834 79.0622 273.423 79.2676C273.218 79.473 273.012 79.8839 273.218 80.0893C273.423 80.911 273.629 80.911 274.245 80.911ZM274.45 76.3916C274.45 76.597 274.45 77.0079 274.861 77.2133C275.067 77.2133 275.683 76.597 275.683 76.1862C275.683 75.5699 275.067 75.7753 274.861 75.7753C274.45 75.7753 274.656 76.1862 274.45 76.3916Z" fill="black"/>
<path d="M199.675 64.8878C199.47 65.5041 199.675 65.7095 200.291 65.7095C200.702 65.7095 201.113 66.1204 201.524 66.5312C201.935 67.3529 202.14 67.9692 201.935 68.9963C201.935 69.4072 201.729 69.6126 201.524 69.818C200.908 70.2289 200.086 70.6398 199.264 70.6398C198.853 70.6398 198.442 70.2289 198.442 69.818C198.442 69.6126 198.648 69.4072 198.853 69.2018C199.059 69.2018 199.264 69.2018 199.264 69.4072C199.264 69.6126 199.47 69.6126 199.675 69.6126C199.88 69.6126 199.88 69.6126 200.086 69.6126C201.318 69.2018 201.524 68.7909 201.113 67.5584C200.908 66.7367 199.88 66.3258 199.264 67.1475C199.059 67.3529 198.853 67.3529 198.648 67.3529C198.442 67.3529 198.237 67.3529 198.032 67.1475C197.826 66.9421 198.032 66.5312 198.237 66.3258C198.237 66.3258 198.237 66.3258 198.442 66.3258C198.648 66.1204 199.059 66.1204 199.059 65.9149C199.059 65.5041 199.059 65.0932 199.059 64.6824C199.059 64.2715 198.853 64.2715 198.442 64.2715C197.621 64.2715 197.004 64.6824 196.799 65.2987C196.799 65.5041 196.594 65.7095 196.388 65.7095C196.183 65.7095 195.977 65.5041 196.183 65.0932C196.183 64.8878 196.388 64.4769 196.388 64.2715C197.004 63.4498 197.826 63.2444 198.648 63.2444C199.264 63.2444 199.675 63.6552 199.675 64.2715C199.675 64.2715 199.675 64.477 199.675 64.8878Z" fill="black"/>
<path d="M200.086 50.9187C198.648 51.1241 197.826 50.097 198.237 48.8644C198.442 48.2481 198.648 47.8373 199.264 47.6318C200.086 47.6318 200.908 47.6319 201.318 48.4536C201.729 48.8644 201.524 49.4807 201.318 49.8915C201.113 50.3024 201.113 50.5078 201.318 50.7132C201.524 51.3295 201.729 51.9458 201.729 52.7675C201.729 53.1784 201.524 53.5892 201.318 53.7946C200.497 54.4109 199.264 54.2055 198.442 53.5892C198.237 53.3838 198.032 53.1784 198.237 52.7675C198.237 52.5621 198.442 52.3567 198.648 52.3567C198.853 52.3567 199.059 52.5621 199.059 52.7675C199.264 53.3838 199.47 53.3838 200.291 53.3838C200.908 53.3838 200.908 53.1784 200.908 52.5621C200.908 52.1512 200.908 51.9458 200.702 51.535C200.702 51.1241 200.497 50.7133 200.086 50.9187ZM199.059 49.4807V49.6861C199.264 50.097 199.47 50.097 199.88 50.097C200.291 50.097 200.291 49.8916 200.291 49.4807C200.291 49.2753 200.291 49.0699 200.497 49.0699C200.702 49.0699 200.702 48.8644 200.497 48.8644C200.086 48.659 199.675 48.4535 199.47 48.659C199.059 48.659 199.059 49.0698 199.059 49.4807Z" fill="black"/>
<path d="M271.369 68.5855C271.985 68.3801 272.396 68.3801 272.807 68.1746C273.012 68.1746 273.012 67.9692 273.012 67.7638C273.012 67.1475 273.012 66.5312 273.218 65.9149C273.218 65.7095 273.218 65.2987 273.629 65.2987C274.04 65.2987 274.04 65.7095 274.04 65.9149C274.04 66.3258 274.04 66.7366 274.04 67.1475C274.04 67.5583 273.834 67.9692 274.45 68.1746C274.656 68.3801 274.656 68.5855 274.45 68.7909C274.245 68.9963 274.245 68.9963 274.245 69.4072C274.245 70.2289 274.245 70.8452 274.656 71.6669C274.861 71.8723 274.861 72.0777 274.656 72.2832C274.45 72.4886 274.245 72.2832 274.04 72.0778C273.629 71.6669 273.629 71.2561 273.423 70.6398C273.423 70.2289 273.423 70.0235 273.423 69.6126C273.423 69.4072 273.423 69.2018 273.012 69.4072C272.396 69.6126 271.78 69.8181 271.164 70.0235C270.958 70.2289 270.753 70.2289 270.547 70.0235C270.342 69.8181 270.342 69.6126 270.342 69.4072C270.958 68.1746 270.958 66.5312 271.369 65.2987C271.369 65.0932 271.369 65.0932 271.574 64.8878C271.574 64.6824 271.78 64.6824 271.985 64.6824C272.191 64.6824 272.396 64.8878 272.396 65.0932C272.396 65.2986 272.396 65.5041 272.396 65.7095C271.985 66.5312 271.78 67.5584 271.369 68.5855Z" fill="black"/>
<path d="M206.454 33.8685V34.074C206.454 34.2794 206.454 34.4848 206.454 34.6903C206.66 34.8957 206.865 34.6903 207.07 34.6903C207.276 34.6903 207.481 34.6903 207.687 35.1011C207.687 35.3065 207.687 35.512 207.276 35.7174C207.07 35.9228 206.66 35.7174 206.454 36.1283C206.249 36.5391 206.454 36.95 206.454 37.1554C206.454 37.3608 206.454 37.5663 206.454 37.7717C206.454 38.1825 206.454 38.3879 206.043 38.3879C205.632 38.3879 205.427 38.1825 205.427 37.7717C205.427 37.3608 205.427 36.95 205.427 36.7445C205.427 36.5391 205.427 36.3337 205.016 36.5391C204.811 36.5391 204.605 36.7445 204.4 36.7445C204.194 36.7445 203.989 36.5391 203.989 36.3337C203.989 36.1282 203.989 35.9228 204.194 35.7174C204.4 35.512 204.811 35.512 205.016 35.512C205.222 35.512 205.427 35.3065 205.427 35.1011C205.427 35.1011 205.427 35.1011 205.427 34.8957C205.427 34.4848 205.632 34.2794 205.427 34.074C205.222 33.8686 205.016 34.2794 204.605 34.2794C203.989 34.4848 203.578 34.4848 202.962 34.4848C202.756 34.4848 202.551 34.2794 202.551 34.074C202.551 33.6631 202.756 33.6631 202.962 33.4577C203.167 33.4577 203.373 33.4577 203.578 33.4577C204.194 33.4577 204.811 33.2523 205.427 32.8414C206.043 32.4306 206.66 32.636 206.66 33.4577C206.454 33.4577 206.454 33.6631 206.454 33.8685Z" fill="black"/>
<path d="M163.52 63.6555C163.314 64.0663 163.52 64.2718 163.931 64.2718C164.752 64.6826 165.369 65.2989 165.574 66.326C165.574 66.9423 165.369 67.3532 164.752 67.764C164.136 68.1749 163.52 68.3803 162.698 68.3803C162.082 68.3803 161.876 68.1749 161.671 67.5586C161.671 67.3532 161.671 67.1477 161.876 66.9423C162.082 66.9423 162.287 66.9423 162.493 67.1477C162.493 67.1477 162.493 67.3532 162.698 67.3532C163.109 67.5586 164.342 67.1477 164.547 66.7369C164.752 66.5314 164.752 66.326 164.547 66.1206C164.342 65.5043 164.136 65.2989 163.52 64.888C163.314 64.6826 162.904 64.6826 162.698 65.0935C162.287 65.5043 162.082 65.5043 161.876 65.2989C161.671 65.0935 161.671 64.4772 162.082 64.2718C162.287 64.0663 162.493 64.0663 162.493 63.6555C162.493 63.2446 162.698 62.8338 162.287 62.6283C161.876 62.4229 161.466 62.6283 161.26 62.6283C161.055 62.6283 161.055 62.8338 161.055 63.0392C161.055 63.2446 161.26 63.6555 160.849 63.6555C160.438 63.8609 160.438 63.4501 160.233 63.2446C160.028 62.6283 160.233 62.2175 160.644 61.8066C161.055 61.6012 161.671 61.3958 162.287 61.6012C162.698 61.6012 162.904 62.0121 163.109 62.4229C163.52 63.0392 163.52 63.45 163.52 63.6555Z" fill="black"/>
<path d="M321.493 89.5391C320.877 89.5391 320.466 89.3336 320.055 88.7173C319.85 88.1011 319.85 87.6902 320.055 87.074C320.672 86.2522 320.672 86.2522 320.466 85.2251C320.466 84.8142 320.466 84.4034 320.672 84.198C320.877 83.9925 321.288 83.7871 321.493 83.7871C322.11 83.9925 322.931 83.5817 323.137 84.4034C323.342 84.8143 323.137 85.6359 322.52 86.2522C321.904 86.6631 321.904 86.6631 322.315 87.4848C322.315 87.6902 322.52 87.8957 322.52 88.1011C323.137 88.9228 322.726 89.5391 321.493 89.5391ZM320.877 88.1011C320.877 88.5119 321.288 88.7173 321.699 88.7173C321.904 88.7173 322.11 88.7174 322.11 88.3065C322.11 87.8956 321.699 87.074 321.493 87.074C321.288 87.074 320.877 87.8957 320.877 88.1011ZM321.493 85.2251C321.699 85.2251 321.493 85.8414 321.904 85.6359C322.315 85.6359 322.52 85.2251 322.52 84.8142V84.6088C322.315 84.6088 322.315 84.6088 322.315 84.6088C322.11 84.8142 321.904 84.8142 321.699 84.8142C321.493 85.0197 321.493 85.0197 321.493 85.2251Z" fill="black"/>
<path d="M191.869 55.644C191.869 55.8495 191.869 56.0549 191.663 56.0549C191.663 56.2603 191.458 56.2603 191.253 56.2603C191.047 56.2603 191.047 56.2603 190.842 56.0549C190.636 55.644 190.842 55.0277 191.253 54.8223C191.663 54.6169 192.28 54.6169 192.485 55.2332C192.896 55.8495 192.896 56.6712 192.691 57.4929C192.691 57.9037 192.485 58.1092 192.28 58.52C192.28 58.7254 192.28 58.9309 192.485 58.9309C192.896 59.1363 193.307 59.1363 193.718 59.3417C193.923 59.3417 194.334 59.5472 194.539 59.1363C194.745 58.9309 194.95 58.9309 194.95 59.1363C195.156 59.3417 195.156 59.3417 195.156 59.5471C194.95 59.958 194.745 60.1634 194.334 60.1634C193.718 60.1634 193.101 59.958 192.485 59.7526C192.074 59.5472 191.663 59.5471 191.458 59.958C191.047 60.3688 190.636 60.5743 190.02 60.3689C189.609 60.1634 189.404 59.958 189.404 59.5471C189.404 59.1363 189.609 58.9309 189.815 58.7254C190.225 58.52 190.636 58.52 191.047 58.52C191.253 58.52 191.458 58.52 191.458 58.1092C192.074 57.4929 192.28 56.6712 191.869 55.644Z" fill="black"/>
<path d="M299.718 79.4731C300.334 78.446 301.361 78.0351 302.594 78.446C303.21 78.6514 303.416 79.0623 303.21 79.4731C303.21 79.6786 303.21 79.6786 303.005 79.884C302.594 80.7057 301.772 81.1166 300.745 81.1166C299.718 81.1166 298.896 80.7057 298.691 79.884C298.28 78.6514 298.485 77.4189 299.307 76.5972C299.513 76.3917 299.718 76.1863 300.129 75.9809C300.334 75.7755 300.54 75.7755 300.745 76.1863C300.951 76.3917 300.745 76.5972 300.54 76.8026C299.718 77.4189 299.307 78.446 299.718 79.4731ZM301.156 80.2949C301.567 80.2949 301.978 80.0894 302.389 79.6786C302.389 79.4731 302.594 79.2677 302.389 79.2677C301.978 79.2677 301.361 79.2677 300.951 79.4731C300.54 79.6786 300.54 80.0894 300.54 80.2949C300.54 80.5003 300.745 80.2949 301.156 80.2949Z" fill="black"/>
<path d="M260.276 58.7248C260.071 58.9303 259.865 59.1357 259.454 59.3411C258.838 59.5466 258.222 59.5466 257.811 59.3411C257.4 59.1357 257.4 58.314 257.605 57.6977C257.811 57.0814 258.222 56.876 258.838 56.876C260.276 56.876 261.303 58.5194 261.098 59.752C261.098 60.1628 260.687 60.5737 260.276 60.7791C259.66 61.19 258.838 61.3954 258.016 61.19C257.605 61.19 257.195 60.7791 257.4 60.3683C257.4 59.9574 258.016 59.752 258.222 59.9574C258.633 60.3682 259.043 60.1628 259.454 60.1628C260.481 59.9574 260.687 59.5465 260.276 58.7248C260.481 58.7248 260.481 58.7248 260.276 58.7248ZM258.838 58.7248C259.249 58.7248 259.66 58.314 259.66 58.1086C259.66 57.6977 259.249 57.6977 259.043 57.6977C258.633 57.6977 258.633 58.1086 258.633 58.314C258.427 58.5194 258.633 58.7248 258.838 58.7248Z" fill="black"/>
<path d="M203.989 85.8415C203.989 86.2524 203.989 86.8686 203.578 87.2795C203.373 87.6904 203.578 87.6903 203.784 87.6903C204.194 87.6903 204.605 87.8958 205.016 87.6903C205.222 87.6903 205.427 87.6904 205.427 87.8958C205.427 88.1012 205.427 88.3066 205.427 88.3066C205.222 88.5121 205.016 88.5121 204.811 88.5121C204.4 88.5121 203.989 88.5121 203.578 88.3066C202.962 88.1012 202.551 88.1012 202.14 88.5121C201.935 88.7175 201.524 88.9229 201.113 88.7175C200.702 88.5121 200.702 88.1012 200.908 87.6903C200.908 87.2795 201.319 87.0741 201.729 87.0741C202.14 87.0741 202.551 87.0741 202.756 86.4578C202.962 85.8415 203.167 85.2252 202.756 84.6089C202.756 84.4035 202.551 84.4035 202.346 84.4035C202.14 84.4035 202.14 84.609 202.14 84.8144C202.14 85.0198 202.14 85.4306 202.14 85.6361C202.14 85.8415 202.14 86.047 201.935 86.047C201.729 86.047 201.524 86.0469 201.524 85.8415C201.318 85.4307 201.318 84.8144 201.318 84.4035C201.318 83.9927 201.729 83.7872 202.14 83.5818C202.551 83.3764 202.962 83.5818 203.373 83.9927C203.989 84.8144 203.989 85.2252 203.989 85.8415Z" fill="black"/>
<path d="M308.962 73.5157C308.962 73.5157 308.962 73.7211 308.962 73.9266C308.962 74.132 308.962 74.3374 309.168 74.3374C309.784 74.7483 310.195 75.3646 309.989 76.1863C309.784 76.8026 309.168 77.2134 308.346 77.2134C307.524 77.4188 307.113 77.008 306.497 76.5971C306.292 76.3917 306.292 75.9808 306.497 75.7754C306.703 75.57 306.908 75.57 307.113 75.57C307.524 75.57 307.73 75.7754 307.73 76.1863V76.3917C308.141 76.5971 308.346 76.5971 308.757 76.3917C308.962 76.1863 309.373 76.1863 309.373 75.7754C309.168 75.1591 308.757 74.9537 308.346 75.1591C308.141 75.3646 307.73 75.3645 307.524 74.9537C307.319 74.5428 307.524 74.3374 307.935 74.132C308.141 74.132 308.346 73.9266 308.346 73.7212C308.346 73.5157 308.551 73.3103 308.141 73.3103C307.935 73.3103 307.524 73.3103 307.524 73.7212C307.524 73.9266 307.524 73.9266 307.524 74.132C307.524 74.3374 307.319 74.5428 307.113 74.5428C306.908 74.5428 306.703 74.3374 306.703 74.132C306.497 73.7211 306.703 73.1049 307.113 72.8994C307.319 72.694 307.524 72.694 307.935 72.4886C308.551 72.2832 308.962 72.4886 308.962 73.5157Z" fill="black"/>
<path d="M253.292 56.4654C252.881 56.6708 252.675 56.8763 252.47 56.8763C252.264 57.0817 252.059 57.0817 251.854 57.0817C251.648 57.0817 251.443 56.8763 251.443 56.6708C251.443 56.4654 251.443 56.26 251.648 56.26C252.47 56.0546 253.086 55.4383 253.702 54.6166C253.908 54.4111 253.908 54.4111 254.113 54.4111C254.319 54.6166 254.319 54.822 254.319 55.0274C254.113 55.8491 254.113 56.6708 253.908 57.4925C253.908 57.698 253.908 57.698 253.908 57.9034C253.908 58.5197 253.908 58.5197 254.524 58.3143C254.73 58.3143 254.935 58.3142 255.14 58.5197C255.14 58.7251 255.14 58.9305 254.729 59.136C254.524 59.136 254.319 59.3414 254.319 59.3414C253.908 59.3414 253.702 59.5468 253.497 59.7522C253.086 60.1631 252.675 60.1631 252.264 59.9577C251.854 59.9577 251.648 59.7522 251.443 59.5468C251.237 59.5468 251.237 59.3414 251.237 59.136C251.237 58.9305 251.443 58.7251 251.648 58.7251C252.059 58.7251 252.47 58.7251 252.881 58.7251C253.086 58.7251 253.292 58.5197 253.292 58.3143C253.292 57.698 253.292 57.0817 253.292 56.4654Z" fill="black"/>
<path d="M317.385 73.721C317.179 73.9264 316.974 74.1318 316.768 74.1318C316.563 73.9264 316.358 73.721 316.358 73.5155C316.358 73.1047 316.563 72.6938 316.974 72.4884C317.385 72.283 317.796 72.4884 318.001 73.1047C318.412 73.9264 318.412 74.7481 317.796 75.5698C317.59 75.9807 317.59 75.9807 318.001 76.1861C318.412 76.3915 318.823 76.3915 319.234 76.3915C319.439 76.3915 319.85 76.3915 319.85 76.8024C319.85 77.2132 319.644 77.2132 319.234 77.2132C318.617 77.2132 317.796 77.2132 317.385 76.8024C317.179 76.597 316.974 76.597 316.563 76.8024C316.152 77.0078 315.947 77.0078 315.536 77.0078C315.125 77.0078 314.92 76.597 314.92 76.1861C314.92 75.7752 315.125 75.5698 315.536 75.3644C315.741 75.3644 316.152 75.3644 316.358 75.3644C316.768 75.5698 316.768 75.3644 316.974 75.159C317.385 74.7481 317.59 74.3373 317.385 73.721Z" fill="black"/>
<path d="M155.097 65.9153C155.097 66.7371 154.276 67.7642 153.454 67.9696C153.249 67.9696 153.043 67.9696 152.838 67.7642C152.838 67.5588 152.838 67.3533 153.043 67.1479C153.249 66.9425 153.659 66.9425 153.865 66.737C154.276 66.3262 154.276 65.7099 153.865 65.5045C153.454 65.0936 152.838 65.0936 152.427 65.2991C152.221 65.2991 152.221 65.5045 152.221 65.7099C152.221 65.9153 152.016 66.1208 151.811 66.1208C151.605 66.1208 151.4 65.9153 151.4 65.7099C151.194 65.5045 151.194 65.299 150.989 65.0936C150.783 64.6828 150.578 64.2719 150.167 63.8611C149.756 63.4502 149.756 63.0394 150.373 62.8339C150.783 62.6285 151.4 62.4231 151.811 62.4231C152.016 62.4231 152.221 62.4231 152.221 62.8339C152.221 63.0394 152.016 63.2448 151.811 63.2448H151.605C150.989 63.2448 150.783 63.4502 151.194 64.0665C151.4 64.4773 151.605 64.6828 152.221 64.4774C153.865 63.8611 155.097 64.6828 155.097 65.9153Z" fill="black"/>
<path d="M313.276 65.299C313.276 65.9152 313.071 66.5315 312.865 66.9424C312.66 67.3532 312.66 67.3532 313.071 67.5587C313.482 67.7641 313.687 67.7641 314.098 67.7641C314.303 67.7641 314.509 67.9695 314.509 68.1749C314.509 68.5858 314.303 68.5858 313.892 68.5858C313.482 68.5858 312.865 68.3804 312.454 68.1749C312.249 67.9695 312.044 67.9695 311.838 68.1749C311.222 68.5858 310.606 68.3804 310.4 67.9695C310.195 67.3532 310.4 67.1478 311.017 66.9424C311.427 66.9424 311.838 66.9424 312.044 66.5315C312.249 65.9153 312.454 65.299 312.249 64.6827C312.249 64.4773 312.044 64.4773 311.838 64.4773C311.633 64.4773 311.427 64.6827 311.427 64.6827C311.427 64.8881 311.427 64.8881 311.427 65.0935C311.427 65.299 311.427 65.5044 311.222 65.7098C311.016 65.7098 310.811 65.7098 310.811 65.5044C310.606 65.0936 310.606 64.4772 311.017 64.0664C311.427 63.6555 311.838 63.4501 312.454 63.6555C313.071 63.861 313.071 64.2718 313.276 64.6827C313.276 64.8881 313.276 65.0935 313.276 65.299Z" fill="black"/>
<path d="M272.807 63.4496C272.191 63.4496 271.78 63.2442 271.575 62.8334C271.369 62.6279 271.369 62.2171 271.78 62.0116C271.985 61.8062 272.191 62.0116 272.396 62.2171C272.396 62.4225 272.602 62.4225 272.807 62.4225C273.629 62.4225 274.04 62.0117 274.45 61.3954C274.656 61.1899 274.45 60.9845 274.245 60.7791C273.834 60.5737 273.629 60.5736 273.218 60.5736C273.012 60.7791 272.602 60.7791 272.396 60.3682C272.191 59.9574 272.396 59.752 272.807 59.752C273.218 59.5465 273.218 59.1357 273.013 58.9302C272.807 58.5194 272.602 58.7248 272.396 58.9302C272.191 58.9302 271.985 59.1357 271.78 59.3411C271.575 59.5465 271.369 59.5465 271.164 59.3411C270.958 59.1357 270.958 58.9302 271.164 58.7248C271.575 58.1085 272.602 57.9031 273.218 58.1085C273.629 58.314 273.834 58.7248 273.834 59.1357C273.834 59.5465 273.834 59.7519 274.245 59.9574C275.272 60.3682 275.478 61.3954 274.656 62.2171C274.245 63.0388 273.629 63.2442 272.807 63.4496Z" fill="black"/>
<path d="M150.783 70.845C150.783 71.2559 150.783 71.6667 150.578 72.0776C150.373 72.283 150.578 72.4884 150.783 72.6939C150.989 72.8993 151.4 73.1047 151.605 73.3101C151.811 73.3101 152.016 73.5156 152.016 73.9264C151.811 74.1318 151.605 74.1318 151.4 74.1318C150.989 73.9264 150.578 73.721 150.373 73.5156C150.167 73.3101 149.962 73.3101 149.756 73.5156C149.551 73.721 149.14 73.9264 148.729 73.9264C148.318 73.9264 147.907 73.9264 147.907 73.5156C147.702 73.1047 147.907 72.6939 148.318 72.4884C148.524 72.283 148.935 72.283 149.345 72.283C149.551 72.283 149.756 72.0776 149.962 71.8721C150.167 71.4613 150.167 70.845 149.962 70.4342C149.962 70.2287 149.756 70.0233 149.551 70.0233C149.345 70.0233 149.345 70.2287 149.345 70.4342C149.345 70.6396 149.345 70.845 148.935 70.845C148.729 70.845 148.524 70.6396 148.524 70.4342C148.318 70.0233 148.524 69.407 148.729 69.2016C149.14 68.9962 149.962 68.9962 150.167 69.407C150.578 69.6124 150.783 70.2287 150.783 70.845Z" fill="black"/>
<path d="M258.838 51.9457C258.838 52.562 258.633 53.1783 258.222 53.7945C258.016 54 258.016 54.2054 258.427 54.2054C258.633 54.2054 259.043 54.4108 259.249 54.2054C259.454 54 259.865 54 259.865 54.4108C259.865 54.8217 259.865 55.0271 259.454 55.0271C259.043 55.2325 258.633 55.0271 258.222 55.0271C257.811 54.8217 257.4 54.8217 256.989 55.2326C256.784 55.438 256.373 55.438 256.167 55.2326C255.962 55.0271 255.962 54.8217 255.962 54.4108C255.962 54 256.373 54 256.578 54C257.605 53.7946 258.222 52.562 257.811 51.7403C257.605 51.5348 257.4 51.3294 257.195 51.5349C256.989 51.5349 256.784 51.7403 256.784 51.9457C256.784 52.1511 256.784 52.1511 256.784 52.3566C256.784 52.562 256.578 52.562 256.578 52.7674C256.373 52.7674 256.167 52.7674 256.167 52.562C255.962 52.1511 255.962 51.5349 256.373 51.124C256.784 50.7132 257.4 50.7131 257.811 50.7131C258.427 50.9186 258.633 51.3294 258.633 51.7403C258.838 51.7403 258.838 51.7403 258.838 51.9457Z" fill="black"/>
<path d="M208.919 41.469C208.919 41.8798 208.919 42.4961 208.714 42.907C208.508 43.3178 208.714 43.3178 209.125 43.3178C209.536 43.1124 209.946 43.1124 209.946 43.5232C209.946 43.9341 209.741 44.1395 209.33 44.345C209.125 44.345 209.125 44.345 208.919 44.345C208.098 44.1395 207.481 44.1395 206.66 44.1395C206.249 44.1395 205.838 43.9341 205.838 43.5232C205.838 43.1124 206.043 42.907 206.454 42.907H206.66C206.865 42.907 207.276 43.1124 207.276 42.7015C207.481 42.2907 207.481 41.8798 207.481 41.469C207.481 41.469 207.481 41.2636 207.276 41.2636C206.66 41.2636 206.66 40.8527 206.66 40.4418C206.66 40.031 206.865 39.8256 207.276 39.6201C207.687 39.4147 208.098 39.6201 208.303 40.031C208.919 40.6473 208.919 41.0581 208.919 41.469Z" fill="black"/>
<path d="M218.78 48.8647C218.985 48.8647 219.191 48.8647 219.396 48.8647C219.601 48.8647 219.807 48.8647 219.807 49.0702C219.807 49.2756 219.807 49.481 219.601 49.481C219.396 49.481 219.191 49.6864 219.191 49.6864C218.78 49.6864 218.574 49.8919 218.574 50.3027C218.574 50.5081 218.574 50.919 218.574 51.1244C218.574 51.3299 218.369 51.5353 218.164 51.5353C217.958 51.5353 217.753 51.3299 217.753 51.1244C217.753 50.7136 217.753 50.5082 217.753 50.0973C217.753 49.8919 217.753 49.8919 217.547 49.8919C217.342 49.8919 217.136 49.8919 216.931 49.8919C216.726 49.8919 216.52 49.8919 216.52 49.481C216.52 49.2756 216.52 49.0702 216.725 49.0702H216.931C217.958 49.0702 218.163 48.2485 218.369 47.4268C218.369 47.2213 218.369 47.0159 218.164 47.0159C217.547 47.0159 216.931 47.0159 216.315 47.0159C215.904 47.0159 215.698 47.0159 215.698 46.605C215.698 46.1942 215.904 46.1942 216.315 46.1942C217.136 46.1942 217.753 46.1942 218.574 45.9888C219.191 45.9888 219.396 46.1942 219.396 46.8105C218.985 47.8376 218.78 48.4539 218.78 48.8647Z" fill="black"/>
<path d="M301.361 51.5352C302.389 51.5352 302.799 51.946 302.799 52.9731C302.799 53.1786 302.799 53.384 303.005 53.5894C303.005 53.5894 303.005 53.5894 303.21 53.5894C303.827 54.0003 304.237 55.0274 303.827 55.6437C303.416 56.26 302.389 56.6708 301.567 56.4654C301.361 56.4654 301.156 56.26 301.156 56.26C300.951 56.0546 300.951 55.8491 301.156 55.6437C301.361 55.4383 301.567 55.4383 301.772 55.6437C302.183 55.8491 302.594 55.8491 303.005 55.4383C303.21 55.2328 303.21 54.822 303.005 54.6166C302.799 54.2057 302.389 54.0003 301.978 54.2057C301.772 54.2057 301.567 54.4111 301.567 54.4111C301.361 54.4111 301.156 54.4111 300.951 54.2057C300.951 54.0003 300.951 53.7949 301.156 53.5894C301.361 53.5894 301.567 53.384 301.567 53.384C301.772 53.1786 301.978 52.9731 301.772 52.7677C301.772 52.5623 301.567 52.5623 301.361 52.5623C301.156 52.5623 300.745 52.5623 300.54 52.7677C300.334 52.9731 300.129 52.9731 299.923 52.7677C299.718 52.5623 299.923 52.3569 300.129 52.1514C300.54 51.7406 300.951 51.7406 301.361 51.5352Z" fill="black"/>
<path d="M208.714 54.0001C208.508 54.2055 208.508 54.411 208.303 54.6164C208.098 54.8218 207.892 54.8218 207.687 54.6164C207.481 54.411 207.481 54.2055 207.687 54.0001C208.098 53.3838 208.508 52.7675 208.508 51.9458C208.508 51.7404 208.714 51.3296 208.919 51.535C209.33 51.535 209.33 51.9459 209.33 52.1513C209.125 53.3838 209.536 54.411 209.946 55.4381C210.152 55.6435 210.152 55.8489 210.563 55.8489C210.768 55.8489 210.974 55.849 211.179 56.2598C211.179 56.4652 210.974 56.6707 210.768 56.6707C210.563 56.6707 210.357 56.8761 210.152 57.0815C209.946 57.4924 208.714 57.6978 208.303 57.4924C208.098 57.4924 208.098 57.2869 208.098 57.0815C208.098 56.8761 208.098 56.6707 208.303 56.6707C208.508 56.4652 208.919 56.4652 209.125 56.2598C209.33 56.2598 209.33 56.2598 209.33 55.8489C209.125 55.2327 208.919 54.6164 208.714 54.0001Z" fill="black"/>
<path d="M285.749 59.1359C285.749 58.1088 285.954 57.2871 286.776 56.6708C286.982 56.4653 286.982 56.4653 287.187 56.4653C287.392 56.4653 287.598 56.4653 287.803 56.6708C287.803 56.8762 287.803 57.0816 287.598 57.0816C287.187 57.287 286.776 57.6979 286.776 58.3142C286.776 58.5196 286.776 58.725 286.982 58.5196C287.598 58.5196 288.214 58.5196 288.83 58.9305C289.241 59.1359 289.447 59.5467 289.241 59.9576C289.241 60.3684 288.83 60.7793 288.42 60.7793C287.392 61.1902 285.954 60.9847 285.749 59.1359ZM287.803 60.163C288.214 60.163 288.42 60.163 288.42 59.9576C288.42 59.7522 288.214 59.7522 288.214 59.5467C287.803 59.3413 287.598 59.3413 287.187 59.3413C286.982 59.3413 286.982 59.3413 286.982 59.5467C286.982 59.7522 286.982 59.7522 287.187 59.9576C287.187 60.163 287.392 60.163 287.803 60.163Z" fill="black"/>
<path d="M191.458 47.6321C191.253 47.6321 191.253 47.6321 191.047 47.6321C190.636 47.6321 190.431 47.4267 190.431 46.8104C190.842 45.9887 191.253 45.167 191.458 44.1399C191.458 43.9344 191.663 43.729 191.869 43.9345C192.074 43.9345 192.28 44.1399 192.28 44.3453C192.28 44.5507 192.28 44.7562 192.074 44.9616C191.869 45.3724 191.663 45.7833 191.663 46.1941C191.663 46.3996 191.458 46.605 191.663 46.605C191.869 46.605 192.28 46.8104 192.485 46.3996C192.485 46.1942 192.691 45.9887 192.896 45.7833C193.101 45.5779 193.307 45.5779 193.512 45.5779C193.718 45.7833 193.718 45.9887 193.718 46.1941C193.512 46.605 193.512 46.8104 193.923 46.8104C194.129 46.8104 194.129 47.0158 194.129 47.2213C194.129 47.4267 193.923 47.6321 193.718 47.4267C193.307 47.2213 193.307 47.6321 193.101 47.8376C192.896 48.2484 192.896 48.8647 192.691 49.2755C192.691 49.481 192.485 49.8918 192.074 49.6864C191.663 49.6864 191.663 49.2756 191.869 49.0701C191.869 48.6593 192.074 48.2484 192.074 47.8376C192.074 47.6321 192.074 47.6321 191.458 47.6321Z" fill="black"/>
<path d="M285.749 42.4965C285.544 42.4965 285.338 42.4965 284.927 42.4965C284.722 42.4965 284.722 42.4965 284.722 42.7019C284.722 42.9073 284.722 42.9073 284.927 42.9073C285.749 43.3182 285.954 43.9345 285.954 44.7562C285.749 45.5779 285.133 45.9887 284.516 46.1942C284.311 46.1942 284.311 46.1942 284.106 46.1942C283.9 46.1942 283.695 45.9887 283.695 45.7833C283.695 45.5779 283.9 45.3725 284.106 45.3725C284.516 45.3725 284.927 45.167 285.133 44.7562C285.338 44.3453 285.338 44.1399 285.133 43.729C284.927 43.5236 284.722 43.3182 284.722 43.729C284.516 44.1399 284.311 44.3453 283.9 44.1399C283.489 43.9345 283.489 43.5236 283.695 43.1127C283.9 42.7019 284.311 42.291 284.311 41.6748C284.311 41.4693 284.516 41.4693 284.722 41.4693C285.338 41.2639 286.16 41.2639 286.776 41.2639C286.982 41.2639 286.982 41.2639 287.187 41.4693C287.392 41.4693 287.392 41.6748 287.392 41.8802C287.392 42.0856 287.187 42.0856 286.982 42.0856C286.365 42.4965 286.16 42.4965 285.749 42.4965Z" fill="black"/>
<path d="M265.206 73.7215C265.206 74.1324 265.206 74.3378 265.206 74.5432C265.001 74.9541 265.206 74.9541 265.412 74.9541C265.617 74.9541 265.823 74.9541 266.028 74.9541C266.233 74.9541 266.644 74.9541 266.644 75.3649C266.644 75.7758 266.439 75.7758 266.233 75.7758C265.823 75.7758 265.412 75.7758 265.206 75.7758C264.795 75.7758 264.59 75.7758 264.385 75.9812C264.179 76.1866 263.974 76.1867 263.563 76.1867C263.152 76.1867 262.947 75.9812 262.947 75.7758C262.947 75.365 262.947 75.1595 263.357 74.9541C263.563 74.7487 263.768 74.7487 263.974 74.7487C264.385 74.7487 264.59 74.5432 264.59 74.1324C264.59 73.7215 264.59 73.3107 264.59 72.8998C264.59 72.6944 264.385 72.489 264.179 72.6944C263.974 72.6944 263.768 72.8998 263.768 73.1052C263.768 73.3107 263.768 73.3107 263.768 73.5161C263.768 73.7215 263.563 73.9269 263.357 73.9269C263.152 73.9269 262.947 73.7215 262.947 73.5161C262.741 72.8998 262.947 72.0781 263.768 71.8727C264.385 71.6672 265.001 71.8727 265.206 72.6944C265.206 73.1053 265.206 73.5161 265.206 73.7215Z" fill="black"/>
<path d="M222.067 72.2833C222.683 72.4888 223.094 72.6942 223.505 73.1051C223.915 73.7213 223.915 74.3376 223.505 74.7485C223.094 75.1593 222.477 75.5702 221.656 75.5702C221.45 75.5702 221.039 75.5702 221.039 75.1593C221.039 74.7485 221.245 74.7485 221.656 74.7485C222.067 74.7485 222.683 74.543 222.888 74.1322C223.094 73.9268 223.094 73.7213 222.888 73.5159C222.683 73.3105 222.477 73.1051 222.272 73.1051C222.067 73.1051 221.656 72.8996 221.656 73.3105C221.656 73.5159 221.45 73.7213 221.245 73.7213C221.039 73.7213 220.834 73.5159 220.834 73.3105C220.629 72.0779 220.834 71.4616 222.067 71.2562C222.477 71.2562 222.888 71.2562 223.299 71.0508C223.505 71.0508 223.915 71.0508 223.915 71.4616C223.915 71.8725 223.71 71.8725 223.505 71.8725C222.888 72.0779 222.477 72.0779 222.067 72.2833Z" fill="black"/>
<path d="M265.617 69.6129C265.617 69.6129 265.412 69.6129 265.206 69.6129C265.001 69.6129 264.795 69.2021 264.795 68.9966C264.795 68.7912 265.001 68.5858 265.412 68.7912C265.823 68.9966 266.028 68.7912 266.439 68.7912C266.644 68.7912 266.85 68.5858 266.85 68.3804C266.85 68.1749 266.85 67.9695 266.644 67.7641C266.439 67.5586 266.233 67.5586 265.823 67.7641C265.617 67.9695 265.617 67.9695 265.412 67.9695C265.206 68.1749 264.795 68.1749 264.59 67.9695C264.385 67.7641 264.385 67.3532 264.795 67.1478C264.795 67.1478 264.795 67.1478 265.001 67.1478C265.412 66.9424 265.617 66.737 265.206 66.5315C265.001 66.3261 264.59 66.5315 264.385 66.7369C264.179 66.9424 263.974 66.9424 263.768 66.7369C263.563 66.5315 263.563 66.3261 263.768 66.1207C264.179 65.7098 264.59 65.5044 265.206 65.5044C265.823 65.5044 266.028 65.9152 266.028 66.5315C266.028 66.737 266.233 66.9424 266.439 66.9424C267.055 67.1478 267.466 67.5586 267.466 68.1749C267.466 68.7912 267.261 69.2021 266.644 69.4075C266.439 69.4075 266.028 69.6129 265.617 69.6129Z" fill="black"/>
<path d="M175.229 49.6864C175.229 50.0973 175.229 50.5081 175.229 50.919C175.229 51.1244 175.229 51.3298 175.64 51.3298H175.846C176.051 51.3298 176.256 51.3298 176.256 51.7407C176.256 51.9461 176.256 52.1516 176.051 52.1516C175.846 52.1516 175.845 52.1516 175.64 52.1516C175.229 52.1516 175.229 52.357 175.229 52.7678C175.229 52.9732 175.229 53.3841 175.229 53.5895C175.229 53.795 175.229 54.2058 174.818 54.2058C174.408 54.2058 174.408 54.0004 174.408 53.795C174.408 53.3841 174.408 52.9732 174.202 52.7678C173.997 52.5624 173.586 52.9733 173.38 52.9733C173.175 52.9733 172.97 52.9732 172.97 52.7678C172.97 52.5624 172.97 52.357 173.175 52.357C173.38 52.1515 173.791 52.1515 173.997 51.9461C174.202 51.9461 174.408 51.7407 174.408 51.5353C174.408 51.1244 174.408 50.919 174.408 50.5081C174.408 50.3027 174.408 50.3027 174.202 50.3027C173.997 50.3027 173.586 50.5081 173.38 50.5081C173.175 50.5081 172.764 50.5081 172.764 50.0973C172.764 49.6864 172.97 49.6864 173.175 49.6864C173.586 49.6864 173.997 49.481 174.408 49.481C174.818 48.8647 175.229 49.0701 175.229 49.6864Z" fill="black"/>
<path d="M220.834 79.2679C220.423 79.4734 220.218 79.6788 219.807 79.8842C219.601 80.0896 219.396 80.0896 219.191 79.6788C218.985 79.4734 219.191 79.2679 219.396 79.0625C220.012 78.6516 220.629 78.0354 221.039 77.6245C221.245 77.4191 221.45 77.2136 221.656 77.4191C221.861 77.6245 221.861 77.8299 221.861 78.0354C221.656 78.8571 221.45 79.6788 221.45 80.5005C221.45 80.7059 221.656 80.9114 221.861 80.9114C222.067 80.9114 222.477 80.9113 222.477 81.1168C222.477 81.5276 222.272 81.5276 222.067 81.5276C221.656 81.5276 221.039 81.7331 220.629 81.7331C220.423 81.7331 220.012 81.7331 219.807 81.7331C219.601 81.7331 219.396 81.5276 219.396 81.3222C219.396 81.1168 219.601 80.9114 219.807 80.9114C220.012 80.9114 220.423 80.9113 220.629 80.7059C220.629 80.5005 220.629 80.0896 220.629 79.8842C220.834 79.8842 220.834 79.6788 220.834 79.2679Z" fill="black"/>
<path d="M187.76 40.4423C187.76 38.5934 188.377 37.9772 189.815 37.7717C190.02 37.7717 190.431 37.7717 190.431 38.1826C190.431 38.5934 190.225 38.5934 189.815 38.5934C189.198 38.5934 188.787 38.7988 188.377 39.4151C188.171 39.826 188.171 39.826 188.582 40.0314C189.198 40.0314 189.815 40.4423 190.02 41.0585C190.225 41.4694 190.225 42.0857 189.815 42.4965C189.609 42.702 189.404 43.1128 188.993 43.3183C188.582 43.5237 188.377 43.3182 188.171 43.1128C187.966 42.702 188.171 42.4965 188.582 42.4965C188.993 42.4965 189.198 42.0857 189.198 41.8803C189.198 41.4694 188.993 41.264 188.582 41.264C188.377 41.264 188.171 41.0585 188.171 41.4694C188.171 41.6748 187.966 42.0857 187.555 41.8803C187.144 41.8803 187.144 41.4694 187.144 41.264C187.76 40.6477 187.76 40.6477 187.76 40.4423Z" fill="black"/>
<path d="M274.245 41.8804C274.451 41.8804 274.656 41.8804 274.861 41.8804C275.478 41.8804 275.683 42.2912 275.478 42.9075C275.478 43.3184 275.272 43.5238 275.067 43.9346C274.861 44.3455 275.067 44.3455 275.478 44.3455C275.683 44.3455 275.889 44.3455 276.094 44.3455C276.299 44.3455 276.71 44.3455 276.71 44.7563C276.71 45.1672 276.505 45.1672 276.094 45.1672C275.683 45.1672 275.478 45.1672 275.272 44.9618C275.067 44.9618 274.861 44.9618 274.861 45.1672C274.861 45.3726 274.861 45.7835 274.861 45.9889C274.861 46.1943 274.656 46.3998 274.451 46.3998C274.245 46.3998 274.04 46.1943 274.04 45.9889C274.04 45.7835 274.04 45.578 274.04 45.578C274.04 45.1672 274.245 44.7563 273.629 44.9618C273.423 44.9618 273.218 44.7563 273.218 44.5509C273.218 44.3455 273.423 44.14 273.629 44.14C274.451 44.14 274.451 43.5238 274.656 42.9075C274.656 42.7021 274.656 42.7021 274.451 42.7021C274.245 42.7021 273.834 42.7021 273.629 42.7021C273.423 42.7021 273.218 42.7021 273.218 42.2912C273.218 42.0858 273.423 41.8804 273.629 41.8804C273.834 41.8804 274.04 41.8804 274.245 41.8804Z" fill="black"/>
<path d="M145.853 72.0776C145.853 71.4613 145.853 71.4613 145.032 71.2559C144.826 71.2559 144.415 71.2559 144.415 70.845C144.415 70.4342 144.621 70.4342 145.032 70.4342C145.853 70.2288 146.059 70.0233 146.059 69.2016C146.059 68.9962 145.853 68.9962 145.853 68.9962C145.442 68.9962 145.032 68.9962 144.826 68.9962C144.621 68.9962 144.21 68.7908 144.415 68.3799C144.415 67.9691 144.826 67.9691 145.032 68.1745C145.442 68.1745 146.059 68.1745 146.47 68.1745C146.88 67.9691 147.291 68.1745 147.086 68.7908C147.086 68.9962 147.086 69.4071 146.88 69.6125C146.88 70.0234 146.675 70.2288 147.291 70.4342C147.497 70.4342 147.497 71.0505 147.291 71.0505C146.675 71.2559 146.88 71.6668 146.88 72.0776C146.88 72.283 146.88 72.4885 146.88 72.6939C146.88 72.8993 146.88 73.3102 146.47 73.3102C146.059 73.3102 146.059 73.1047 146.059 72.8993C145.853 72.283 145.853 72.283 145.853 72.0776Z" fill="black"/>
<path d="M153.249 71.4615C153.043 71.6669 152.838 71.8724 152.838 72.0778C152.632 72.2832 152.427 72.2832 152.427 72.0778C152.221 71.8724 152.221 71.8724 152.221 71.6669C152.632 71.0507 152.838 70.2289 153.249 69.6127C153.249 69.4072 153.454 69.4072 153.659 69.4072C153.865 69.4072 154.07 69.6126 154.07 69.8181C154.07 70.4344 154.07 70.8452 154.07 71.4615C154.07 72.0778 154.276 72.694 154.276 73.3103C154.276 73.5158 154.276 73.7212 154.686 73.7212C154.892 73.7212 155.097 73.9266 155.097 74.1321C155.097 74.3375 155.097 74.5429 154.892 74.5429C154.481 74.7483 154.07 74.9538 153.659 74.9538C153.454 74.9538 153.248 74.9538 153.043 74.5429C153.043 74.3375 153.043 74.132 153.454 73.9266C153.659 73.9266 153.659 73.7212 153.659 73.5158C153.454 73.1049 153.249 72.4886 153.249 71.4615Z" fill="black"/>
<path d="M258.838 64.8882C258.633 65.0936 258.427 65.2991 258.222 65.5045C258.016 65.7099 257.811 65.7099 257.606 65.5045C257.4 65.2991 257.4 65.0936 257.606 64.8882C258.016 64.2719 258.427 63.6557 258.633 62.8339C258.633 62.6285 258.838 62.4231 259.249 62.4231C259.454 62.4231 259.66 62.8339 259.66 63.0394C259.454 63.6556 259.66 64.2719 260.071 64.8882C260.071 64.8882 260.071 64.8882 260.071 65.0936C260.071 65.7099 260.276 65.7099 260.892 65.5045C261.098 65.2991 261.303 65.2991 261.509 65.5045C261.714 65.7099 261.509 65.9153 261.303 66.1208C261.098 66.3262 260.892 66.3262 260.687 66.3262C260.071 66.5316 259.66 66.7371 259.043 66.9425C258.838 67.1479 258.427 67.1479 258.427 66.737C258.222 66.5316 258.427 66.3262 258.838 66.1208H259.043C259.454 65.7099 259.454 65.7099 258.838 64.8882Z" fill="black"/>
<path d="M212.412 46.194C212.412 45.9886 212.412 45.9886 212.412 45.7832C212.412 45.5777 212.617 45.1669 212.412 44.9615C212.206 44.756 212.001 44.9615 211.795 44.9615C211.384 44.9615 211.179 44.5506 211.384 44.3452C211.59 43.7289 211.795 43.1126 212.001 42.4963C212.001 42.2909 212.206 42.0855 212.412 42.2909C212.617 42.2909 212.822 42.4963 212.617 42.7018C212.617 43.1126 212.412 43.318 212.206 43.7289C212.206 43.9343 212.001 43.9343 212.206 44.1397C212.412 44.1397 212.617 44.1398 212.617 43.9343C212.617 43.7289 212.822 43.318 213.028 43.1126C213.233 42.9072 213.439 42.7018 213.644 42.9072C213.85 43.1126 213.85 43.318 213.85 43.5234C213.644 43.9343 213.439 44.1397 213.85 44.5506C214.055 44.756 213.85 44.9615 213.644 44.9615C213.439 44.9615 213.439 45.1669 213.233 45.3723C213.233 45.7832 213.233 46.194 213.233 46.6049C213.233 46.8103 213.233 47.2211 212.822 47.2211C212.412 47.2211 212.412 46.8103 212.412 46.6049C212.412 46.3994 212.412 46.3994 212.412 46.194Z" fill="black"/>
<path d="M209.946 80.2948C210.152 80.5003 210.357 80.2948 210.563 80.0894C210.563 79.884 210.768 79.884 210.768 79.6785C210.768 79.4731 210.973 79.2677 211.179 79.4731C211.384 79.4731 211.59 79.6786 211.384 79.884C211.384 80.0894 211.179 80.5003 211.384 80.7057C211.59 80.9111 211.384 81.1165 211.179 81.1165C210.768 81.1165 210.768 81.3219 210.768 81.5274C210.563 82.1437 210.563 82.5545 210.357 83.1708C210.357 83.3762 210.357 83.7871 209.946 83.7871C209.536 83.7871 209.536 83.3762 209.536 83.1708C209.536 82.5545 209.741 81.9382 209.946 81.5274C209.946 81.3219 209.946 81.1165 209.741 81.1165C209.536 81.1165 209.33 81.1165 209.125 81.1165C208.919 81.1165 208.714 81.1165 208.714 80.9111C208.714 80.7057 208.714 80.5002 208.919 80.5002C209.33 80.0894 209.741 79.6785 209.946 79.2677C209.946 79.0623 210.152 79.0623 210.357 79.0623C210.563 79.0623 210.563 79.2677 210.563 79.6785C210.357 79.884 210.152 80.0894 209.946 80.2948Z" fill="black"/>
<path d="M297.458 58.109C297.869 58.109 297.869 58.109 297.869 57.6981C297.869 57.4927 297.869 57.2873 297.869 57.0819C297.869 56.8764 298.075 56.4656 297.458 56.2602C297.047 56.0547 297.253 55.6439 297.458 55.6439C297.869 55.4384 298.075 55.233 298.28 55.0276C298.485 54.8222 298.691 54.6167 298.896 54.8221C299.102 55.0276 299.102 55.233 299.102 55.6439C298.485 56.4656 298.691 57.2873 298.485 58.109C298.485 58.3144 298.485 58.5198 298.691 58.5198C298.896 58.5198 299.102 58.7253 298.896 58.9307C298.896 59.1361 298.691 59.3416 298.485 59.1361C298.075 59.1361 297.664 59.1361 297.047 59.1361C296.637 59.1361 296.431 59.1361 296.431 58.7253C296.637 58.109 297.047 58.109 297.458 58.109Z" fill="black"/>
<path d="M170.504 59.9579C170.299 59.9579 170.299 59.9579 170.094 59.9579C169.683 59.7525 169.272 59.7525 169.066 60.3688C169.066 60.5742 168.656 60.5742 168.45 60.5742C168.245 60.3687 168.245 60.1633 168.245 60.1633C168.45 59.7525 168.245 59.5471 167.834 59.3416C167.628 59.3416 167.423 59.1362 167.218 58.9307C167.012 58.7253 167.012 58.7253 167.012 58.5199C167.218 58.3145 167.218 58.3145 167.423 58.3145C167.628 58.3145 167.834 58.5199 168.039 58.7253C168.245 58.9308 168.45 58.9308 168.45 58.5199C168.45 58.3145 168.656 57.9036 168.656 57.6982C168.656 57.4928 168.861 57.2874 169.066 57.2874C169.272 57.2874 169.477 57.4928 169.477 57.9036C169.477 58.3145 169.272 58.5199 169.272 58.9307C169.066 59.1362 169.272 59.3416 169.477 59.3416C169.683 59.3416 169.683 59.3416 169.888 59.3416C170.094 59.3416 170.504 59.3416 170.504 59.7525C171.121 59.9579 170.915 59.9579 170.504 59.9579Z" fill="black"/>
<path d="M178.516 46.194C178.311 46.3995 178.105 46.3995 178.105 46.6049C177.9 46.8103 177.694 46.8103 177.489 46.6049C177.283 46.3995 177.489 46.1941 177.489 45.9886C177.9 45.5778 178.105 45.1669 178.311 44.7561C178.516 44.5506 178.516 44.3452 178.927 44.3452C179.132 44.3452 179.338 44.7561 179.338 44.9615C179.338 45.5778 179.338 46.3995 179.338 47.0158C179.338 47.4266 179.338 47.6321 179.543 48.0429C179.543 48.2483 179.749 48.4537 179.338 48.6592C179.132 48.8646 178.927 48.6592 178.721 48.4538C178.516 48.0429 178.516 47.4266 178.516 47.0158C178.516 46.6049 178.516 46.3995 178.516 46.194Z" fill="black"/>
<path d="M290.679 59.5469C290.885 59.5469 291.09 59.7523 291.09 59.7523C291.295 59.9578 291.295 59.9578 291.501 59.7523L291.706 59.5469C291.912 59.3415 292.117 59.3415 292.323 59.5469C292.528 59.7523 292.528 59.9578 292.528 60.1632C292.528 60.1632 292.528 60.3686 292.323 60.3686C292.117 60.7795 291.912 60.9849 292.323 61.3958C292.528 61.3958 292.528 61.8066 292.323 62.012C292.117 62.2174 291.912 62.2174 291.706 62.012C291.295 61.8066 291.295 61.8066 291.09 62.2175C291.09 62.4229 290.885 62.6283 290.679 62.8337C290.474 63.0392 290.268 63.0391 290.063 63.0391C289.857 62.8337 289.857 62.6283 289.857 62.4229C289.857 62.2175 290.063 62.012 290.063 62.012C290.474 61.6012 290.679 60.9849 290.063 60.574C290.063 59.9577 290.268 59.5469 290.679 59.5469Z" fill="black"/>
</svg>
