<svg width="68" height="50" viewBox="0 0 68 50" fill="none" xmlns="http://www.w3.org/2000/svg">
<path d="M3.93197 5.7562C3.68795 4.75794 5.03008 5.25708 5.2741 4.63317C5.15209 4.13404 4.42001 3.7597 4.78605 3.01101C5.15208 2.26231 5.88416 3.01099 6.3722 2.76143C6.25019 2.2623 5.88416 2.01275 5.51812 1.76318C5.2741 1.51361 5.15208 1.26404 5.3961 1.01448C5.64013 0.640128 5.88415 0.640113 6.25018 0.764896C6.49421 0.889678 6.86026 1.13927 7.10428 1.26406C7.3483 1.38884 7.59232 1.38882 7.59232 1.01448C7.59232 0.640128 7.4703 0.141013 8.08036 0.0162303C8.69041 -0.108552 8.81243 0.515338 9.05645 0.889686C9.17846 1.13925 9.30048 1.38881 9.66651 1.38881C10.0325 1.13924 9.91054 0.26578 10.6426 0.390563C11.2527 0.515346 11.3747 1.13926 11.4967 1.63839C11.6187 2.01274 11.4967 2.51185 12.1067 2.63664C12.4728 2.38707 12.3508 1.51361 12.9608 1.76318C13.5709 2.01275 13.8149 2.63664 13.6929 3.38534C13.5709 3.75969 13.3269 4.13406 13.6929 4.38362C14.0589 4.63319 14.547 4.38361 14.791 4.13404C15.5231 3.63491 15.7671 2.8862 15.5231 2.01272C15.4011 1.63837 15.035 1.26403 15.279 0.889686C17.1092 1.38882 17.9633 3.01098 17.1092 4.50838C16.7432 5.13229 16.8652 5.50664 17.4753 5.88099C17.8413 6.00577 18.0853 6.25534 18.4513 6.50491C18.8174 6.87925 19.4274 7.25361 19.3054 7.87752C19.1834 8.62622 18.4514 8.00229 18.0853 8.25185C17.9633 8.25185 17.9633 8.37665 17.8413 8.50144C18.3293 9.12535 18.9394 9.3749 19.5495 9.49968C20.1595 9.62446 20.6475 9.87405 20.8916 10.3732C21.1356 10.8723 21.7457 11.7458 20.7696 11.9953C19.6715 12.2449 20.1595 12.8688 20.2815 13.368C20.8916 14.8653 22.1117 15.7388 23.4538 16.3627C24.6739 16.9866 26.2601 16.6123 26.6261 15.8636C26.9922 14.8653 26.1381 13.6175 24.6739 13.1184C24.4299 12.9936 24.1859 12.9936 23.9419 12.9936C23.6978 12.8688 23.3318 12.9936 23.3318 12.4945C27.8462 10.1236 29.9204 10.498 33.0927 14.2414C33.4588 14.6158 33.7028 14.8653 34.1908 15.1149C35.0449 15.4893 35.899 15.614 36.3871 14.7406C36.9971 13.7423 36.387 13.1184 35.655 12.6192C34.4349 11.7458 33.2147 10.9971 31.6286 10.9971C32.7267 10.1236 33.9468 9.74927 35.2889 9.87405C38.0952 9.99883 39.6814 11.7458 40.7795 14.1167C41.0235 14.491 41.1455 15.3645 41.8776 14.9901C42.4876 14.6158 42.2436 13.9919 41.9996 13.4927C41.5115 12.1201 40.5354 11.1219 39.8034 9.87405C40.4134 10.1236 41.0235 10.6227 41.6335 10.8723C43.7077 11.8706 45.6599 12.8688 46.88 15.3645C47.3681 16.4875 48.2222 17.4858 48.2222 18.7336C48.2222 18.9832 48.3442 19.108 48.3442 19.3575C48.3442 19.6071 48.4662 19.8567 48.7102 19.8567C48.9542 19.8567 49.0763 19.6071 49.1983 19.3575C49.3203 18.9832 49.1983 18.7336 49.1983 18.3593C49.0763 16.8619 48.5882 15.3645 47.8561 13.9919C49.3203 14.7406 50.5404 15.4893 51.6385 16.6123C53.1026 18.1097 53.4687 19.9814 52.8586 21.9779C52.6146 22.8514 52.4926 23.6001 52.2486 24.4736C52.1265 24.9727 52.3706 25.3471 52.7366 25.4719C53.3467 25.7214 53.4687 25.2223 53.7127 24.848C54.2007 24.0993 53.9567 23.3506 54.3228 22.4771C54.9328 23.2258 55.5429 23.8497 56.0309 24.5984C57.495 26.5949 57.007 28.4667 55.0548 29.8393C54.8108 29.9641 54.5668 30.0888 54.4447 30.2136C54.0787 30.4632 53.7127 30.8375 54.2007 31.3366C54.5668 31.8358 55.0548 31.8358 55.5429 31.5862C55.9089 31.3367 56.0309 30.7127 56.519 30.7127C57.129 32.834 56.641 35.0801 55.1768 35.9536C54.4448 36.328 53.8347 36.7023 54.0787 37.7006C54.3228 38.574 55.0548 38.9484 55.9089 38.9484C57.129 39.0732 58.2271 38.8236 59.3252 38.6989C60.3013 38.4493 60.3013 38.1997 59.6912 37.451C61.1554 37.3262 62.4975 37.3262 63.7176 37.2014C64.9378 37.2014 66.2799 37.0767 67.5 37.0767C66.8899 37.8254 66.1579 38.1997 65.6698 38.9484C64.8158 40.0714 63.5956 40.6953 62.4975 41.3193C61.8875 41.6936 61.1554 41.8184 60.5453 42.4423C60.1793 42.8167 59.8133 43.0662 59.3252 43.0662C57.373 42.9415 55.7869 44.4389 53.8347 44.1893C53.2246 44.0645 52.6146 44.1893 52.1265 43.6902C51.6385 43.191 51.0284 42.4423 50.1743 42.6919C49.3203 42.9414 48.4662 42.8167 47.6121 42.9415C46.514 43.0662 45.7819 43.6902 45.5379 44.8132C45.5379 45.0628 45.5379 45.3123 45.7819 45.5619C46.026 45.6867 46.148 45.6867 46.27 45.5619C46.514 45.3123 46.392 44.6884 46.88 44.938C47.2461 45.1876 47.2461 45.6867 47.2461 46.061C47.2461 47.0593 46.27 47.808 45.2939 47.5584C44.9278 47.4336 44.5618 47.1841 44.3178 47.0593C43.8298 46.8097 43.4637 46.9345 43.3417 47.4336C43.0977 47.9328 43.4637 48.1823 43.8297 48.3071C44.0738 48.4319 44.4398 48.3071 44.8058 48.8062C43.8298 49.4301 42.8537 50.5532 41.5115 49.6797C40.2914 48.931 40.7795 47.808 41.2675 46.6849C40.2914 46.4354 40.2914 47.0593 40.2914 47.6832C40.2914 48.0575 40.4134 48.6815 39.9254 48.5567C39.3153 48.4319 38.8273 47.9328 38.4612 47.4336C38.0952 46.9345 38.2172 46.4354 38.4612 45.9362C38.9493 45.3123 39.5593 44.938 40.2914 44.8132C42.1216 44.4389 43.7077 43.6902 44.5618 41.8184C44.6838 41.4441 44.9279 41.5688 45.1719 41.5688C45.4159 41.5688 45.2939 41.8184 45.2939 41.9432C44.5618 43.0662 44.4398 44.4388 42.9757 45.0627C42.3656 45.3123 41.7556 44.938 41.2675 45.6867C41.8776 46.3106 42.9757 46.8097 41.7556 47.808C41.5115 48.0575 41.6335 48.5567 41.8776 48.8062C42.1216 49.0558 42.4876 49.0558 42.7317 48.931C43.2197 48.6814 42.8537 48.3071 42.7317 47.9328C42.4876 47.0593 43.0977 46.6849 43.5857 46.1858C44.0738 45.6867 44.4398 46.061 44.6838 46.4354C44.9278 46.6849 45.2939 46.9345 45.5379 46.5601C45.904 46.1858 45.5379 45.9362 45.4159 45.6867C44.6838 44.1893 45.0499 42.9415 46.636 42.4423C48.5882 41.8184 50.6624 41.444 52.6146 42.5671C53.7127 43.191 54.9328 42.4423 56.0309 43.191C56.1529 43.191 56.3969 43.0662 56.519 42.9415C57.129 42.1928 57.9831 42.068 58.9592 42.068C59.5692 42.068 59.9353 41.8184 60.4233 41.5688C61.7655 40.8201 62.7415 39.5723 64.2057 39.198C64.5717 39.0732 65.0598 38.8236 65.0598 38.1997C63.5956 38.4493 62.2535 38.9484 60.6673 39.5723C61.2774 39.5723 61.5214 39.6971 61.8875 39.6971C59.5692 41.4441 52.8586 39.8219 50.7844 37.0767C51.0284 36.9519 51.1504 37.0767 51.3945 37.2014C51.7605 37.3262 52.0045 37.5758 52.3706 37.3262C52.7366 37.0767 52.4926 36.5775 52.3706 36.328C52.2485 35.8288 52.0045 35.3297 51.8825 34.581C52.9806 35.4545 53.9567 35.8288 55.0548 35.3297C55.5429 35.0801 56.0309 34.2067 55.5429 34.0819C54.3228 33.5827 53.5907 32.8341 53.3467 31.5862C53.3467 31.4614 52.9806 31.3366 52.8586 31.3366C51.7605 31.0871 51.7605 30.4632 52.2486 29.5897C52.6146 28.841 53.3467 28.4667 53.9567 27.8427C54.5668 27.2188 55.1768 26.5949 55.0548 25.4719C54.9328 25.5967 54.8108 25.5967 54.8108 25.5967C54.2007 26.7197 53.4687 27.3436 52.1265 26.7197C51.1504 26.2206 50.7844 25.3471 51.1504 23.8497C51.5165 22.4771 51.3945 21.1045 50.7844 19.3575C50.6624 20.3558 50.4184 20.9797 50.0523 21.6036C49.8083 22.1027 49.3203 22.2275 48.8322 22.2275C48.2222 22.2275 47.9781 21.7284 47.8561 21.354C47.7341 20.7301 47.6121 20.1062 47.6121 19.6071C47.7341 17.1114 46.27 15.614 44.6838 14.1167C44.3178 13.8671 43.9518 13.4928 43.5857 13.7423C43.0977 13.9919 43.4637 14.491 43.4637 14.8654C43.4637 15.2397 43.7077 15.614 43.7077 15.9884C43.7077 16.4875 43.7077 17.1114 43.2197 17.361C42.8537 17.6106 42.4876 16.9867 42.2436 16.8619C41.7555 16.4875 41.3895 15.9884 41.0235 15.4893C40.4134 14.491 39.8034 13.4928 39.0713 12.4945C38.3392 11.621 37.4851 10.9971 36.143 11.3714C36.5091 11.9953 36.9971 12.4945 37.1191 13.2432C37.2411 14.491 37.6072 15.4893 38.9493 16.1132C39.5593 16.3628 39.9254 16.9866 39.8034 17.7353C39.6814 18.484 39.0713 18.7336 38.4612 18.9832C37.1191 19.4823 36.265 18.7336 35.533 17.7353C33.9468 15.614 32.2386 13.7423 29.7984 12.4945C28.8223 11.9954 27.7242 11.7458 26.6261 11.7458C26.2601 11.7458 25.894 11.7458 25.772 12.1201C25.65 12.4945 25.894 12.6193 26.1381 12.8688C26.9922 13.4927 27.6022 14.3662 28.2123 15.2397C29.0663 16.6123 28.5783 17.7354 26.8701 17.8601C25.162 17.9849 23.6979 17.4858 22.3557 16.3627C21.0136 15.3645 20.2815 13.8671 19.0614 12.6192C18.8174 12.3697 18.6954 12.1201 18.8174 11.7458C19.3054 10.9971 18.6954 10.8723 18.2073 10.7475C17.5973 10.6227 16.8652 10.2484 17.3532 9.49968C17.8413 8.6262 17.3532 8.37666 16.9872 8.00231C16.4992 7.50318 16.0111 7.12884 15.401 6.87928C14.791 6.50493 14.0589 6.13056 14.0589 5.25708C14.1809 3.88447 13.3269 4.13406 12.7168 4.38362C11.6187 4.88275 10.5206 5.00751 9.42249 5.13229C8.93444 5.13229 8.44639 5.00753 8.08036 5.50666C8.44639 6.00579 9.05646 6.25534 9.54451 6.50491C11.3747 7.37838 12.2288 9.00056 12.7168 10.8723C13.0828 12.2449 12.5948 12.7441 11.2527 12.4945C9.05646 12.2449 7.10427 12.8688 6.12818 14.1167C6.73824 14.1167 7.59232 13.4928 7.71434 14.2414C7.95836 15.1149 6.98226 15.2397 6.3722 15.3645C5.51812 15.614 4.54203 15.8636 3.68795 16.1132C3.32192 16.238 2.71185 16.238 2.71185 16.6123C2.71185 16.9867 3.07789 17.361 3.32191 17.7353C3.44392 17.9849 3.80997 17.8601 4.05399 17.8601C4.29801 17.8601 4.54204 17.9849 4.66405 18.3593C4.78606 18.7336 4.54203 18.9832 4.29801 19.108C3.32192 19.3575 2.83386 20.231 1.97978 20.4806C2.46782 21.2293 2.95587 21.6036 3.80995 20.8549C4.54202 20.1062 5.2741 20.6054 5.88416 21.2293C6.12819 21.3541 6.37221 21.7284 6.12818 21.9779C5.88416 22.3523 5.64013 21.978 5.3961 21.8532C4.66404 21.3541 4.176 21.2293 3.68795 22.2275C3.56594 22.6019 3.32192 22.7266 2.83387 22.6019C2.46784 22.4771 2.10179 22.1027 1.73576 22.6019C1.36972 23.101 1.73575 23.6001 1.97978 23.9745C2.46782 24.848 3.32191 24.8479 4.17599 24.4736C4.78605 24.224 5.39611 23.8497 6.12818 23.8497C6.86025 23.8497 7.4703 24.0993 7.83634 24.7232C8.20237 25.4719 7.71432 25.971 7.22628 26.3453C6.98226 26.5949 6.61623 26.7197 6.73824 27.094C6.86025 27.5932 7.3483 27.718 7.71434 27.8427C8.56842 27.9675 9.30047 27.7179 9.91053 26.9693C10.6426 26.0958 10.6426 25.0975 10.1546 24.0993C10.0326 23.8497 9.54449 23.6001 9.91053 23.2258C10.5206 23.3506 10.6426 23.8497 10.8866 24.2241C11.4967 25.0975 12.3508 24.848 13.2049 24.7232C13.9369 24.5984 14.0589 23.8497 14.1809 23.2258C14.3029 22.1027 13.8149 21.2292 13.5709 20.1062C14.425 20.3558 14.303 21.2293 14.913 21.7284C15.157 20.3558 14.303 18.9832 15.035 17.6106C15.7671 16.3627 15.7671 14.9901 16.0111 13.6175C16.0111 16.1132 16.1331 18.484 15.7671 20.8549C15.4011 22.9762 14.913 25.3471 11.9847 25.3471C11.4967 25.3471 11.2527 25.7214 11.1306 26.3453C10.6426 28.3419 7.71432 29.0906 6.25018 27.718C5.51811 26.9693 5.51813 26.4701 6.49422 25.971C7.22629 25.4719 7.34829 24.7232 6.61622 24.4736C6.00616 24.0993 5.64013 24.5984 5.15209 24.9728C4.05398 25.8462 2.83386 25.7214 1.73576 24.7232C0.637654 23.6001 0.393638 22.4771 1.24772 21.354C1.36973 21.2292 1.49174 21.1045 1.24772 20.9797C0.149615 19.9814 1.36973 19.9814 1.85778 19.6071C1.61375 18.9832 0.759676 18.9832 1.0037 18.2345C1.24772 17.6106 1.97978 17.8601 2.34582 17.6106C2.10179 17.1114 1.24772 16.9867 1.49174 16.238C1.73576 15.6141 2.46784 16.1132 2.83387 15.6141C2.58985 15.2397 2.10179 14.8654 2.34582 14.3662C2.58984 13.8671 3.1999 14.1166 3.56593 13.9919C3.68794 13.9919 3.93198 13.9919 4.05399 13.9919C4.29801 13.9919 4.54204 13.9919 4.66405 13.7423C4.78606 13.4928 4.54202 13.2432 4.42001 13.1184C3.19989 11.9954 2.95588 10.6227 3.07789 9.00056C3.07789 8.25186 2.95588 7.62796 2.22382 7.25361C1.24772 6.75448 1.00368 5.881 1.36972 4.75796C1.49173 4.50839 1.61374 4.00925 1.97978 4.00925C2.46782 4.00925 2.2238 4.5084 2.34582 4.88275C2.71185 6.38014 4.42001 7.00405 5.64012 6.13057C5.3961 6.50492 4.17599 6.75446 3.93197 5.7562ZM8.69041 4.75796C9.54449 4.38361 10.5206 4.25883 11.4967 4.13404C11.7407 4.13404 11.9847 4.13406 11.9847 3.75971C11.8627 3.51014 11.8627 3.26056 11.4967 3.38534C10.5206 3.6349 9.66651 3.38534 8.69041 3.38534C8.20237 3.38534 8.20237 3.51014 8.08036 3.75971C7.95834 4.38362 7.71434 4.50839 7.10428 4.13404C6.86026 3.88448 6.49422 3.6349 6.12818 3.88446C5.88416 4.13403 6.12817 4.3836 6.25018 4.63317C6.37219 5.00751 6.61623 5.38187 7.10428 5.38187C7.71434 5.25709 8.20237 4.88274 8.69041 4.75796ZM9.66651 10.6228C10.6426 10.8723 10.7646 11.9954 11.4967 12.4945C11.6187 11.1219 10.7646 9.74928 9.78853 9.37493C9.42249 9.25015 9.17847 9.25015 8.81243 9.37493C8.4464 9.62449 8.5684 9.99882 8.69041 10.2484C9.05645 10.9971 9.17846 11.9953 9.91053 12.6192C10.5206 11.8706 9.66651 11.3715 9.66651 10.6228ZM5.3961 11.2467C6.25019 11.3715 6.61623 11.9954 7.10428 12.2449C7.10428 12.2449 7.22629 12.1201 7.10428 12.1201C6.86026 11.1219 6.2502 10.3732 5.2741 10.1236C5.03008 9.99881 4.66405 10.1236 4.66405 10.3732C4.42002 11.3714 5.03008 11.9953 5.51812 12.744C5.76215 13.1184 6.12819 13.4927 6.49422 13.9919C6.61623 12.744 5.88415 11.9954 5.3961 11.2467ZM15.7671 4.25883C15.5231 4.38362 15.4011 4.63318 15.7671 4.88275C16.0111 5.00753 16.2551 4.75795 16.3771 4.63317C16.8652 4.13404 16.9872 3.51011 16.4992 2.63664C16.2551 3.26055 16.1331 3.88449 15.7671 4.25883Z" fill="black"/>
<path d="M14.9131 33.9571C15.7672 33.9571 16.7432 34.0819 17.5973 33.7075C18.4514 33.3332 18.6954 32.834 17.7193 32.2101C17.5973 32.0853 17.3533 31.9606 17.2313 31.711C18.4514 32.3349 19.7935 32.0853 21.0136 32.7092C22.3558 33.4579 23.8199 33.2084 25.04 32.3349C25.4061 32.0853 25.6501 31.8358 25.6501 31.4614C25.6501 31.2119 25.5281 31.0871 25.2841 30.9623C24.796 30.9623 24.918 31.4614 24.674 31.711C23.8199 32.834 21.8677 32.834 21.1357 31.5862C20.8916 31.2119 20.7696 30.7127 21.3797 30.588C22.1118 30.4632 21.8677 30.0888 21.6237 29.7145C21.1357 29.0906 20.5256 28.841 19.7935 28.9658C19.0615 29.0905 18.6954 29.7145 18.6954 30.4632C18.6954 30.7127 18.9394 31.2118 18.4514 31.3366C17.9634 31.3366 17.5973 31.0871 17.2313 30.7127C16.9873 30.4631 16.8653 30.2136 17.1093 29.8393C17.8414 29.0906 17.2313 28.9658 16.6212 28.9658C15.8892 28.9658 15.1571 29.0906 14.7911 29.8393C14.425 30.588 14.9131 31.0871 15.4011 31.5862C15.5231 31.8358 15.8892 31.9606 16.0112 32.2101C16.2552 32.4597 17.1093 32.4597 16.7432 33.0836C16.3772 33.7075 15.7672 33.2084 15.2791 32.9588C14.7911 32.5845 14.303 31.5862 13.693 32.7092C13.2049 33.5827 13.4489 34.3314 14.303 34.9554C15.7672 35.8288 17.3533 35.9536 18.8174 35.0801C19.6715 34.581 20.5256 34.3314 21.5017 34.581C22.5998 34.8306 23.8199 34.581 25.04 34.4562C25.5281 34.3314 25.8941 34.2066 26.2601 33.8323C26.3822 33.7075 26.3822 33.4579 26.2601 33.3332C26.1381 33.0836 25.8941 33.2084 25.7721 33.3332C24.674 34.4562 23.3319 34.3314 21.9897 33.9571C20.8916 33.7075 19.9155 33.8323 18.8174 34.3314C17.5973 34.581 16.2552 34.8306 14.9131 33.9571Z" fill="black"/>
<path d="M3.19995 38.1997C4.42007 37.3262 4.6641 36.5775 3.56599 35.704C3.32197 35.4544 3.19997 35.2049 3.44399 34.581C3.93204 36.0784 4.78612 36.5775 6.12824 36.3279C6.7383 36.2031 7.34835 36.0784 7.22634 35.2049C7.22634 34.8305 7.22634 34.581 7.59238 34.581C8.08042 34.581 7.95842 34.9553 7.95842 35.2049C8.08043 36.3279 8.81249 36.9519 9.91059 37.3262C11.2527 37.7006 12.4728 37.451 13.3269 36.4527C12.2288 36.8271 11.1307 36.9519 10.1546 36.5775C9.66658 36.4527 9.05651 36.2032 9.05651 35.5793C8.9345 34.8306 9.54456 34.8305 10.0326 34.4562C9.42255 33.8323 8.69049 33.7075 7.95842 33.7075C7.22635 33.7075 6.49428 33.9571 6.49428 34.9553C6.49428 35.8288 5.76221 35.8288 5.27417 35.704C4.66411 35.5792 4.29806 35.2049 4.78611 34.4562C5.27415 33.8323 4.90813 33.7075 4.29807 33.7075C3.566 33.7075 2.95593 33.9571 2.5899 34.581C2.22386 35.2049 2.5899 35.8288 2.95594 36.3279C3.32197 36.8271 3.566 37.2014 2.83393 37.5758C2.71192 37.7005 2.46789 37.5758 2.34588 37.5758C2.10185 37.451 2.22387 37.3262 2.34588 37.0766C2.71191 36.3279 2.22387 36.4527 1.85784 36.4527C1.12577 36.5775 0.515704 36.9518 0.515704 37.7005C0.393692 38.4492 1.00376 38.8236 1.61382 39.0732C2.22388 39.3227 2.83393 39.1979 3.32197 39.0732C5.64019 38.574 7.95842 38.4493 10.3986 38.574C11.2527 38.574 12.1068 38.6988 12.7169 37.9501C9.66657 38.0749 6.49427 36.5775 3.19995 38.1997Z" fill="black"/>
<path d="M22.9658 44.5634C23.0878 44.4387 23.0878 44.3139 23.0878 44.3139C24.796 44.5635 26.3821 43.8147 28.0903 43.9395C29.5544 44.0643 30.4085 43.0661 31.3846 42.4422C31.7506 42.1926 31.3846 41.8182 31.0186 41.943C30.6525 41.943 30.0425 42.0678 29.9205 42.3174C29.3104 43.1908 28.4563 43.3156 27.6022 43.0661C27.3582 42.9413 26.9922 43.1908 26.6262 43.3156C25.7721 43.69 25.04 43.8148 24.0639 43.4404C22.9658 43.0661 22.1117 43.5652 21.6237 44.4386C21.1356 45.3121 21.1357 46.0608 22.3558 46.56C22.5998 46.0608 22.4778 45.4369 22.9658 45.0626C23.2098 44.9378 23.4539 44.813 23.6979 44.9378C23.8199 45.0626 23.9419 45.1874 23.9419 45.3121C23.5759 46.0608 23.4539 46.6848 24.1859 47.3087C24.918 47.9326 25.406 47.9326 26.7482 47.683C26.8702 47.1839 25.7721 47.3087 26.2601 46.6848C26.5042 46.3104 26.8702 46.4352 27.2362 46.6848C29.4324 47.9326 29.4324 47.9326 31.0186 45.8113C30.8966 45.5617 30.6525 45.6865 30.5305 45.6865C30.1645 45.8113 29.5544 46.1856 29.4324 45.8113C29.1884 45.3121 29.7985 44.9378 30.1645 44.6882C30.4085 44.5634 30.5305 44.4387 30.7746 44.3139C32.1167 43.9395 33.7028 44.3139 34.4349 42.6917C34.5569 42.6917 34.3129 42.5669 34.1909 42.5669C32.6047 43.4404 30.6525 43.1908 29.1884 44.5634C28.4563 45.3121 28.0903 46.0608 29.0664 46.9343C28.3343 47.1839 27.9683 46.56 27.6022 46.3104C26.2601 45.4369 25.5281 45.6865 25.162 47.4335C24.43 47.0591 23.5759 46.6847 24.552 45.6865C24.918 45.3121 24.552 45.0626 24.3079 44.6882C23.9419 44.6882 23.4539 44.6882 22.9658 44.5634Z" fill="black"/>
<path d="M4.29797 23.4754C4.41999 23.9746 4.78602 24.0994 5.15205 24.2241C5.51809 24.3489 5.76211 24.2242 5.76211 23.725C5.76211 23.2259 5.39608 22.9763 4.90803 22.9763C4.66401 22.9763 4.41999 23.2259 4.29797 23.4754Z" fill="black"/>
<path d="M3.32192 24.8482C3.68796 24.8482 3.80997 24.5986 3.68796 24.349C3.56595 23.9747 3.19992 23.6003 2.83388 23.6003C2.58986 23.6003 2.34583 23.7251 2.34583 24.0995C2.46784 24.5986 2.95589 24.7234 3.32192 24.8482Z" fill="black"/>
</svg>
