<svg width="24" height="24" viewBox="0 0 24 24" fill="none" xmlns="http://www.w3.org/2000/svg">
<path d="M17.5003 22.0001C16.4183 22.0126 15.3927 21.5182 14.7286 20.6638C14.0645 19.8095 13.8383 18.6936 14.1173 17.6481L7.85734 14.0701C6.77562 15.0611 5.19002 15.2709 3.88782 14.5952C2.58563 13.9195 1.84421 12.5023 2.0317 11.0473C2.2192 9.59226 3.29566 8.40932 4.72661 8.08583C6.15756 7.76234 7.63819 8.3672 8.43334 9.60008L14.1163 6.35108C14.0428 6.07327 14.0038 5.78744 14.0003 5.50008C13.986 3.8268 15.1481 2.37322 16.7835 2.0189C18.4189 1.66458 20.0785 2.50683 20.758 4.036C21.4375 5.56517 20.9503 7.36131 19.5913 8.33759C18.2323 9.31387 16.3746 9.20217 15.1423 8.07008L8.99134 11.5851C8.98524 11.8444 8.949 12.1021 8.88334 12.3531L15.1423 15.9301C16.2946 14.8726 18.0091 14.7094 19.3402 15.5304C20.6713 16.3514 21.295 17.9568 20.8672 19.4611C20.4394 20.9654 19.0643 22.0024 17.5003 22.0001ZM17.5003 17.0001C16.6719 17.0001 16.0003 17.6717 16.0003 18.5001C16.0003 19.3285 16.6719 20.0001 17.5003 20.0001C18.3288 20.0001 19.0003 19.3285 19.0003 18.5001C19.0003 17.6717 18.3288 17.0001 17.5003 17.0001ZM5.50034 10.0001C4.67191 10.0001 4.00034 10.6717 4.00034 11.5001C4.00034 12.3285 4.67191 13.0001 5.50034 13.0001C6.32876 13.0001 7.00034 12.3285 7.00034 11.5001C7.00034 10.6717 6.32876 10.0001 5.50034 10.0001ZM17.5003 4.00008C16.6719 4.00008 16.0003 4.67165 16.0003 5.50008C16.0003 6.32851 16.6719 7.00008 17.5003 7.00008C18.3288 7.00008 19.0003 6.32851 19.0003 5.50008C19.0003 4.67165 18.3288 4.00008 17.5003 4.00008Z" fill="black"/>
</svg>
