<?xml version="1.0" ?><svg fill="none" height="24" viewBox="8 8 48 44" width="24" xmlns="http://www.w3.org/2000/svg"><path clip-rule="evenodd" d="M49.4522 28.3726V43.648L31.9956 52.375L14.5391 43.648V28.3726L31.9956 19.6431L49.4522 28.3726Z" fill="url(#paint0_linear)" fill-rule="evenodd"/><path clip-rule="evenodd" d="M31.9946 19.6431V52.375L14.5381 43.648V28.3726L31.9946 19.6431Z" fill="url(#paint1_linear)" fill-rule="evenodd"/><path clip-rule="evenodd" d="M56 20.7344L49.4517 28.3709L31.9951 19.6438L38.541 12.0049L56 20.7344Z" fill="url(#paint2_linear)" fill-rule="evenodd"/><path clip-rule="evenodd" d="M7.99999 20.7295L14.5483 28.366L32.0049 19.6389L25.459 12L7.99999 20.7295Z" fill="url(#paint3_linear)" fill-rule="evenodd"/><path d="M20 26.9995C20 20.3721 25.3726 14.9995 32 14.9995C38.6274 14.9995 44 20.3721 44 26.9995C44 33.6269 38.6274 38.9995 32 38.9995C25.3726 38.9995 20 33.6269 20 26.9995Z" fill="#2E2882"/><path clip-rule="evenodd" d="M39.5998 23.0081L36.5895 25.3897L32.1998 22.7118L35.2462 20.1997L39.5998 23.0081ZM29.1534 20.1997L32.1997 22.7118L27.8102 25.3897L27.8101 25.3896L27.8101 25.3896L24.7998 23.0081L29.1534 20.1997ZM32.1998 28.0677L29.1534 30.5799L24.7998 27.7715L27.8101 25.3896L27.8102 25.3897L27.8102 25.3897L32.1998 28.0677ZM32.1998 28.0677L32.1997 28.0676L36.5896 25.3897L39.5997 27.7714L35.2462 30.5798L32.1998 28.0677ZM35.264 31.1129L32.2088 28.6081L29.1535 31.1129L27.846 30.2696V31.215L32.2088 33.7997L36.5715 31.215V30.2696L35.264 31.1129Z" fill="#FEB0A5" fill-rule="evenodd"/><path clip-rule="evenodd" d="M49.4517 43.6465L31.9951 52.376V37.1006L49.4517 28.3711V43.6465Z" fill="url(#paint4_linear)" fill-rule="evenodd"/><path clip-rule="evenodd" d="M14.5361 43.6465L31.9951 52.376V37.1006L14.5361 28.3711V43.6465Z" fill="url(#paint5_linear)" fill-rule="evenodd"/><path clip-rule="evenodd" d="M49.4517 28.3711L56 33.8264L38.541 42.5559L31.9951 37.1006L49.4517 28.3711Z" fill="url(#paint6_linear)" fill-rule="evenodd"/><path clip-rule="evenodd" d="M14.5483 28.3662L7.99999 33.8215L25.459 42.551L32.0049 37.0957L14.5483 28.3662Z" fill="url(#paint7_linear)" fill-rule="evenodd"/><defs><linearGradient gradientUnits="userSpaceOnUse" id="paint0_linear" x1="49.0846" x2="51.7922" y1="51.9947" y2="23.5582"><stop stop-color="#C6803A"/><stop offset="1" stop-color="#A4601D"/></linearGradient><linearGradient gradientUnits="userSpaceOnUse" id="paint1_linear" x1="34.5473" x2="20.0843" y1="41.7998" y2="26.5333"><stop stop-color="#9B5F1F"/><stop offset="1" stop-color="#824C1B"/></linearGradient><linearGradient gradientUnits="userSpaceOnUse" id="paint2_linear" x1="48.5888" x2="54.7331" y1="26.8284" y2="11.0505"><stop stop-color="#EEC089"/><stop offset="1" stop-color="#C18B54"/></linearGradient><linearGradient gradientUnits="userSpaceOnUse" id="paint3_linear" x1="24.9262" x2="18.1602" y1="30.6385" y2="17.2606"><stop stop-color="#EEC089"/><stop offset="1" stop-color="#C18B54"/></linearGradient><linearGradient gradientUnits="userSpaceOnUse" id="paint4_linear" x1="47.1751" x2="45.1224" y1="46.7115" y2="32.1185"><stop stop-color="#9B5F1F"/><stop offset="1" stop-color="#824C1B"/></linearGradient><linearGradient gradientUnits="userSpaceOnUse" id="paint5_linear" x1="16.6804" x2="19.0294" y1="46.5171" y2="32.0478"><stop stop-color="#C6803A"/><stop offset="1" stop-color="#A4601D"/></linearGradient><linearGradient gradientUnits="userSpaceOnUse" id="paint6_linear" x1="28.0967" x2="33.0365" y1="35.5173" y2="46.8444"><stop stop-color="#EEC089"/><stop offset="1" stop-color="#C18B54"/></linearGradient><linearGradient gradientUnits="userSpaceOnUse" id="paint7_linear" x1="34.6307" x2="28.5863" y1="35.9153" y2="53.2257"><stop stop-color="#EEC089"/><stop offset="1" stop-color="#C18B54"/></linearGradient></defs></svg>