<?xml version="1.0" ?><svg fill="none" height="24" viewBox="8 8 44 48" width="24" xmlns="http://www.w3.org/2000/svg"><path clip-rule="evenodd" d="M49.4522 28.8726V44.148L31.9956 52.875L14.5391 44.148V28.8726L31.9956 20.1431L49.4522 28.8726Z" fill="url(#paint0_linear)" fill-rule="evenodd"/><path clip-rule="evenodd" d="M31.9946 20.1431V52.875L14.5381 44.148V28.8726L31.9946 20.1431Z" fill="url(#paint1_linear)" fill-rule="evenodd"/><path clip-rule="evenodd" d="M56 21.2344L49.4517 28.8709L31.9951 20.1438L38.541 12.5049L56 21.2344Z" fill="url(#paint2_linear)" fill-rule="evenodd"/><path clip-rule="evenodd" d="M7.99999 21.2295L14.5483 28.866L32.0049 20.1389L25.459 12.5L7.99999 21.2295Z" fill="url(#paint3_linear)" fill-rule="evenodd"/><path d="M20 27.4995C20 20.8721 25.3726 15.4995 32 15.4995C38.6274 15.4995 44 20.8721 44 27.4995C44 34.1269 38.6274 39.4995 32 39.4995C25.3726 39.4995 20 34.1269 20 27.4995Z" fill="white"/><path clip-rule="evenodd" d="M38.3931 25.7288L38.3931 25.7288L38.3931 25.7288L38.3931 25.7289C38.3939 25.7328 38.3947 25.7369 38.3954 25.7411C38.3985 25.7636 38.4 25.7868 38.4 25.8104V29.5886C38.4 29.6118 38.3985 29.6351 38.3954 29.6583C38.3948 29.6618 38.3941 29.6654 38.3933 29.669L38.3921 29.675L38.3911 29.6812C38.3884 29.6963 38.3857 29.711 38.3818 29.7257L38.38 29.7319L38.3765 29.7421L38.3765 29.7421L38.3765 29.7421L38.3765 29.7421L38.3733 29.7517L38.3714 29.7572L38.3714 29.7573C38.3678 29.7683 38.364 29.7796 38.3597 29.7908C38.3562 29.7994 38.352 29.8079 38.3477 29.8164C38.3423 29.8284 38.3365 29.8401 38.3295 29.8521C38.3264 29.8575 38.323 29.8629 38.3195 29.8683L38.3195 29.8683L38.3195 29.8683L38.3144 29.8765C38.3074 29.8877 38.3 29.8982 38.2919 29.9086C38.2861 29.9168 38.2799 29.9245 38.2737 29.9319C38.2652 29.9416 38.2562 29.9517 38.2469 29.9606L38.2466 29.961C38.2397 29.9682 38.2332 29.975 38.226 29.9815C38.2159 29.9904 38.2059 29.9989 38.1958 30.0071L38.1885 30.0127C38.1829 30.017 38.1774 30.0212 38.1718 30.0253C38.1702 30.0263 38.1688 30.0274 38.1673 30.0286C38.1659 30.0297 38.1644 30.0309 38.1629 30.0319L32.4957 33.81C32.4062 33.8697 32.3031 33.8995 32.2 33.8995C32.0969 33.8995 31.9938 33.8697 31.9043 33.81L26.2375 30.0319C26.236 30.0309 26.2345 30.0297 26.2331 30.0286C26.2316 30.0274 26.2302 30.0263 26.2286 30.0253C26.2201 30.0195 26.2124 30.0133 26.2046 30.0071C26.1941 29.9989 26.1841 29.9904 26.1744 29.9815C26.167 29.9749 26.16 29.9679 26.1531 29.9606C26.1438 29.9517 26.1349 29.9416 26.1267 29.9319C26.1201 29.9245 26.1139 29.9168 26.1081 29.9086C26.1004 29.8982 26.093 29.8877 26.086 29.8765C26.0806 29.8683 26.0756 29.8602 26.0705 29.8521C26.0639 29.8401 26.0581 29.8284 26.0523 29.8164L26.0484 29.8079C26.0457 29.8022 26.043 29.7965 26.0407 29.7908C26.0358 29.779 26.0319 29.7671 26.028 29.7555L26.0267 29.7517L26.0242 29.744C26.0222 29.738 26.0202 29.732 26.0186 29.7257C26.0147 29.711 26.012 29.6963 26.0093 29.6812L26.008 29.6751C26.0068 29.6694 26.0056 29.6637 26.005 29.6583C26.0019 29.6351 26 29.6118 26 29.5886V25.8104C26 25.7868 26.0019 25.7636 26.005 25.7411C26.0056 25.7351 26.0068 25.7295 26.008 25.7239L26.0093 25.7178L26.0093 25.7178C26.012 25.7027 26.0147 25.6876 26.0186 25.6733C26.0202 25.667 26.0222 25.661 26.0242 25.655L26.0242 25.655L26.0267 25.6473C26.031 25.6341 26.0353 25.6213 26.0407 25.6086C26.0441 25.5999 26.0482 25.5912 26.052 25.5832L26.052 25.5832L26.0523 25.5826C26.0581 25.5702 26.0639 25.5586 26.0705 25.5473C26.0756 25.5388 26.0806 25.5307 26.086 25.5225C26.093 25.5113 26.1004 25.5004 26.1081 25.49C26.1139 25.4822 26.1201 25.4745 26.1267 25.4671C26.1349 25.457 26.1438 25.4474 26.1531 25.4381L26.1572 25.4339L26.1572 25.4338C26.1628 25.4282 26.1685 25.4225 26.1744 25.4175C26.1841 25.4086 26.1941 25.4001 26.2046 25.3919C26.2124 25.3857 26.2201 25.3795 26.2286 25.3737C26.2302 25.3728 26.2316 25.3716 26.2331 25.3704L26.2331 25.3704L26.2331 25.3704L26.2331 25.3704L26.2331 25.3704C26.2345 25.3693 26.236 25.3681 26.2375 25.3671L31.9043 21.589C32.0837 21.4697 32.3166 21.4697 32.4957 21.589L38.1629 25.3671C38.1644 25.3681 38.1659 25.3693 38.1673 25.3704L38.1686 25.3714L38.1718 25.3737L38.1774 25.3779L38.1885 25.3863L38.1958 25.3919C38.2059 25.4001 38.2159 25.4086 38.226 25.4175C38.2313 25.4219 38.2361 25.427 38.241 25.432L38.2469 25.4381C38.2562 25.4474 38.2652 25.457 38.2737 25.4671C38.2799 25.4745 38.2861 25.4822 38.2919 25.49C38.3 25.5004 38.3074 25.5113 38.3144 25.5225L38.3186 25.5293C38.3223 25.5352 38.3261 25.5412 38.3295 25.5473C38.3365 25.5586 38.3423 25.5702 38.3477 25.5826C38.352 25.5907 38.3562 25.5996 38.3597 25.6086C38.3647 25.6213 38.369 25.6341 38.3733 25.6473L38.3765 25.6569L38.3765 25.6569C38.3784 25.6623 38.3803 25.6677 38.3818 25.6733C38.3857 25.6876 38.3884 25.7027 38.3911 25.7178L38.392 25.7229L38.3931 25.7288ZM36.9077 25.8112L32.7328 23.0282V25.5132L35.0431 27.0586L36.9077 25.8112ZM31.6672 23.0282V25.5132L29.3573 27.0586L27.4923 25.8112L31.6672 23.0282ZM28.399 27.6995L27.0656 26.8079V28.5912L28.399 27.6995ZM31.6672 32.3708L27.4923 29.5878L29.3573 28.3408L31.6672 29.8858V32.3708ZM30.3156 27.6995L32.2 28.9601L34.0848 27.6995L32.2 26.439L30.3156 27.6995ZM32.7328 32.3708V29.8858L35.0431 28.3408L36.9077 29.5878L32.7328 32.3708ZM36.0014 27.6995L37.3344 28.5912V26.8079L36.0014 27.6995Z" fill="#0B0B0A" fill-rule="evenodd"/><path clip-rule="evenodd" d="M49.4517 44.1465L31.9951 52.876V37.6006L49.4517 28.8711V44.1465Z" fill="url(#paint4_linear)" fill-rule="evenodd"/><path clip-rule="evenodd" d="M14.5361 44.1465L31.9951 52.876V37.6006L14.5361 28.8711V44.1465Z" fill="url(#paint5_linear)" fill-rule="evenodd"/><path clip-rule="evenodd" d="M49.4517 28.8711L56 34.3264L38.541 43.0559L31.9951 37.6006L49.4517 28.8711Z" fill="url(#paint6_linear)" fill-rule="evenodd"/><path clip-rule="evenodd" d="M14.5483 28.8662L7.99999 34.3215L25.459 43.051L32.0049 37.5957L14.5483 28.8662Z" fill="url(#paint7_linear)" fill-rule="evenodd"/><defs><linearGradient gradientUnits="userSpaceOnUse" id="paint0_linear" x1="49.0846" x2="51.7922" y1="52.4947" y2="24.0582"><stop stop-color="#C6803A"/><stop offset="1" stop-color="#A4601D"/></linearGradient><linearGradient gradientUnits="userSpaceOnUse" id="paint1_linear" x1="34.5473" x2="20.0843" y1="42.2998" y2="27.0333"><stop stop-color="#9B5F1F"/><stop offset="1" stop-color="#824C1B"/></linearGradient><linearGradient gradientUnits="userSpaceOnUse" id="paint2_linear" x1="48.5888" x2="54.7331" y1="27.3284" y2="11.5505"><stop stop-color="#EEC089"/><stop offset="1" stop-color="#C18B54"/></linearGradient><linearGradient gradientUnits="userSpaceOnUse" id="paint3_linear" x1="24.9262" x2="18.1602" y1="31.1385" y2="17.7606"><stop stop-color="#EEC089"/><stop offset="1" stop-color="#C18B54"/></linearGradient><linearGradient gradientUnits="userSpaceOnUse" id="paint4_linear" x1="47.1751" x2="45.1224" y1="47.2115" y2="32.6185"><stop stop-color="#9B5F1F"/><stop offset="1" stop-color="#824C1B"/></linearGradient><linearGradient gradientUnits="userSpaceOnUse" id="paint5_linear" x1="16.6804" x2="19.0294" y1="47.0171" y2="32.5478"><stop stop-color="#C6803A"/><stop offset="1" stop-color="#A4601D"/></linearGradient><linearGradient gradientUnits="userSpaceOnUse" id="paint6_linear" x1="28.0967" x2="33.0365" y1="36.0173" y2="47.3444"><stop stop-color="#EEC089"/><stop offset="1" stop-color="#C18B54"/></linearGradient><linearGradient gradientUnits="userSpaceOnUse" id="paint7_linear" x1="34.6307" x2="28.5863" y1="36.4153" y2="53.7257"><stop stop-color="#EEC089"/><stop offset="1" stop-color="#C18B54"/></linearGradient></defs></svg>