<svg width="24" height="24" viewBox="0 0 24 24" fill="none" xmlns="http://www.w3.org/2000/svg">
<path d="M15 15.25H15.25V15V13.5C15.25 13.3971 15.2064 13.3075 15.1688 13.2456C15.1279 13.1781 15.0732 13.1102 15.0127 13.044C14.8914 12.9111 14.7245 12.7613 14.5334 12.6048C14.1498 12.2906 13.6425 11.928 13.1407 11.5863C12.6377 11.2437 12.1353 10.919 11.759 10.68C11.5707 10.5605 11.4138 10.4623 11.3039 10.3939C11.2844 10.3818 11.2664 10.3707 11.25 10.3605V3C11.25 2.30964 10.6904 1.75 10 1.75H9.5C8.80964 1.75 8.25 2.30964 8.25 3V10.3605C8.23357 10.3707 8.21558 10.3818 8.19612 10.3939C8.08618 10.4623 7.92925 10.5605 7.74099 10.68C7.36467 10.919 6.86226 11.2437 6.35929 11.5863C5.85746 11.928 5.35023 12.2906 4.96659 12.6048C4.77553 12.7613 4.60858 12.9111 4.48726 13.044C4.42681 13.1102 4.37214 13.1781 4.33121 13.2456C4.29361 13.3075 4.25 13.3971 4.25 13.5V15V15.25H4.5H15Z" fill="#FFC424" stroke="black" stroke-width="0.5"/>
<circle cx="17.5" cy="19.5" r="0.5" fill="black"/>
<circle r="0.5" transform="matrix(1 0 0 -1 19.5 21.5)" fill="black"/>
<circle r="1" transform="matrix(1 0 0 -1 20 18)" fill="black"/>
<mask id="path-5-outside-1" maskUnits="userSpaceOnUse" x="1.5" y="14.5" width="14" height="8" fill="black">
<rect fill="white" x="1.5" y="14.5" width="14" height="8"/>
<path d="M15 15.5C15 20 13 22 13 22H2.5C2.5 22 4.5 20 4.5 15.5H15Z"/>
</mask>
<path d="M15 15.5C15 20 13 22 13 22H2.5C2.5 22 4.5 20 4.5 15.5H15Z" fill="#DDEEF9"/>
<path d="M13 22V22.5C13.1326 22.5 13.2598 22.4473 13.3536 22.3536L13 22ZM15 15.5H15.5V15H15V15.5ZM2.5 22L2.14645 21.6464C2.00345 21.7894 1.96067 22.0045 2.03806 22.1913C2.11545 22.3782 2.29777 22.5 2.5 22.5V22ZM4.5 15.5V15H4V15.5H4.5ZM13 22C13.3536 22.3536 13.3538 22.3534 13.354 22.3531C13.354 22.3531 13.3543 22.3528 13.3544 22.3527C13.3547 22.3524 13.3551 22.352 13.3555 22.3516C13.3562 22.3509 13.3571 22.35 13.3581 22.3489C13.3601 22.3469 13.3626 22.3444 13.3655 22.3413C13.3714 22.3352 13.3791 22.3271 13.3886 22.317C13.4074 22.2967 13.4331 22.2683 13.4647 22.2316C13.5279 22.1583 13.6146 22.0518 13.7169 21.9113C13.9213 21.6301 14.1879 21.2125 14.4524 20.6504C14.9823 19.5243 15.5 17.8268 15.5 15.5H14.5C14.5 17.6732 14.0177 19.2257 13.5476 20.2246C13.3121 20.725 13.0787 21.0886 12.9081 21.3231C12.8229 21.4404 12.7533 21.5253 12.7071 21.5789C12.684 21.6057 12.6668 21.6247 12.6564 21.6359C12.6511 21.6415 12.6476 21.6452 12.6459 21.6469C12.6451 21.6478 12.6447 21.6482 12.6448 21.6481C12.6448 21.6481 12.645 21.6479 12.6453 21.6476C12.6454 21.6475 12.6456 21.6473 12.6458 21.6471C12.6459 21.647 12.646 21.6469 12.6461 21.6468C12.6463 21.6466 12.6464 21.6464 13 22ZM2.5 22C2.85355 22.3536 2.85376 22.3534 2.85396 22.3531C2.85404 22.3531 2.85426 22.3528 2.85442 22.3527C2.85474 22.3524 2.85509 22.352 2.85547 22.3516C2.85623 22.3509 2.85712 22.35 2.85812 22.3489C2.86012 22.3469 2.8626 22.3444 2.86553 22.3413C2.87141 22.3352 2.87912 22.3271 2.88855 22.317C2.90741 22.2967 2.93314 22.2683 2.96474 22.2316C3.02794 22.1583 3.11464 22.0518 3.21687 21.9113C3.42134 21.6301 3.6879 21.2125 3.95241 20.6504C4.48234 19.5243 5 17.8268 5 15.5H4C4 17.6732 3.51766 19.2257 3.04759 20.2246C2.8121 20.725 2.57866 21.0886 2.40813 21.3231C2.32286 21.4404 2.25331 21.5253 2.20713 21.5789C2.18404 21.6057 2.1668 21.6247 2.15637 21.6359C2.15115 21.6415 2.14763 21.6452 2.14594 21.6469C2.14509 21.6478 2.1447 21.6482 2.14478 21.6481C2.14482 21.6481 2.14498 21.6479 2.14526 21.6476C2.14539 21.6475 2.14556 21.6473 2.14576 21.6471C2.14586 21.647 2.14603 21.6469 2.14608 21.6468C2.14626 21.6466 2.14645 21.6464 2.5 22ZM4.5 16H15V15H4.5V16ZM13 21.5H2.5V22.5H13V21.5Z" fill="black" mask="url(#path-5-outside-1)"/>
</svg>
