<svg width="24" height="24" viewBox="0 0 24 24" fill="none" xmlns="http://www.w3.org/2000/svg">
<path d="M18.0831 14.4031L10.7831 6.98169L2.67195 15.2277C1.77602 16.1385 1.77602 17.6153 2.67195 18.5261L5.10528 20.9999H11.5942L18.0831 14.4031Z" fill="#FF8A91"/>
<path d="M18.0837 14.4031L14.8393 11.1047L5.10596 20.9999H11.5948L18.0837 14.4031Z" fill="#F57E85"/>
<path d="M14.0276 3.68312C14.9236 2.77229 16.3762 2.77229 17.2721 3.68312L21.3276 7.80612C22.2236 8.71695 22.2236 10.1937 21.3276 11.1045L18.0832 14.4029L10.7832 6.98152L14.0276 3.68312Z" fill="#A5C6F9"/>
<path d="M19.706 6.15723L21.3282 7.80643C22.2242 8.71725 22.2242 10.194 21.3282 11.1048L18.0838 14.4032L14.8394 11.1048L19.706 6.15723Z" fill="#8AB0EA"/>
<path d="M17.0942 3.85868L21.1498 7.98168C21.95 8.79522 21.95 10.1159 21.1498 10.9294L11.4899 20.75H5.21053L2.85066 18.3508C2.05043 17.5373 2.05043 16.2166 2.85066 15.4031L14.2062 3.85868C15.0042 3.04743 16.2962 3.04743 17.0942 3.85868Z" stroke="black" stroke-width="0.5"/>
<path d="M17.0939 3.85843L21.1494 7.98143C21.9496 8.79497 21.9496 10.1157 21.1494 10.9292L18.0832 14.0464L11.1339 6.98152L14.2059 3.85843C15.0038 3.04719 16.2959 3.04719 17.0939 3.85843Z" stroke="black" stroke-width="0.5"/>
</svg>
