<svg width="24" height="24" viewBox="0 0 24 24" fill="none" xmlns="http://www.w3.org/2000/svg">
<rect x="2" y="2" width="20" height="20" fill="#E0F3FF"/>
<path d="M5.33333 2L2 4M5.33333 2L8.66667 4M5.33333 2H12M5.33333 2H3C2.44771 2 2 2.44772 2 3V4M2 4V8M2 8L5.33333 10M2 8V16M5.33333 10L8.66667 8M5.33333 10V14M8.66667 8V4M8.66667 8L12 10M8.66667 4L12 2M12 2L15.3333 4M12 2H18.6667M12 10L15.3333 8M12 10V14M15.3333 8V4M15.3333 8L18.6667 10M15.3333 4L18.6667 2M18.6667 2L22 4M18.6667 2H21C21.5523 2 22 2.44772 22 3V4M18.6667 10L22 8M18.6667 10V14M22 8V4M22 8L22 16M5.33333 14L8.66667 16M5.33333 14L2 16M8.66667 16L12 14M8.66667 16V20M12 14L15.3333 16M15.3333 16L18.6667 14M15.3333 16V20M18.6667 14L22 16M22 16L22 20M2 16V20M2 20L5.33333 22M2 20V21C2 21.5523 2.44772 22 3 22H5.33333M5.33333 22L8.66667 20M5.33333 22H12M8.66667 20L12 22M12 22L15.3333 20M12 22H18.6667M15.3333 20L18.6667 22M18.6667 22L22 20M18.6667 22H21C21.5523 22 22 21.5523 22 21V20" stroke="black" stroke-width="0.5"/>
</svg>
