<svg width="24" height="24" viewBox="0 0 24 24" fill="none" xmlns="http://www.w3.org/2000/svg">
<path d="M2.25 3C2.25 2.58579 2.58579 2.25 3 2.25H19.5858C19.7847 2.25 19.9755 2.32902 20.1161 2.46967L21.5303 3.88388C21.671 4.02454 21.75 4.2153 21.75 4.41421V21C21.75 21.4142 21.4142 21.75 21 21.75L3.00003 21.75C2.58581 21.75 2.25003 21.4143 2.25003 21L2.25 3Z" fill="#59A3FA" stroke="black" stroke-width="0.5"/>
<path d="M5.75 21.5V21.75H6H18H18.25V21.5V14.5C18.25 14.0858 17.9142 13.75 17.5 13.75H6.5C6.08579 13.75 5.75 14.0858 5.75 14.5V21.5Z" fill="#E0F3FF" stroke="black" stroke-width="0.5"/>
<path d="M7 2.25H6.75V2.5V8C6.75 8.41421 7.08579 8.75 7.5 8.75H16.5C16.9142 8.75 17.25 8.41421 17.25 8V2.5V2.25H17H7ZM14.5 3.25H15.5C15.9142 3.25 16.25 3.58579 16.25 4V7C16.25 7.41421 15.9142 7.75 15.5 7.75H14.5C14.0858 7.75 13.75 7.41421 13.75 7V4C13.75 3.58579 14.0858 3.25 14.5 3.25Z" fill="#E0F3FF" stroke="black" stroke-width="0.5"/>
<path d="M8 16H16" stroke="#B9D3E4" stroke-width="0.5" stroke-linecap="round"/>
<path d="M8 18H16" stroke="#B9D3E4" stroke-width="0.5" stroke-linecap="round"/>
<path d="M8 20H16" stroke="#B9D3E4" stroke-width="0.5" stroke-linecap="round"/>
</svg>
