<svg width="24" height="24" viewBox="0 0 24 24" fill="none" xmlns="http://www.w3.org/2000/svg">
<path d="M7 5L3 5L14 16L16 14L7 5Z" fill="#DDEEF9"/>
<path d="M15 15L5 5L7 5L16 14L15 15Z" fill="#B8D0DF"/>
<path d="M2.8232 5.17676L2.39655 4.75L3 4.75L7 4.75L7.10355 4.75L7.17677 4.82321L17.3006 14.946C17.6775 14.8188 18.081 14.75 18.5 14.75C20.5711 14.75 22.25 16.4289 22.25 18.5C22.25 20.5711 20.5711 22.25 18.5 22.25C16.4289 22.25 14.75 20.5711 14.75 18.5C14.75 18.1281 14.8042 17.7684 14.9053 17.4287C14.918 17.3861 14.9314 17.3439 14.9455 17.3019L2.8232 5.17676ZM18.5 16.75C17.5335 16.75 16.75 17.5335 16.75 18.5C16.75 19.4665 17.5335 20.25 18.5 20.25C19.4665 20.25 20.25 19.4665 20.25 18.5C20.25 17.5335 19.4665 16.75 18.5 16.75Z" stroke="black" stroke-width="0.5"/>
<path fill-rule="evenodd" clip-rule="evenodd" d="M16 14L17.2354 15.2354C17.6276 15.0834 18.0541 15 18.5 15C20.433 15 22 16.567 22 18.5C22 20.433 20.433 22 18.5 22C16.567 22 15 20.433 15 18.5C15 18.0541 15.0834 17.6276 15.2354 17.2354L14 16L16 14ZM16.5 18.5C16.5 17.3954 17.3954 16.5 18.5 16.5C19.6046 16.5 20.5 17.3954 20.5 18.5C20.5 19.6046 19.6046 20.5 18.5 20.5C17.3954 20.5 16.5 19.6046 16.5 18.5Z" fill="#FFC424"/>
<path d="M7 19L3 19L14 8L16 10L7 19Z" fill="#DDEEF9"/>
<path d="M2.8232 18.8232L2.39655 19.25L3 19.25L7 19.25L7.10355 19.25L7.17677 19.1768L17.3006 9.05401C17.6775 9.18117 18.081 9.25 18.5 9.25C20.5711 9.25 22.25 7.57107 22.25 5.5C22.25 3.42893 20.5711 1.75 18.5 1.75C16.4289 1.75 14.75 3.42893 14.75 5.5C14.75 5.87189 14.8042 6.23156 14.9053 6.57131C14.918 6.61389 14.9314 6.65615 14.9455 6.69807L2.8232 18.8232ZM18.5 7.25C17.5335 7.25 16.75 6.4665 16.75 5.5C16.75 4.5335 17.5335 3.75 18.5 3.75C19.4665 3.75 20.25 4.5335 20.25 5.5C20.25 6.4665 19.4665 7.25 18.5 7.25Z" stroke="black" stroke-width="0.5"/>
<path fill-rule="evenodd" clip-rule="evenodd" d="M16 10L17.2354 8.76457C17.6276 8.91661 18.0541 9 18.5 9C20.433 9 22 7.433 22 5.5C22 3.567 20.433 2 18.5 2C16.567 2 15 3.567 15 5.5C15 5.94592 15.0834 6.37236 15.2354 6.76457L14 8L16 10ZM16.5 5.5C16.5 6.60457 17.3954 7.5 18.5 7.5C19.6046 7.5 20.5 6.60457 20.5 5.5C20.5 4.39543 19.6046 3.5 18.5 3.5C17.3954 3.5 16.5 4.39543 16.5 5.5Z" fill="#FFC424"/>
<path d="M16 10L14 8" stroke="black" stroke-width="0.5"/>
<path d="M16 14L14 16" stroke="black" stroke-width="0.5"/>
<circle cx="12" cy="12" r="1" transform="rotate(-90 12 12)" fill="#2F2F2F"/>
</svg>
