<?xml version="1.0" ?><svg fill="none" height="24" viewBox="8 8 44 48" width="24" xmlns="http://www.w3.org/2000/svg"><path clip-rule="evenodd" d="M49.4522 28.3726V43.648L31.9956 52.375L14.5391 43.648V28.3726L31.9956 19.6431L49.4522 28.3726Z" fill="url(#paint0_linear)" fill-rule="evenodd"/><path clip-rule="evenodd" d="M31.9946 19.6431V52.375L14.5381 43.648V28.3726L31.9946 19.6431Z" fill="url(#paint1_linear)" fill-rule="evenodd"/><path clip-rule="evenodd" d="M56 20.7344L49.4517 28.3709L31.9951 19.6438L38.541 12.0049L56 20.7344Z" fill="url(#paint2_linear)" fill-rule="evenodd"/><path clip-rule="evenodd" d="M7.99999 20.7295L14.5483 28.366L32.0049 19.6389L25.459 12L7.99999 20.7295Z" fill="url(#paint3_linear)" fill-rule="evenodd"/><path d="M32 38.9995C38.6274 38.9995 44 33.6269 44 26.9995C44 20.3721 38.6274 14.9995 32 14.9995C25.3726 14.9995 20 20.3721 20 26.9995C20 33.6269 25.3726 38.9995 32 38.9995Z" fill="#2BDE73"/><path d="M30.6986 25.089L32.8994 21.9006C33.3154 21.2999 33.8525 20.9995 34.5111 20.9995C35.0483 20.9995 35.513 21.1901 35.9061 21.5713C36.2987 21.9525 36.4951 22.4088 36.4951 22.9402C36.4951 23.333 36.3913 23.6797 36.1833 23.98L34.199 26.8652L36.6251 29.9411C36.8677 30.2473 36.989 30.6055 36.989 31.0155C36.989 31.5586 36.7986 32.0248 36.4172 32.4147C36.036 32.8048 35.5736 32.9995 35.0309 32.9995C34.4358 32.9995 33.9826 32.8062 33.6705 32.4191L30.6986 28.7108V30.7557C30.6986 31.3391 30.5976 31.7924 30.3954 32.1159C30.0257 32.7049 29.4885 32.9995 28.7839 32.9995C28.1427 32.9995 27.6458 32.7829 27.2936 32.3498C26.9643 31.9512 26.7998 31.4225 26.7998 30.7643V23.1829C26.7998 22.559 26.9671 22.0451 27.3023 21.6407C27.6546 21.2133 28.1397 20.9995 28.7578 20.9995C29.347 20.9995 29.8379 21.2133 30.2307 21.6407C30.4502 21.8774 30.5888 22.1172 30.6466 22.3598C30.6813 22.5101 30.6986 22.7901 30.6986 23.2002V25.089Z" fill="white"/><path clip-rule="evenodd" d="M49.4517 43.6465L31.9951 52.376V37.1006L49.4517 28.3711V43.6465Z" fill="url(#paint4_linear)" fill-rule="evenodd"/><path clip-rule="evenodd" d="M14.5361 43.6465L31.9951 52.376V37.1006L14.5361 28.3711V43.6465Z" fill="url(#paint5_linear)" fill-rule="evenodd"/><path clip-rule="evenodd" d="M49.4517 28.3711L56 33.8264L38.541 42.5559L31.9951 37.1006L49.4517 28.3711Z" fill="url(#paint6_linear)" fill-rule="evenodd"/><path clip-rule="evenodd" d="M14.5483 28.3662L7.99999 33.8215L25.459 42.551L32.0049 37.0957L14.5483 28.3662Z" fill="url(#paint7_linear)" fill-rule="evenodd"/><defs><linearGradient gradientUnits="userSpaceOnUse" id="paint0_linear" x1="49.0846" x2="51.7922" y1="51.9947" y2="23.5582"><stop stop-color="#C6803A"/><stop offset="1" stop-color="#A4601D"/></linearGradient><linearGradient gradientUnits="userSpaceOnUse" id="paint1_linear" x1="34.5473" x2="20.0843" y1="41.7998" y2="26.5333"><stop stop-color="#9B5F1F"/><stop offset="1" stop-color="#824C1B"/></linearGradient><linearGradient gradientUnits="userSpaceOnUse" id="paint2_linear" x1="48.5888" x2="54.7331" y1="26.8284" y2="11.0505"><stop stop-color="#EEC089"/><stop offset="1" stop-color="#C18B54"/></linearGradient><linearGradient gradientUnits="userSpaceOnUse" id="paint3_linear" x1="24.9262" x2="18.1602" y1="30.6385" y2="17.2606"><stop stop-color="#EEC089"/><stop offset="1" stop-color="#C18B54"/></linearGradient><linearGradient gradientUnits="userSpaceOnUse" id="paint4_linear" x1="47.1751" x2="45.1224" y1="46.7115" y2="32.1185"><stop stop-color="#9B5F1F"/><stop offset="1" stop-color="#824C1B"/></linearGradient><linearGradient gradientUnits="userSpaceOnUse" id="paint5_linear" x1="16.6804" x2="19.0294" y1="46.5171" y2="32.0478"><stop stop-color="#C6803A"/><stop offset="1" stop-color="#A4601D"/></linearGradient><linearGradient gradientUnits="userSpaceOnUse" id="paint6_linear" x1="28.0967" x2="33.0365" y1="35.5173" y2="46.8444"><stop stop-color="#EEC089"/><stop offset="1" stop-color="#C18B54"/></linearGradient><linearGradient gradientUnits="userSpaceOnUse" id="paint7_linear" x1="34.6307" x2="28.5863" y1="35.9153" y2="53.2257"><stop stop-color="#EEC089"/><stop offset="1" stop-color="#C18B54"/></linearGradient></defs></svg>