<svg width="24" height="24" viewBox="0 0 24 24" fill="none" xmlns="http://www.w3.org/2000/svg">
<rect x="2" y="2" width="20" height="20" fill="#E0F3FF"/>
<path d="M2 8.66667L5.33333 2M2 8.66667L5.33333 15.3333M2 8.66667H8.66667M2 8.66667V15.3333M2 8.66667V3C2 2.44771 2.44772 2 3 2H5.33333M5.33333 2L8.66667 8.66667M5.33333 2H12M8.66667 8.66667L12 2M8.66667 8.66667L5.33333 15.3333M8.66667 8.66667L12 15.3333M8.66667 8.66667H15.3333M12 2L15.3333 8.66667M12 2H18.6667M15.3333 8.66667L18.6667 2M15.3333 8.66667L12 15.3333M15.3333 8.66667L18.6667 15.3333M15.3333 8.66667H22M18.6667 2L22 8.66667M18.6667 2H21C21.5523 2 22 2.44772 22 3V8.66667M22 8.66667L18.6667 15.3333M22 8.66667V15.3333M5.33333 15.3333L8.66667 22M5.33333 15.3333H2M5.33333 15.3333H12M5.33333 15.3333L2 21M12 15.3333L8.66667 22M12 15.3333L15.3333 22M12 15.3333H18.6667M18.6667 15.3333L15.3333 22M18.6667 15.3333H22M18.6667 15.3333L22 21M8.66667 22H15.3333M8.66667 22H3C2.44771 22 2 21.5523 2 21V21M15.3333 22H21C21.5523 22 22 21.5523 22 21V21M2 15.3333V21M22 15.3333V21" stroke="black" stroke-width="0.5"/>
</svg>
