<svg width="24" height="24" viewBox="0 0 24 24" fill="none" xmlns="http://www.w3.org/2000/svg">
<path d="M19 7V3L8 14L10 16L19 7Z" fill="#DDEEF9"/>
<path d="M9 15L19 5V7L10 16L9 15Z" fill="#B8D0DF"/>
<path d="M18.8232 2.8232L19.25 2.39655V3V7V7.10355L19.1768 7.17677L9.05401 17.3006C9.18117 17.6775 9.25 18.081 9.25 18.5C9.25 20.5711 7.57107 22.25 5.5 22.25C3.42893 22.25 1.75 20.5711 1.75 18.5C1.75 16.4289 3.42893 14.75 5.5 14.75C5.87189 14.75 6.23156 14.8042 6.57131 14.9053C6.61389 14.918 6.65615 14.9314 6.69807 14.9455L18.8232 2.8232ZM7.25 18.5C7.25 17.5335 6.4665 16.75 5.5 16.75C4.5335 16.75 3.75 17.5335 3.75 18.5C3.75 19.4665 4.5335 20.25 5.5 20.25C6.4665 20.25 7.25 19.4665 7.25 18.5Z" stroke="black" stroke-width="0.5"/>
<path fill-rule="evenodd" clip-rule="evenodd" d="M10 16L8.76457 17.2354C8.91661 17.6276 9 18.0541 9 18.5C9 20.433 7.433 22 5.5 22C3.567 22 2 20.433 2 18.5C2 16.567 3.567 15 5.5 15C5.94592 15 6.37236 15.0834 6.76457 15.2354L8 14L10 16ZM5.5 16.5C6.60457 16.5 7.5 17.3954 7.5 18.5C7.5 19.6046 6.60457 20.5 5.5 20.5C4.39543 20.5 3.5 19.6046 3.5 18.5C3.5 17.3954 4.39543 16.5 5.5 16.5Z" fill="#FFC424"/>
<path d="M5 7V3L16 14L14 16L5 7Z" fill="#DDEEF9"/>
<path d="M5.17676 2.8232L4.75 2.39655V3V7V7.10355L4.82321 7.17677L14.946 17.3006C14.8188 17.6775 14.75 18.081 14.75 18.5C14.75 20.5711 16.4289 22.25 18.5 22.25C20.5711 22.25 22.25 20.5711 22.25 18.5C22.25 16.4289 20.5711 14.75 18.5 14.75C18.1281 14.75 17.7684 14.8042 17.4287 14.9053C17.3861 14.918 17.3439 14.9314 17.3019 14.9455L5.17676 2.8232ZM16.75 18.5C16.75 17.5335 17.5335 16.75 18.5 16.75C19.4665 16.75 20.25 17.5335 20.25 18.5C20.25 19.4665 19.4665 20.25 18.5 20.25C17.5335 20.25 16.75 19.4665 16.75 18.5Z" stroke="black" stroke-width="0.5"/>
<path fill-rule="evenodd" clip-rule="evenodd" d="M14 16L15.2354 17.2354C15.0834 17.6276 15 18.0541 15 18.5C15 20.433 16.567 22 18.5 22C20.433 22 22 20.433 22 18.5C22 16.567 20.433 15 18.5 15C18.0541 15 17.6276 15.0834 17.2354 15.2354L16 14L14 16ZM18.5 16.5C17.3954 16.5 16.5 17.3954 16.5 18.5C16.5 19.6046 17.3954 20.5 18.5 20.5C19.6046 20.5 20.5 19.6046 20.5 18.5C20.5 17.3954 19.6046 16.5 18.5 16.5Z" fill="#FFC424"/>
<path d="M14 16L16 14" stroke="black" stroke-width="0.5"/>
<path d="M10 16L8 14" stroke="black" stroke-width="0.5"/>
<circle cx="12" cy="12" r="1" fill="#2F2F2F"/>
</svg>
