<svg width="24" height="24" viewBox="0 0 24 24" fill="none" xmlns="http://www.w3.org/2000/svg">
<path d="M14.1637 20.6924C18.4452 19.134 20.6528 14.3998 19.0945 10.1182C17.5647 5.91525 12.9746 3.71081 8.75653 5.10542L8.29353 3.83334C8.16671 3.48488 7.6965 3.43077 7.49383 3.74131L5.12548 7.37018C4.96152 7.62141 5.08464 7.9597 5.37173 8.04676L9.51859 9.30429C9.87345 9.4119 10.1989 9.0682 10.072 8.71974L9.61214 7.45617C12.532 6.5327 15.6878 8.06787 16.7452 10.9733C17.8314 13.9574 16.2927 17.257 13.3086 18.3431C10.6302 19.318 7.69722 18.1783 6.33936 15.7766C6.02023 15.2122 5.3353 14.8601 4.67865 15.0991C4.03886 15.332 3.67162 16.0625 4.00117 16.7067C5.86954 20.3588 10.2094 22.1316 14.1637 20.6924Z" fill="#FFC424" stroke="black" stroke-width="0.5"/>
</svg>
