<?xml version="1.0" ?><svg fill="none" height="24" viewBox="8 8 44 48" width="24" xmlns="http://www.w3.org/2000/svg"><path clip-rule="evenodd" d="M49.4522 28.3726V43.648L31.9956 52.375L14.5391 43.648V28.3726L31.9956 19.6431L49.4522 28.3726Z" fill="url(#paint0_linear)" fill-rule="evenodd"/><path clip-rule="evenodd" d="M31.9946 19.6431V52.375L14.5381 43.648V28.3726L31.9946 19.6431Z" fill="url(#paint1_linear)" fill-rule="evenodd"/><path clip-rule="evenodd" d="M56 20.7344L49.4517 28.3709L31.9951 19.6438L38.541 12.0049L56 20.7344Z" fill="url(#paint2_linear)" fill-rule="evenodd"/><path clip-rule="evenodd" d="M7.99999 20.7295L14.5483 28.366L32.0049 19.6389L25.459 12L7.99999 20.7295Z" fill="url(#paint3_linear)" fill-rule="evenodd"/><path d="M20 22.9995C20 18.5812 23.5817 14.9995 28 14.9995H36C40.4183 14.9995 44 18.5812 44 22.9995V30.9995C44 35.4178 40.4183 38.9995 36 38.9995H28C23.5817 38.9995 20 35.4178 20 30.9995V22.9995Z" fill="#107C10"/><path clip-rule="evenodd" d="M29.2592 21.2697C29.8451 21.4283 30.6304 21.7391 31.0043 21.9605C31.4676 22.2348 31.6687 22.3594 31.8632 22.3498C32.0265 22.3417 32.1853 22.239 32.4908 22.0508C33.2533 21.5812 35.1579 21.0042 35.595 21.1104C35.7913 21.1581 35.4648 20.9572 34.8694 20.6641C33.3398 19.911 31.2867 19.7881 29.5521 20.3458C28.8894 20.5589 28.3127 20.7891 28.2705 20.8573C28.2284 20.9255 28.6733 21.1111 29.2592 21.2697ZM37.6052 30.9819C37.5861 29.5948 36.5006 27.4988 34.5353 25.0546L33.5852 23.873L34.437 23.0914C34.9055 22.6615 35.5712 22.1585 35.9163 21.9737L36.5439 21.6376L37.239 22.3151C37.6214 22.6877 38.1796 23.4899 38.4795 24.0978C38.9494 25.0501 39.0329 25.4201 39.0835 26.7731C39.1513 28.5878 38.8751 29.7594 38.1098 30.9029L37.6144 31.6431L37.6052 30.9819ZM24.8381 24.8705C24.1647 26.6436 24.5275 29.3748 25.6568 31.0335C26.102 31.6873 26.2034 31.7544 26.059 31.2996C25.773 30.3982 27.2516 27.4306 29.1715 25.0529L30.1269 23.8696L29.2347 23.0705C28.744 22.631 28.0837 22.132 27.7673 21.9617C27.2351 21.675 27.161 21.6724 26.7741 21.9259C26.2384 22.2768 25.2553 23.7723 24.8381 24.8705ZM26.4772 31.7652C26.4772 32.4349 28.4085 33.6753 30.1405 34.118C31.9857 34.5896 34.5733 34.0858 36.1558 32.9468C37.4679 32.0024 37.512 31.6695 36.5229 30.1762C35.9133 29.2559 33.1885 26.4336 32.3369 25.8404L31.7948 25.4628L30.586 26.5058C28.4374 28.3597 26.4772 30.8688 26.4772 31.7652Z" fill="white" fill-rule="evenodd"/><path clip-rule="evenodd" d="M49.4517 43.6465L31.9951 52.376V37.1006L49.4517 28.3711V43.6465Z" fill="url(#paint4_linear)" fill-rule="evenodd"/><path clip-rule="evenodd" d="M14.5361 43.6465L31.9951 52.376V37.1006L14.5361 28.3711V43.6465Z" fill="url(#paint5_linear)" fill-rule="evenodd"/><path clip-rule="evenodd" d="M49.4517 28.3711L56 33.8264L38.541 42.5559L31.9951 37.1006L49.4517 28.3711Z" fill="url(#paint6_linear)" fill-rule="evenodd"/><path clip-rule="evenodd" d="M14.5483 28.3662L7.99999 33.8215L25.459 42.551L32.0049 37.0957L14.5483 28.3662Z" fill="url(#paint7_linear)" fill-rule="evenodd"/><defs><linearGradient gradientUnits="userSpaceOnUse" id="paint0_linear" x1="49.0846" x2="51.7922" y1="51.9947" y2="23.5582"><stop stop-color="#C6803A"/><stop offset="1" stop-color="#A4601D"/></linearGradient><linearGradient gradientUnits="userSpaceOnUse" id="paint1_linear" x1="34.5473" x2="20.0843" y1="41.7998" y2="26.5333"><stop stop-color="#9B5F1F"/><stop offset="1" stop-color="#824C1B"/></linearGradient><linearGradient gradientUnits="userSpaceOnUse" id="paint2_linear" x1="48.5888" x2="54.7331" y1="26.8284" y2="11.0505"><stop stop-color="#EEC089"/><stop offset="1" stop-color="#C18B54"/></linearGradient><linearGradient gradientUnits="userSpaceOnUse" id="paint3_linear" x1="24.9262" x2="18.1602" y1="30.6385" y2="17.2606"><stop stop-color="#EEC089"/><stop offset="1" stop-color="#C18B54"/></linearGradient><linearGradient gradientUnits="userSpaceOnUse" id="paint4_linear" x1="47.1751" x2="45.1224" y1="46.7115" y2="32.1185"><stop stop-color="#9B5F1F"/><stop offset="1" stop-color="#824C1B"/></linearGradient><linearGradient gradientUnits="userSpaceOnUse" id="paint5_linear" x1="16.6804" x2="19.0294" y1="46.5171" y2="32.0478"><stop stop-color="#C6803A"/><stop offset="1" stop-color="#A4601D"/></linearGradient><linearGradient gradientUnits="userSpaceOnUse" id="paint6_linear" x1="28.0967" x2="33.0365" y1="35.5173" y2="46.8444"><stop stop-color="#EEC089"/><stop offset="1" stop-color="#C18B54"/></linearGradient><linearGradient gradientUnits="userSpaceOnUse" id="paint7_linear" x1="34.6307" x2="28.5863" y1="35.9153" y2="53.2257"><stop stop-color="#EEC089"/><stop offset="1" stop-color="#C18B54"/></linearGradient></defs></svg>