<svg width="24" height="24" viewBox="0 0 24 24" fill="none" xmlns="http://www.w3.org/2000/svg">
<path fill-rule="evenodd" clip-rule="evenodd" d="M22.0607 5.43934C22.6464 6.02513 22.6464 6.97487 22.0607 7.56066L10.5607 19.0607C9.97487 19.6464 9.02513 19.6464 8.43934 19.0607L2.93934 13.5607C2.35355 12.9749 2.35355 12.0251 2.93934 11.4393C3.52513 10.8536 4.47487 10.8536 5.06066 11.4393L8.79289 15.1716C9.18342 15.5621 9.81658 15.5621 10.2071 15.1716L19.9393 5.43934C20.5251 4.85355 21.4749 4.85355 22.0607 5.43934Z" fill="#6DD353"/>
<path d="M2.76256 11.2625L9.5 17.9999L22.2374 5.26245C22.9209 5.94587 22.9209 7.05391 22.2374 7.73732L10.7374 19.2373C10.054 19.9207 8.94598 19.9207 8.26256 19.2373L2.76256 13.7373C2.07915 13.0539 2.07915 11.9459 2.76256 11.2625Z" fill="#40BD40"/>
<path fill-rule="evenodd" clip-rule="evenodd" d="M22.0607 5.43934C22.6464 6.02513 22.6464 6.97487 22.0607 7.56066L10.5607 19.0607C9.97487 19.6464 9.02513 19.6464 8.43934 19.0607L2.93934 13.5607C2.35355 12.9749 2.35355 12.0251 2.93934 11.4393C3.52513 10.8536 4.47487 10.8536 5.06066 11.4393L8.79289 15.1716C9.18342 15.5621 9.81658 15.5621 10.2071 15.1716L19.9393 5.43934C20.5251 4.85355 21.4749 4.85355 22.0607 5.43934Z" stroke="black" stroke-width="0.5" stroke-linecap="round" stroke-linejoin="round"/>
</svg>
