<svg width="24" height="24" viewBox="0 0 24 24" fill="none" xmlns="http://www.w3.org/2000/svg">
<rect x="2" y="2" width="20" height="20" fill="#E0F3FF"/>
<path d="M2 8.66667V3C2 2.44772 2.44771 2 3 2H8.66667M2 8.66667H8.66667M2 8.66667V15.3333M8.66667 8.66667V2M8.66667 8.66667H15.3333M8.66667 8.66667V15.3333M8.66667 2H15.3333M15.3333 8.66667V2M15.3333 8.66667H22M15.3333 8.66667V15.3333M15.3333 2H21C21.5523 2 22 2.44771 22 3V8.66667M22 8.66667V15.3333M2 15.3333H8.66667M2 15.3333V21C2 21.5523 2.44772 22 3 22H8.66667M8.66667 15.3333H15.3333M8.66667 15.3333V22M15.3333 15.3333H22M15.3333 15.3333V22M22 15.3333V21C22 21.5523 21.5523 22 21 22H15.3333M8.66667 22H15.3333" stroke="black" stroke-width="0.5"/>
</svg>
