<svg width="24" height="24" viewBox="0 0 24 24" fill="none" xmlns="http://www.w3.org/2000/svg">
<path d="M20 19H4V21.5C4 21.7761 4.22386 22 4.5 22H19.5C19.7761 22 20 21.7761 20 21.5V19Z" fill="#F4DFA3"/>
<path d="M4 19V10L12 4L20 10V19H4Z" fill="#FFECBA"/>
<path d="M4 21V10L12 4L20 10V21C20 21.5523 19.5523 22 19 22H5C4.44772 22 4 21.5523 4 21Z" stroke="black" stroke-width="0.5"/>
<path d="M9.5 15.5C9.5 14.9477 9.94772 14.5 10.5 14.5H14C14.5523 14.5 15 14.9477 15 15.5V22H9.5V15.5Z" fill="#FD847C"/>
<path d="M9.5 19H15V22H9.5V19Z" fill="#E66C65"/>
<path d="M9.5 15.5C9.5 14.9477 9.94772 14.5 10.5 14.5H14C14.5523 14.5 15 14.9477 15 15.5V22H9.5V15.5Z" stroke="black" stroke-width="0.5"/>
<path d="M20 10H4L12 4L20 10Z" fill="#F4DFA3"/>
<path d="M2.61689 9.50649L11.3753 2.49976C11.7405 2.20758 12.2595 2.20758 12.6247 2.49976L21.3831 9.50649C21.7122 9.76975 21.7394 10.2606 21.4414 10.5586C21.1892 10.8108 20.7888 10.8357 20.5073 10.6168L12.6139 4.47751C12.2528 4.19665 11.7472 4.19665 11.3861 4.47751L3.49272 10.6168C3.21123 10.8357 2.81078 10.8108 2.55862 10.5586C2.26062 10.2606 2.28781 9.76975 2.61689 9.50649Z" fill="#FD847C" stroke="black" stroke-width="0.5"/>
</svg>
