<svg width="24" height="24" viewBox="1 1 20 20" fill="none" xmlns="http://www.w3.org/2000/svg">
<g filter="url(#filter0_d)">
<mask id="path-1-outside-1" maskUnits="userSpaceOnUse" x="3" y="1.5" width="16" height="19" fill="black">
<rect fill="white" x="3" y="1.5" width="16" height="19"/>
<path fill-rule="evenodd" clip-rule="evenodd" d="M7.83555 12.5L6.94894 11.1453C6.34355 10.2203 5.05404 9.88288 4.06767 10.39L4.2975 10.2718C4.05272 10.3977 3.93534 10.7114 4.03613 10.9721L5.2634 14.1474C5.45796 14.6508 5.95486 15.3627 6.36661 15.7203C6.36661 15.7203 8.83555 17.7639 8.83555 18.53V19.5H12.8355L13.8355 17.5L14.8355 19.5H15.8355V18.53C15.8355 17.7639 17.3444 15.3507 17.3444 15.3507C17.6221 14.8816 17.8536 14.0552 17.8536 13.5066V9.4718C17.8355 8.5785 17.0762 7.85454 16.1393 7.85454C15.6705 7.85454 15.2909 8.21652 15.2909 8.66341V8.98657C15.2909 8.09327 14.5315 7.36931 13.5946 7.36931C13.1258 7.36931 12.7462 7.73129 12.7462 8.17819V8.50135C12.7462 7.60804 11.9868 6.88408 11.0499 6.88408C10.5812 6.88408 10.2015 7.24606 10.2015 7.69296V8.01612C10.2015 7.87256 10.1862 7.75843 10.1565 7.66799L9.89773 3.50121C9.86274 2.93776 9.38783 2.5 8.83555 2.5C8.27941 2.5 7.83555 2.94763 7.83555 3.49981V7.5V12.5ZM14.8536 11.5H15.3536V15.5H14.8536V11.5ZM12.8536 11.5H13.3536V15.5H12.8536V11.5ZM10.8536 11.5H11.3536V15.5H10.8536V11.5Z"/>
</mask>
<path fill-rule="evenodd" clip-rule="evenodd" d="M7.83555 12.5L6.94894 11.1453C6.34355 10.2203 5.05404 9.88288 4.06767 10.39L4.2975 10.2718C4.05272 10.3977 3.93534 10.7114 4.03613 10.9721L5.2634 14.1474C5.45796 14.6508 5.95486 15.3627 6.36661 15.7203C6.36661 15.7203 8.83555 17.7639 8.83555 18.53V19.5H12.8355L13.8355 17.5L14.8355 19.5H15.8355V18.53C15.8355 17.7639 17.3444 15.3507 17.3444 15.3507C17.6221 14.8816 17.8536 14.0552 17.8536 13.5066V9.4718C17.8355 8.5785 17.0762 7.85454 16.1393 7.85454C15.6705 7.85454 15.2909 8.21652 15.2909 8.66341V8.98657C15.2909 8.09327 14.5315 7.36931 13.5946 7.36931C13.1258 7.36931 12.7462 7.73129 12.7462 8.17819V8.50135C12.7462 7.60804 11.9868 6.88408 11.0499 6.88408C10.5812 6.88408 10.2015 7.24606 10.2015 7.69296V8.01612C10.2015 7.87256 10.1862 7.75843 10.1565 7.66799L9.89773 3.50121C9.86274 2.93776 9.38783 2.5 8.83555 2.5C8.27941 2.5 7.83555 2.94763 7.83555 3.49981V7.5V12.5ZM14.8536 11.5H15.3536V15.5H14.8536V11.5ZM12.8536 11.5H13.3536V15.5H12.8536V11.5ZM10.8536 11.5H11.3536V15.5H10.8536V11.5Z" fill="white"/>
<path d="M7.83555 12.5L7.41719 12.7738L8.33555 14.177V12.5H7.83555ZM6.94894 11.1453L7.3673 10.8715V10.8715L6.94894 11.1453ZM4.03613 10.9721L3.56975 11.1524H3.56975L4.03613 10.9721ZM5.2634 14.1474L5.72978 13.9672L5.2634 14.1474ZM6.36661 15.7203L6.03865 16.0979L6.0478 16.1055L6.36661 15.7203ZM8.83555 19.5H8.33555V20H8.83555V19.5ZM12.8355 19.5V20H13.1446L13.2828 19.7236L12.8355 19.5ZM13.8355 17.5L14.2828 17.2764L13.8355 16.382L13.3883 17.2764L13.8355 17.5ZM14.8355 19.5L14.3883 19.7236L14.5265 20H14.8355V19.5ZM15.8355 19.5V20H16.3355V19.5H15.8355ZM17.3444 15.3507L17.7685 15.6158L17.7746 15.6054L17.3444 15.3507ZM17.8536 9.4718H18.3537L18.3535 9.46168L17.8536 9.4718ZM10.1565 7.66799L9.65747 7.69898L9.66144 7.76289L9.68138 7.82373L10.1565 7.66799ZM9.89773 3.50121L9.39869 3.53221L9.89773 3.50121ZM7.83555 3.49981H7.33555H7.83555ZM15.3536 11.5H15.8536V11H15.3536V11.5ZM15.3536 15.5V16H15.8536V15.5H15.3536ZM14.8536 15.5H14.3536V16H14.8536V15.5ZM13.3536 11.5H13.8536V11H13.3536V11.5ZM13.3536 15.5V16H13.8536V15.5H13.3536ZM12.8536 15.5H12.3536V16H12.8536V15.5ZM11.3536 11.5H11.8536V11H11.3536V11.5ZM11.3536 15.5V16H11.8536V15.5H11.3536ZM10.8536 15.5H10.3536V16H10.8536V15.5ZM8.25391 12.2262L7.3673 10.8715L6.53057 11.4191L7.41719 12.7738L8.25391 12.2262ZM7.3673 10.8715C6.62081 9.73094 5.05148 9.32199 3.83907 9.94529L4.29628 10.8346C5.05659 10.4438 6.06629 10.7098 6.53057 11.4191L7.3673 10.8715ZM4.29628 10.8346L4.52611 10.7165L4.0689 9.82713L3.83907 9.94529L4.29628 10.8346ZM4.0689 9.82713C3.59189 10.0724 3.37878 10.6583 3.56975 11.1524L4.5025 10.7919C4.5001 10.7857 4.4972 10.7689 4.50562 10.7463C4.51409 10.7237 4.52579 10.7167 4.52611 10.7165L4.0689 9.82713ZM3.56975 11.1524L4.79702 14.3277L5.72978 13.9672L4.5025 10.7919L3.56975 11.1524ZM4.79702 14.3277C5.02066 14.9063 5.56476 15.6861 6.03874 16.0978L6.69448 15.3428C6.34495 15.0392 5.89526 14.3953 5.72978 13.9672L4.79702 14.3277ZM6.36661 15.7203C6.0478 16.1055 6.04778 16.1055 6.04776 16.1055C6.04777 16.1055 6.04776 16.1055 6.04778 16.1055C6.0478 16.1055 6.04787 16.1055 6.04797 16.1056C6.04818 16.1058 6.04853 16.1061 6.04903 16.1065C6.05003 16.1073 6.0516 16.1086 6.05374 16.1104C6.05803 16.114 6.06456 16.1194 6.07318 16.1267C6.09044 16.1411 6.11608 16.1627 6.1489 16.1906C6.21458 16.2464 6.30886 16.3274 6.42219 16.4271C6.64936 16.6268 6.95067 16.8997 7.2506 17.1945C7.55273 17.4914 7.84299 17.8005 8.05424 18.0736C8.16012 18.2106 8.23749 18.3274 8.28631 18.4209C8.34033 18.5243 8.33555 18.5542 8.33555 18.53H9.33555C9.33555 18.3143 9.25361 18.1128 9.17261 17.9578C9.08641 17.7928 8.9709 17.6243 8.84531 17.4619C8.59364 17.1365 8.26667 16.791 7.95157 16.4813C7.63425 16.1694 7.31833 15.8835 7.08257 15.6761C6.96444 15.5722 6.86584 15.4876 6.79649 15.4286C6.76181 15.3991 6.7344 15.3761 6.7155 15.3602C6.70604 15.3523 6.69871 15.3462 6.69364 15.342C6.69111 15.3399 6.68915 15.3382 6.68777 15.3371C6.68708 15.3365 6.68654 15.3361 6.68615 15.3357C6.68595 15.3356 6.6858 15.3354 6.68567 15.3353C6.68561 15.3353 6.68555 15.3352 6.68552 15.3352C6.68547 15.3352 6.68542 15.3351 6.36661 15.7203ZM8.33555 18.53V19.5H9.33555V18.53H8.33555ZM8.83555 20H12.8355V19H8.83555V20ZM13.2828 19.7236L14.2828 17.7236L13.3883 17.2764L12.3883 19.2764L13.2828 19.7236ZM13.3883 17.7236L14.3883 19.7236L15.2828 19.2764L14.2828 17.2764L13.3883 17.7236ZM14.8355 20H15.8355V19H14.8355V20ZM16.3355 19.5V18.53H15.3355V19.5H16.3355ZM16.3355 18.53C16.3355 18.4522 16.3882 18.244 16.5317 17.905C16.6644 17.5917 16.8448 17.2337 17.03 16.8905C17.2144 16.5488 17.3993 16.2294 17.5385 15.995C17.608 15.878 17.6659 15.7826 17.7061 15.7167C17.7263 15.6837 17.742 15.6582 17.7526 15.641C17.7579 15.6325 17.762 15.626 17.7646 15.6217C17.7659 15.6196 17.7669 15.618 17.7675 15.617C17.7679 15.6165 17.7681 15.6162 17.7682 15.616C17.7683 15.6158 17.7683 15.6158 17.7683 15.6157C17.7684 15.6157 17.7684 15.6157 17.7684 15.6157C17.7684 15.6157 17.7683 15.6158 17.3444 15.3507C16.9204 15.0856 16.9204 15.0856 16.9204 15.0857C16.9204 15.0857 16.9203 15.0858 16.9203 15.0858C16.9202 15.0859 16.9201 15.0861 16.92 15.0863C16.9198 15.0867 16.9195 15.0872 16.919 15.0878C16.9182 15.0892 16.917 15.0911 16.9155 15.0935C16.9124 15.0984 16.908 15.1056 16.9022 15.1149C16.8908 15.1335 16.8741 15.1605 16.853 15.1951C16.8107 15.2641 16.7507 15.3632 16.6787 15.4844C16.535 15.7264 16.3428 16.0582 16.1499 16.4156C15.958 16.7714 15.7611 17.1604 15.6109 17.515C15.4715 17.8441 15.3355 18.2248 15.3355 18.53H16.3355ZM17.7746 15.6054C17.943 15.3211 18.085 14.9527 18.185 14.5921C18.2849 14.2318 18.3536 13.8409 18.3536 13.5066H17.3536C17.3536 13.7209 17.3066 14.0175 17.2214 14.3248C17.1362 14.6318 17.0236 14.9111 16.9142 15.0959L17.7746 15.6054ZM18.3536 13.5066V9.4718H17.3536V13.5066H18.3536ZM18.3535 9.46168C18.3296 8.28015 17.332 7.35454 16.1393 7.35454V8.35454C16.8204 8.35454 17.3415 8.87684 17.3537 9.48193L18.3535 9.46168ZM16.1393 7.35454C15.4171 7.35454 14.7909 7.91817 14.7909 8.66341H15.7909C15.7909 8.51487 15.9239 8.35454 16.1393 8.35454V7.35454ZM14.7909 8.66341V8.98657H15.7909V8.66341H14.7909ZM15.7909 8.98657C15.7909 7.79492 14.7849 6.86931 13.5946 6.86931V7.86931C14.2781 7.86931 14.7909 8.39162 14.7909 8.98657H15.7909ZM13.5946 6.86931C12.8725 6.86931 12.2462 7.43294 12.2462 8.17819H13.2462C13.2462 8.02964 13.3792 7.86931 13.5946 7.86931V6.86931ZM12.2462 8.17819V8.50135H13.2462V8.17819H12.2462ZM13.2462 8.50135C13.2462 7.30969 12.2402 6.38408 11.0499 6.38408V7.38408C11.7335 7.38408 12.2462 7.9064 12.2462 8.50135H13.2462ZM11.0499 6.38408C10.3278 6.38408 9.7015 6.94771 9.7015 7.69296H10.7015C10.7015 7.54442 10.8346 7.38408 11.0499 7.38408V6.38408ZM9.7015 7.69296V8.01612H10.7015V7.69296H9.7015ZM10.7015 8.01612C10.7015 7.84068 10.6832 7.66966 10.6316 7.51225L9.68138 7.82373C9.68907 7.84721 9.7015 7.90443 9.7015 8.01612H10.7015ZM10.6555 7.637L10.3968 3.47022L9.39869 3.53221L9.65747 7.69898L10.6555 7.637ZM10.3968 3.47022C10.3453 2.6414 9.65016 2 8.83555 2V3C9.1255 3 9.38018 3.23412 9.39869 3.53221L10.3968 3.47022ZM8.83555 2C8.00211 2 7.33555 2.67265 7.33555 3.49981H8.33555C8.33555 3.22261 8.55672 3 8.83555 3V2ZM7.33555 3.49981V7.5H8.33555V3.49981H7.33555ZM7.33555 7.5V12.5H8.33555V7.5H7.33555ZM14.8536 12H15.3536V11H14.8536V12ZM14.8536 11.5V15.5H15.8536V11.5H14.8536ZM15.3536 15H14.8536V16H15.3536V15ZM15.3536 15.5V11.5H14.3536V15.5H15.3536ZM12.8536 12H13.3536V11H12.8536V12ZM12.8536 11.5V15.5H13.8536V11.5H12.8536ZM13.3536 15H12.8536V16H13.3536V15ZM13.3536 15.5V11.5H12.3536V15.5H13.3536ZM10.8536 12H11.3536V11H10.8536V12ZM10.8536 11.5V15.5H11.8536V11.5H10.8536ZM11.3536 15H10.8536V16H11.3536V15ZM11.3536 15.5V11.5H10.3536V15.5H11.3536Z" fill="black" fill-opacity="0.8" mask="url(#path-1-outside-1)"/>
</g>
<defs>
<filter id="filter0_d" x="0.5" y="0" width="20.8537" height="24" filterUnits="userSpaceOnUse" color-interpolation-filters="sRGB">
<feFlood flood-opacity="0" result="BackgroundImageFix"/>
<feColorMatrix in="SourceAlpha" type="matrix" values="0 0 0 0 0 0 0 0 0 0 0 0 0 0 0 0 0 0 127 0"/>
<feOffset dy="1"/>
<feGaussianBlur stdDeviation="1.5"/>
<feColorMatrix type="matrix" values="0 0 0 0 0 0 0 0 0 0 0 0 0 0 0 0 0 0 0.2 0"/>
<feBlend mode="normal" in2="BackgroundImageFix" result="effect1_dropShadow"/>
<feBlend mode="normal" in="SourceGraphic" in2="effect1_dropShadow" result="shape"/>
</filter>
</defs>
</svg>
