<svg width="24" height="24" viewBox="0 0 24 24" fill="none" xmlns="http://www.w3.org/2000/svg">
<path d="M4.07418 10.1182C2.51581 14.3998 4.72341 19.134 9.00497 20.6924C12.9592 22.1316 17.2991 20.3588 19.1675 16.7067C19.497 16.0625 19.1298 15.332 18.49 15.0991C17.8333 14.8601 17.1484 15.2122 16.8293 15.7766C15.4714 18.1783 12.5384 19.318 9.86002 18.3431C6.8759 17.257 5.33728 13.9574 6.42341 10.9733C7.48089 8.06787 10.6366 6.5327 13.5565 7.45617L13.0966 8.71974C12.9698 9.0682 13.2952 9.4119 13.6501 9.30429L17.7969 8.04676C18.084 7.9597 18.2071 7.62141 18.0432 7.37018L15.6748 3.74131C15.4721 3.43077 15.0019 3.48489 14.8751 3.83334L15.11 3.91885L14.8751 3.83334L14.4121 5.10542C10.194 3.71081 5.60394 5.91525 4.07418 10.1182Z" fill="#FFC424" stroke="black" stroke-width="0.5"/>
</svg>
