<svg width="62" height="64" viewBox="0 0 62 64" fill="none" xmlns="http://www.w3.org/2000/svg">
<path d="M62 0H0V64H62V0Z" fill="#EB3A38"/>
<path d="M5.99699 18.5912C5.94625 18.9901 6.00958 19.3952 6.17967 19.7599C6.31637 19.9756 6.50793 20.1515 6.73493 20.2697C6.96193 20.3879 7.21628 20.4443 7.4722 20.433C7.7275 20.4444 7.98127 20.3881 8.20756 20.2698C8.43385 20.1516 8.62454 19.9756 8.76015 19.7599C8.93205 19.3957 8.99697 18.9905 8.94741 18.5912V15.0394L10.3176 17.245C10.4285 17.484 10.6086 17.6845 10.8349 17.8207C11.0612 17.9568 11.3232 18.0224 11.5873 18.0091C11.8508 18.0227 12.1123 17.9572 12.3379 17.821C12.5636 17.6847 12.7428 17.484 12.8524 17.245L14.2225 15.0394V18.5912C14.1718 18.9901 14.2351 19.3952 14.4052 19.7599C14.5499 19.9672 14.7428 20.1366 14.9675 20.2536C15.1922 20.3706 15.4419 20.4317 15.6955 20.4317C15.949 20.4317 16.1988 20.3706 16.4235 20.2536C16.6481 20.1366 16.841 19.9672 16.9857 19.7599C17.1558 19.3952 17.2191 18.9901 17.1684 18.5912V10.86C17.1989 10.6226 17.1748 10.3813 17.0981 10.1545C17.0213 9.92761 16.8939 9.72104 16.7254 9.5503C16.594 9.42767 16.4397 9.33202 16.2712 9.26881C16.1027 9.2056 15.9234 9.17609 15.7434 9.18194C15.4387 9.16582 15.1362 9.24192 14.8757 9.40023C14.5824 9.60032 14.3374 9.86284 14.1586 10.1688L11.5781 14.2617L8.99765 10.1688C8.81741 9.85868 8.57109 9.59167 8.27603 9.38659C8.01706 9.22864 7.7161 9.15253 7.41282 9.1683C7.23211 9.16184 7.0519 9.19106 6.88258 9.25428C6.71327 9.31751 6.55819 9.41348 6.4263 9.53666C6.25957 9.70913 6.13431 9.91702 6.05995 10.1447C5.98558 10.3723 5.96406 10.6138 5.99699 10.851V18.5912Z" fill="white"/>
<path d="M20.6166 18.2774C20.3471 18.9641 20.1598 19.5007 20.717 20.0282C21.0093 20.2866 21.3858 20.4304 21.7766 20.433C22.0783 20.4388 22.3725 20.3391 22.6079 20.151C22.8865 19.8823 23.0856 19.5425 23.1833 19.1687L23.3615 18.7139H27.5496L27.7232 19.1687C27.826 19.5445 28.0315 19.8846 28.3169 20.151C28.5505 20.3391 28.8432 20.4389 29.1436 20.433C29.5322 20.4229 29.9039 20.2726 30.1895 20.01C30.7512 19.4825 30.5685 18.9459 30.2899 18.2592L27.0929 10.3734C26.9888 10.0154 26.7767 9.69794 26.4854 9.46388C26.1767 9.26237 25.8156 9.15503 25.4464 9.15503C25.0772 9.15503 24.7161 9.26237 24.4074 9.46388C24.1144 9.69729 23.9007 10.0149 23.7953 10.3734L20.6166 18.2774ZM26.6636 16.431H24.2475L25.4578 13.334L26.6636 16.431Z" fill="white"/>
<path d="M36.0537 18.5911C36.003 18.99 36.0663 19.3951 36.2364 19.7598C36.3811 19.9671 36.574 20.1365 36.7987 20.2535C37.0233 20.3705 37.2731 20.4316 37.5266 20.4316C37.7802 20.4316 38.0299 20.3705 38.2546 20.2535C38.4793 20.1365 38.6722 19.9671 38.8169 19.7598C38.9888 19.3956 39.0537 18.9904 39.0041 18.5911V11.6785H40.8036C41.1848 11.7203 41.5705 11.6688 41.9272 11.5285C42.1208 11.4245 42.2826 11.2702 42.3954 11.082C42.5082 10.8939 42.5677 10.6789 42.5677 10.4597C42.5677 10.2406 42.5082 10.0256 42.3954 9.83746C42.2826 9.64931 42.1208 9.49505 41.9272 9.39104C41.5705 9.25073 41.1848 9.19922 40.8036 9.24096H34.0852C33.7055 9.19904 33.3213 9.25057 32.9663 9.39104C32.7726 9.49505 32.6108 9.64931 32.498 9.83746C32.3852 10.0256 32.3257 10.2406 32.3257 10.4597C32.3257 10.6789 32.3852 10.8939 32.498 11.082C32.6108 11.2702 32.7726 11.4245 32.9663 11.5285C33.3213 11.6689 33.7055 11.7205 34.0852 11.6785H36.0537V18.5911Z" fill="white"/>
<path d="M5.99693 31.8613C5.94619 32.2602 6.00952 32.6653 6.17961 33.03C6.31631 33.2457 6.50787 33.4216 6.73487 33.5398C6.96187 33.658 7.21622 33.7144 7.47214 33.7031C7.72744 33.7145 7.98121 33.6582 8.2075 33.5399C8.43379 33.4217 8.62448 33.2457 8.76009 33.03C8.93199 32.6658 8.99691 32.2606 8.94735 31.8613V29.2236H9.20311L12.4687 32.8618C12.9665 33.4166 13.2679 33.6985 13.8388 33.6985C14.1628 33.6961 14.4759 33.582 14.7249 33.3756C14.8748 33.2735 14.9989 33.1383 15.0877 32.9805C15.1764 32.8228 15.2273 32.6467 15.2364 32.4661C15.2364 32.0432 15.0766 31.7839 14.5833 31.2382L11.5507 27.8547L14.323 24.9442C14.8345 24.3985 14.9761 24.1347 14.9761 23.7118C14.9666 23.5312 14.9156 23.3553 14.8269 23.1976C14.7382 23.0398 14.6142 22.9046 14.4645 22.8022C14.2087 22.5892 13.8846 22.4746 13.5511 22.4793C12.9848 22.4793 12.6833 22.7613 12.1809 23.3206L9.17114 26.6769H8.91538V24.2939C8.96531 23.893 8.9004 23.4862 8.72812 23.1206C8.59251 22.9049 8.40182 22.7289 8.17553 22.6106C7.94924 22.4924 7.69547 22.4361 7.44017 22.4475C7.18425 22.4362 6.92989 22.4925 6.7029 22.6107C6.4759 22.7289 6.28434 22.9048 6.14764 23.1206C5.97717 23.4868 5.91385 23.8934 5.96496 24.2939L5.99693 31.8613Z" fill="white"/>
<path d="M39.616 31.8613C39.5652 32.2602 39.6286 32.6653 39.7987 33.0301C39.9433 33.2374 40.1362 33.4068 40.3609 33.5237C40.5856 33.6407 40.8354 33.7018 41.0889 33.7018C41.3424 33.7018 41.5922 33.6407 41.8169 33.5237C42.0416 33.4068 42.2345 33.2374 42.3791 33.0301C42.551 32.6659 42.6159 32.2607 42.5664 31.8613V24.1893C42.5969 23.9568 42.5755 23.7205 42.5036 23.4972C42.4318 23.274 42.3113 23.0693 42.1508 22.8977C41.7628 22.5947 41.2706 22.4558 40.7806 22.5112H36.5057C36.0159 22.4578 35.5244 22.5965 35.1355 22.8977C34.9763 23.07 34.857 23.2749 34.786 23.4981C34.715 23.7212 34.694 23.9572 34.7245 24.1893V27.6547C34.7245 29.3282 34.6834 31.1246 33.1762 31.1928C32.8231 31.1734 32.4762 31.2907 32.2079 31.5202C32.0893 31.64 31.9959 31.7821 31.9332 31.9383C31.8704 32.0945 31.8396 32.2616 31.8426 32.4298C31.8346 32.6509 31.89 32.8698 32.0025 33.0606C32.1149 33.2515 32.2796 33.4066 32.4774 33.5076C32.8731 33.6574 33.2991 33.7104 33.7197 33.6622C36.3139 33.6622 37.5561 32.5344 37.5561 27.8775V24.967H39.6342L39.616 31.8613Z" fill="white"/>
<path d="M46.3662 31.5475C46.0922 32.2342 45.9095 32.7708 46.4667 33.2984C46.7567 33.5575 47.1321 33.7015 47.5217 33.7031C47.8236 33.7098 48.118 33.6099 48.353 33.4212C48.6328 33.1534 48.8321 32.8132 48.9284 32.4388L49.1066 31.9841H53.2993L53.4683 32.4388C53.5672 32.8142 53.7697 33.1545 54.0529 33.4212C54.286 33.6099 54.5791 33.7099 54.8795 33.7031C55.2693 33.7024 55.645 33.5582 55.9346 33.2984C56.4963 32.7708 56.3136 32.2342 56.035 31.5475L52.838 23.6618C52.7305 23.3042 52.5172 22.9872 52.226 22.7522C51.9172 22.5507 51.5561 22.4434 51.1869 22.4434C50.8178 22.4434 50.4566 22.5507 50.1479 22.7522C49.8567 22.9872 49.6434 23.3042 49.5359 23.6618L46.3662 31.5475ZM52.4087 29.7011H49.9972L51.2029 26.6087L52.4087 29.7011Z" fill="white"/>
<path d="M21.2607 41.8846C21.2607 43.7628 21.2607 45.1908 22.4939 46.3231C22.9311 46.737 23.4477 47.0586 24.0128 47.2688C24.5778 47.4791 25.1797 47.5735 25.7823 47.5465C27.2438 47.5465 28.0659 47.3145 28.7875 46.7006C29.1164 46.4595 29.3886 46.1498 29.585 45.7933C29.7814 45.4367 29.8974 45.0417 29.9248 44.6359C29.9375 44.4432 29.9067 44.2501 29.8348 44.0707C29.7629 43.8913 29.6516 43.7301 29.5091 43.5991C29.2359 43.3435 28.8747 43.2019 28.4998 43.2034C28.2207 43.1928 27.945 43.2674 27.7097 43.4172C27.3826 43.6565 27.1153 43.9678 26.9287 44.3267C26.829 44.5318 26.6794 44.7087 26.4934 44.8414C26.3074 44.9741 26.091 45.0584 25.8639 45.0864C25.6368 45.1144 25.4063 45.0854 25.1934 45.0019C24.9805 44.9185 24.792 44.7833 24.6451 44.6087C24.2979 44.1857 24.1883 43.6991 24.1883 41.88C24.1883 40.0609 24.2979 39.5652 24.6451 39.1514C24.792 38.9768 24.9805 38.8416 25.1934 38.7581C25.4063 38.6747 25.6368 38.6456 25.8639 38.6737C26.091 38.7017 26.3074 38.7859 26.4934 38.9186C26.6794 39.0513 26.829 39.2283 26.9287 39.4334C27.1153 39.7923 27.3826 40.1035 27.7097 40.3429C27.945 40.4927 28.2207 40.5672 28.4998 40.5566C28.8734 40.5606 29.2345 40.4223 29.5091 40.1701C29.6522 40.0394 29.7638 39.8784 29.8357 39.6989C29.9077 39.5194 29.9381 39.326 29.9248 39.1332C29.896 38.7262 29.7781 38.3305 29.5793 37.9738C29.3804 37.6171 29.1055 37.3081 28.7738 37.0685C28.0385 36.4546 27.2301 36.2272 25.7686 36.2272C25.1663 36.1993 24.5645 36.2929 23.9994 36.5024C23.4344 36.7118 22.9176 37.0328 22.4802 37.446C21.2744 38.5738 21.2607 40.02 21.2607 41.8846Z" fill="white"/>
<path d="M46.5264 41.6979C46.5264 43.5761 46.5264 45.0041 47.7595 46.1365C48.1964 46.5508 48.713 46.8727 49.2781 47.0829C49.8432 47.2932 50.4453 47.3874 51.0479 47.3598C52.5049 47.3598 53.3315 47.1279 54.0531 46.514C54.3812 46.272 54.6527 45.9621 54.849 45.6057C55.0453 45.2493 55.1618 44.8548 55.1904 44.4493C55.2031 44.2565 55.1723 44.0634 55.1004 43.884C55.0285 43.7046 54.9173 43.5435 54.7748 43.4124C54.5001 43.1602 54.139 43.0219 53.7654 43.0259C53.4863 43.0153 53.2106 43.0898 52.9753 43.2396C52.647 43.4777 52.3795 43.7893 52.1943 44.1491C52.0902 44.3808 51.92 44.5768 51.7047 44.7127C51.4895 44.8486 51.2388 44.9183 50.984 44.9132C50.782 44.9196 50.5812 44.8794 50.3974 44.7958C50.2136 44.7122 50.0517 44.5873 49.9244 44.4311C49.5818 44.0082 49.4677 43.5216 49.4677 41.7025C49.4677 39.8834 49.5773 39.3877 49.9244 38.9738C50.0517 38.8176 50.2136 38.6928 50.3974 38.6092C50.5812 38.5255 50.782 38.4854 50.984 38.4918C51.2388 38.4866 51.4895 38.5564 51.7047 38.6923C51.92 38.8281 52.0902 39.0241 52.1943 39.2558C52.3795 39.6157 52.647 39.9272 52.9753 40.1653C53.2106 40.3151 53.4863 40.3897 53.7654 40.3791C54.139 40.383 54.5001 40.2447 54.7748 39.9925C54.9178 39.8619 55.0294 39.7008 55.1014 39.5213C55.1733 39.3418 55.2037 39.1485 55.1904 38.9556C55.1624 38.55 55.0462 38.1553 54.8498 37.7988C54.6534 37.4423 54.3816 37.1325 54.0531 36.891C53.3178 36.277 52.5049 36.0497 51.0479 36.0497C50.4455 36.0213 49.8436 36.1146 49.2785 36.3241C48.7133 36.5335 48.1966 36.8548 47.7595 37.2684C46.5401 38.3872 46.5264 39.8243 46.5264 41.6979Z" fill="white"/>
<path d="M10.107 40.5928C10.107 40.243 9.96745 39.9075 9.71906 39.6602C9.47067 39.4129 9.13378 39.2739 8.7825 39.2739C8.43122 39.2739 8.09433 39.4129 7.84594 39.6602C7.59755 39.9075 7.45801 40.243 7.45801 40.5928C7.45801 40.9425 7.59755 41.278 7.84594 41.5253C8.09433 41.7727 8.43122 41.9116 8.7825 41.9116C9.13378 41.9116 9.47067 41.7727 9.71906 41.5253C9.96745 41.278 10.107 40.9425 10.107 40.5928Z" fill="#2D4552"/>
<path d="M10.107 44.4675C10.107 44.1177 9.96745 43.7823 9.71906 43.535C9.47067 43.2876 9.13378 43.1487 8.7825 43.1487C8.43122 43.1487 8.09433 43.2876 7.84594 43.535C7.59755 43.7823 7.45801 44.1177 7.45801 44.4675C7.45801 44.8173 7.59755 45.1528 7.84594 45.4001C8.09433 45.6474 8.43122 45.7864 8.7825 45.7864C9.13378 45.7864 9.47067 45.6474 9.71906 45.4001C9.96745 45.1528 10.107 44.8173 10.107 44.4675Z" fill="#2D4552"/>
<path d="M11.4909 46.5366C11.3971 46.4263 11.3272 46.2978 11.2856 46.1593C11.2439 46.0208 11.2314 45.8752 11.2489 45.7317V39.0738C11.2195 38.9303 11.2263 38.7817 11.2687 38.6413C11.3111 38.501 11.3878 38.3734 11.4918 38.2697C11.5959 38.1661 11.7241 38.0898 11.865 38.0476C12.0059 38.0054 12.1551 37.9986 12.2993 38.0279H14.4322C14.9479 37.9928 15.4639 38.0922 15.9292 38.3163C16.3946 38.5404 16.7932 38.8815 17.0858 39.3058C17.6384 40.0561 17.6521 40.952 17.6521 42.4028C17.6521 43.8535 17.6521 44.7494 17.0858 45.4998C16.7932 45.9241 16.3946 46.2651 15.9292 46.4892C15.4639 46.7133 14.9479 46.8127 14.4322 46.7777H12.2993C12.1552 46.7953 12.0089 46.783 11.8698 46.7415C11.7306 46.7 11.6016 46.6303 11.4909 46.5366ZM12.9753 45.2542H14.2861C14.5277 45.2709 14.7698 45.2306 14.9928 45.1365C15.2158 45.0425 15.4134 44.8974 15.5695 44.713C15.8892 44.3128 15.9257 43.7762 15.9257 42.4028C15.9257 41.0293 15.8892 40.4927 15.5695 40.0925C15.412 39.9106 15.2138 39.7681 14.9909 39.6765C14.768 39.5848 14.5266 39.5466 14.2861 39.565H12.9753V45.2542Z" fill="#2D4552"/>
<path d="M7.64111 54.0041C7.6978 54.0201 7.7517 54.0446 7.80097 54.0768C7.83977 54.1026 7.87377 54.1349 7.90144 54.1723C7.92632 54.2113 7.94771 54.2524 7.96539 54.2951C7.96539 54.3406 7.99736 54.3906 8.01106 54.4452L8.23485 55.282C8.23732 55.297 8.23732 55.3124 8.23485 55.3275C8.23485 55.3275 8.21202 55.3547 8.18004 55.3547H7.81924C7.81924 55.3547 7.7964 55.3547 7.78726 55.3093L7.56804 54.518C7.55109 54.414 7.49366 54.3208 7.40818 54.2587C7.31637 54.2124 7.21412 54.1905 7.11132 54.1951H6.70027V55.3047C6.70027 55.3275 6.70027 55.3456 6.70027 55.3502C6.70027 55.3547 6.67286 55.3502 6.65003 55.3502H6.33946C6.33946 55.3502 6.29835 55.3502 6.28922 55.3502C6.28008 55.3502 6.28922 55.3502 6.28922 55.3047V52.8853C6.28922 52.858 6.28922 52.8399 6.28922 52.8353H6.33946H6.65003C6.66653 52.8313 6.68377 52.8313 6.70027 52.8353C6.70027 52.8353 6.70027 52.8353 6.70027 52.8853V53.8267H7.08848H7.20723C7.24912 53.8184 7.28929 53.803 7.32598 53.7812C7.37043 53.754 7.40919 53.7185 7.44016 53.6766C7.47736 53.6198 7.50368 53.5566 7.5178 53.4902L7.67765 52.8808C7.67765 52.8535 7.67765 52.8399 7.70962 52.8353H7.75073H8.0476C8.07957 52.8353 8.09784 52.8353 8.1024 52.8626C8.10601 52.8696 8.10789 52.8774 8.10789 52.8853C8.10789 52.8932 8.10601 52.901 8.1024 52.9081L7.94255 53.5584C7.92287 53.6524 7.8857 53.7418 7.83294 53.8222C7.78449 53.8984 7.7188 53.9622 7.64111 54.0086V54.0041Z" fill="white"/>
<path d="M8.99716 56.0278C8.99716 56.0551 8.99716 56.0733 8.99716 56.0779C8.9795 56.0845 8.96001 56.0845 8.94235 56.0779H8.65918C8.64296 56.0838 8.62517 56.0838 8.60895 56.0779C8.60895 56.0779 8.60895 56.0779 8.60895 56.0278V53.663C8.60301 53.6469 8.60301 53.6291 8.60895 53.613C8.60895 53.613 8.63178 53.613 8.65462 53.5766C8.77626 53.5212 8.90559 53.4844 9.03826 53.4675C9.16537 53.4497 9.29355 53.4405 9.42191 53.4402C9.55954 53.4358 9.69654 53.4606 9.82383 53.5129C9.93132 53.5609 10.0254 53.6342 10.0979 53.7267C10.1725 53.819 10.227 53.9259 10.2577 54.0405C10.2897 54.1668 10.3051 54.2968 10.3034 54.427C10.3036 54.556 10.2867 54.6845 10.2531 54.809C10.2185 54.9221 10.1645 55.0283 10.0933 55.1228C10.0235 55.2143 9.93267 55.2876 9.82839 55.3366C9.70996 55.3918 9.58004 55.4183 9.44931 55.4139H9.24836L9.01999 55.373L8.99716 56.0278ZM9.84209 54.3998C9.84358 54.3015 9.83129 54.2035 9.80556 54.1087C9.78713 54.0382 9.75276 53.9729 9.70508 53.9177C9.66279 53.8675 9.60751 53.8297 9.54523 53.8085C9.47707 53.788 9.40633 53.7773 9.33513 53.7767H9.16158C9.10616 53.7859 9.05127 53.7981 8.99716 53.8131V54.9682C9.06159 54.9853 9.12725 54.9975 9.19355 55.0046H9.3534C9.42053 55.0043 9.48706 54.992 9.54979 54.9682C9.61021 54.9482 9.66393 54.912 9.70508 54.8636C9.75198 54.8062 9.78621 54.7395 9.80556 54.6681C9.82911 54.5805 9.84139 54.4904 9.84209 54.3998Z" fill="white"/>
<path d="M11.5777 55.664C11.5402 55.8029 11.4604 55.9268 11.3493 56.0187C11.2378 56.0896 11.107 56.1245 10.9748 56.1187H10.8287C10.7683 56.1123 10.7086 56.1001 10.6505 56.0824C10.6358 56.0876 10.6196 56.0876 10.6049 56.0824C10.6049 56.0824 10.6049 56.0551 10.6049 56.0323L10.6551 55.8095C10.6551 55.8095 10.6551 55.7731 10.6825 55.7686H10.7282L10.8241 55.7913H10.9063C10.9782 55.7944 11.0495 55.777 11.1118 55.7413C11.1682 55.6961 11.2083 55.6338 11.226 55.5639L11.3037 55.3411H11.2169C11.1824 55.3494 11.1464 55.3494 11.1118 55.3411C11.0799 55.3411 11.057 55.282 11.0342 55.2137L10.5044 53.5084C10.5044 53.472 10.5181 53.4538 10.5455 53.4538H10.8789C10.897 53.45 10.9156 53.45 10.9337 53.4538C10.9433 53.4663 10.9509 53.48 10.9565 53.4947L11.2032 54.3269L11.3904 54.9818H11.4178L11.6188 54.3178L11.8883 53.4993C11.8891 53.4912 11.8915 53.4835 11.8954 53.4764C11.8994 53.4694 11.9047 53.4632 11.9111 53.4583C11.919 53.455 11.9276 53.4532 11.9362 53.4532C11.9449 53.4532 11.9534 53.455 11.9613 53.4583H12.2947C12.3313 53.4583 12.3404 53.4583 12.3313 53.5084L11.6005 55.6731L11.5777 55.664Z" fill="white"/>
<path d="M13.5597 54.5H13.3634C13.2912 54.4997 13.2203 54.5185 13.1578 54.5545C13.0937 54.5949 13.0478 54.6585 13.0299 54.7319L12.8564 55.314C12.8554 55.3219 12.8524 55.3295 12.8476 55.3359C12.8428 55.3423 12.8364 55.3473 12.829 55.3504H12.4819C12.4499 55.3504 12.4362 55.3504 12.4316 55.3504V55.3095L12.6189 54.6819C12.6189 54.6455 12.6417 54.6091 12.6554 54.5727C12.6693 54.54 12.6877 54.5093 12.7102 54.4818C12.733 54.4515 12.7608 54.4254 12.7925 54.4045C12.83 54.3793 12.8718 54.3608 12.9158 54.3499C12.8496 54.3243 12.7935 54.278 12.7559 54.218C12.7161 54.1565 12.6868 54.0889 12.6691 54.0179L12.5367 53.5631C12.5322 53.5499 12.5322 53.5355 12.5367 53.5222C12.5367 53.5222 12.5367 53.5222 12.5778 53.5222H12.8792H12.9112C12.9112 53.5222 12.934 53.5222 12.9386 53.5631L13.0711 53.9861C13.0883 54.0694 13.1374 54.1428 13.2081 54.1907C13.2668 54.2231 13.3328 54.2403 13.3999 54.2408H13.5597V53.5722C13.5564 53.5643 13.5546 53.5558 13.5546 53.5472C13.5546 53.5386 13.5564 53.5301 13.5597 53.5222H13.6145H13.9023H13.9525C13.9559 53.5301 13.9577 53.5386 13.9577 53.5472C13.9577 53.5558 13.9559 53.5643 13.9525 53.5722V54.2408H14.158C14.2252 54.2403 14.2911 54.2231 14.3499 54.1907C14.4205 54.1428 14.4697 54.0694 14.4869 53.9861L14.6193 53.5631C14.6193 53.5389 14.6285 53.5252 14.6467 53.5222H14.6787H14.9801C15.003 53.5222 15.0167 53.5222 15.0213 53.5222C15.0258 53.5355 15.0258 53.5499 15.0213 53.5631L14.8888 54.0179C14.8711 54.0889 14.8418 54.1565 14.802 54.218C14.7644 54.278 14.7084 54.3243 14.6422 54.3499C14.6862 54.3608 14.7279 54.3793 14.7655 54.4045C14.7971 54.4254 14.8249 54.4515 14.8477 54.4818C14.8702 54.5093 14.8887 54.54 14.9025 54.5727C14.9126 54.6098 14.9248 54.6462 14.939 54.6819L15.1263 55.3095V55.3504C15.1263 55.3504 15.1263 55.3504 15.0761 55.3504H14.729C14.7216 55.3473 14.7152 55.3423 14.7104 55.3359C14.7055 55.3295 14.7025 55.3219 14.7015 55.314L14.528 54.7319C14.5101 54.6585 14.4642 54.5949 14.4001 54.5545C14.3377 54.5185 14.2667 54.4997 14.1946 54.5H14.0028V55.3004C14.006 55.3075 14.0077 55.3153 14.0077 55.3231C14.0077 55.331 14.006 55.3387 14.0028 55.3459C14.0028 55.3459 13.9754 55.3459 13.9525 55.3459H13.6648C13.647 55.3514 13.6278 55.3514 13.61 55.3459C13.61 55.3459 13.61 55.3459 13.61 55.3004L13.5597 54.5Z" fill="white"/>
<path d="M15.8393 55.3456C15.8215 55.3512 15.8024 55.3512 15.7845 55.3456H15.4968C15.4968 55.3456 15.4557 55.3456 15.4465 55.3456C15.4433 55.3385 15.4416 55.3308 15.4416 55.3229C15.4416 55.3151 15.4433 55.3073 15.4465 55.3002V53.5129C15.4432 53.505 15.4414 53.4965 15.4414 53.4879C15.4414 53.4793 15.4432 53.4708 15.4465 53.4629H15.4968H15.7845H15.8393C15.8427 53.4708 15.8445 53.4793 15.8445 53.4879C15.8445 53.4965 15.8427 53.505 15.8393 53.5129V54.1769H16.0677C16.1326 54.1752 16.1965 54.1597 16.2549 54.1314C16.326 54.083 16.3764 54.0101 16.3965 53.9268L16.529 53.5038C16.529 53.4796 16.5381 53.4659 16.5564 53.4629H16.5884H16.8989C16.9218 53.4629 16.9355 53.4629 16.94 53.4629C16.9445 53.4762 16.9445 53.4906 16.94 53.5038L16.8076 53.9586C16.7899 54.0296 16.7606 54.0972 16.7208 54.1587C16.6823 54.2179 16.6265 54.2639 16.5609 54.2906C16.6049 54.3015 16.6467 54.3199 16.6843 54.3452C16.7179 54.3635 16.7462 54.3901 16.7665 54.4225C16.789 54.45 16.8075 54.4807 16.8213 54.5134L16.8624 54.6226L17.0496 55.2501V55.2911C17.0496 55.2911 17.0496 55.2911 16.9994 55.2911H16.6523C16.6449 55.2879 16.6385 55.2829 16.6337 55.2765C16.6289 55.2702 16.6258 55.2626 16.6249 55.2547L16.4422 54.7317C16.4329 54.6955 16.4164 54.6615 16.3937 54.6318C16.3709 54.6021 16.3424 54.5773 16.3098 54.5589C16.2492 54.5224 16.1796 54.5035 16.1088 54.5043H15.8439V55.3002C15.853 55.3229 15.8485 55.3411 15.8393 55.3456Z" fill="white"/>
<path d="M17.3875 53.5129C17.3841 53.505 17.3823 53.4965 17.3823 53.4879C17.3823 53.4793 17.3841 53.4708 17.3875 53.4629H17.4377H17.7254H17.7802C17.7836 53.4708 17.7854 53.4793 17.7854 53.4879C17.7854 53.4965 17.7836 53.505 17.7802 53.5129V54.759L18.004 54.3952C18.0229 54.3724 18.0397 54.3481 18.0543 54.3224L18.1319 54.1905L18.2781 53.9631L18.5201 53.5766C18.5444 53.5408 18.5736 53.5086 18.6069 53.4811C18.6441 53.4593 18.6873 53.4498 18.7302 53.4538H18.8627C18.9102 53.4521 18.9569 53.4665 18.9951 53.4947C19.0121 53.5128 19.025 53.5344 19.0329 53.558C19.0408 53.5815 19.0435 53.6065 19.0408 53.6311V55.3001C19.0408 55.3229 19.0408 55.3411 19.0408 55.3456C19.0408 55.3502 19.0134 55.3456 18.9906 55.3456H18.7257C18.7257 55.3456 18.6846 55.3456 18.6754 55.3456C18.6663 55.3456 18.6754 55.3456 18.6754 55.3001V54.0768L18.4562 54.4224L17.931 55.2365C17.9106 55.2751 17.8807 55.3079 17.8442 55.332C17.8053 55.3424 17.7643 55.3424 17.7254 55.332H17.6021C17.4834 55.332 17.424 55.2774 17.424 55.1592L17.3875 53.5129Z" fill="white"/>
<path d="M20.9774 55.3456H20.918H20.6531C20.6337 55.3513 20.6131 55.3513 20.5938 55.3456C20.5938 55.3456 20.5938 55.3183 20.5938 55.2865V53.5265C20.5938 53.4992 20.5938 53.481 20.5938 53.4719C20.6128 53.4641 20.6341 53.4641 20.6531 53.4719H20.918C20.9374 53.4663 20.958 53.4663 20.9774 53.4719C20.9774 53.4719 20.9774 53.4992 20.9774 53.5311V54.1723H21.7812V53.5265C21.7812 53.4992 21.7812 53.481 21.7812 53.4719C21.8003 53.4646 21.8215 53.4646 21.8406 53.4719H22.1101C22.1294 53.4657 22.1501 53.4657 22.1694 53.4719C22.1764 53.491 22.1764 53.512 22.1694 53.5311V55.2865C22.1764 55.3071 22.1764 55.3295 22.1694 55.3501H22.1101H21.8771C21.8577 55.3554 21.8372 55.3554 21.8178 55.3501C21.8178 55.3501 21.8178 55.3229 21.8178 55.291V54.5225H21.0094V55.291C21.0094 55.3138 21.0094 55.3365 20.9774 55.3456Z" fill="white"/>
<path d="M23.4892 53.413C23.599 53.3986 23.7107 53.4092 23.8158 53.444C23.9209 53.4788 24.0166 53.537 24.0958 53.6141C24.175 53.6912 24.2355 53.7852 24.2729 53.889C24.3102 53.9929 24.3234 54.1038 24.3113 54.2134C24.3197 54.2646 24.3197 54.3168 24.3113 54.368C24.2992 54.404 24.2789 54.4367 24.252 54.4635C24.2256 54.4901 24.1924 54.509 24.1561 54.5181C24.1181 54.5229 24.0798 54.5229 24.0419 54.5181H23.0554C23.0533 54.5988 23.0673 54.6792 23.0965 54.7546C23.1217 54.8132 23.1591 54.8659 23.2061 54.9092C23.2524 54.9493 23.3069 54.9788 23.3659 54.9956C23.4299 55.0127 23.4961 55.0203 23.5623 55.0183C23.6393 55.0185 23.716 55.0094 23.7907 54.9911C23.8585 54.9758 23.9244 54.953 23.9871 54.9228C24.0282 54.9228 24.051 54.9228 24.0693 54.9228L24.1652 55.1275C24.1652 55.1684 24.1652 55.1957 24.1652 55.2094C24.0712 55.2668 23.9675 55.3069 23.8592 55.3276C23.7571 55.3492 23.653 55.3599 23.5486 55.3594C23.4265 55.3668 23.3042 55.3496 23.1888 55.309C23.0735 55.2684 22.9675 55.2051 22.8772 55.1229C22.7036 54.9148 22.6199 54.6466 22.6443 54.3771C22.6426 54.2336 22.6642 54.0908 22.7082 53.9542C22.7465 53.8381 22.8088 53.7312 22.8909 53.6404C22.9637 53.5526 23.0581 53.4852 23.165 53.4448C23.27 53.4136 23.3801 53.4028 23.4892 53.413ZM23.4892 53.7632C23.428 53.7633 23.3674 53.7757 23.3111 53.7996C23.2625 53.8264 23.2191 53.8618 23.1832 53.9042C23.1457 53.9487 23.1163 53.9995 23.0965 54.0542C23.0731 54.1089 23.0606 54.1676 23.0599 54.227H23.8957C23.9007 54.1665 23.9007 54.1057 23.8957 54.0451C23.8832 53.9933 23.8615 53.944 23.8318 53.8996C23.7994 53.8568 23.7571 53.8225 23.7085 53.7996C23.6418 53.7729 23.5702 53.7605 23.4984 53.7632H23.4892Z" fill="white"/>
<path d="M25.5309 55.0274C25.6097 55.028 25.6882 55.0173 25.7639 54.9956C25.831 54.9798 25.8967 54.9585 25.9602 54.9319C25.9688 54.9278 25.9782 54.9257 25.9876 54.9257C25.9971 54.9257 26.0065 54.9278 26.015 54.9319C26.0284 54.9402 26.0381 54.9532 26.0425 54.9683L26.1338 55.1775C26.1405 55.183 26.1459 55.19 26.1496 55.1978C26.1533 55.2057 26.1552 55.2143 26.1552 55.2229C26.1552 55.2316 26.1533 55.2402 26.1496 55.2481C26.1459 55.2559 26.1405 55.2629 26.1338 55.2684C26.0344 55.3229 25.9262 55.3599 25.8141 55.3776C25.7069 55.3949 25.5985 55.404 25.4898 55.4049C25.3745 55.4122 25.2589 55.394 25.1515 55.3516C25.0441 55.3091 24.9475 55.2434 24.8687 55.1593C24.7079 54.9503 24.6299 54.6897 24.6494 54.4271C24.6485 54.2866 24.6701 54.1469 24.7134 54.0132C24.7507 53.8973 24.8096 53.7893 24.8869 53.6949C24.9645 53.6081 25.0594 53.5384 25.1655 53.4903C25.2814 53.4428 25.4057 53.4196 25.5309 53.422C25.6278 53.4209 25.7244 53.4316 25.8187 53.4539C25.9115 53.4713 26.001 53.5035 26.0836 53.5494C26.0926 53.5523 26.1009 53.557 26.1079 53.5633C26.115 53.5695 26.1207 53.5772 26.1247 53.5858C26.1247 53.5858 26.1247 53.6131 26.1247 53.6403L26.0333 53.8541C26.0264 53.8677 26.0172 53.8801 26.0059 53.8905C26.0059 53.8905 25.9739 53.8905 25.942 53.8905C25.8842 53.8675 25.8246 53.8493 25.7639 53.8359C25.6972 53.8267 25.6296 53.8267 25.5629 53.8359C25.4881 53.8323 25.4137 53.8496 25.3482 53.8859C25.2895 53.9214 25.2395 53.9696 25.2021 54.0269C25.1635 54.088 25.1371 54.1559 25.1244 54.227C25.1061 54.3045 25.0969 54.3839 25.097 54.4635C25.0972 54.5428 25.1048 54.622 25.1199 54.7C25.1309 54.7693 25.1558 54.8358 25.1929 54.8955C25.2283 54.9506 25.277 54.9959 25.3345 55.0274C25.3995 55.0383 25.4659 55.0383 25.5309 55.0274Z" fill="white"/>
<path d="M27.3209 53.8085V55.2819C27.3209 55.3138 27.3209 55.3365 27.3209 55.3456C27.3014 55.3498 27.2811 55.3498 27.2616 55.3456H26.9967C26.9774 55.3518 26.9566 55.3518 26.9373 55.3456C26.9373 55.3456 26.9373 55.3183 26.9373 55.2865V53.813H26.3664C26.3473 53.8204 26.3261 53.8204 26.307 53.813C26.3017 53.7952 26.3017 53.7762 26.307 53.7584V53.5583C26.3013 53.539 26.3013 53.5185 26.307 53.4992C26.307 53.4992 26.3344 53.4992 26.3664 53.4992H27.8599C27.869 53.4944 27.8792 53.4919 27.8896 53.4919C27.8999 53.4919 27.9101 53.4944 27.9192 53.4992C27.925 53.5185 27.925 53.539 27.9192 53.5583V53.7584C27.9246 53.7762 27.9246 53.7952 27.9192 53.813C27.9 53.8196 27.8791 53.8196 27.8599 53.813L27.3209 53.8085Z" fill="white"/>
<path d="M29.5863 55.1501C29.5886 55.1744 29.5832 55.1989 29.5709 55.2201C29.5586 55.2412 29.5401 55.2581 29.5178 55.2683C29.4621 55.295 29.404 55.3163 29.3442 55.332L29.1524 55.3684C29.0885 55.3728 29.0244 55.3728 28.9606 55.3684H28.7733C28.6391 55.3712 28.5053 55.3543 28.376 55.3184C28.2843 55.2937 28.1987 55.2503 28.1248 55.191C28.0658 55.138 28.0217 55.0706 27.9969 54.9955C27.9503 54.8474 27.9503 54.6887 27.9969 54.5407C28.0249 54.4623 28.072 54.392 28.1339 54.3361C28.2058 54.273 28.2897 54.2251 28.3805 54.1951C28.4998 54.1558 28.6249 54.1374 28.7505 54.1405H29.157V54.0768C29.1617 54.0345 29.1617 53.9918 29.157 53.9495C29.1445 53.9123 29.1243 53.8783 29.0976 53.8494C29.0651 53.8185 29.0261 53.7952 28.9834 53.7812C28.9213 53.7725 28.8583 53.7725 28.7962 53.7812C28.7065 53.775 28.6164 53.775 28.5267 53.7812C28.4464 53.792 28.367 53.8087 28.2892 53.8313C28.27 53.8378 28.2491 53.8378 28.2298 53.8313C28.2249 53.8181 28.2249 53.8035 28.2298 53.7903L28.1796 53.5857C28.1796 53.5448 28.1796 53.522 28.2116 53.5084C28.3185 53.4662 28.4306 53.4387 28.545 53.4265C28.6591 53.4203 28.7734 53.4203 28.8875 53.4265C29.0859 53.4094 29.2834 53.4679 29.4401 53.5902C29.5022 53.6545 29.5501 53.731 29.5807 53.8148C29.6114 53.8986 29.6242 53.9879 29.6183 54.0768L29.5863 55.1501ZM29.157 54.4634H28.8099H28.6774C28.6294 54.4673 28.5827 54.4812 28.5404 54.5043C28.4923 54.5287 28.4527 54.5668 28.4266 54.6138C28.4006 54.6609 28.3893 54.7146 28.3942 54.7681C28.3904 54.8105 28.3981 54.8532 28.4166 54.8916C28.4351 54.9301 28.4637 54.9628 28.4993 54.9864C28.5853 55.0302 28.6814 55.0506 28.7779 55.0455H28.851H28.9469H29.0519L29.157 55.0137V54.4634Z" fill="white"/>
<path d="M30.4635 55.3456H30.3996H30.1438C30.1245 55.3513 30.1038 55.3513 30.0845 55.3456C30.0797 55.3365 30.0771 55.3263 30.0771 55.316C30.0771 55.3057 30.0797 55.2956 30.0845 55.2865V53.5265C30.0804 53.518 30.0783 53.5087 30.0783 53.4992C30.0783 53.4898 30.0804 53.4805 30.0845 53.4719C30.1035 53.4641 30.1248 53.4641 30.1438 53.4719H30.4042C30.425 53.4656 30.4473 53.4656 30.4681 53.4719C30.4755 53.491 30.4755 53.512 30.4681 53.5311V54.1723H31.2856V53.5265C31.2856 53.4992 31.2856 53.481 31.2856 53.4719C31.3046 53.4641 31.326 53.4641 31.345 53.4719H31.6099C31.6307 53.465 31.6531 53.465 31.6739 53.4719C31.6808 53.491 31.6808 53.512 31.6739 53.5311V55.2865C31.6808 55.3071 31.6808 55.3295 31.6739 55.3501H31.6099H31.345C31.3256 55.3558 31.305 55.3558 31.2856 55.3501C31.2856 55.3501 31.2856 55.3229 31.2856 55.291V54.5225H30.4818V55.291C30.4815 55.3107 30.4751 55.3297 30.4635 55.3456Z" fill="white"/>
<path d="M32.1852 55.0274C32.2163 54.9984 32.2425 54.9646 32.2628 54.9273C32.2847 54.8913 32.303 54.8532 32.3176 54.8136C32.3325 54.7658 32.3447 54.7172 32.3541 54.6681C32.3541 54.6181 32.3541 54.559 32.3861 54.4907L32.5094 53.6585C32.5141 53.6034 32.5384 53.5518 32.5779 53.513C32.6316 53.4766 32.6958 53.459 32.7606 53.463H33.6741C33.7609 53.463 33.8202 53.463 33.8431 53.5175C33.869 53.5632 33.8817 53.6152 33.8796 53.6676V55.0319H33.9938C34.0113 55.0331 34.0283 55.0377 34.044 55.0455C34.0597 55.0533 34.0737 55.0642 34.0851 55.0774C34.0925 55.1073 34.0925 55.1385 34.0851 55.1683L34.0395 55.8687C34.0395 55.9051 34.0395 55.9187 33.9938 55.9187H33.7289C33.6969 55.9187 33.6832 55.9187 33.6786 55.8687V55.3548H32.3907V55.614C32.3907 55.7004 32.3907 55.7868 32.3907 55.8687C32.3914 55.8754 32.3906 55.8823 32.3883 55.8887C32.3861 55.8951 32.3824 55.9009 32.3776 55.9057C32.3727 55.9105 32.3669 55.9141 32.3605 55.9164C32.3541 55.9186 32.3472 55.9194 32.3404 55.9187H32.0847C32.0527 55.9187 32.039 55.9187 32.039 55.8732L31.9933 55.1729C31.9859 55.1415 31.9859 55.1088 31.9933 55.0774C31.9933 55.0501 32.039 55.0365 32.0893 55.0319L32.1852 55.0274ZM33.4594 53.8222H32.8839L32.8154 54.368C32.8154 54.4771 32.8017 54.5681 32.7743 54.6408C32.7743 54.7136 32.7469 54.7727 32.7332 54.8227C32.7231 54.8654 32.7078 54.9066 32.6876 54.9455C32.6876 54.9773 32.6556 55.0046 32.6419 55.0319H33.464L33.4594 53.8222Z" fill="white"/>
<path d="M36.0127 55.1501C36.0149 55.1745 36.0095 55.1989 35.9973 55.2201C35.985 55.2413 35.9664 55.2581 35.9442 55.2684C35.8885 55.295 35.8303 55.3163 35.7706 55.332L35.5833 55.3684C35.5179 55.3726 35.4523 55.3726 35.387 55.3684H35.2043C35.0701 55.3712 34.9362 55.3544 34.8069 55.3184C34.7144 55.2958 34.6285 55.2522 34.5557 55.1911C34.4951 55.1386 34.4494 55.0712 34.4233 54.9955C34.3993 54.9205 34.387 54.8423 34.3867 54.7636C34.3863 54.6796 34.4018 54.5963 34.4324 54.518C34.4605 54.4407 34.5058 54.3708 34.5648 54.3133C34.6367 54.2503 34.7206 54.2024 34.8115 54.1724C34.9307 54.1331 35.0559 54.1147 35.1814 54.1178H35.5879V54.0541C35.5926 54.0118 35.5926 53.9691 35.5879 53.9268C35.5789 53.8892 35.5599 53.8547 35.5331 53.8267C35.4981 53.7968 35.4579 53.7737 35.4144 53.7585C35.3522 53.7498 35.2892 53.7498 35.2271 53.7585C35.1374 53.7523 35.0473 53.7523 34.9576 53.7585C34.8774 53.7697 34.798 53.7865 34.7201 53.8086C34.7025 53.8152 34.683 53.8152 34.6653 53.8086C34.6653 53.8086 34.6425 53.8086 34.6379 53.7676L34.5877 53.563C34.5877 53.522 34.5877 53.4993 34.6197 53.4857C34.7266 53.4435 34.8387 53.416 34.9531 53.4038C35.0672 53.3976 35.1815 53.3976 35.2956 53.4038C35.4953 53.3873 35.6941 53.4457 35.8528 53.5675C35.9133 53.6327 35.96 53.7094 35.9898 53.7931C36.0196 53.8767 36.0321 53.9655 36.0264 54.0541L36.0127 55.1501ZM35.5833 54.4634H35.2362H35.1038C35.0558 54.4679 35.0093 54.4819 34.9668 54.5044C34.9187 54.5287 34.8791 54.5669 34.853 54.6139C34.8269 54.6609 34.8157 54.7146 34.8206 54.7681C34.8167 54.8106 34.8245 54.8532 34.843 54.8917C34.8615 54.9301 34.89 54.9628 34.9257 54.9864C35.0133 55.0302 35.1109 55.0506 35.2088 55.0455H35.2773H35.3732H35.4829L35.5833 55.0137V54.4634Z" fill="white"/>
<path d="M36.9077 56.0278C36.9077 56.0551 36.9077 56.0733 36.9077 56.0778C36.89 56.0845 36.8705 56.0845 36.8529 56.0778H36.5377C36.5199 56.0837 36.5007 56.0837 36.4829 56.0778C36.4829 56.0778 36.4829 56.0778 36.4829 56.0278V53.663C36.4829 53.663 36.4829 53.6221 36.4829 53.613C36.4952 53.5976 36.5108 53.5852 36.5286 53.5766C36.6507 53.5224 36.7798 53.4856 36.9122 53.4675C37.0394 53.45 37.1675 53.4408 37.2959 53.4402C37.435 53.4359 37.5735 53.4607 37.7024 53.5129C37.8084 53.5631 37.902 53.6361 37.9764 53.7267C38.0495 53.8194 38.1024 53.9262 38.1317 54.0405C38.1652 54.1666 38.1821 54.2965 38.1819 54.427C38.183 54.5564 38.1645 54.6851 38.1271 54.809C38.0948 54.923 38.0405 55.0296 37.9673 55.1228C37.8986 55.2153 37.8074 55.2889 37.7024 55.3366C37.5855 55.3918 37.4571 55.4183 37.3278 55.4139H37.1269L36.894 55.373L36.9077 56.0278ZM37.7526 54.3997C37.7553 54.3017 37.7446 54.2038 37.7206 54.1087C37.7022 54.0382 37.6678 53.9729 37.6201 53.9177C37.577 53.8684 37.522 53.8309 37.4603 53.8085C37.3906 53.7881 37.3183 53.7774 37.2456 53.7767H37.0721L36.9077 53.8131V54.9682C36.9736 54.9853 37.0408 54.9975 37.1086 55.0046H37.2639C37.3311 55.0048 37.3977 54.9924 37.4603 54.9682C37.5207 54.9482 37.5744 54.912 37.6156 54.8636C37.6646 54.8076 37.6991 54.7404 37.7161 54.6681C37.7416 54.5809 37.7539 54.4905 37.7526 54.3997Z" fill="white"/>
<path d="M39.4242 53.8085V55.2819C39.4242 55.3138 39.4242 55.3365 39.4242 55.3456H39.3648H39.0999C39.0806 55.3518 39.0598 55.3518 39.0405 55.3456C39.0357 55.3365 39.0332 55.3263 39.0332 55.316C39.0332 55.3057 39.0357 55.2956 39.0405 55.2865V53.813H38.4651C38.4474 53.8196 38.4279 53.8196 38.4102 53.813C38.4049 53.7952 38.4049 53.7762 38.4102 53.7584V53.5583C38.4069 53.5388 38.4069 53.5188 38.4102 53.4992C38.4196 53.4951 38.4297 53.4929 38.4399 53.4929C38.4502 53.4929 38.4603 53.4951 38.4696 53.4992H39.9814C39.9905 53.4944 40.0007 53.4919 40.0111 53.4919C40.0214 53.4919 40.0316 53.4944 40.0407 53.4992C40.0465 53.5185 40.0465 53.539 40.0407 53.5583V53.7584C40.0461 53.7762 40.0461 53.7952 40.0407 53.813C40.0214 53.819 40.0007 53.819 39.9814 53.813L39.4242 53.8085Z" fill="white"/>
<path d="M40.7215 55.3456H40.6622H40.3973C40.3779 55.3513 40.3573 55.3513 40.3379 55.3456C40.3379 55.3456 40.3379 55.3183 40.3379 55.2865V53.5265C40.3379 53.4992 40.3379 53.481 40.3379 53.4719C40.3569 53.4641 40.3783 53.4641 40.3973 53.4719H40.6485C40.6678 53.4663 40.6885 53.4663 40.7078 53.4719C40.7078 53.4719 40.7078 53.4992 40.7078 53.5311V54.1723H41.5619V53.5265C41.5619 53.4992 41.5619 53.481 41.5619 53.4719C41.581 53.4646 41.6022 53.4646 41.6213 53.4719H41.8907C41.91 53.4657 41.9308 53.4657 41.9501 53.4719C41.9571 53.491 41.9571 53.512 41.9501 53.5311V55.2865C41.9571 55.3071 41.9571 55.3295 41.9501 55.3501H41.8907H41.6213C41.6018 55.3554 41.5813 55.3554 41.5619 55.3501C41.5619 55.3501 41.5619 55.3229 41.5619 55.291V54.5225H40.7398V55.291C40.7398 55.3138 40.7352 55.3365 40.7215 55.3456Z" fill="white"/>
<path d="M44.1283 54.3953C44.1467 54.6613 44.0672 54.9248 43.9045 55.1366C43.8198 55.2265 43.7159 55.2965 43.6006 55.3414C43.4852 55.3862 43.3612 55.4048 43.2377 55.3958C43.1163 55.4052 42.9943 55.3877 42.8806 55.3444C42.7669 55.3012 42.6642 55.2333 42.58 55.1457C42.4235 54.933 42.3475 54.6721 42.3654 54.409C42.3637 54.2655 42.3853 54.1227 42.4293 53.986C42.4697 53.8709 42.5317 53.7644 42.612 53.6722C42.6889 53.5881 42.7842 53.5228 42.8906 53.4812C43.0036 53.435 43.1247 53.4118 43.2468 53.413C43.3693 53.4047 43.4922 53.4241 43.6061 53.4698C43.72 53.5154 43.822 53.5862 43.9045 53.6768C44.0645 53.8812 44.1441 54.1367 44.1283 54.3953ZM43.6716 54.3953C43.6787 54.3121 43.6787 54.2284 43.6716 54.1452C43.6599 54.0738 43.6367 54.0047 43.6031 53.9406C43.5697 53.8831 43.5227 53.8347 43.4661 53.7996C43.4011 53.7661 43.3291 53.7486 43.256 53.7486C43.1828 53.7486 43.1108 53.7661 43.0459 53.7996C42.9889 53.8335 42.9392 53.8783 42.8997 53.9315C42.8606 53.9928 42.8328 54.0605 42.8175 54.1316C42.7989 54.2136 42.7897 54.2975 42.7901 54.3817C42.7858 54.5387 42.8186 54.6945 42.886 54.8365C42.9229 54.8948 42.9752 54.9419 43.0373 54.9724C43.0994 55.0029 43.1688 55.0156 43.2377 55.0093C43.3088 55.0123 43.3793 54.9957 43.4414 54.9611C43.5035 54.9266 43.5547 54.8756 43.5894 54.8137C43.6268 54.7521 43.6531 54.6843 43.667 54.6136C43.6812 54.5462 43.6904 54.4778 43.6944 54.409L43.6716 54.3953Z" fill="white"/>
<path d="M44.5256 53.513C44.5256 53.4857 44.5256 53.4721 44.5256 53.463C44.5421 53.4589 44.5593 53.4589 44.5758 53.463H44.8636H44.9184C44.9218 53.4709 44.9235 53.4794 44.9235 53.488C44.9235 53.4966 44.9218 53.5051 44.9184 53.513V54.7591L45.1422 54.3953L45.1924 54.3225C45.2157 54.2771 45.2416 54.233 45.2701 54.1906L45.4162 53.9632L45.6583 53.5767C45.6813 53.54 45.7107 53.5077 45.745 53.4812C45.7823 53.4594 45.8254 53.4499 45.8684 53.4539H45.9962C46.0439 53.4515 46.0908 53.466 46.1287 53.4948C46.1473 53.512 46.1616 53.5333 46.1704 53.557C46.1791 53.5807 46.182 53.6062 46.1789 53.6313V55.3003C46.1789 55.323 46.1789 55.3412 46.1789 55.3457C46.1789 55.3503 46.1515 55.3457 46.1287 55.3457H45.8364C45.8135 55.3457 45.7953 55.3457 45.7861 55.3457C45.777 55.3457 45.7861 55.3457 45.7861 55.3003V54.0769H45.7633L45.5441 54.4226L45.0189 55.2366C44.997 55.2756 44.9656 55.3085 44.9275 55.3321C44.8888 55.3435 44.8475 55.3435 44.8088 55.3321H44.6854C44.5667 55.3321 44.5073 55.2775 44.5073 55.1593L44.5256 53.513ZM45.3614 53.2674C45.2961 53.2683 45.2311 53.2575 45.1696 53.2356C45.1092 53.2135 45.0523 53.1828 45.0006 53.1447C44.9476 53.1073 44.8986 53.0646 44.8544 53.0173C44.8106 52.9696 44.7695 52.9195 44.7311 52.8672V52.8354C44.7311 52.8354 44.7311 52.8081 44.7311 52.7899L44.8362 52.6944C44.8362 52.6944 44.8727 52.6717 44.8818 52.6944L44.9229 52.7263C44.9882 52.7962 45.0636 52.856 45.1467 52.9036C45.2141 52.9453 45.2912 52.9688 45.3705 52.9718H45.4573C45.4896 52.9649 45.5205 52.9526 45.5487 52.9355C45.5899 52.9107 45.6296 52.8834 45.6674 52.8536L45.8181 52.7263C45.8181 52.7263 45.8592 52.699 45.8684 52.7035C45.8775 52.7081 45.8684 52.7035 45.9003 52.7035L46.0008 52.7899C46.0236 52.7899 46.0373 52.8218 46.0328 52.8354C46.0351 52.8459 46.0351 52.8568 46.0328 52.8672C45.9435 52.9927 45.8302 53.0993 45.6994 53.181C45.5975 53.2419 45.4801 53.2719 45.3614 53.2674Z" fill="white"/>
<path d="M7.9653 58.4655L7.79175 58.8611L7.55425 59.3568C7.53984 59.3939 7.51628 59.4267 7.48574 59.4523C7.45037 59.4698 7.41097 59.4776 7.37156 59.4751H7.24825C7.21035 59.4771 7.17258 59.4692 7.13864 59.4523C7.10673 59.428 7.08286 59.3948 7.07013 59.3568L6.84177 58.902L6.65908 58.5109V59.657C6.66247 59.6649 6.66422 59.6734 6.66422 59.682C6.66422 59.6906 6.66247 59.6991 6.65908 59.707C6.65908 59.707 6.63167 59.707 6.60427 59.707H6.30283C6.28 59.707 6.26173 59.707 6.25259 59.707C6.24346 59.707 6.25259 59.6843 6.25259 59.657V57.9925C6.25072 57.9479 6.26534 57.9042 6.2937 57.8697C6.31183 57.8511 6.33404 57.8368 6.3586 57.8282C6.38316 57.8195 6.40941 57.8166 6.43528 57.8197H6.60427C6.64191 57.8117 6.68081 57.8117 6.71845 57.8197C6.7572 57.8452 6.78742 57.8816 6.80523 57.9243L7.12037 58.5837L7.32132 59.0385L7.54969 58.5473L7.84199 57.9379C7.8598 57.8965 7.88814 57.8605 7.9242 57.8333C7.96366 57.8131 8.00778 57.8037 8.05208 57.806H8.22107C8.24653 57.8036 8.27224 57.8064 8.29659 57.8142C8.32094 57.822 8.34342 57.8347 8.36265 57.8515C8.39101 57.886 8.40563 57.9297 8.40375 57.9743V59.6433C8.40715 59.6512 8.4089 59.6597 8.4089 59.6683C8.4089 59.6769 8.40715 59.6854 8.40375 59.6933C8.38434 59.6988 8.3638 59.6988 8.34438 59.6933H8.07948C8.05208 59.6933 8.03381 59.6933 8.02468 59.6933C8.01554 59.6933 8.02468 59.6706 8.02468 59.6433V58.47L7.9653 58.4655Z" fill="white"/>
<path d="M10.4222 59.4932C10.4241 59.5181 10.418 59.5429 10.4049 59.5641C10.3918 59.5854 10.3722 59.6019 10.3491 59.6115C10.295 59.6382 10.2384 59.6595 10.1801 59.6751L9.98829 59.7161H9.7919H9.59094C9.45664 59.721 9.32243 59.7041 9.19359 59.666C9.1015 59.6424 9.01574 59.599 8.94239 59.5387C8.88215 59.4886 8.83773 59.4223 8.81451 59.3477C8.78871 59.2716 8.77635 59.1915 8.77797 59.1112C8.77793 59.0291 8.79182 58.9476 8.81908 58.8702C8.84589 58.7899 8.89308 58.7178 8.9561 58.661C9.02631 58.5981 9.10868 58.5501 9.19816 58.52C9.31748 58.4811 9.44258 58.4627 9.5681 58.4654H9.97458V58.4018C9.9793 58.3594 9.9793 58.3167 9.97458 58.2744C9.96553 58.2368 9.94662 58.2023 9.91978 58.1744C9.88649 58.1445 9.84772 58.1213 9.8056 58.1062C9.74193 58.0978 9.67744 58.0978 9.61377 58.1062C9.52558 58.1 9.43707 58.1 9.34888 58.1062C9.26848 58.1164 9.18905 58.1331 9.11138 58.1562C9.09214 58.1628 9.07125 58.1628 9.05201 58.1562C9.05201 58.1562 9.05201 58.1562 9.0246 58.1153L8.97436 57.9106C8.97148 57.9032 8.97014 57.8952 8.97043 57.8872C8.97072 57.8792 8.97263 57.8714 8.97605 57.8642C8.97946 57.857 8.98431 57.8505 8.9903 57.8452C8.99629 57.8399 9.0033 57.8358 9.0109 57.8333C9.11897 57.7948 9.23068 57.7674 9.34431 57.7514C9.4584 57.745 9.57276 57.745 9.68685 57.7514C9.88599 57.7342 10.0841 57.7945 10.2395 57.9197C10.3016 57.983 10.3496 58.0587 10.3803 58.1418C10.411 58.2248 10.4237 58.3134 10.4176 58.4018L10.4222 59.4932ZM9.99285 58.8111H9.50873C9.46224 58.8156 9.41716 58.8295 9.37628 58.852C9.33317 58.8737 9.29685 58.9067 9.27123 58.9475C9.23937 58.9977 9.22345 59.0564 9.22556 59.1158C9.22111 59.1588 9.22905 59.2021 9.24846 59.2408C9.26788 59.2794 9.29796 59.3118 9.33517 59.334C9.42104 59.3783 9.51726 59.3987 9.61377 59.3932H9.68228H9.77819H9.88781L9.99285 59.3659V58.8111Z" fill="white"/>
<path d="M11.7194 58.1518V59.6298C11.7257 59.649 11.7257 59.6697 11.7194 59.6889C11.7 59.6943 11.6794 59.6943 11.66 59.6889H11.3951C11.3743 59.6952 11.352 59.6952 11.3312 59.6889C11.3245 59.6713 11.3245 59.6519 11.3312 59.6343V58.1563H10.7648C10.7455 58.1623 10.7248 58.1623 10.7055 58.1563C10.7001 58.1385 10.7001 58.1196 10.7055 58.1017V57.9016C10.6997 57.8824 10.6997 57.8618 10.7055 57.8425C10.7055 57.8425 10.7329 57.8425 10.7648 57.8425H12.272C12.304 57.8425 12.3268 57.8425 12.336 57.8425C12.3393 57.8621 12.3393 57.8821 12.336 57.9016V58.1017C12.3413 58.1196 12.3413 58.1385 12.336 58.1563C12.3169 58.1637 12.2957 58.1637 12.2766 58.1563L11.7194 58.1518Z" fill="white"/>
<path d="M13.3043 57.7561C13.4139 57.7425 13.5252 57.7537 13.6299 57.7889C13.7345 57.8241 13.8299 57.8823 13.9089 57.9592C13.9879 58.0361 14.0485 58.1297 14.0861 58.2331C14.1238 58.3365 14.1375 58.447 14.1264 58.5564C14.1273 58.6089 14.1196 58.6611 14.1036 58.7111C14.0906 58.749 14.0687 58.7834 14.0396 58.8111C14.0136 58.8347 13.9823 58.8519 13.9483 58.8611C13.9104 58.8659 13.872 58.8659 13.8341 58.8611H12.8659C12.8669 58.942 12.8823 59.0221 12.9115 59.0976C12.935 59.1572 12.9726 59.2103 13.0211 59.2522C13.0668 59.2932 13.1216 59.3229 13.181 59.3387C13.2447 59.3576 13.3109 59.3668 13.3774 59.3659C13.4547 59.3665 13.5316 59.3558 13.6057 59.3341C13.6734 59.3183 13.7393 59.2955 13.8021 59.2659C13.8387 59.2659 13.8661 59.2659 13.8798 59.2886L13.9803 59.4933C13.9849 59.5006 13.9879 59.5088 13.989 59.5173C13.9902 59.5259 13.9894 59.5346 13.9868 59.5428C13.9842 59.5511 13.9798 59.5586 13.9739 59.565C13.9681 59.5714 13.9609 59.5764 13.9528 59.5797C13.8595 59.6342 13.7576 59.6727 13.6514 59.6934C13.5493 59.7145 13.4452 59.7252 13.3408 59.7252C13.218 59.7332 13.0948 59.7163 12.9786 59.6757C12.8625 59.6351 12.7557 59.5715 12.6649 59.4887C12.4936 59.2813 12.4115 59.0149 12.4365 58.7475C12.4323 58.6023 12.4539 58.4576 12.5005 58.32C12.5393 58.2051 12.5998 58.0986 12.6786 58.0062C12.7545 57.9218 12.848 57.855 12.9526 57.8106C13.0651 57.7697 13.1846 57.7511 13.3043 57.7561ZM13.3043 58.1062C13.2439 58.1052 13.1842 58.1193 13.1307 58.1472C13.0801 58.1711 13.0351 58.2051 12.9983 58.2472C12.964 58.294 12.9349 58.3443 12.9115 58.3973C12.8924 58.4532 12.8801 58.5112 12.875 58.5701H13.7017C13.7063 58.5095 13.7063 58.4487 13.7017 58.3882C13.6891 58.3363 13.6674 58.2871 13.6377 58.2427C13.6041 58.2011 13.5621 58.167 13.5144 58.1426C13.449 58.1171 13.3791 58.1048 13.3089 58.1062H13.3043Z" fill="white"/>
<path d="M16.2501 58.4653L16.072 58.8609L15.839 59.3566C15.8232 59.3941 15.798 59.427 15.766 59.4521C15.732 59.469 15.6942 59.4769 15.6563 59.4749H15.5285C15.4891 59.4769 15.4499 59.469 15.4143 59.4521C15.3851 59.4254 15.3617 59.3928 15.3458 59.3566L15.122 58.9019L14.9393 58.5108V59.6568C14.9427 59.6647 14.9444 59.6732 14.9444 59.6818C14.9444 59.6904 14.9427 59.6989 14.9393 59.7068C14.9214 59.7119 14.9024 59.7119 14.8845 59.7068H14.615C14.5876 59.7068 14.5693 59.7068 14.5602 59.7068C14.5511 59.7068 14.5602 59.6841 14.5602 59.6568V57.9923C14.5583 57.9478 14.573 57.9041 14.6013 57.8695C14.6196 57.8512 14.6419 57.8371 14.6664 57.8285C14.6909 57.8198 14.717 57.8168 14.7429 57.8195H14.9119C14.9495 57.8111 14.9885 57.8111 15.0261 57.8195C15.0648 57.845 15.095 57.8814 15.1128 57.9241L15.428 58.5835L15.6335 59.0383L15.8619 58.5472L16.1542 57.9378C16.1701 57.8952 16.1999 57.8591 16.2388 57.8352C16.2777 57.8113 16.3234 57.801 16.3688 57.8059H16.5241C16.5496 57.8034 16.5753 57.8062 16.5996 57.814C16.624 57.8218 16.6465 57.8345 16.6657 57.8514C16.6941 57.8859 16.7087 57.9296 16.7068 57.9741V59.6431C16.7102 59.6511 16.7119 59.6596 16.7119 59.6682C16.7119 59.6768 16.7102 59.6853 16.7068 59.6932C16.6874 59.6986 16.6668 59.6986 16.6474 59.6932H16.3825C16.3597 59.6932 16.3369 59.6932 16.3277 59.6932C16.3243 59.6853 16.3226 59.6768 16.3226 59.6682C16.3226 59.6596 16.3243 59.6511 16.3277 59.6431V58.4698L16.2501 58.4653Z" fill="white"/>
<path d="M18.7255 59.4934C18.7285 59.5178 18.7234 59.5425 18.7111 59.5639C18.6987 59.5852 18.6798 59.6019 18.657 59.6116C18.601 59.6375 18.543 59.6588 18.4835 59.6753L18.2917 59.7162H18.0953H17.9126C17.7783 59.7211 17.6441 59.7042 17.5152 59.6662C17.4235 59.6415 17.338 59.5982 17.264 59.5388C17.2057 59.4871 17.1617 59.4213 17.1361 59.3478C17.1125 59.2712 17.1002 59.1915 17.0996 59.1113C17.0996 59.0293 17.1135 58.9478 17.1407 58.8703C17.1675 58.79 17.2147 58.7179 17.2777 58.6611C17.3496 58.5981 17.4335 58.5502 17.5244 58.5201C17.6421 58.4811 17.7657 58.4627 17.8897 58.4656H18.2688V58.4019C18.2758 58.3597 18.2758 58.3167 18.2688 58.2746C18.2598 58.237 18.2409 58.2024 18.214 58.1745C18.1815 58.1436 18.1425 58.1203 18.0998 58.1063C18.0377 58.0979 17.9747 58.0979 17.9126 58.1063C17.8229 58.1001 17.7328 58.1001 17.6431 58.1063C17.5628 58.117 17.4834 58.1337 17.4056 58.1563C17.3864 58.1629 17.3655 58.1629 17.3462 58.1563C17.3398 58.1514 17.3345 58.1452 17.3306 58.1382C17.3267 58.1312 17.3242 58.1234 17.3234 58.1154L17.2732 57.9107C17.2695 57.9037 17.2673 57.8959 17.267 57.8879C17.2666 57.88 17.268 57.872 17.271 57.8647C17.2741 57.8573 17.2787 57.8507 17.2846 57.8453C17.2905 57.8399 17.2975 57.8358 17.3051 57.8334C17.4132 57.795 17.5249 57.7675 17.6385 57.7516C17.7526 57.7452 17.867 57.7452 17.9811 57.7516C18.1802 57.7343 18.3783 57.7946 18.5337 57.9198C18.5959 57.9831 18.6439 58.0588 18.6746 58.1419C18.7053 58.225 18.718 58.3136 18.7118 58.4019L18.7255 59.4934ZM18.2962 58.8112H17.8121C17.7656 58.8157 17.7205 58.8296 17.6796 58.8521C17.6316 58.8765 17.5919 58.9146 17.5659 58.9617C17.5398 59.0087 17.5285 59.0624 17.5335 59.1159C17.5286 59.1584 17.5358 59.2015 17.5544 59.2401C17.573 59.2787 17.6022 59.3113 17.6385 59.3342C17.7246 59.378 17.8207 59.3984 17.9171 59.3933H17.9902H18.0861H18.1912L18.2962 59.366V58.8112Z" fill="white"/>
<path d="M20.0045 58.1518V59.6298C20.0045 59.6571 20.0045 59.6798 20.0045 59.6889C20.0045 59.698 19.9726 59.6889 19.9452 59.6889H19.6803C19.6593 59.6947 19.6372 59.6947 19.6163 59.6889C19.6097 59.6713 19.6097 59.6519 19.6163 59.6343V58.1563H19.0454C19.0278 58.163 19.0083 58.163 18.9906 58.1563C18.9853 58.1385 18.9853 58.1196 18.9906 58.1017V57.9016C18.9849 57.8824 18.9849 57.8618 18.9906 57.8425C18.9906 57.8425 19.0226 57.8425 19.05 57.8425H20.5526C20.5846 57.8425 20.6028 57.8425 20.612 57.8425C20.6177 57.8618 20.6177 57.8824 20.612 57.9016V58.1017C20.6191 58.1193 20.6191 58.1388 20.612 58.1563C20.5943 58.163 20.5748 58.163 20.5572 58.1563L20.0045 58.1518Z" fill="white"/>
<path d="M20.8999 57.8561C20.8999 57.8288 20.8999 57.8152 20.8999 57.8106C20.8999 57.8061 20.9273 57.8106 20.9501 57.8106H21.2379C21.2653 57.8106 21.2835 57.8106 21.2927 57.8106C21.3018 57.8106 21.2927 57.8106 21.2927 57.8561V59.1204L21.5165 58.7611C21.5165 58.7611 21.5484 58.7111 21.5667 58.6838C21.5892 58.6394 21.6152 58.5968 21.6444 58.5564L21.7905 58.3245L22.0326 57.938C22.0556 57.9013 22.085 57.869 22.1193 57.8424C22.1572 57.8225 22.2002 57.8146 22.2427 57.8197H22.3705C22.4191 57.8157 22.4675 57.8285 22.5076 57.8561C22.5246 57.8742 22.5374 57.8958 22.5453 57.9193C22.5532 57.9429 22.5559 57.9678 22.5532 57.9925V59.6615C22.5532 59.6888 22.5532 59.7025 22.5532 59.707C22.5532 59.7116 22.5258 59.707 22.503 59.707H22.2107C22.2107 59.707 22.1696 59.707 22.1605 59.707C22.1513 59.707 22.1605 59.707 22.1605 59.6615V58.4382L21.9412 58.7838L21.4069 59.5751C21.3863 59.6151 21.3546 59.6483 21.3155 59.6706C21.2805 59.6893 21.2408 59.6972 21.2013 59.6934H21.078C20.9593 59.6934 20.8999 59.6388 20.8999 59.5206V57.8561Z" fill="white"/>
<path d="M23.4707 59.6887C23.4707 59.6887 23.4433 59.6887 23.4205 59.6887H23.1282C23.1134 59.6939 23.0973 59.6939 23.0825 59.6887C23.0825 59.6887 23.0825 59.6887 23.0825 59.6432V57.8559C23.0825 57.8286 23.0825 57.815 23.0825 57.8105C23.0973 57.8053 23.1134 57.8053 23.1282 57.8105H23.4205C23.4205 57.8105 23.4616 57.8105 23.4707 57.8105C23.4799 57.8105 23.4707 57.8105 23.4707 57.8559V58.5199H23.6991C23.7659 58.521 23.8318 58.5054 23.8909 58.4744C23.9616 58.4265 24.0107 58.3531 24.0279 58.2698L24.165 57.8468C24.165 57.8468 24.165 57.8105 24.1878 57.8059H24.5212C24.5486 57.8059 24.5623 57.8059 24.5623 57.8059C24.5643 57.8195 24.5643 57.8333 24.5623 57.8468L24.4253 58.3016C24.4096 58.3747 24.3802 58.4441 24.3385 58.5063C24.3114 58.5714 24.2653 58.6269 24.2061 58.6654C24.2518 58.6754 24.2952 58.6939 24.3339 58.72C24.3656 58.7409 24.3934 58.7671 24.4161 58.7973C24.4397 58.8258 24.4582 58.8581 24.471 58.8928L24.5121 58.9974L24.6947 59.625C24.6993 59.6383 24.6993 59.6527 24.6947 59.6659C24.6947 59.6659 24.6947 59.6887 24.6491 59.6887H24.302C24.2946 59.6855 24.2882 59.6805 24.2834 59.6741C24.2786 59.6677 24.2755 59.6602 24.2746 59.6523L24.101 59.0747C24.0795 59.0017 24.0326 58.9388 23.9686 58.8974C23.9066 58.8602 23.8353 58.8413 23.763 58.8428H23.4981V59.6386C23.4844 59.6705 23.4799 59.6841 23.4707 59.6887Z" fill="white"/>
<path d="M25.0195 57.8561C25.0195 57.8288 25.0195 57.8152 25.0195 57.8106C25.0195 57.8061 25.0469 57.8106 25.0743 57.8106H25.3575C25.3849 57.8106 25.4032 57.8106 25.4123 57.8106C25.4214 57.8106 25.4123 57.8106 25.4123 57.8561V59.1204L25.6361 58.7611L25.6818 58.6838L25.764 58.5564C25.8005 58.4973 25.8462 58.42 25.9101 58.3245L26.1522 57.938C26.175 57.9025 26.2027 57.8703 26.2344 57.8424C26.2726 57.8236 26.3153 57.8157 26.3577 57.8197H26.4902C26.5373 57.8156 26.5843 57.8285 26.6226 57.8561C26.6404 57.8738 26.6542 57.8952 26.6628 57.9188C26.6715 57.9424 26.6749 57.9675 26.6729 57.9925V59.6615C26.6729 59.6888 26.6729 59.7025 26.6729 59.707C26.6729 59.7116 26.6455 59.707 26.6226 59.707H26.3303C26.3303 59.707 26.2892 59.707 26.2801 59.707C26.2709 59.707 26.2801 59.707 26.2801 59.6615V58.4382L26.0609 58.7838L25.5311 59.5751C25.5092 59.6141 25.4778 59.647 25.4397 59.6706C25.4031 59.6891 25.3619 59.697 25.321 59.6934H25.1977C25.0789 59.6934 25.0195 59.6388 25.0195 59.5206V57.8561Z" fill="white"/>
<path d="M29.897 58.7429C29.9151 59.0075 29.8356 59.2695 29.6732 59.4797C29.5887 59.5699 29.4849 59.64 29.3694 59.6849C29.254 59.7297 29.1299 59.7482 29.0064 59.7389C28.8856 59.7489 28.7642 59.7316 28.6511 59.6883C28.538 59.645 28.4362 59.5768 28.3533 59.4888C28.1933 59.2776 28.1154 59.0159 28.1341 58.752C28.1315 58.6081 28.1547 58.4649 28.2026 58.3291C28.2396 58.2134 28.3003 58.1066 28.3807 58.0153C28.4597 57.9336 28.5544 57.8686 28.6593 57.8243C28.7737 57.7775 28.8964 57.7543 29.0201 57.7561C29.142 57.7471 29.2643 57.7662 29.3776 57.8119C29.4909 57.8577 29.592 57.9288 29.6732 58.0198C29.8339 58.2256 29.9135 58.4828 29.897 58.7429ZM29.4677 58.7429C29.4746 58.6597 29.4746 58.576 29.4677 58.4928C29.456 58.4214 29.4328 58.3523 29.3992 58.2882C29.3675 58.2309 29.322 58.1824 29.2667 58.1472C29.199 58.1126 29.1236 58.0954 29.0475 58.0972C28.9772 58.0958 28.9079 58.1131 28.8465 58.1472C28.7877 58.1785 28.7375 58.2238 28.7004 58.2791C28.6588 58.3396 28.6293 58.4075 28.6136 58.4792C28.5948 58.5627 28.5856 58.6482 28.5862 58.7338C28.5795 58.8915 28.6141 59.0483 28.6867 59.1886C28.7224 59.247 28.7739 59.2941 28.8353 59.3247C28.8967 59.3553 28.9655 59.368 29.0338 59.3614C29.1091 59.3641 29.1836 59.3452 29.2485 59.3069C29.3062 59.2736 29.3548 59.2268 29.39 59.1704C29.4252 59.1065 29.4499 59.0374 29.4631 58.9658C29.4721 58.8949 29.4736 58.8232 29.4677 58.752V58.7429Z" fill="white"/>
<path d="M31.1256 58.1518V59.6298C31.1319 59.649 31.1319 59.6697 31.1256 59.6889C31.1062 59.6943 31.0857 59.6943 31.0663 59.6889H30.8014C30.7805 59.6952 30.7583 59.6952 30.7374 59.6889C30.7374 59.6889 30.7374 59.6616 30.7374 59.6343V58.1563H30.1711C30.1518 58.1629 30.1309 58.1629 30.1117 58.1563C30.1064 58.1385 30.1064 58.1196 30.1117 58.1017V57.9016C30.106 57.8824 30.106 57.8618 30.1117 57.8425C30.1117 57.8425 30.1391 57.8425 30.1711 57.8425H31.6783C31.7102 57.8425 31.7331 57.8425 31.7376 57.8425C31.7433 57.8618 31.7433 57.8824 31.7376 57.9016V58.1017C31.743 58.1196 31.743 58.1385 31.7376 58.1563C31.7185 58.1637 31.6974 58.1637 31.6783 58.1563L31.1256 58.1518Z" fill="white"/>
<path d="M34.8433 58.8884C34.8462 59.0136 34.8212 59.1378 34.7703 59.2522C34.7267 59.3557 34.6595 59.4476 34.5739 59.5205C34.4844 59.5967 34.3803 59.654 34.2679 59.6888C34.1412 59.7301 34.0084 59.7501 33.8751 59.7479C33.7215 59.747 33.5685 59.7302 33.4184 59.6979C33.2676 59.6615 33.1271 59.5915 33.0073 59.4933C33.0022 59.4882 32.9982 59.4822 32.9954 59.4755C32.9926 59.4689 32.9912 59.4618 32.9912 59.4546C32.9912 59.4474 32.9926 59.4403 32.9954 59.4337C32.9982 59.427 33.0022 59.421 33.0073 59.4159L33.1535 59.1977C33.1535 59.1613 33.2129 59.1567 33.2631 59.1977C33.3506 59.258 33.4479 59.3026 33.5508 59.3295C33.6551 59.3571 33.7626 59.3709 33.8705 59.3705C34.0178 59.3795 34.1636 59.3359 34.2816 59.2477C34.331 59.2079 34.3704 59.1572 34.3966 59.0995C34.4227 59.0419 34.435 58.9789 34.4323 58.9157C34.4331 58.8546 34.4207 58.7941 34.3958 58.7383C34.3711 58.6896 34.3351 58.6475 34.2907 58.6155C34.2475 58.5816 34.1978 58.5568 34.1446 58.5428C34.0883 58.526 34.0297 58.5183 33.971 58.52C33.9163 58.515 33.8613 58.515 33.8066 58.52L33.6741 58.5473L33.5554 58.5928L33.4275 58.6474C33.3684 58.6678 33.304 58.6678 33.2448 58.6474L33.1626 58.6155C33.1272 58.605 33.0965 58.5825 33.0758 58.5519C33.0623 58.5121 33.0623 58.4689 33.0758 58.4291L33.1672 57.5195C33.1676 57.4841 33.1755 57.4492 33.1905 57.417C33.2054 57.3849 33.2271 57.3563 33.254 57.3331C33.2978 57.294 33.3549 57.2728 33.4138 57.274H34.647C34.6804 57.274 34.6987 57.274 34.7018 57.274C34.7084 57.2916 34.7084 57.311 34.7018 57.3285V57.5559C34.7084 57.5735 34.7084 57.5929 34.7018 57.6105C34.7018 57.6105 34.6744 57.6105 34.647 57.6105H33.5234L33.4595 58.2063C33.5453 58.17 33.6362 58.1469 33.7289 58.138C33.8171 58.1317 33.9057 58.1317 33.9938 58.138C34.1088 58.1373 34.223 58.1557 34.3318 58.1926C34.4301 58.2236 34.5216 58.273 34.6013 58.3381C34.6765 58.4038 34.7371 58.4844 34.7794 58.5746C34.8239 58.6732 34.8457 58.7804 34.8433 58.8884Z" fill="white"/>
<path d="M36.3092 59.3614C36.3389 59.3328 36.365 59.3008 36.3869 59.2659C36.4064 59.2277 36.4232 59.1882 36.4371 59.1477C36.4371 59.1022 36.4645 59.0567 36.4782 59.0022C36.4919 58.9476 36.4782 58.893 36.5056 58.8248L36.6289 57.9971C36.636 57.9404 36.6617 57.8877 36.702 57.847C36.7542 57.8116 36.8172 57.7955 36.8801 57.8016H37.7936C37.8849 57.8016 37.9397 57.8016 37.9671 57.8561C37.9937 57.8999 38.0064 57.9506 38.0037 58.0017V59.366H38.1133C38.1635 59.366 38.1955 59.366 38.2092 59.4114C38.2144 59.44 38.2144 59.4693 38.2092 59.4979L38.1635 60.2028C38.1642 60.2095 38.1634 60.2163 38.1612 60.2227C38.1589 60.2291 38.1552 60.2349 38.1504 60.2397C38.1456 60.2445 38.1398 60.2482 38.1333 60.2504C38.1269 60.2527 38.1201 60.2535 38.1133 60.2528H37.8484C37.842 60.2528 37.8356 60.2515 37.8298 60.2489C37.8239 60.2464 37.8187 60.2426 37.8144 60.2379C37.8101 60.2332 37.8068 60.2276 37.8048 60.2216C37.8028 60.2155 37.8021 60.2091 37.8027 60.2028V59.6843H36.5376C36.5376 59.7707 36.5376 59.8571 36.5376 59.9435V60.2028C36.5376 60.2346 36.5376 60.2528 36.4874 60.2528H36.1722C36.1448 60.2528 36.1311 60.2528 36.1311 60.2028L36.0854 59.5024C36.0802 59.4708 36.0802 59.4385 36.0854 59.4069C36.0854 59.3796 36.1311 59.366 36.1859 59.3614H36.3092ZM37.5789 58.1563H36.9943L36.9258 58.7066C36.9258 58.8112 36.8938 58.9021 36.8801 58.9749C36.8664 59.0476 36.8801 59.1113 36.8436 59.1568C36.8238 59.2314 36.7914 59.3022 36.7477 59.366H37.5698L37.5789 58.1563Z" fill="white"/>
<path d="M40.2738 58.7429C40.292 59.0075 40.2124 59.2695 40.05 59.4796C39.8686 59.6433 39.6325 59.7339 39.3878 59.7339C39.143 59.7339 38.907 59.6433 38.7255 59.4796C38.569 59.2669 38.493 59.006 38.5109 58.7429C38.5092 58.5994 38.5308 58.4566 38.5748 58.32C38.6152 58.2048 38.6772 58.0983 38.7575 58.0062C38.8356 57.9235 38.9306 57.8583 39.0361 57.8152C39.1491 57.769 39.2702 57.7458 39.3923 57.747C39.515 57.7376 39.6381 57.7565 39.7522 57.8023C39.8662 57.848 39.9682 57.9193 40.05 58.0107C40.2128 58.2189 40.2925 58.4797 40.2738 58.7429ZM39.8171 58.7429C39.8241 58.6597 39.8241 58.576 39.8171 58.4928C39.8054 58.4214 39.7822 58.3523 39.7486 58.2881C39.7165 58.2297 39.6692 58.181 39.6116 58.1472C39.5457 58.112 39.4716 58.0947 39.3969 58.0971C39.3267 58.0958 39.2573 58.1131 39.1959 58.1472C39.1371 58.1785 39.0869 58.2238 39.0498 58.279C39.0082 58.3395 38.9787 58.4075 38.963 58.4791C38.9442 58.5627 38.935 58.6482 38.9356 58.7338C38.9304 58.8909 38.9633 59.0469 39.0315 59.1886C39.0684 59.2469 39.1208 59.294 39.1828 59.3245C39.2449 59.355 39.3143 59.3678 39.3832 59.3614C39.4585 59.3634 39.5328 59.3445 39.5979 59.3068C39.6552 59.2746 39.7026 59.2275 39.7349 59.1704C39.7735 59.1077 39.7999 59.0382 39.8125 58.9658C39.8291 58.8957 39.8383 58.824 39.8399 58.752L39.8171 58.7429Z" fill="white"/>
<path d="M41.5848 58.047C41.5812 57.9179 41.6094 57.7899 41.667 57.6741C41.7145 57.5731 41.7848 57.4844 41.8725 57.4149C41.9619 57.3453 42.0644 57.2943 42.1739 57.2648C42.2883 57.232 42.4066 57.2152 42.5256 57.2148C42.6821 57.2083 42.838 57.2362 42.9823 57.2966C43.1049 57.3451 43.2144 57.4214 43.302 57.5195C43.3913 57.6247 43.4582 57.747 43.4984 57.8788C43.5399 58.0268 43.5614 58.1798 43.5624 58.3335C43.5635 58.5176 43.5405 58.7011 43.4939 58.8793C43.4562 59.0437 43.3847 59.1985 43.2838 59.334C43.1836 59.4601 43.0554 59.5613 42.9093 59.6296C42.7362 59.703 42.5493 59.7387 42.3612 59.7342H42.1328C42.0573 59.728 41.9832 59.7096 41.9136 59.6796C41.8964 59.6768 41.8805 59.6689 41.8679 59.6569C41.8679 59.6569 41.8679 59.6251 41.8679 59.5978L41.941 59.3659C41.941 59.3249 41.973 59.3113 42.0187 59.3249C42.0681 59.3402 42.1184 59.3524 42.1694 59.3613C42.2301 59.3674 42.2913 59.3674 42.3521 59.3613C42.4441 59.3665 42.5363 59.3535 42.6234 59.3231C42.7104 59.2926 42.7905 59.2454 42.859 59.1839C42.9816 59.0591 43.0643 58.9008 43.0965 58.7292C43.0071 58.7577 42.9154 58.779 42.8225 58.7928C42.7256 58.8067 42.628 58.8142 42.5302 58.8156C42.4117 58.816 42.2937 58.8022 42.1785 58.7747C42.074 58.746 41.9752 58.6998 41.8862 58.6382C41.8002 58.5763 41.7299 58.4954 41.6807 58.4017C41.6188 58.2936 41.5858 58.1715 41.5848 58.047ZM42.0415 58.0197C42.0398 58.0767 42.0503 58.1333 42.0724 58.1858C42.0945 58.2384 42.1275 58.2856 42.1694 58.3244C42.2157 58.3656 42.27 58.3969 42.3289 58.4164C42.3878 58.436 42.4501 58.4433 42.5119 58.4381C42.6138 58.4453 42.716 58.4453 42.8179 58.4381C42.9215 58.4231 43.0238 58.4003 43.1239 58.3699C43.1239 58.3381 43.1239 58.3153 43.1239 58.3017V58.2562C43.1255 58.1647 43.11 58.0738 43.0783 57.9879C43.0471 57.9009 42.9973 57.8217 42.9321 57.756C42.8801 57.6978 42.8163 57.6513 42.7448 57.6195C42.6749 57.5865 42.5985 57.5694 42.5211 57.5695C42.4576 57.5693 42.3945 57.5785 42.3338 57.5968C42.2759 57.6163 42.2219 57.6455 42.1739 57.6832C42.1268 57.7221 42.0879 57.77 42.0598 57.8242C42.0302 57.885 42.0161 57.9522 42.0187 58.0197H42.0415Z" fill="white"/>
<path d="M43.8453 58.047C43.8403 57.9183 43.867 57.7903 43.923 57.6741C43.9705 57.5731 44.0408 57.4844 44.1285 57.4149C44.2187 57.3467 44.321 57.2958 44.4299 57.2648C44.5443 57.232 44.6626 57.2152 44.7816 57.2148C44.938 57.2083 45.094 57.2362 45.2383 57.2966C45.3609 57.3451 45.4704 57.4214 45.558 57.5195C45.6473 57.6247 45.7141 57.747 45.7544 57.8788C45.7959 58.0268 45.8174 58.1798 45.8184 58.3335C45.8195 58.5176 45.7965 58.7011 45.7499 58.8793C45.7122 59.0437 45.6406 59.1985 45.5398 59.334C45.4396 59.4601 45.3114 59.5613 45.1652 59.6296C44.9921 59.703 44.8053 59.7387 44.6172 59.7342H44.3888C44.3134 59.7274 44.2394 59.709 44.1696 59.6796C44.1524 59.6768 44.1365 59.6689 44.1239 59.6569C44.1173 59.6378 44.1173 59.6169 44.1239 59.5978L44.197 59.3659C44.197 59.3249 44.229 59.3113 44.2746 59.3249C44.3241 59.3402 44.3744 59.3524 44.4254 59.3613C44.4876 59.3677 44.5504 59.3677 44.6126 59.3613C44.704 59.3662 44.7954 59.353 44.8816 59.3226C44.9678 59.2921 45.0471 59.245 45.115 59.1839C45.2376 59.0591 45.3203 58.9008 45.3525 58.7292C45.263 58.7577 45.1714 58.779 45.0785 58.7928C44.9816 58.8067 44.884 58.8142 44.7862 58.8156C44.6677 58.816 44.5497 58.8022 44.4345 58.7747C44.33 58.746 44.2312 58.6998 44.1422 58.6382C44.0562 58.5763 43.9859 58.4954 43.9367 58.4017C43.8763 58.2932 43.8449 58.1711 43.8453 58.047ZM44.2746 58.0197C44.273 58.0767 44.2835 58.1333 44.3055 58.1858C44.3276 58.2384 44.3607 58.2856 44.4025 58.3244C44.4489 58.3656 44.5031 58.3969 44.562 58.4164C44.6209 58.436 44.6832 58.4433 44.7451 58.4381C44.8469 58.4453 44.9492 58.4453 45.0511 58.4381C45.1547 58.4231 45.2569 58.4003 45.3571 58.3699C45.3605 58.3473 45.3605 58.3243 45.3571 58.3017V58.2562C45.3586 58.1647 45.3431 58.0738 45.3114 57.9879C45.281 57.9118 45.236 57.8423 45.1789 57.7833C45.1279 57.7241 45.0638 57.6774 44.9917 57.6468C44.9218 57.6138 44.8453 57.5967 44.7679 57.5968C44.7045 57.5966 44.6414 57.6058 44.5806 57.6241C44.5228 57.6436 44.4687 57.6728 44.4208 57.7105C44.3744 57.7502 44.3357 57.798 44.3066 57.8515C44.2796 57.9037 44.264 57.9611 44.2609 58.0197H44.2746Z" fill="white"/>
<path d="M43.4296 41.7297C43.183 41.6251 44.3796 40.9702 43.9229 40.6337C43.4662 40.2972 41.9544 40.9248 41.8128 41.6933C41.6712 42.4619 41.8128 43.6216 41.2145 43.9672C40.6162 44.3128 40.5112 44.422 40.3376 43.7762C40.1641 43.1304 40.5477 42.7393 40.9679 41.7616C41.3881 40.7838 42.1645 37.4549 39.9859 37.2457C37.8074 37.0365 35.8754 37.2821 35.2726 38.8556C34.6697 40.4291 34.044 41.2704 34.4322 42.4619C34.8204 43.6534 35.0625 44.0763 34.4642 45.0359C34.2943 45.4052 34.1878 45.8003 34.149 46.2047C34.1125 46.8004 34.7108 47.0824 36.154 46.5912C37.5973 46.1001 37.9124 45.8136 38.9309 46.0455C39.9494 46.2774 39.9129 47.187 40.4792 46.6276C41.0455 46.0682 40.5112 45.2951 41.2145 45.2269C41.9179 45.1587 42.201 45.6453 42.6212 44.613C43.0414 43.5806 42.7628 42.2845 43.2195 42.5301C43.6762 42.7757 44.133 42.9849 44.238 42.7393C44.3431 42.4937 43.6762 41.8389 43.4296 41.7297ZM39.7393 42.6393C39.3191 42.6393 39.5658 42.571 39.5475 41.7661C39.5292 40.9612 39.9585 40.9248 39.2004 40.9612C38.4422 40.9975 38.7893 40.2608 38.1225 40.3654C37.4557 40.47 37.7708 40.8884 37.4877 41.2067C37.2045 41.5251 36.3641 41.1703 36.3641 41.8025C36.3641 42.4346 36.6108 42.8166 36.4326 43.094C36.2545 43.3714 36.3413 43.4169 35.5557 43.4806C35.5557 43.4806 34.2541 41.5205 35.2726 39.7697C36.2911 38.0188 37.7343 37.7732 38.7893 37.9142C39.8444 38.0552 40.7578 38.4417 40.6528 39.7333C40.5477 41.0248 40.1595 42.6393 39.7347 42.6393H39.7393Z" fill="#DAB23A"/>
<path d="M29.3216 27.6637C29.1937 27.0543 29.0156 26.8724 29.3216 26.545C29.6276 26.2175 29.6276 25.881 29.3216 25.6764C29.0156 25.4717 28.4766 25.8537 28.3762 26.5177C28.2757 27.1817 28.6822 27.3863 28.6319 28.1731C28.6103 28.3187 28.5597 28.4586 28.4832 28.5846C28.4067 28.7105 28.3058 28.8201 28.1863 28.9069C28.0669 28.9936 27.9313 29.0559 27.7875 29.0899C27.6436 29.124 27.4944 29.1293 27.3485 29.1053C26.9923 29.0326 26.8918 27.8865 25.8916 27.8593C24.8914 27.832 24.4849 29.2236 24.0236 29.4373C23.5623 29.6511 23.4618 28.9825 23.4618 28.9825C23.9958 28.1327 24.2214 27.1264 24.1012 26.1311C23.8957 25.1352 23.3111 25.0078 22.9777 24.7304C22.6443 24.453 22.8727 24.0665 22.7448 23.8209C22.6169 23.5753 22.2333 24.5303 22.2333 24.5303C21.9263 24.5386 21.6207 24.5736 21.3198 24.6349C20.7809 24.735 20.8631 24.9396 20.4749 24.7623C20.0867 24.5849 19.9862 24.2529 19.9131 24.4303C19.84 24.6076 20.2419 25.2716 19.8355 25.7946C19.5308 26.2237 19.3896 26.7469 19.4373 27.2703C19.485 27.7937 19.7185 28.2831 20.0958 28.6506C21.096 29.692 22.2196 29.36 22.5804 29.4146C22.9412 29.4692 22.9366 30.1013 22.7311 30.6607C22.5256 31.22 22.2333 31.3792 21.7217 31.834C21.2102 32.2887 21.0595 32.4479 21.466 32.7435C21.8724 33.0391 22.6945 32.4388 22.9001 32.025C23.1056 31.6111 23.5897 30.6607 23.8957 30.5788C24.2017 30.4969 24.1789 30.7562 24.1515 31.0881C24.1241 31.4201 23.8226 31.6475 23.5897 32.025C23.3568 32.4024 23.1558 32.7435 23.4618 32.8708C23.7678 32.9982 23.9734 32.8708 24.3342 32.3388C24.6597 31.7747 24.9407 31.1863 25.1745 30.5788C25.4577 29.9921 25.4851 29.7147 26.088 29.7375C26.6909 29.7602 26.7046 30.5788 26.5447 30.9335C26.3849 31.2882 26.4671 31.8021 26.2615 32.025C26.056 32.2478 25.9281 32.7208 26.3894 32.7708C26.8507 32.8208 27.1567 32.0068 27.3029 31.4974C27.449 30.9881 27.2252 30.3514 27.6363 30.2923C28.0473 30.2332 28.1752 31.2018 28.2757 31.6248C28.3762 32.0477 28.2757 32.0068 28.198 32.3388C28.1204 32.6707 28.3259 32.6662 28.5817 32.5389C28.8375 32.4115 28.8375 32.1569 29.0704 31.7521C29.3033 31.3474 29.043 31.1882 28.6867 30.4515C28.3305 29.7147 28.6593 29.4601 29.0704 28.9507C29.2429 28.7898 29.3601 28.5788 29.4052 28.3477C29.4503 28.1166 29.421 27.8773 29.3216 27.6637ZM21.1006 27.1544C20.9797 27.1427 20.8675 27.0866 20.7859 26.9971C20.7043 26.9075 20.6591 26.791 20.6591 26.67C20.6591 26.5491 20.7043 26.4325 20.7859 26.343C20.8675 26.2534 20.9797 26.1974 21.1006 26.1857C21.1684 26.1791 21.2369 26.1868 21.3016 26.2082C21.3663 26.2295 21.4258 26.2641 21.4762 26.3097C21.5267 26.3553 21.567 26.411 21.5946 26.473C21.6222 26.5351 21.6365 26.6022 21.6365 26.67C21.6365 26.7379 21.6222 26.805 21.5946 26.8671C21.567 26.9291 21.5267 26.9847 21.4762 27.0303C21.4258 27.076 21.3663 27.1106 21.3016 27.1319C21.2369 27.1533 21.1684 27.1609 21.1006 27.1544ZM22.4296 26.6723C22.333 26.6723 22.2385 26.6438 22.1581 26.5903C22.0778 26.5368 22.0151 26.4608 21.9782 26.3719C21.9412 26.283 21.9315 26.1852 21.9503 26.0908C21.9692 25.9964 22.0157 25.9097 22.0841 25.8416C22.1524 25.7736 22.2395 25.7272 22.3343 25.7084C22.4291 25.6897 22.5274 25.6993 22.6167 25.7361C22.706 25.773 22.7823 25.8353 22.836 25.9154C22.8897 25.9954 22.9183 26.0895 22.9183 26.1857C22.9184 26.2512 22.9052 26.316 22.8795 26.3762C22.8538 26.4365 22.8161 26.4909 22.7688 26.5364C22.7215 26.5818 22.6654 26.6173 22.604 26.6406C22.5426 26.664 22.4771 26.6748 22.4114 26.6723H22.4296Z" fill="#73C6BC"/>
</svg>
