<svg width="92" height="55" viewBox="0 0 92 55" fill="none" xmlns="http://www.w3.org/2000/svg">
<path d="M36.6097 14.5243C36.0154 12.8438 36.1342 11.6435 36.1342 10.5631C36.1342 10.203 36.1342 9.7229 36.1342 9.36279C36.1342 9.00268 36.1342 8.40251 35.6588 8.28247C35.3022 8.16244 35.1833 8.64258 34.9456 8.88265C34.8267 9.00269 34.7079 9.24274 34.2324 9.1227C35.3022 6.96206 35.5399 4.6814 35.7776 2.40072C35.7776 2.28068 35.7776 2.04058 35.8965 1.92055C36.1342 1.20033 35.6588 0 36.6097 0C37.204 0 37.204 1.32037 37.204 2.04059C37.3229 3.96116 38.1549 5.76172 38.3926 7.68229C38.5115 8.16244 38.9869 8.88263 38.3926 9.1227C37.7983 9.36278 37.7983 8.4025 37.204 8.16243C36.9663 10.3231 37.5606 12.2436 36.6097 14.5243Z" fill="black"/>
<path d="M33.876 32.5299C34.1137 32.5299 34.3514 32.4099 34.5892 32.4099C37.7985 32.0498 37.7985 32.0498 37.5607 28.6888C37.4419 27.0083 37.4419 25.4478 37.5607 23.7673C38.3928 24.4875 38.155 25.5679 38.2739 26.4081C38.5116 27.8486 38.5116 29.169 38.6305 30.6094C38.6305 31.6897 38.9871 32.1699 40.1757 32.1699C41.2455 32.1699 42.4341 32.2899 43.5039 32.5299C42.553 33.2502 41.3643 33.1301 40.4134 33.1301C39.2248 33.1301 38.7494 33.4903 38.8682 34.8107C38.9871 36.4912 38.8682 38.1716 38.6305 39.8521C38.0362 38.0516 38.0362 36.2511 37.9173 34.4505C37.9173 33.4902 37.5607 33.1301 36.6098 33.1301C35.6589 33.1301 34.708 33.1301 33.876 32.5299Z" fill="black"/>
<path d="M86.7703 32.4098C84.8685 32.2897 83.3233 32.2897 81.778 32.2897C81.4215 32.2897 80.8271 32.2897 80.8271 31.8096C80.8271 31.2094 81.4215 31.4495 81.778 31.4495C83.2044 31.3294 84.5119 31.3295 86.0571 31.2094C85.7005 30.4892 84.6308 30.7292 84.0364 29.6489C86.8892 29.769 89.2664 31.2094 92.0003 31.3294C89.3853 32.1697 86.8892 33.37 84.1553 35.0505C84.8685 33.4901 85.8194 33.13 86.7703 32.4098Z" fill="black"/>
<path d="M86.2948 40.3322C85.7005 39.3719 85.3439 38.5317 86.8891 38.0515C87.3646 37.9315 88.5532 37.2113 87.6023 36.371C86.1759 35.0506 87.2457 34.5705 88.0777 33.8503C88.4343 33.9703 88.4343 34.0903 88.3155 34.3304C88.1966 34.9306 88.3155 35.7709 88.9098 35.8909C89.623 36.0109 89.8607 35.2907 90.0984 34.5705C90.2173 34.2104 90.2173 33.7302 90.5739 33.7302C91.1682 33.7302 91.287 34.3304 91.5248 34.8106C91.7625 35.2907 91.4059 35.4107 91.0493 35.6508C89.3852 36.7311 89.2664 37.0912 90.9304 38.0515C91.1682 38.1716 91.4059 38.4116 91.1682 38.6517C90.8116 39.1319 90.6927 39.8521 89.9795 40.2122C89.7418 40.3322 89.623 40.0921 89.5041 39.8521C89.0286 39.2519 89.623 37.6914 88.0777 38.2916C87.2457 38.6517 86.8891 39.492 86.5325 40.2122C86.5325 40.3322 86.5325 40.3322 86.2948 40.3322Z" fill="black"/>
<path d="M4.04102 32.77C5.34851 32.53 6.53714 32.65 7.36918 32.1698C8.20122 31.5697 7.48805 30.0092 8.32009 29.1689C8.79554 29.409 8.67667 29.7691 8.79554 30.1292C9.03326 32.2899 9.03326 32.2899 11.1728 32.4099C11.6482 32.4099 12.2426 32.2899 12.5992 32.8901C11.5294 33.2502 10.2219 32.8901 9.27099 33.6103C8.32009 34.4505 9.03327 35.891 8.32009 36.9713C7.60691 36.4911 7.72577 35.7709 7.72577 35.1707C7.72577 33.7303 7.01259 33.3702 5.82396 33.2502C5.34851 33.2502 4.75419 33.3702 4.04102 32.77Z" fill="black"/>
<path d="M53.7256 23.7672C53.0124 23.7672 52.1804 23.7672 51.4672 23.5272C50.754 23.2871 50.1597 23.2871 50.5163 24.3674C50.754 24.9676 50.5163 25.4478 49.922 25.5678C49.3277 25.5678 48.9711 25.2077 48.9711 24.6075C48.8522 23.5272 49.5654 22.6869 50.2786 21.9667C50.8729 21.4866 51.7049 21.6066 52.2992 22.2068C53.2501 23.047 53.8445 22.8069 54.3199 21.7266C54.4388 21.3665 54.6765 21.1265 54.9142 20.8864C55.2708 20.5263 55.6274 20.5263 55.7463 21.1264C56.2217 22.927 55.6274 23.7672 53.7256 23.7672Z" fill="black"/>
<path d="M40.5318 9.12279C40.2941 8.88272 40.413 8.64268 40.5318 8.40261C41.4827 6.48203 40.8884 4.56143 40.1752 2.64086C40.0564 2.40079 39.9375 2.0407 39.9375 1.80063C39.9375 1.44052 39.9375 1.0804 40.413 0.960361C40.8884 0.840325 41.0073 1.32047 41.1261 1.56054C41.3639 2.04068 41.6016 2.52081 41.8393 3.12099C42.6714 2.28074 41.9582 1.0804 42.7902 0.480225C43.86 2.4008 42.6714 6.96214 40.5318 9.12279Z" fill="black"/>
<path d="M19.4932 32.53C21.395 32.1698 23.6534 32.4099 23.0591 29.5291C23.8911 29.6491 24.01 30.1293 24.01 30.6094C24.1288 31.9298 24.842 32.2899 26.0306 32.1699C26.8627 32.0498 27.6947 32.1699 28.5268 32.65C27.9324 33.2502 27.3381 33.0101 26.7438 33.0101C24.4854 33.1302 24.4854 33.1302 23.1779 35.2908C22.5836 34.6906 23.4156 33.3702 22.227 33.0101C21.5138 32.7701 20.5629 33.1301 19.4932 32.53Z" fill="black"/>
<path d="M39.2247 54.7366C38.7492 50.1752 38.3926 45.8539 38.6304 41.4126C39.9378 42.4929 40.4133 51.9757 39.2247 54.7366Z" fill="black"/>
<path d="M66.5631 35.4108C66.9197 32.89 65.4933 32.5299 63.4727 32.4099C65.3745 32.0497 66.8008 31.4495 66.4442 29.0488C67.7517 29.769 66.8008 31.3295 67.9894 31.5696C68.9403 31.8097 69.8913 31.8096 71.4365 31.9297C69.6535 33.01 66.5631 31.8096 67.2763 35.5308C67.0385 35.5308 66.8008 35.4108 66.5631 35.4108Z" fill="black"/>
<path d="M56.8168 32.2899C55.6281 33.4903 52.5377 31.3296 53.132 34.8107C51.8245 34.4506 52.8943 32.65 51.3491 32.77C50.517 32.8901 49.5661 33.0101 48.6152 32.65C49.0907 31.8097 49.9227 32.0498 50.517 31.9298C51.5868 31.6897 52.4188 31.5697 52.4188 30.1292C52.4188 29.8892 52.5377 29.5291 52.8943 29.5291C53.132 29.5291 53.2509 29.7692 53.2509 30.0092C53.0132 31.9298 54.4395 31.8097 55.5093 31.9298C55.8659 32.0498 56.3413 31.8098 56.8168 32.2899Z" fill="black"/>
<path d="M37.3233 35.7706C37.4421 36.7309 36.3724 38.0513 35.3026 38.0513C34.2328 38.0513 33.6385 37.4511 33.4008 36.4908C33.1631 35.4105 34.3517 34.0901 35.4215 34.0901C36.4912 34.0901 37.0855 34.6903 37.3233 35.7706ZM35.4215 36.4908C35.6592 36.3708 35.8969 36.2507 35.8969 35.8906C35.8969 35.5305 35.6592 35.4105 35.3026 35.4105C34.946 35.4105 34.5894 35.6506 34.7083 36.0107C34.8271 36.3708 35.0649 36.4908 35.4215 36.4908Z" fill="black"/>
<path d="M52.4188 25.4477C52.1811 26.768 52.1811 28.0884 51.2302 29.1688C50.8736 29.6489 50.2793 29.7689 49.685 29.5289C49.0906 29.1688 48.9718 28.5686 49.2095 28.0885C49.4472 27.6083 49.5661 26.8881 50.517 27.4883C50.9925 27.8484 50.9925 27.3682 50.9925 27.1281C51.1113 26.528 51.2302 26.0478 51.349 25.4477C51.4679 25.0875 51.4679 24.6074 51.9434 24.6074C52.5377 24.6074 52.4188 25.0875 52.4188 25.4477Z" fill="black"/>
<path d="M54.5578 27.6084C54.439 28.2086 54.7955 29.1689 54.2012 29.2889C53.488 29.409 53.2503 28.4487 53.1315 27.7284C53.0126 26.6481 52.7749 24.7275 53.4881 24.7275C54.7955 24.9676 54.2012 26.7682 54.5578 27.6084Z" fill="black"/>
<path d="M1.06977 31.8096C1.54522 31.8096 2.02067 31.9296 2.02067 32.5298C2.02067 33.25 1.78295 33.8502 0.950906 33.9702C0.475454 33.9702 0 33.7301 0 33.25C0 32.5298 0.475452 32.0496 1.06977 31.8096Z" fill="black"/>
<path d="M36.9665 19.2059C36.2533 19.2059 36.0156 18.7257 36.0156 18.2456C36.0156 17.6454 36.3722 17.1653 36.9665 17.1653C37.5608 17.1653 37.9174 17.5254 37.9174 18.1256C37.9174 18.6057 37.5608 19.0859 36.9665 19.2059Z" fill="black"/>
<path d="M7.84477 17.0452C8.43909 17.1652 8.91454 17.4053 8.79568 18.0055C8.79568 18.6057 8.55795 19.2058 7.72591 19.2058C7.1316 19.2058 6.775 18.8457 6.89387 18.2455C7.01273 17.6453 7.25046 17.1652 7.84477 17.0452Z" fill="black"/>
<path d="M48.4961 40.5722C48.0206 40.5722 47.6641 40.4522 47.6641 39.9721C47.6641 39.3719 47.9018 38.8917 48.615 38.7717C49.0904 38.6517 49.5659 38.8918 49.5659 39.4919C49.447 40.0921 49.0904 40.4522 48.4961 40.5722Z" fill="black"/>
<path d="M32.2124 32.0496C32.0935 32.7699 31.618 32.8899 31.1426 33.0099C30.6671 33.13 30.3105 32.8899 30.3105 32.4098C30.3105 31.8096 30.6671 31.3294 31.2615 31.3294C31.7369 31.2094 32.0935 31.5695 32.2124 32.0496Z" fill="black"/>
<path d="M23.8913 48.2545C23.297 48.2545 23.0593 47.7743 23.1782 47.2942C23.1782 46.694 23.5347 46.2139 24.2479 46.2139C24.7234 46.2139 25.08 46.574 24.9611 47.1741C24.9611 47.7743 24.6045 48.1344 23.8913 48.2545Z" fill="black"/>
<path d="M71.1992 26.0479C70.7238 26.0479 70.3672 25.6878 70.3672 25.2076C70.3672 24.7275 70.7238 24.2473 71.1992 24.1273C71.6747 24.0072 71.9124 24.3673 72.0313 24.8475C72.0313 25.3276 71.7936 25.8078 71.1992 26.0479Z" fill="black"/>
<path d="M82.0156 47.4143C81.5401 47.4143 81.0646 47.1742 81.1835 46.574C81.1835 45.9739 81.5401 45.6138 82.1344 45.6138C82.6099 45.6138 82.9665 45.7338 82.9665 46.2139C83.0853 46.9342 82.6099 47.1742 82.0156 47.4143Z" fill="black"/>
<path d="M69.5346 19.9261C69.4158 20.5263 69.178 20.8864 68.5837 20.8864C67.9894 21.0064 67.7517 20.5263 67.8705 20.0461C67.8705 19.446 68.2271 19.0859 68.7026 18.9658C69.2969 18.9658 69.4158 19.4459 69.5346 19.9261Z" fill="black"/>
<path d="M17.2351 32.4097C17.2351 33.1299 16.7596 33.49 16.1653 33.49C15.6899 33.61 15.4521 33.2499 15.4521 32.7698C15.4521 32.1696 15.8087 31.6895 16.4031 31.6895C16.8785 31.6895 17.1162 32.0496 17.2351 32.4097Z" fill="black"/>
<path d="M34.4701 21.4866C33.8757 21.4866 33.5191 21.2465 33.638 20.7664C33.638 20.1662 33.9946 19.8061 34.5889 19.686C35.0644 19.566 35.3021 20.0462 35.3021 20.4063C35.3021 21.0064 34.9455 21.3665 34.4701 21.4866Z" fill="black"/>
<path d="M19.1368 41.1722C18.5424 41.1722 18.1859 40.9321 18.1859 40.452C18.067 39.8518 18.4236 39.4917 19.0179 39.4917C19.4934 39.4917 19.9688 39.4917 19.8499 40.2119C19.8499 40.572 19.8499 41.1722 19.1368 41.1722Z" fill="black"/>
<path d="M5.34864 22.0866C4.87319 22.0866 4.5166 21.8466 4.5166 21.3664C4.5166 20.7662 4.75433 20.4061 5.34864 20.2861C5.8241 20.1661 6.18068 20.4061 6.29955 20.7662C6.29955 21.4865 5.8241 21.8466 5.34864 22.0866Z" fill="black"/>
<path d="M54.4392 46.8141C54.3203 47.2943 54.0826 47.7744 53.4883 47.7744C53.0128 47.7744 52.6562 47.5343 52.6562 46.9342C52.7751 46.454 53.0128 45.9739 53.6072 45.9739C54.2015 46.0939 54.4392 46.334 54.4392 46.8141Z" fill="black"/>
<path d="M21.5147 43.9333C21.9901 44.0534 22.4656 44.1734 22.3467 44.7736C22.3467 45.3738 21.8713 45.6139 21.3958 45.7339C20.9203 45.8539 20.6826 45.4939 20.6826 45.0137C20.6826 44.4135 20.9203 44.0534 21.5147 43.9333Z" fill="black"/>
<path d="M66.0879 16.5652C66.5634 16.5652 66.9199 16.8053 66.9199 17.4055C66.9199 18.0056 66.6822 18.3657 66.0879 18.4858C65.4936 18.6058 65.2559 18.2457 65.2559 17.6455C65.2559 17.0453 65.4936 16.6852 66.0879 16.5652Z" fill="black"/>
<path d="M85.3439 43.6931C85.2251 44.2933 84.9873 44.6534 84.393 44.6534C84.0364 44.6534 83.6798 44.4133 83.7987 44.0532C83.7987 43.453 84.0364 43.0929 84.6307 42.9729C85.1062 42.8528 85.3439 43.0929 85.3439 43.6931Z" fill="black"/>
<path d="M43.0289 24.7276C43.0289 25.2077 42.7912 25.6879 42.3157 25.6879C41.7214 25.6879 41.6025 25.3278 41.6025 24.8476C41.6025 24.3675 41.7214 23.8874 42.3157 24.0074C42.7912 23.8874 43.0289 24.2474 43.0289 24.7276Z" fill="black"/>
<path d="M29.7158 39.9721C29.597 40.4522 29.3593 40.8124 28.8838 40.8124C28.4083 40.8124 28.0518 40.4522 28.0518 39.8521C28.0518 39.3719 28.4083 39.1318 28.8838 39.1318C29.3593 39.1318 29.7158 39.492 29.7158 39.9721Z" fill="black"/>
<path d="M64.3053 19.926C64.3053 20.5262 63.9487 20.8863 63.3544 21.0063C62.8789 21.1264 62.7601 20.7663 62.6412 20.4061C62.5223 19.806 62.8789 19.4458 63.3544 19.3258C63.9487 19.2058 64.0676 19.5659 64.3053 19.926Z" fill="black"/>
<path d="M79.7568 44.8937C79.2814 44.8937 78.9248 44.5336 78.9248 44.1735C78.9248 43.5733 79.4002 43.3333 79.8757 43.3333C80.2323 43.3333 80.5889 43.5733 80.5889 43.9334C80.7077 44.4136 80.2323 44.6537 79.7568 44.8937Z" fill="black"/>
<path d="M26.6253 43.8132C27.1007 43.9333 27.5762 44.0533 27.5762 44.5334C27.5762 45.0136 27.4573 45.4937 26.863 45.4937C26.3876 45.6138 26.031 45.2536 25.9121 44.7735C25.9121 44.2934 26.1498 43.9333 26.6253 43.8132Z" fill="black"/>
<path d="M40.7705 19.8061C40.7705 20.4063 40.4139 20.7664 39.8196 20.7664C39.3442 20.7664 39.1064 20.5263 39.1064 20.0461C39.1064 19.446 39.3442 19.0859 39.9385 18.9658C40.5328 18.9658 40.7705 19.3259 40.7705 19.8061Z" fill="black"/>
<path d="M10.4603 20.1663C11.0546 20.1663 11.2923 20.5264 11.2923 21.0065C11.2923 21.6067 10.9357 21.8468 10.4603 21.8468C9.9848 21.8468 9.74707 21.6067 9.74707 21.0065C9.74707 20.6464 9.9848 20.2863 10.4603 20.1663Z" fill="black"/>
<path d="M58.5996 39.252C58.4808 39.8521 58.1242 40.2123 57.6487 40.2123C57.0544 40.3323 56.9355 39.8522 56.9355 39.492C56.9355 38.8919 57.1733 38.5317 57.7676 38.5317C58.3619 38.5317 58.5996 38.7718 58.5996 39.252Z" fill="black"/>
<path d="M46.2376 32.4097C46.2376 32.8898 46.1187 33.37 45.5244 33.37C45.049 33.37 44.6924 33.2499 44.6924 32.7698C44.6924 32.1696 44.9301 31.8095 45.5244 31.6895C46.1187 31.5694 46.1187 32.0496 46.2376 32.4097Z" fill="black"/>
<path d="M74.7649 31.6896C74.7649 32.1698 74.6461 32.6499 74.0518 32.7699C73.6952 32.7699 73.2197 32.6499 73.2197 32.1697C73.2197 31.6896 73.3386 31.0894 74.0518 31.0894C74.5272 30.9694 74.7649 31.2095 74.7649 31.6896Z" fill="black"/>
<path d="M56.9356 43.6932C56.8167 44.1733 56.579 44.5334 56.1035 44.5334C55.6281 44.5334 55.2715 44.4134 55.2715 43.9332C55.2715 43.3331 55.6281 42.973 56.2224 42.973C56.6978 42.8529 56.9356 43.2131 56.9356 43.6932Z" fill="black"/>
<path d="M51.7057 43.9334C51.5868 44.4135 51.3491 44.7737 50.7548 44.7737C50.2793 44.7737 49.9227 44.5336 50.0416 44.0534C50.0416 43.5733 50.3982 43.2132 50.8736 43.2132C51.3491 43.0932 51.5868 43.4532 51.7057 43.9334Z" fill="black"/>
<path d="M60.026 31.3296C60.6203 31.3296 60.7392 31.8097 60.7392 32.1699C60.7392 32.65 60.5014 32.8901 60.026 32.8901C59.6694 32.8901 59.4317 32.65 59.4317 32.1699C59.3128 31.8097 59.5505 31.4496 60.026 31.3296Z" fill="black"/>
<path d="M33.5191 24.8475C33.5191 25.3276 33.2814 25.5677 32.9248 25.6878C32.4494 25.8078 32.2116 25.4477 32.0928 25.0876C32.0928 24.6074 32.3305 24.3674 32.806 24.2473C33.1625 24.2473 33.5191 24.4874 33.5191 24.8475Z" fill="black"/>
<path d="M3.20899 26.7683C2.73354 26.7683 2.37695 26.5282 2.37695 26.0481C2.37695 25.568 2.73354 25.3279 3.09013 25.3279C3.44672 25.3279 3.80331 25.568 3.80331 25.9281C3.92217 26.4082 3.56558 26.6483 3.20899 26.7683Z" fill="black"/>
<path d="M83.0849 53.7761C82.966 54.1362 82.7283 54.3763 82.3717 54.4963C81.8962 54.4963 81.6585 54.2562 81.7774 53.8961C81.7774 53.416 82.0151 53.0559 82.4905 53.1759C82.8471 53.0559 83.0849 53.416 83.0849 53.7761Z" fill="black"/>
<path d="M61.5712 24.2473C62.0466 24.2473 62.1655 24.4874 62.1655 24.9675C62.0466 25.4477 61.8089 25.6878 61.3335 25.6878C60.9769 25.6878 60.6203 25.4477 60.7391 24.9675C60.7391 24.4874 61.0957 24.3674 61.5712 24.2473Z" fill="black"/>
<path d="M13.6697 25.8079C13.5508 26.2881 13.4319 26.6482 12.9565 26.6482C12.5999 26.6482 12.2433 26.4081 12.3622 25.9279C12.3622 25.5678 12.5999 25.2078 12.9565 25.2078C13.3131 25.2078 13.5508 25.4478 13.6697 25.8079Z" fill="black"/>
<path d="M57.2924 51.6155C57.4113 52.0956 57.1736 52.3357 56.817 52.3357C56.4604 52.3357 56.2227 52.2156 56.2227 51.8555C56.2227 51.4954 56.3415 51.1353 56.6981 51.0153C57.1736 50.8953 57.1736 51.3754 57.2924 51.6155Z" fill="black"/>
<path d="M24.6051 53.7764C24.9617 53.7764 25.1994 54.0164 25.1994 54.3765C25.1994 54.7367 24.9617 55.0968 24.6051 54.9767C24.2485 54.9767 24.0108 54.7367 24.0108 54.3765C23.8919 54.0164 24.1296 53.7764 24.6051 53.7764Z" fill="black"/>
<path d="M54.7954 54.0161C54.7954 54.4962 54.6765 54.7363 54.201 54.8563C53.8445 54.9764 53.7256 54.7363 53.7256 54.4962C53.7256 54.1361 53.8445 53.776 54.201 53.656C54.5576 53.4159 54.6765 53.656 54.7954 54.0161Z" fill="black"/>
<path d="M76.6669 39.9719C76.4291 39.8519 76.1914 39.7319 76.1914 39.4918C76.1914 39.1317 76.4291 38.8916 76.7857 38.8916C77.0235 38.8916 77.2612 39.1317 77.2612 39.3717C77.2612 39.7318 77.0235 39.9719 76.6669 39.9719Z" fill="black"/>
<path d="M26.9823 52.936C26.5068 52.8159 26.5068 52.5759 26.5068 52.2158C26.5068 51.8557 26.7446 51.4956 27.22 51.6156C27.5766 51.6156 27.5766 51.9757 27.5766 52.2158C27.5766 52.5759 27.3389 52.8159 26.9823 52.936Z" fill="black"/>
<path d="M21.9898 52.3359C22.2275 52.3359 22.4653 52.576 22.4653 52.8161C22.5841 53.2963 22.2275 53.4163 21.871 53.5363C21.5144 53.6563 21.3955 53.4163 21.3955 53.0562C21.3955 52.8161 21.6332 52.576 21.9898 52.3359Z" fill="black"/>
<path d="M52.0619 52.3358C52.0619 52.6959 51.943 52.9359 51.5865 53.056C51.3487 53.056 51.111 52.8159 51.2299 52.5759C51.2299 52.2157 51.2299 51.8556 51.7053 51.8556C52.0619 51.7356 52.0619 52.0957 52.0619 52.3358Z" fill="black"/>
<path d="M85.7003 51.1355C85.5815 51.6157 85.3438 51.8558 84.9872 51.9758C84.7494 51.9758 84.6306 51.8558 84.5117 51.6157C84.5117 51.2556 84.6306 51.0155 84.9872 50.8955C85.3438 50.7754 85.4626 50.8955 85.7003 51.1355Z" fill="black"/>
<path d="M80.2321 51.7355C80.2321 52.0956 79.9944 52.3357 79.6378 52.2157C79.4001 52.2157 79.2812 52.0956 79.2812 51.8556C79.2812 51.4954 79.4001 51.2554 79.7567 51.2554C80.1133 51.2554 80.2321 51.4954 80.2321 51.7355Z" fill="black"/>
<path d="M58.5993 46.8142C58.5993 47.1743 58.4805 47.4143 58.1239 47.4143C57.8862 47.4143 57.6484 47.4143 57.6484 47.0542C57.6484 46.6941 57.7673 46.334 58.2428 46.334C58.4805 46.334 58.5993 46.5741 58.5993 46.8142Z" fill="black"/>
<path d="M30.31 47.2943C30.1911 47.6544 30.0723 48.0145 29.5968 48.0145C29.2402 48.0145 29.2402 47.6544 29.2402 47.4144C29.3591 47.0543 29.478 46.8142 29.8346 46.8142C30.31 46.6941 30.31 46.9342 30.31 47.2943Z" fill="black"/>
<path d="M49.3285 46.6941C49.3285 46.9342 49.2096 47.1743 48.9719 47.2943C48.7342 47.4143 48.6153 47.2943 48.4965 47.0542C48.3776 46.6941 48.6153 46.454 48.8531 46.334C49.0908 46.334 49.3285 46.5741 49.3285 46.6941Z" fill="black"/>
<path d="M19.2554 46.8142C19.4931 46.8142 19.612 46.9342 19.612 47.1743C19.612 47.5344 19.4931 47.7745 19.1365 47.7745C18.8988 47.7745 18.8988 47.5344 18.8988 47.2943C18.7799 47.0543 19.0177 46.9342 19.2554 46.8142Z" fill="black"/>
</svg>
