<svg width="64" height="71" viewBox="0 0 64 71" fill="none" xmlns="http://www.w3.org/2000/svg">
<path d="M24.9357 17.455C24.9357 10.8054 19.533 5.40271 12.4679 5.40271C5.81833 5.40271 0 10.8054 0 17.455C0 24.1045 5.40274 29.9228 12.4679 29.9228C19.533 29.5072 24.9357 24.1045 24.9357 17.455Z" fill="#FFC424"/>
<path d="M24.9357 53.6118C24.9357 46.9622 19.533 41.5595 12.4679 41.5595C5.81833 41.5595 0 46.9622 0 53.6118C0 60.2613 5.40274 66.0796 12.4679 66.0796C19.533 66.0796 24.9357 60.2613 24.9357 53.6118Z" fill="#FFC424"/>
<path d="M62.7538 38.6504C61.9226 39.4816 60.6758 39.8971 58.5978 40.3127C57.7666 40.3127 56.5197 40.7283 56.1041 41.5595C55.2729 42.3907 54.8574 44.0531 54.8574 46.5467V58.5989C54.8574 62.3393 54.0262 65.2485 51.5327 67.742C49.4547 69.82 46.5454 70.6512 42.805 70.6512H40.3115C38.2336 70.6512 36.9868 70.6512 36.1556 70.2356C34.9088 69.4044 33.6621 68.1576 33.6621 66.0797C33.6621 64.0017 34.4932 62.7549 36.1556 61.9237C36.9868 61.5081 38.2335 61.0925 39.4803 61.0925C41.5583 61.0925 42.3896 60.6769 43.2208 59.8457C44.0519 59.0145 44.4675 57.3522 44.4675 54.443V43.6375C44.4675 37.8192 48.2079 36.1568 50.2859 35.3256C48.2079 34.4944 44.4675 33.2476 44.4675 27.0137V16.2082C44.4675 13.299 44.0519 11.6367 43.2208 10.8055C42.3896 9.97429 41.1427 9.55869 39.4803 9.55869C38.2335 9.55869 36.9868 9.55869 36.1556 8.7275C34.9088 7.89631 33.6621 6.64952 33.6621 4.57155C33.6621 2.49357 34.4932 1.24679 36.1556 0.415595C37.4024 -4.02535e-07 38.2336 0 40.3115 0H42.805C46.5454 0 49.8703 1.24679 51.5327 2.90917C54.0262 5.40274 54.8574 8.31191 54.8574 12.0523V24.1045C54.8574 26.5981 55.2729 27.8449 56.1041 29.0917C56.9353 29.9229 57.7666 30.3385 58.5978 30.3385C61.0914 30.7541 61.9226 30.7541 62.7538 32.0008C63.585 32.832 64.0005 34.0788 64.0005 35.3256C64.0005 36.5724 63.585 37.8192 62.7538 38.6504Z" fill="#FFC424"/>
</svg>
