<?xml version="1.0" encoding="utf-8"?>
<!-- Generator: Adobe Illustrator 15.0.0, SVG Export Plug-In . SVG Version: 6.00 Build 0)  -->
<!DOCTYPE svg PUBLIC "-//W3C//DTD SVG 1.1//EN" "http://www.w3.org/Graphics/SVG/1.1/DTD/svg11.dtd">
<svg version="1.1" id="Layer_1" xmlns="http://www.w3.org/2000/svg" xmlns:xlink="http://www.w3.org/1999/xlink" x="0px" y="0px"
	 width="273.139px" height="133.794px" viewBox="0 0 273.139 133.794" enable-background="new 0 0 273.139 133.794"
	 xml:space="preserve">
<g>
	<rect fill="#E3051B" width="273.139" height="133.794"/>
</g>
<g>
	<g>
		<g>
			<path fill="#FFFFFF" d="M21.455,47.785c0,1.938,0.035,2.617,0.569,3.635c0.655,1.211,2.172,2.083,3.982,2.083
				s3.327-0.872,3.982-2.083c0.534-1.018,0.569-1.696,0.569-3.635v-11l4.207,6.833c0.982,1.599,1.948,2.374,3.913,2.374
				s2.931-0.775,3.914-2.374l4.207-6.833v11c0,1.938,0.034,2.617,0.569,3.635c0.655,1.211,2.172,2.083,3.982,2.083
				s3.327-0.872,3.982-2.083c0.534-1.018,0.569-1.696,0.569-3.635V23.799c0-1.793-0.207-3.037-1.328-4.071
				c-0.828-0.774-1.81-1.146-3.034-1.146c-1.086,0-1.862,0.178-2.672,0.679c-0.896,0.565-1.568,1.405-2.224,2.423l-7.965,12.729
				l-7.964-12.729c-0.655-1.018-1.328-1.857-2.224-2.423c-0.81-0.501-1.586-0.679-2.655-0.679c-1.241,0-2.224,0.372-3.052,1.146
				c-1.12,1.034-1.327,2.278-1.327,4.071C21.455,47.785,21.455,47.785,21.455,47.785z"/>
		</g>
	</g>
</g>
<g>
	<g>
		<g>
			<path fill="#FFFFFF" d="M66.584,46.816c-0.845,2.132-1.414,3.796,0.31,5.427c0.81,0.743,2.017,1.26,3.258,1.26
				c1.017,0,1.914-0.322,2.569-0.872c0.776-0.662,1.103-1.309,1.775-3.053l0.552-1.405h12.93l0.534,1.405
				c0.673,1.744,1.017,2.391,1.793,3.053c0.638,0.55,1.552,0.872,2.552,0.872c1.24,0,2.465-0.517,3.258-1.26
				c1.741-1.631,1.172-3.295,0.311-5.427L86.6,22.377c-0.639-1.583-1.139-2.262-1.88-2.811c-0.914-0.679-1.862-0.953-3.207-0.953
				s-2.31,0.274-3.207,0.953c-0.758,0.549-1.241,1.228-1.896,2.811C66.584,46.816,66.584,46.816,66.584,46.816z M85.236,41.098
				H77.79l3.724-9.595C85.236,41.098,85.236,41.098,85.236,41.098z"/>
		</g>
	</g>
</g>
<g>
	<g>
		<g>
			<path fill="#FFFFFF" d="M114.218,47.785c0,1.938,0.034,2.617,0.569,3.635c0.654,1.211,2.172,2.083,3.982,2.083
				c1.81,0,3.326-0.872,3.982-2.083c0.533-1.018,0.568-1.696,0.568-3.635V26.367h5.563c1.861,0,2.568-0.049,3.465-0.469
				c1.139-0.501,1.966-1.81,1.966-3.312s-0.827-2.811-1.966-3.312c-0.896-0.42-1.604-0.468-3.465-0.468H108.15
				c-1.861,0-2.568,0.048-3.465,0.468c-1.138,0.501-1.965,1.81-1.965,3.312s0.827,2.811,1.965,3.312
				c0.896,0.42,1.604,0.469,3.465,0.469h6.067C114.218,47.785,114.218,47.785,114.218,47.785z"/>
		</g>
	</g>
</g>
<g>
	<g>
		<g>
			<g>
				<path fill="#FFFFFF" d="M69.163,88.917c0,1.938,0.034,2.617,0.569,3.635c0.655,1.211,2.172,2.083,3.982,2.083
					c1.81,0,3.327-0.872,3.982-2.083c0.534-1.018,0.569-1.696,0.569-3.635v-8.173h0.793l10.084,11.29
					c1.535,1.729,2.466,2.601,4.225,2.601c1.034,0,1.931-0.371,2.74-1.001c0.982-0.775,1.569-1.745,1.569-2.875
					c0-1.309-0.483-2.116-2.017-3.813l-9.361-10.483l8.568-9.029c1.568-1.68,2.017-2.503,2.017-3.812c0-1.131-0.604-2.1-1.586-2.875
					c-0.793-0.631-1.707-1.002-2.741-1.002c-1.758,0-2.689,0.872-4.207,2.601l-9.292,10.402h-0.793v-7.285
					c0-1.938-0.035-2.616-0.569-3.634c-0.655-1.212-2.172-2.084-3.982-2.084c-1.811,0-3.328,0.872-3.982,2.084
					c-0.535,1.018-0.569,1.695-0.569,3.634C69.163,88.917,69.163,88.917,69.163,88.917z"/>
			</g>
		</g>
	</g>
	<g>
		<g>
			<g>
				<path fill="#FFFFFF" d="M128.708,88.917c0,1.938,0.034,2.617,0.569,3.635c0.654,1.211,2.172,2.083,3.982,2.083
					c1.81,0,3.326-0.872,3.982-2.083c0.533-1.018,0.568-1.696,0.568-3.635V65.141c0-1.261,0-2.827-1.275-4.006
					c-1.259-1.195-2.932-1.195-4.275-1.195h-13.154c-1.328,0-3.017,0-4.275,1.195c-1.275,1.179-1.275,2.745-1.275,4.006v10.741
					c0,5.185-0.121,10.758-4.775,10.968c-1.293,0.048-2.172,0.274-2.982,1.018c-0.689,0.662-1.139,1.68-1.139,2.762
					c0,1.503,0.828,2.843,1.966,3.344c0.913,0.42,1.604,0.469,3.827,0.469c8.017,0,11.844-3.489,11.844-17.93v-9.013h6.413
					C128.708,88.917,128.708,88.917,128.708,88.917z"/>
			</g>
		</g>
	</g>
	<g>
		<g>
			<g>
				<path fill="#FFFFFF" d="M149.537,87.948c-0.845,2.132-1.413,3.796,0.311,5.427c0.811,0.743,2.018,1.26,3.259,1.26
					c1.017,0,1.913-0.323,2.568-0.872c0.775-0.662,1.104-1.309,1.775-3.053l0.552-1.405h12.93l0.534,1.405
					c0.673,1.744,1.018,2.391,1.793,3.053c0.638,0.549,1.552,0.872,2.552,0.872c1.241,0,2.465-0.517,3.258-1.26
					c1.741-1.631,1.173-3.295,0.311-5.427l-9.826-24.439c-0.638-1.583-1.138-2.262-1.879-2.811
					c-0.914-0.679-1.862-0.953-3.207-0.953s-2.31,0.274-3.206,0.953c-0.759,0.549-1.241,1.228-1.896,2.811
					C149.537,87.948,149.537,87.948,149.537,87.948z M168.19,82.229h-7.447l3.724-9.595C168.19,82.229,168.19,82.229,168.19,82.229z
					"/>
			</g>
		</g>
	</g>
	<g>
		<g>
			<g>
				<path fill="#FFFFFF" d="M188.466,76.109c0,5.815,0.052,10.241,3.81,13.762c2.621,2.472,5.759,3.78,10.154,3.78
					c4.5,0,7-0.711,9.275-2.617c2.793-2.358,3.499-4.894,3.499-6.396c0-1.502-0.448-2.438-1.275-3.214s-1.931-1.195-3.12-1.195
					c-1.018,0-1.811,0.242-2.431,0.662c-0.983,0.63-1.638,1.551-2.414,2.827c-1.034,1.728-2.12,2.374-3.741,2.374
					c-1.551,0-2.586-0.679-3.258-1.502c-1.069-1.309-1.396-2.811-1.396-8.48s0.327-7.172,1.396-8.48
					c0.672-0.823,1.707-1.502,3.258-1.502c1.621,0,2.707,0.646,3.741,2.375c0.776,1.275,1.431,2.196,2.414,2.826
					c0.62,0.42,1.413,0.662,2.431,0.662c1.189,0,2.293-0.42,3.12-1.195s1.275-1.712,1.275-3.214c0-1.503-0.706-4.055-3.499-6.396
					c-2.275-1.906-4.775-2.617-9.275-2.617c-4.396,0-7.533,1.309-10.154,3.78C188.518,65.853,188.466,70.294,188.466,76.109z"/>
			</g>
		</g>
	</g>
	<g>
		<g>
			<g>
				<path fill="#FFFFFF" d="M223.287,75.531c0,5.815,0.052,10.241,3.81,13.762c2.62,2.472,5.758,3.78,10.154,3.78
					c4.499,0,6.999-0.711,9.274-2.617c2.793-2.358,3.5-4.894,3.5-6.396c0-1.502-0.448-2.438-1.275-3.214
					c-0.828-0.775-1.932-1.195-3.121-1.195c-1.017,0-1.81,0.242-2.431,0.662c-0.982,0.63-1.638,1.551-2.413,2.827
					c-1.034,1.728-2.121,2.374-3.741,2.374c-1.552,0-2.586-0.679-3.259-1.502c-1.068-1.309-1.396-2.811-1.396-8.48
					s0.328-7.172,1.396-8.48c0.673-0.823,1.707-1.502,3.259-1.502c1.62,0,2.707,0.646,3.741,2.375
					c0.775,1.275,1.431,2.196,2.413,2.826c0.621,0.42,1.414,0.662,2.431,0.662c1.189,0,2.293-0.42,3.121-1.195
					c0.827-0.775,1.275-1.712,1.275-3.214s-0.707-4.055-3.5-6.396c-2.275-1.906-4.775-2.617-9.274-2.617
					c-4.396,0-7.534,1.309-10.154,3.78C223.339,65.274,223.287,69.716,223.287,75.531z"/>
			</g>
		</g>
	</g>
</g>
<g>
	<path fill="#FFFFFF" d="M30.63,116.189l0.648,2.426c0.032,0.073,0.032,0.209-0.146,0.209h-0.92c-0.073,0-0.167-0.011-0.209-0.146
		l-0.627-2.289c-0.209-0.753-0.596-0.931-1.317-0.931h-1.181l0.01,3.199c0,0.156-0.052,0.167-0.188,0.167h-0.888
		c-0.125,0-0.188-0.011-0.188-0.167v-6.983c0-0.157,0.063-0.167,0.188-0.167h0.899c0.136,0,0.198,0.01,0.167,0.167v2.718h1.119
		c0.408,0,1.003-0.094,1.233-0.993l0.46-1.767c0.031-0.136,0.136-0.146,0.209-0.146h0.857c0.178,0,0.178,0.136,0.146,0.209
		l-0.459,1.871c-0.136,0.586-0.418,1.035-0.868,1.297v0.052C30.306,115.165,30.463,115.563,30.63,116.189z"/>
	<path fill="#FFFFFF" d="M33.275,120.946h-0.826c-0.136,0-0.199-0.021-0.199-0.178v-6.899c0-0.125,0.031-0.178,0.167-0.251
		c0.7-0.303,1.505-0.397,2.206-0.397c1.808,0,2.54,1.255,2.54,2.854c0,1.558-0.805,2.854-2.446,2.854
		c-0.376,0-0.752-0.031-1.244-0.146v1.986C33.474,120.925,33.432,120.946,33.275,120.946z M34.446,114.267
		c-0.282,0-0.721,0.063-0.972,0.146v3.324c0.429,0.114,0.742,0.146,1.024,0.146c0.805,0,1.401-0.46,1.401-1.818
		C35.899,114.736,35.345,114.267,34.446,114.267z"/>
	<path fill="#FFFFFF" d="M39.15,121.029c-0.219,0-0.575-0.01-0.92-0.125c-0.157-0.031-0.178-0.073-0.146-0.198l0.146-0.638
		c0.032-0.137,0.084-0.146,0.209-0.115c0.24,0.052,0.334,0.073,0.512,0.073c0.491,0,0.752-0.157,0.92-0.659l0.219-0.658H39.84
		c-0.25,0-0.397-0.021-0.522-0.429l-1.568-4.798c-0.031-0.095,0.01-0.146,0.115-0.146h0.962c0.157,0,0.188,0.021,0.219,0.136
		l0.711,2.404l0.543,1.893h0.063l0.585-1.913l0.773-2.373c0.031-0.115,0.052-0.146,0.209-0.146h0.951
		c0.104,0,0.136,0.042,0.104,0.136l-2.091,6.251v-0.01C40.572,120.675,40.028,121.029,39.15,121.029z"/>
	<path fill="#FFFFFF" d="M46.029,116.357c-0.429,0-0.826,0.198-0.961,0.669l-0.502,1.672c-0.031,0.115-0.125,0.126-0.178,0.126
		h-0.899c-0.167,0-0.146-0.115-0.135-0.188l0.533-1.809c0.136-0.438,0.272-0.794,0.857-0.961l-0.011-0.021
		c-0.387-0.167-0.585-0.533-0.7-0.962l-0.387-1.369c-0.011-0.073-0.011-0.178,0.125-0.178h0.857c0.073,0,0.136,0.011,0.178,0.136
		l0.376,1.224c0.199,0.616,0.543,0.731,0.951,0.731h0.46v-1.924c0-0.156,0.052-0.167,0.188-0.167h0.836
		c0.125,0,0.188,0.011,0.188,0.167v1.924h0.45c0.387,0,0.752-0.115,0.951-0.731l0.376-1.224c0.042-0.125,0.104-0.136,0.178-0.136
		h0.857c0.136,0,0.136,0.104,0.125,0.178l-0.387,1.369c-0.115,0.429-0.313,0.795-0.7,0.962l-0.011,0.021
		c0.585,0.167,0.721,0.522,0.857,0.961l0.533,1.809c0.01,0.073,0.031,0.188-0.136,0.188h-0.899c-0.052,0-0.146-0.011-0.178-0.126
		l-0.501-1.672c-0.136-0.471-0.533-0.669-0.962-0.669h-0.554v2.3c0,0.156-0.063,0.167-0.188,0.167h-0.836
		c-0.136,0-0.188-0.011-0.188-0.167v-2.3H46.029z"/>
	<path fill="#FFFFFF" d="M52.991,118.824h-0.836c-0.125,0-0.188-0.011-0.188-0.167v-5.154c0-0.156,0.063-0.167,0.188-0.167h0.836
		c0.136,0,0.188,0.011,0.188,0.167v1.913h0.659c0.387,0,0.742-0.104,0.941-0.721l0.387-1.224c0.031-0.125,0.104-0.136,0.178-0.136
		H56.2c0.136,0,0.136,0.104,0.125,0.178l-0.387,1.369c-0.115,0.429-0.324,0.795-0.711,0.962l-0.01,0.021
		c0.575,0.167,0.732,0.522,0.868,0.961l0.533,1.809c0.01,0.073,0.031,0.188-0.136,0.188h-0.898c-0.053,0-0.146-0.011-0.178-0.126
		l-0.501-1.672c-0.157-0.471-0.533-0.659-0.962-0.659h-0.763v2.29C53.179,118.813,53.127,118.824,52.991,118.824z"/>
	<path fill="#FFFFFF" d="M57.779,113.336h0.826c0.157,0,0.199,0.011,0.199,0.167v3.596h0.042l0.648-1.045
		c0.167-0.251,0.324-0.512,1.484-2.373c0.178-0.261,0.261-0.345,0.596-0.345h0.376c0.324,0,0.522,0.136,0.522,0.502v4.819
		c0,0.156-0.052,0.167-0.188,0.167h-0.836c-0.136,0-0.188-0.011-0.188-0.167v-3.533h-0.063l-0.627,1.003l-1.516,2.353
		c-0.178,0.282-0.303,0.345-0.596,0.345h-0.356c-0.345,0-0.512-0.167-0.512-0.502v-4.819
		C57.591,113.347,57.643,113.336,57.779,113.336z"/>
	<path fill="#FFFFFF" d="M67.752,118.824h-0.763c-0.157,0-0.23-0.042-0.23-0.209v-5.081c0-0.156,0.073-0.198,0.23-0.198h0.763
		c0.167,0,0.23,0.031,0.23,0.198v1.861h2.3v-1.861c0-0.156,0.073-0.198,0.23-0.198h0.763c0.178,0,0.219,0.031,0.219,0.198v5.081
		c0,0.178-0.042,0.209-0.219,0.209h-0.763c-0.157,0-0.23-0.042-0.23-0.209v-2.227h-2.3v2.227
		C67.982,118.793,67.919,118.824,67.752,118.824z"/>
	<path fill="#FFFFFF" d="M77.505,115.521c0,0.722-0.366,0.92-0.836,0.92h-2.781c0.031,1.087,0.659,1.453,1.463,1.453
		c0.45,0,0.899-0.125,1.223-0.282c0.115-0.052,0.188-0.031,0.23,0.063l0.282,0.597c0.052,0.114,0.021,0.188-0.073,0.24
		c-0.533,0.324-1.191,0.428-1.767,0.428c-1.683,0-2.603-0.867-2.603-2.832c0-1.84,1.045-2.896,2.499-2.896
		C76.743,113.211,77.505,114.089,77.505,115.521z M73.931,115.563h2.404c0-0.742-0.23-1.338-1.171-1.338
		C74.432,114.225,73.962,114.862,73.931,115.563z"/>
	<path fill="#FFFFFF" d="M82.241,117.601c0.157-0.073,0.199-0.041,0.24,0.073l0.261,0.606c0.073,0.115,0.052,0.199-0.063,0.262
		c-0.575,0.324-1.275,0.396-1.85,0.396c-1.558,0-2.415-0.951-2.415-2.822c0-1.766,0.983-2.905,2.53-2.905
		c0.575,0,1.119,0.114,1.589,0.365c0.125,0.073,0.156,0.126,0.083,0.262l-0.261,0.616c-0.052,0.115-0.094,0.146-0.261,0.073
		c-0.334-0.125-0.69-0.229-1.098-0.229c-0.961,0-1.338,0.867-1.338,1.818c0,0.973,0.282,1.757,1.359,1.757
		C81.468,117.873,81.948,117.737,82.241,117.601z"/>
	<path fill="#FFFFFF" d="M86.151,118.615c0,0.178-0.052,0.209-0.22,0.209h-0.753c-0.167,0-0.229-0.042-0.229-0.209v-4.265h-1.537
		c-0.167,0-0.209-0.074-0.209-0.21v-0.575c0-0.156,0.032-0.229,0.209-0.229h4.328c0.178,0,0.209,0.073,0.209,0.229v0.575
		c0,0.136-0.042,0.21-0.209,0.21h-1.589V118.615z"/>
	<path fill="#FFFFFF" d="M92.477,118.573c-0.617,0.282-1.465,0.365-2.133,0.365c-1.851,0-2.342-0.794-2.342-1.745
		c0-0.972,0.605-1.871,2.279-1.871h1.17v-0.178c0-0.533-0.188-0.92-1.076-0.92c-0.471,0-1.108,0.094-1.453,0.209
		c-0.156,0.042-0.209,0.021-0.24-0.104l-0.146-0.596c-0.031-0.115,0-0.188,0.094-0.22c0.586-0.22,1.328-0.303,1.944-0.303
		c1.453,0,2.101,0.658,2.101,1.881v3.137C92.674,118.396,92.611,118.511,92.477,118.573z M90.438,116.252
		c-0.46,0-1.191,0.063-1.191,0.899c0,0.596,0.439,0.805,1.107,0.805c0.199,0,0.722-0.021,1.088-0.167v-1.537H90.438z"/>
	<path fill="#FFFFFF" d="M95.027,118.824h-0.764c-0.156,0-0.23-0.042-0.23-0.209v-5.081c0-0.156,0.074-0.198,0.23-0.198h0.764
		c0.167,0,0.229,0.031,0.229,0.198v1.861h2.3v-1.861c0-0.156,0.073-0.198,0.23-0.198h0.763c0.178,0,0.22,0.031,0.22,0.198v5.081
		c0,0.178-0.042,0.209-0.22,0.209h-0.763c-0.157,0-0.23-0.042-0.23-0.209v-2.227h-2.3v2.227
		C95.257,118.793,95.194,118.824,95.027,118.824z"/>
	<path fill="#FFFFFF" d="M100.734,116.294l0.355-2.394c0.053-0.387,0.251-0.564,0.722-0.564h2.624c0.512,0,0.596,0.22,0.596,0.586
		v3.94l0.324,0.031c0.281,0.031,0.324,0.188,0.324,0.387l-0.137,2.028c0,0.094-0.041,0.146-0.136,0.146h-0.763
		c-0.084,0-0.125-0.053-0.137-0.146l-0.052-1.484h-3.7c-0.031,0.491-0.063,0.993-0.094,1.484c-0.012,0.094-0.053,0.146-0.146,0.146
		h-0.742c-0.084,0-0.126-0.042-0.126-0.137l-0.126-2.027c0-0.209,0.043-0.376,0.335-0.408l0.304-0.031
		C100.516,117.496,100.631,117.058,100.734,116.294z M102.146,114.371l-0.199,1.578c-0.167,1.255-0.303,1.6-0.502,1.913h2.362
		v-3.491H102.146z"/>
	<path fill="#FFFFFF" d="M110.959,118.573c-0.617,0.282-1.464,0.365-2.133,0.365c-1.851,0-2.342-0.794-2.342-1.745
		c0-0.972,0.606-1.871,2.279-1.871h1.17v-0.178c0-0.533-0.188-0.92-1.076-0.92c-0.471,0-1.108,0.094-1.453,0.209
		c-0.156,0.042-0.209,0.021-0.24-0.104l-0.146-0.596c-0.031-0.115,0-0.188,0.094-0.22c0.586-0.22,1.328-0.303,1.945-0.303
		c1.452,0,2.101,0.658,2.101,1.881v3.137C111.157,118.396,111.094,118.511,110.959,118.573z M108.92,116.252
		c-0.459,0-1.191,0.063-1.191,0.899c0,0.596,0.439,0.805,1.107,0.805c0.199,0,0.722-0.021,1.088-0.167v-1.537H108.92z"/>
	<path fill="#FFFFFF" d="M113.541,120.946h-0.826c-0.136,0-0.198-0.021-0.198-0.178v-6.899c0-0.125,0.031-0.178,0.167-0.251
		c0.701-0.303,1.506-0.397,2.206-0.397c1.808,0,2.54,1.255,2.54,2.854c0,1.558-0.805,2.854-2.446,2.854
		c-0.376,0-0.753-0.031-1.243-0.146v1.986C113.74,120.925,113.697,120.946,113.541,120.946z M114.712,114.267
		c-0.282,0-0.722,0.063-0.972,0.146v3.324c0.428,0.114,0.742,0.146,1.023,0.146c0.805,0,1.4-0.46,1.4-1.818
		C116.164,114.736,115.611,114.267,114.712,114.267z"/>
	<path fill="#FFFFFF" d="M120.953,118.615c0,0.178-0.053,0.209-0.221,0.209h-0.752c-0.168,0-0.23-0.042-0.23-0.209v-4.265h-1.536
		c-0.167,0-0.21-0.074-0.21-0.21v-0.575c0-0.156,0.032-0.229,0.21-0.229h4.327c0.178,0,0.209,0.073,0.209,0.229v0.575
		c0,0.136-0.041,0.21-0.209,0.21h-1.588V118.615z"/>
	<path fill="#FFFFFF" d="M124.528,118.824h-0.763c-0.157,0-0.23-0.042-0.23-0.209v-5.081c0-0.156,0.073-0.198,0.23-0.198h0.763
		c0.167,0,0.229,0.031,0.229,0.198v1.861h2.3v-1.861c0-0.156,0.073-0.198,0.229-0.198h0.764c0.178,0,0.22,0.031,0.22,0.198v5.081
		c0,0.178-0.042,0.209-0.22,0.209h-0.764c-0.156,0-0.229-0.042-0.229-0.209v-2.227h-2.3v2.227
		C124.758,118.793,124.695,118.824,124.528,118.824z"/>
	<path fill="#FFFFFF" d="M131.93,118.938c-1.684,0-2.51-0.982-2.51-2.854c0-1.829,1.046-2.874,2.541-2.874
		c1.662,0,2.529,1.076,2.529,2.843C134.49,117.904,133.633,118.938,131.93,118.938z M131.981,114.235
		c-0.899,0-1.327,0.784-1.327,1.818c0,1.16,0.324,1.861,1.285,1.861c0.973,0,1.307-0.868,1.307-1.83
		C133.246,115.082,132.985,114.235,131.981,114.235z"/>
	<path fill="#FFFFFF" d="M135.829,113.336h0.825c0.157,0,0.199,0.011,0.199,0.167v3.596h0.041l0.648-1.045
		c0.168-0.251,0.324-0.512,1.484-2.373c0.178-0.261,0.262-0.345,0.596-0.345H140c0.324,0,0.522,0.136,0.522,0.502v4.819
		c0,0.156-0.053,0.167-0.188,0.167h-0.836c-0.136,0-0.188-0.011-0.188-0.167v-3.533h-0.063l-0.627,1.003l-1.517,2.353
		c-0.177,0.282-0.303,0.345-0.596,0.345h-0.355c-0.344,0-0.512-0.167-0.512-0.502v-4.819
		C135.641,113.347,135.693,113.336,135.829,113.336z M136.227,111.632c-0.031-0.042-0.084-0.104,0.031-0.219l0.293-0.272
		c0.125-0.115,0.135-0.052,0.25,0.031c0.429,0.449,0.879,0.711,1.286,0.711c0.345,0,0.616-0.146,1.296-0.742
		c0.126-0.115,0.157-0.073,0.23-0.021l0.292,0.251c0.136,0.114,0.084,0.178,0.042,0.229c-0.637,0.826-1.285,1.191-1.912,1.191
		C137.281,112.792,136.645,112.249,136.227,111.632z"/>
	<path fill="#FFFFFF" d="M149.293,116.398l-0.679,1.433c-0.126,0.262-0.23,0.345-0.522,0.345h-0.355
		c-0.293,0-0.397-0.083-0.523-0.345l-0.647-1.359l-0.522-1.129h-0.053v3.304c0,0.156-0.042,0.178-0.198,0.178h-0.774
		c-0.135,0-0.208-0.021-0.208-0.178v-4.809c0-0.282,0.156-0.502,0.532-0.502h0.481c0.282,0,0.418,0.042,0.575,0.366l0.909,1.902
		l0.585,1.296h0.042l0.659-1.422l0.846-1.756c0.157-0.303,0.282-0.387,0.606-0.387h0.45c0.376,0,0.532,0.209,0.532,0.491v4.819
		c0,0.156-0.052,0.178-0.209,0.178h-0.763c-0.157,0-0.209-0.021-0.209-0.178v-3.387h-0.053L149.293,116.398z"/>
	<path fill="#FFFFFF" d="M156.653,118.573c-0.617,0.282-1.464,0.365-2.133,0.365c-1.851,0-2.342-0.794-2.342-1.745
		c0-0.972,0.606-1.871,2.279-1.871h1.171v-0.178c0-0.533-0.188-0.92-1.077-0.92c-0.47,0-1.108,0.094-1.453,0.209
		c-0.156,0.042-0.209,0.021-0.24-0.104l-0.146-0.596c-0.031-0.115,0-0.188,0.094-0.22c0.586-0.22,1.328-0.303,1.944-0.303
		c1.454,0,2.102,0.658,2.102,1.881v3.137C156.852,118.396,156.789,118.511,156.653,118.573z M154.614,116.252
		c-0.459,0-1.191,0.063-1.191,0.899c0,0.596,0.439,0.805,1.108,0.805c0.198,0,0.721-0.021,1.087-0.167v-1.537H154.614z"/>
	<path fill="#FFFFFF" d="M160.584,118.615c0,0.178-0.053,0.209-0.22,0.209h-0.752c-0.168,0-0.23-0.042-0.23-0.209v-4.265h-1.536
		c-0.168,0-0.21-0.074-0.21-0.21v-0.575c0-0.156,0.032-0.229,0.21-0.229h4.327c0.178,0,0.209,0.073,0.209,0.229v0.575
		c0,0.136-0.042,0.21-0.209,0.21h-1.589V118.615z"/>
	<path fill="#FFFFFF" d="M167.504,115.521c0,0.722-0.365,0.92-0.836,0.92h-2.78c0.031,1.087,0.658,1.453,1.464,1.453
		c0.448,0,0.898-0.125,1.223-0.282c0.115-0.052,0.188-0.031,0.229,0.063l0.282,0.597c0.053,0.114,0.021,0.188-0.073,0.24
		c-0.533,0.324-1.191,0.428-1.767,0.428c-1.683,0-2.603-0.867-2.603-2.832c0-1.84,1.045-2.896,2.498-2.896
		C166.741,113.211,167.504,114.089,167.504,115.521z M163.929,115.563h2.405c0-0.742-0.23-1.338-1.171-1.338
		C164.431,114.225,163.961,114.862,163.929,115.563z"/>
	<path fill="#FFFFFF" d="M173.107,116.398l-0.68,1.433c-0.125,0.262-0.229,0.345-0.522,0.345h-0.355
		c-0.293,0-0.397-0.083-0.522-0.345l-0.648-1.359l-0.522-1.129h-0.053v3.304c0,0.156-0.041,0.178-0.198,0.178h-0.773
		c-0.136,0-0.209-0.021-0.209-0.178v-4.809c0-0.282,0.157-0.502,0.533-0.502h0.48c0.282,0,0.418,0.042,0.575,0.366l0.909,1.902
		l0.586,1.296h0.041l0.659-1.422l0.847-1.756c0.156-0.303,0.282-0.387,0.606-0.387h0.449c0.376,0,0.533,0.209,0.533,0.491v4.819
		c0,0.156-0.052,0.178-0.209,0.178h-0.763c-0.157,0-0.21-0.021-0.21-0.178v-3.387h-0.052L173.107,116.398z"/>
	<path fill="#FFFFFF" d="M180.467,118.573c-0.616,0.282-1.463,0.365-2.132,0.365c-1.851,0-2.342-0.794-2.342-1.745
		c0-0.972,0.606-1.871,2.279-1.871h1.171v-0.178c0-0.533-0.188-0.92-1.077-0.92c-0.471,0-1.108,0.094-1.453,0.209
		c-0.156,0.042-0.209,0.021-0.24-0.104l-0.146-0.596c-0.031-0.115,0-0.188,0.094-0.22c0.586-0.22,1.328-0.303,1.944-0.303
		c1.453,0,2.102,0.658,2.102,1.881v3.137C180.666,118.396,180.603,118.511,180.467,118.573z M178.429,116.252
		c-0.46,0-1.191,0.063-1.191,0.899c0,0.596,0.439,0.805,1.108,0.805c0.198,0,0.721-0.021,1.087-0.167v-1.537H178.429z"/>
	<path fill="#FFFFFF" d="M184.398,118.615c0,0.178-0.053,0.209-0.22,0.209h-0.753c-0.167,0-0.229-0.042-0.229-0.209v-4.265h-1.537
		c-0.167,0-0.209-0.074-0.209-0.21v-0.575c0-0.156,0.031-0.229,0.209-0.229h4.328c0.178,0,0.209,0.073,0.209,0.229v0.575
		c0,0.136-0.042,0.21-0.209,0.21h-1.589V118.615z"/>
	<path fill="#FFFFFF" d="M187.169,113.336h0.825c0.157,0,0.199,0.011,0.199,0.167v3.596h0.041l0.648-1.045
		c0.168-0.251,0.324-0.512,1.484-2.373c0.178-0.261,0.262-0.345,0.596-0.345h0.377c0.323,0,0.522,0.136,0.522,0.502v4.819
		c0,0.156-0.053,0.167-0.188,0.167h-0.836c-0.136,0-0.188-0.011-0.188-0.167v-3.533h-0.063l-0.627,1.003l-1.516,2.353
		c-0.178,0.282-0.304,0.345-0.597,0.345h-0.354c-0.346,0-0.513-0.167-0.513-0.502v-4.819
		C186.98,113.347,187.033,113.336,187.169,113.336z"/>
	<path fill="#FFFFFF" d="M194.235,118.824h-0.836c-0.126,0-0.188-0.011-0.188-0.167v-5.154c0-0.156,0.063-0.167,0.188-0.167h0.836
		c0.136,0,0.188,0.011,0.188,0.167v1.913h0.658c0.387,0,0.742-0.104,0.941-0.721l0.387-1.224c0.031-0.125,0.104-0.136,0.178-0.136
		h0.856c0.136,0,0.136,0.104,0.126,0.178l-0.387,1.369c-0.115,0.429-0.324,0.795-0.711,0.962l-0.011,0.021
		c0.575,0.167,0.731,0.522,0.867,0.961l0.534,1.809c0.01,0.073,0.031,0.188-0.137,0.188h-0.898c-0.053,0-0.146-0.011-0.178-0.126
		l-0.502-1.672c-0.157-0.471-0.533-0.659-0.962-0.659h-0.763v2.29C194.424,118.813,194.371,118.824,194.235,118.824z"/>
	<path fill="#FFFFFF" d="M199.023,113.336h0.825c0.157,0,0.199,0.011,0.199,0.167v3.596h0.042l0.648-1.045
		c0.166-0.251,0.323-0.512,1.483-2.373c0.178-0.261,0.262-0.345,0.596-0.345h0.377c0.324,0,0.522,0.136,0.522,0.502v4.819
		c0,0.156-0.053,0.167-0.188,0.167h-0.836c-0.136,0-0.188-0.011-0.188-0.167v-3.533h-0.063l-0.627,1.003l-1.516,2.353
		c-0.178,0.282-0.304,0.345-0.596,0.345h-0.356c-0.345,0-0.512-0.167-0.512-0.502v-4.819
		C198.835,113.347,198.888,113.336,199.023,113.336z"/>
	<path fill="#FFFFFF" d="M210.303,118.938c-1.683,0-2.509-0.982-2.509-2.854c0-1.829,1.046-2.874,2.54-2.874
		c1.662,0,2.53,1.076,2.53,2.843C212.864,117.904,212.007,118.938,210.303,118.938z M210.355,114.235
		c-0.899,0-1.328,0.784-1.328,1.818c0,1.16,0.324,1.861,1.286,1.861c0.973,0,1.307-0.868,1.307-1.83
		C211.62,115.082,211.359,114.235,210.355,114.235z"/>
	<path fill="#FFFFFF" d="M216.388,118.615c0,0.178-0.053,0.209-0.22,0.209h-0.753c-0.167,0-0.229-0.042-0.229-0.209v-4.265h-1.537
		c-0.167,0-0.209-0.074-0.209-0.21v-0.575c0-0.156,0.031-0.229,0.209-0.229h4.328c0.178,0,0.209,0.073,0.209,0.229v0.575
		c0,0.136-0.042,0.21-0.209,0.21h-1.589V118.615z"/>
	<path fill="#FFFFFF" d="M224.301,118.96c-0.889,0-1.808-0.146-2.509-0.731c-0.073-0.073-0.094-0.146-0.042-0.22l0.419-0.638
		c0.073-0.104,0.178-0.115,0.313-0.021c0.512,0.346,1.118,0.502,1.746,0.502c1.014,0,1.62-0.512,1.62-1.316
		c0-0.795-0.628-1.15-1.328-1.15c-0.711,0-1.024,0.178-1.558,0.397c-0.178,0.073-0.345,0.073-0.522,0.011l-0.24-0.084
		c-0.24-0.084-0.345-0.22-0.313-0.544l0.261-2.655c0.053-0.491,0.346-0.71,0.711-0.71h3.544c0.167,0,0.198,0.041,0.198,0.209v0.647
		c0,0.157-0.041,0.209-0.198,0.209h-3.115l-0.188,1.726c0.502-0.21,1.057-0.251,1.548-0.251c1.38,0,2.436,0.836,2.436,2.143
		C227.082,118.04,225.942,118.96,224.301,118.96z"/>
	<path fill="#FFFFFF" d="M231.881,116.294l0.355-2.394c0.052-0.387,0.25-0.564,0.721-0.564h2.624c0.512,0,0.596,0.22,0.596,0.586
		v3.94l0.324,0.031c0.282,0.031,0.324,0.188,0.324,0.387l-0.137,2.028c0,0.094-0.042,0.146-0.136,0.146h-0.763
		c-0.084,0-0.125-0.053-0.136-0.146l-0.053-1.484h-3.7c-0.031,0.491-0.063,0.993-0.094,1.484c-0.011,0.094-0.053,0.146-0.146,0.146
		h-0.742c-0.084,0-0.126-0.042-0.126-0.137l-0.125-2.027c0-0.209,0.041-0.376,0.334-0.408l0.304-0.031
		C231.661,117.496,231.776,117.058,231.881,116.294z M233.292,114.371l-0.199,1.578c-0.167,1.255-0.303,1.6-0.502,1.913h2.362
		v-3.491H233.292z"/>
	<path fill="#FFFFFF" d="M240.139,118.938c-1.683,0-2.509-0.982-2.509-2.854c0-1.829,1.046-2.874,2.54-2.874
		c1.662,0,2.53,1.076,2.53,2.843C242.7,117.904,241.843,118.938,240.139,118.938z M240.191,114.235
		c-0.899,0-1.328,0.784-1.328,1.818c0,1.16,0.324,1.861,1.286,1.861c0.973,0,1.307-0.868,1.307-1.83
		C241.456,115.082,241.195,114.235,240.191,114.235z"/>
	<path fill="#FFFFFF" d="M249.172,111.653c1.892,0,2.916,1.243,2.916,3.293c0,2.236-0.993,3.992-3.449,3.992
		c-0.387,0-0.931-0.041-1.297-0.198c-0.115-0.042-0.167-0.073-0.115-0.24l0.209-0.669c0.021-0.115,0.095-0.157,0.23-0.115
		c0.198,0.073,0.638,0.157,0.962,0.157c1.223,0,1.934-0.753,2.132-1.893c-0.449,0.157-1.098,0.251-1.631,0.251
		c-1.39,0-2.654-0.648-2.654-2.185C246.475,112.396,247.781,111.653,249.172,111.653z M249.066,115.187
		c0.628,0,1.14-0.073,1.767-0.251c0.032-0.178,0.021-0.251,0.021-0.335c0-1.118-0.784-1.902-1.693-1.902
		c-0.753,0-1.443,0.46-1.443,1.275C247.718,114.685,248.23,115.187,249.066,115.187z"/>
	<path fill="#FFFFFF" d="M255.621,111.653c1.893,0,2.917,1.243,2.917,3.293c0,2.236-0.993,3.992-3.45,3.992
		c-0.387,0-0.93-0.041-1.296-0.198c-0.115-0.042-0.167-0.073-0.115-0.24l0.209-0.669c0.021-0.115,0.095-0.157,0.23-0.115
		c0.198,0.073,0.638,0.157,0.961,0.157c1.224,0,1.935-0.753,2.133-1.893c-0.449,0.157-1.098,0.251-1.631,0.251
		c-1.39,0-2.655-0.648-2.655-2.185C252.924,112.396,254.231,111.653,255.621,111.653z M255.517,115.187
		c0.628,0,1.14-0.073,1.767-0.251c0.031-0.178,0.021-0.251,0.021-0.335c0-1.118-0.784-1.902-1.693-1.902
		c-0.753,0-1.443,0.46-1.443,1.275C254.168,114.685,254.681,115.187,255.517,115.187z"/>
</g>
<g>
	<g>
		<path fill="#53BBBC" d="M152.677,43.784c-0.756,0-1.462,0.018-2.124,0.047c0.191,0.564,0.601,1.026,1.128,1.289
			c0.301,0.149,0.638,0.235,0.996,0.235c0.357,0,0.695-0.086,0.995-0.235c0.527-0.263,0.938-0.725,1.128-1.289
			C154.138,43.802,153.432,43.784,152.677,43.784z"/>
	</g>
	<g>
		<path fill="#53BBBC" d="M163.547,43.61L163.547,43.61c-4.647-6.071-1.147-15.401-8.854-16.721
			c-0.035-1.083-0.925-1.953-2.016-1.953c-1.092,0-1.981,0.87-2.017,1.953c-7.707,1.319-4.206,10.649-8.854,16.721l0,0
			c-0.223,0.251-0.349,0.532-0.349,0.848c0,2.835,10.071,2.916,11.22,2.916s11.219-0.081,11.219-2.916
			C163.896,44.143,163.771,43.861,163.547,43.61z M152.677,25.834c0.557,0,1.017,0.409,1.104,0.942
			c-0.349-0.028-0.715-0.045-1.104-0.045c-0.39,0-0.755,0.017-1.104,0.045C151.659,26.243,152.119,25.834,152.677,25.834z
			 M152.677,46.028c-5.813,0-9.335-0.977-9.843-1.57c0.508-0.595,4.03-1.571,9.843-1.571c5.812,0,9.335,0.977,9.842,1.571
			C162.012,45.052,158.488,46.028,152.677,46.028z"/>
	</g>
</g>
<g>
	<path fill="#DEB830" d="M24.839,93.749l0.853,0.886c0,0,2.511-1.461,3.283-5.429c0.188-0.964,0.482-2.032,2.301-3.162
		c0,0,2.352,5.284,11.407,4.374c0,0-2.002-0.917-2.033-2.518c0,0,3.618,1.341,6.124,0.241c0,0-1.083-0.838-1.043-1.558
		c0,0,3.968-0.255,4.785-1.584l-1.476-0.604c0,0,2.886-1.439,3.769-3.448c0,0-2.78,0.385-5.578-1.59c0,0,3.43-2.268,4.271-5.638
		c0,0-1.226,0.416-2.062-0.096c0,0,2.618-2.014,2.841-4.015l-1.839,0.884c0,0,2.003-6.087,3.495-6.797c0,0-5.311,2.832-5.623,3.533
		l-0.03-1.601c0,0-2.868,3.454-3.401,3.348c0,0-0.798-2.272-0.446-3c0,0-2.81,5.961-6.352,5.642c0,0-2.503-4.69-2.252-5.959
		c0,0-1.399,4.438-3.344,5.856s-2.586,4.654-1.615,6.232c0,0-1.318-1.751-2.272-2.01c0,0-1.618,7.181,2.26,9.657
		c0,0-2.106,1.121-2.893,4.397C27.181,93.068,24.911,93.383,24.839,93.749z"/>
</g>
<g>
	<rect y="-169.611" width="273.139" height="133.795"/>
</g>
<g>
	<g>
		<g>
			<path fill="#FFFFFF" d="M21.455-121.825c0,1.938,0.035,2.616,0.569,3.634c0.655,1.212,2.172,2.083,3.982,2.083
				s3.327-0.871,3.982-2.083c0.534-1.018,0.569-1.696,0.569-3.634v-11l4.207,6.833c0.982,1.6,1.948,2.375,3.913,2.375
				s2.931-0.775,3.914-2.375l4.207-6.833v11c0,1.938,0.034,2.616,0.569,3.634c0.655,1.212,2.172,2.083,3.982,2.083
				s3.327-0.871,3.982-2.083c0.534-1.018,0.569-1.696,0.569-3.634v-23.987c0-1.793-0.207-3.037-1.328-4.071
				c-0.828-0.775-1.81-1.146-3.034-1.146c-1.086,0-1.862,0.177-2.672,0.678c-0.896,0.565-1.568,1.405-2.224,2.423L38.677-135.2
				l-7.964-12.729c-0.655-1.018-1.328-1.857-2.224-2.423c-0.81-0.501-1.586-0.678-2.655-0.678c-1.241,0-2.224,0.371-3.052,1.146
				c-1.12,1.034-1.327,2.278-1.327,4.071C21.455-121.825,21.455-121.825,21.455-121.825z"/>
		</g>
	</g>
</g>
<g>
	<g>
		<g>
			<path fill="#FFFFFF" d="M66.584-122.795c-0.845,2.132-1.414,3.796,0.31,5.427c0.81,0.744,2.017,1.26,3.258,1.26
				c1.017,0,1.914-0.322,2.569-0.871c0.776-0.662,1.103-1.309,1.775-3.053l0.552-1.406h12.93l0.534,1.406
				c0.673,1.744,1.017,2.391,1.793,3.053c0.638,0.549,1.552,0.871,2.552,0.871c1.24,0,2.465-0.516,3.258-1.26
				c1.741-1.631,1.172-3.295,0.311-5.427L86.6-147.234c-0.639-1.583-1.139-2.262-1.88-2.811c-0.914-0.678-1.862-0.953-3.207-0.953
				s-2.31,0.274-3.207,0.953c-0.758,0.549-1.241,1.228-1.896,2.811C66.584-122.795,66.584-122.795,66.584-122.795z M85.236-128.513
				H77.79l3.724-9.595C85.236-128.513,85.236-128.513,85.236-128.513z"/>
		</g>
	</g>
</g>
<g>
	<g>
		<g>
			<path fill="#FFFFFF" d="M114.218-121.825c0,1.938,0.034,2.616,0.569,3.634c0.654,1.212,2.172,2.083,3.982,2.083
				c1.81,0,3.326-0.871,3.982-2.083c0.533-1.018,0.568-1.696,0.568-3.634v-21.419h5.563c1.861,0,2.568-0.049,3.465-0.469
				c1.139-0.5,1.966-1.809,1.966-3.311c0-1.502-0.827-2.811-1.966-3.312c-0.896-0.42-1.604-0.468-3.465-0.468H108.15
				c-1.861,0-2.568,0.048-3.465,0.468c-1.138,0.501-1.965,1.809-1.965,3.312c0,1.502,0.827,2.811,1.965,3.311
				c0.896,0.42,1.604,0.469,3.465,0.469h6.067C114.218-121.825,114.218-121.825,114.218-121.825z"/>
		</g>
	</g>
</g>
<g>
	<g>
		<g>
			<g>
				<path fill="#FFFFFF" d="M69.163-80.694c0,1.938,0.034,2.617,0.569,3.635c0.655,1.211,2.172,2.083,3.982,2.083
					c1.81,0,3.327-0.872,3.982-2.083c0.534-1.018,0.569-1.696,0.569-3.635v-8.173h0.793l10.084,11.29
					c1.535,1.729,2.466,2.601,4.225,2.601c1.034,0,1.931-0.371,2.74-1.001c0.982-0.775,1.569-1.744,1.569-2.875
					c0-1.309-0.483-2.116-2.017-3.813l-9.361-10.482l8.568-9.029c1.568-1.68,2.017-2.504,2.017-3.813c0-1.131-0.604-2.1-1.586-2.875
					c-0.793-0.63-1.707-1.002-2.741-1.002c-1.758,0-2.689,0.873-4.207,2.602l-9.292,10.401h-0.793v-7.284
					c0-1.939-0.035-2.617-0.569-3.635c-0.655-1.211-2.172-2.084-3.982-2.084c-1.811,0-3.328,0.873-3.982,2.084
					c-0.535,1.018-0.569,1.695-0.569,3.635C69.163-80.694,69.163-80.694,69.163-80.694z"/>
			</g>
		</g>
	</g>
	<g>
		<g>
			<g>
				<path fill="#FFFFFF" d="M128.708-80.694c0,1.938,0.034,2.617,0.569,3.635c0.654,1.211,2.172,2.083,3.982,2.083
					c1.81,0,3.326-0.872,3.982-2.083c0.533-1.018,0.568-1.696,0.568-3.635v-23.776c0-1.261,0-2.827-1.275-4.006
					c-1.259-1.195-2.932-1.195-4.275-1.195h-13.154c-1.328,0-3.017,0-4.275,1.195c-1.275,1.179-1.275,2.745-1.275,4.006v10.741
					c0,5.186-0.121,10.758-4.775,10.968c-1.293,0.049-2.172,0.274-2.982,1.018c-0.689,0.662-1.139,1.68-1.139,2.763
					c0,1.502,0.828,2.843,1.966,3.343c0.913,0.42,1.604,0.469,3.827,0.469c8.017,0,11.844-3.489,11.844-17.93v-9.013h6.413
					C128.708-80.694,128.708-80.694,128.708-80.694z"/>
			</g>
		</g>
	</g>
	<g>
		<g>
			<g>
				<path fill="#FFFFFF" d="M149.537-81.663c-0.845,2.132-1.413,3.796,0.311,5.427c0.811,0.743,2.018,1.26,3.259,1.26
					c1.017,0,1.913-0.322,2.568-0.872c0.775-0.662,1.104-1.308,1.775-3.053l0.552-1.405h12.93l0.534,1.405
					c0.673,1.745,1.018,2.391,1.793,3.053c0.638,0.55,1.552,0.872,2.552,0.872c1.241,0,2.465-0.517,3.258-1.26
					c1.741-1.631,1.173-3.295,0.311-5.427l-9.826-24.439c-0.638-1.583-1.138-2.262-1.879-2.811
					c-0.914-0.678-1.862-0.953-3.207-0.953s-2.31,0.275-3.206,0.953c-0.759,0.549-1.241,1.228-1.896,2.811
					C149.537-81.663,149.537-81.663,149.537-81.663z M168.19-87.381h-7.447l3.724-9.596C168.19-87.381,168.19-87.381,168.19-87.381z
					"/>
			</g>
		</g>
	</g>
	<g>
		<g>
			<g>
				<path fill="#FFFFFF" d="M188.466-93.502c0,5.815,0.052,10.241,3.81,13.763c2.621,2.471,5.759,3.779,10.154,3.779
					c4.5,0,7-0.711,9.275-2.616c2.793-2.358,3.499-4.895,3.499-6.396c0-1.503-0.448-2.439-1.275-3.215s-1.931-1.195-3.12-1.195
					c-1.018,0-1.811,0.242-2.431,0.662c-0.983,0.63-1.638,1.551-2.414,2.827c-1.034,1.729-2.12,2.374-3.741,2.374
					c-1.551,0-2.586-0.679-3.258-1.502c-1.069-1.309-1.396-2.811-1.396-8.48c0-5.669,0.327-7.171,1.396-8.479
					c0.672-0.824,1.707-1.502,3.258-1.502c1.621,0,2.707,0.646,3.741,2.373c0.776,1.276,1.431,2.197,2.414,2.827
					c0.62,0.42,1.413,0.662,2.431,0.662c1.189,0,2.293-0.42,3.12-1.195c0.827-0.774,1.275-1.712,1.275-3.214
					s-0.706-4.055-3.499-6.396c-2.275-1.906-4.775-2.617-9.275-2.617c-4.396,0-7.533,1.309-10.154,3.78
					C188.518-103.759,188.466-99.316,188.466-93.502z"/>
			</g>
		</g>
	</g>
	<g>
		<g>
			<g>
				<path fill="#FFFFFF" d="M223.287-94.08c0,5.815,0.052,10.241,3.81,13.763c2.62,2.471,5.758,3.779,10.154,3.779
					c4.499,0,6.999-0.711,9.274-2.616c2.793-2.358,3.5-4.895,3.5-6.396c0-1.503-0.448-2.439-1.275-3.215
					c-0.828-0.775-1.932-1.195-3.121-1.195c-1.017,0-1.81,0.242-2.431,0.662c-0.982,0.63-1.638,1.551-2.413,2.827
					c-1.034,1.729-2.121,2.374-3.741,2.374c-1.552,0-2.586-0.678-3.259-1.502c-1.068-1.309-1.396-2.811-1.396-8.48
					c0-5.669,0.328-7.171,1.396-8.479c0.673-0.824,1.707-1.502,3.259-1.502c1.62,0,2.707,0.646,3.741,2.374
					c0.775,1.275,1.431,2.196,2.413,2.826c0.621,0.42,1.414,0.663,2.431,0.663c1.189,0,2.293-0.421,3.121-1.195
					c0.827-0.775,1.275-1.713,1.275-3.215s-0.707-4.055-3.5-6.396c-2.275-1.906-4.775-2.617-9.274-2.617
					c-4.396,0-7.534,1.309-10.154,3.78C223.339-104.337,223.287-99.895,223.287-94.08z"/>
			</g>
		</g>
	</g>
</g>
<g>
	<path fill="#FFFFFF" d="M30.63-53.421l0.648,2.425c0.032,0.073,0.032,0.209-0.146,0.209h-0.92c-0.073,0-0.167-0.011-0.209-0.146
		l-0.627-2.289c-0.209-0.753-0.596-0.931-1.317-0.931h-1.181l0.01,3.199c0,0.156-0.052,0.167-0.188,0.167h-0.888
		c-0.125,0-0.188-0.011-0.188-0.167v-6.983c0-0.156,0.063-0.167,0.188-0.167h0.899c0.136,0,0.198,0.011,0.167,0.167v2.718h1.119
		c0.408,0,1.003-0.094,1.233-0.993l0.46-1.767c0.031-0.136,0.136-0.146,0.209-0.146h0.857c0.178,0,0.178,0.136,0.146,0.209
		l-0.459,1.871c-0.136,0.585-0.418,1.034-0.868,1.296v0.053C30.306-54.446,30.463-54.049,30.63-53.421z"/>
	<path fill="#FFFFFF" d="M33.275-48.665h-0.826c-0.136,0-0.199-0.021-0.199-0.178v-6.899c0-0.125,0.031-0.178,0.167-0.251
		c0.7-0.303,1.505-0.397,2.206-0.397c1.808,0,2.54,1.255,2.54,2.854c0,1.558-0.805,2.854-2.446,2.854
		c-0.376,0-0.752-0.031-1.244-0.146v1.986C33.474-48.687,33.432-48.665,33.275-48.665z M34.446-55.345
		c-0.282,0-0.721,0.063-0.972,0.146v3.324c0.429,0.114,0.742,0.146,1.024,0.146c0.805,0,1.401-0.46,1.401-1.819
		C35.899-54.874,35.345-55.345,34.446-55.345z"/>
	<path fill="#FFFFFF" d="M39.15-48.581c-0.219,0-0.575-0.011-0.92-0.126c-0.157-0.031-0.178-0.073-0.146-0.198l0.146-0.638
		c0.032-0.136,0.084-0.146,0.209-0.115c0.24,0.053,0.334,0.073,0.512,0.073c0.491,0,0.752-0.156,0.92-0.658l0.219-0.659H39.84
		c-0.25,0-0.397-0.021-0.522-0.429l-1.568-4.798c-0.031-0.094,0.01-0.146,0.115-0.146h0.962c0.157,0,0.188,0.021,0.219,0.136
		l0.711,2.404l0.543,1.893h0.063l0.585-1.913l0.773-2.373c0.031-0.115,0.052-0.146,0.209-0.146h0.951
		c0.104,0,0.136,0.042,0.104,0.136l-2.091,6.251v-0.01C40.572-48.937,40.028-48.581,39.15-48.581z"/>
	<path fill="#FFFFFF" d="M46.029-53.254c-0.429,0-0.826,0.198-0.961,0.669l-0.502,1.672c-0.031,0.115-0.125,0.126-0.178,0.126
		h-0.899c-0.167,0-0.146-0.115-0.135-0.188l0.533-1.809c0.136-0.438,0.272-0.794,0.857-0.961l-0.011-0.021
		c-0.387-0.167-0.585-0.533-0.7-0.961l-0.387-1.37c-0.011-0.073-0.011-0.178,0.125-0.178h0.857c0.073,0,0.136,0.011,0.178,0.136
		l0.376,1.224c0.199,0.616,0.543,0.731,0.951,0.731h0.46v-1.924c0-0.156,0.052-0.167,0.188-0.167h0.836
		c0.125,0,0.188,0.011,0.188,0.167v1.924h0.45c0.387,0,0.752-0.115,0.951-0.731l0.376-1.224c0.042-0.125,0.104-0.136,0.178-0.136
		h0.857c0.136,0,0.136,0.104,0.125,0.178l-0.387,1.37c-0.115,0.428-0.313,0.794-0.7,0.961l-0.011,0.021
		c0.585,0.167,0.721,0.522,0.857,0.961l0.533,1.809c0.01,0.073,0.031,0.188-0.136,0.188h-0.899c-0.052,0-0.146-0.011-0.178-0.126
		l-0.501-1.672c-0.136-0.471-0.533-0.669-0.962-0.669h-0.554v2.3c0,0.156-0.063,0.167-0.188,0.167h-0.836
		c-0.136,0-0.188-0.011-0.188-0.167v-2.3H46.029z"/>
	<path fill="#FFFFFF" d="M52.991-50.787h-0.836c-0.125,0-0.188-0.011-0.188-0.167v-5.154c0-0.156,0.063-0.167,0.188-0.167h0.836
		c0.136,0,0.188,0.011,0.188,0.167v1.913h0.659c0.387,0,0.742-0.104,0.941-0.721l0.387-1.224c0.031-0.125,0.104-0.136,0.178-0.136
		H56.2c0.136,0,0.136,0.104,0.125,0.178l-0.387,1.37c-0.115,0.428-0.324,0.794-0.711,0.961l-0.01,0.021
		c0.575,0.167,0.732,0.522,0.868,0.961l0.533,1.809c0.01,0.073,0.031,0.188-0.136,0.188h-0.898c-0.053,0-0.146-0.011-0.178-0.126
		l-0.501-1.672c-0.157-0.471-0.533-0.659-0.962-0.659h-0.763v2.29C53.179-50.798,53.127-50.787,52.991-50.787z"/>
	<path fill="#FFFFFF" d="M57.779-56.275h0.826c0.157,0,0.199,0.011,0.199,0.167v3.597h0.042l0.648-1.046
		c0.167-0.25,0.324-0.512,1.484-2.372c0.178-0.262,0.261-0.346,0.596-0.346h0.376c0.324,0,0.522,0.136,0.522,0.502v4.819
		c0,0.156-0.052,0.167-0.188,0.167h-0.836c-0.136,0-0.188-0.011-0.188-0.167v-3.533h-0.063l-0.627,1.003l-1.516,2.353
		c-0.178,0.282-0.303,0.345-0.596,0.345h-0.356c-0.345,0-0.512-0.167-0.512-0.502v-4.819C57.591-56.265,57.643-56.275,57.779-56.275
		z"/>
	<path fill="#FFFFFF" d="M67.752-50.787h-0.763c-0.157,0-0.23-0.042-0.23-0.209v-5.08c0-0.157,0.073-0.199,0.23-0.199h0.763
		c0.167,0,0.23,0.031,0.23,0.199v1.86h2.3v-1.86c0-0.157,0.073-0.199,0.23-0.199h0.763c0.178,0,0.219,0.031,0.219,0.199v5.08
		c0,0.178-0.042,0.209-0.219,0.209h-0.763c-0.157,0-0.23-0.042-0.23-0.209v-2.227h-2.3v2.227
		C67.982-50.818,67.919-50.787,67.752-50.787z"/>
	<path fill="#FFFFFF" d="M77.505-54.091c0,0.722-0.366,0.92-0.836,0.92h-2.781c0.031,1.088,0.659,1.453,1.463,1.453
		c0.45,0,0.899-0.125,1.223-0.282c0.115-0.052,0.188-0.031,0.23,0.063l0.282,0.596c0.052,0.114,0.021,0.188-0.073,0.24
		c-0.533,0.324-1.191,0.429-1.767,0.429c-1.683,0-2.603-0.868-2.603-2.833c0-1.84,1.045-2.896,2.499-2.896
		C76.743-56.4,77.505-55.522,77.505-54.091z M73.931-54.049h2.404c0-0.742-0.23-1.338-1.171-1.338
		C74.432-55.387,73.962-54.749,73.931-54.049z"/>
	<path fill="#FFFFFF" d="M82.241-52.01c0.157-0.073,0.199-0.042,0.24,0.073l0.261,0.605c0.073,0.115,0.052,0.199-0.063,0.262
		c-0.575,0.324-1.275,0.397-1.85,0.397c-1.558,0-2.415-0.951-2.415-2.822c0-1.767,0.983-2.906,2.53-2.906
		c0.575,0,1.119,0.114,1.589,0.365c0.125,0.073,0.156,0.126,0.083,0.262l-0.261,0.617c-0.052,0.114-0.094,0.146-0.261,0.073
		c-0.334-0.126-0.69-0.23-1.098-0.23c-0.961,0-1.338,0.867-1.338,1.819c0,0.972,0.282,1.756,1.359,1.756
		C81.468-51.738,81.948-51.874,82.241-52.01z"/>
	<path fill="#FFFFFF" d="M86.151-50.996c0,0.178-0.052,0.209-0.22,0.209h-0.753c-0.167,0-0.229-0.042-0.229-0.209v-4.265h-1.537
		c-0.167,0-0.209-0.073-0.209-0.209v-0.575c0-0.157,0.032-0.23,0.209-0.23h4.328c0.178,0,0.209,0.073,0.209,0.23v0.575
		c0,0.136-0.042,0.209-0.209,0.209h-1.589V-50.996z"/>
	<path fill="#FFFFFF" d="M92.477-51.038c-0.617,0.282-1.465,0.366-2.133,0.366c-1.851,0-2.342-0.795-2.342-1.746
		c0-0.972,0.605-1.871,2.279-1.871h1.17v-0.178c0-0.533-0.188-0.92-1.076-0.92c-0.471,0-1.108,0.095-1.453,0.209
		c-0.156,0.042-0.209,0.021-0.24-0.104l-0.146-0.596c-0.031-0.115,0-0.188,0.094-0.22c0.586-0.22,1.328-0.303,1.944-0.303
		c1.453,0,2.101,0.658,2.101,1.882v3.136C92.674-51.216,92.611-51.101,92.477-51.038z M90.438-53.358
		c-0.46,0-1.191,0.063-1.191,0.898c0,0.597,0.439,0.805,1.107,0.805c0.199,0,0.722-0.021,1.088-0.167v-1.536H90.438z"/>
	<path fill="#FFFFFF" d="M95.027-50.787h-0.764c-0.156,0-0.23-0.042-0.23-0.209v-5.08c0-0.157,0.074-0.199,0.23-0.199h0.764
		c0.167,0,0.229,0.031,0.229,0.199v1.86h2.3v-1.86c0-0.157,0.073-0.199,0.23-0.199h0.763c0.178,0,0.22,0.031,0.22,0.199v5.08
		c0,0.178-0.042,0.209-0.22,0.209h-0.763c-0.157,0-0.23-0.042-0.23-0.209v-2.227h-2.3v2.227
		C95.257-50.818,95.194-50.787,95.027-50.787z"/>
	<path fill="#FFFFFF" d="M100.734-53.316l0.355-2.395c0.053-0.387,0.251-0.564,0.722-0.564h2.624c0.512,0,0.596,0.22,0.596,0.586
		v3.94l0.324,0.031c0.281,0.032,0.324,0.188,0.324,0.387l-0.137,2.028c0,0.094-0.041,0.146-0.136,0.146h-0.763
		c-0.084,0-0.125-0.053-0.137-0.146l-0.052-1.484h-3.7c-0.031,0.491-0.063,0.993-0.094,1.484c-0.012,0.094-0.053,0.146-0.146,0.146
		h-0.742c-0.084,0-0.126-0.042-0.126-0.136l-0.126-2.028c0-0.209,0.043-0.376,0.335-0.407l0.304-0.032
		C100.516-52.114,100.631-52.554,100.734-53.316z M102.146-55.24l-0.199,1.578c-0.167,1.255-0.303,1.6-0.502,1.913h2.362v-3.491
		H102.146z"/>
	<path fill="#FFFFFF" d="M110.959-51.038c-0.617,0.282-1.464,0.366-2.133,0.366c-1.851,0-2.342-0.795-2.342-1.746
		c0-0.972,0.606-1.871,2.279-1.871h1.17v-0.178c0-0.533-0.188-0.92-1.076-0.92c-0.471,0-1.108,0.095-1.453,0.209
		c-0.156,0.042-0.209,0.021-0.24-0.104l-0.146-0.596c-0.031-0.115,0-0.188,0.094-0.22c0.586-0.22,1.328-0.303,1.945-0.303
		c1.452,0,2.101,0.658,2.101,1.882v3.136C111.157-51.216,111.094-51.101,110.959-51.038z M108.92-53.358
		c-0.459,0-1.191,0.063-1.191,0.898c0,0.597,0.439,0.805,1.107,0.805c0.199,0,0.722-0.021,1.088-0.167v-1.536H108.92z"/>
	<path fill="#FFFFFF" d="M113.541-48.665h-0.826c-0.136,0-0.198-0.021-0.198-0.178v-6.899c0-0.125,0.031-0.178,0.167-0.251
		c0.701-0.303,1.506-0.397,2.206-0.397c1.808,0,2.54,1.255,2.54,2.854c0,1.558-0.805,2.854-2.446,2.854
		c-0.376,0-0.753-0.031-1.243-0.146v1.986C113.74-48.687,113.697-48.665,113.541-48.665z M114.712-55.345
		c-0.282,0-0.722,0.063-0.972,0.146v3.324c0.428,0.114,0.742,0.146,1.023,0.146c0.805,0,1.4-0.46,1.4-1.819
		C116.164-54.874,115.611-55.345,114.712-55.345z"/>
	<path fill="#FFFFFF" d="M120.953-50.996c0,0.178-0.053,0.209-0.221,0.209h-0.752c-0.168,0-0.23-0.042-0.23-0.209v-4.265h-1.536
		c-0.167,0-0.21-0.073-0.21-0.209v-0.575c0-0.157,0.032-0.23,0.21-0.23h4.327c0.178,0,0.209,0.073,0.209,0.23v0.575
		c0,0.136-0.041,0.209-0.209,0.209h-1.588V-50.996z"/>
	<path fill="#FFFFFF" d="M124.528-50.787h-0.763c-0.157,0-0.23-0.042-0.23-0.209v-5.08c0-0.157,0.073-0.199,0.23-0.199h0.763
		c0.167,0,0.229,0.031,0.229,0.199v1.86h2.3v-1.86c0-0.157,0.073-0.199,0.229-0.199h0.764c0.178,0,0.22,0.031,0.22,0.199v5.08
		c0,0.178-0.042,0.209-0.22,0.209h-0.764c-0.156,0-0.229-0.042-0.229-0.209v-2.227h-2.3v2.227
		C124.758-50.818,124.695-50.787,124.528-50.787z"/>
	<path fill="#FFFFFF" d="M131.93-50.672c-1.684,0-2.51-0.983-2.51-2.854c0-1.829,1.046-2.874,2.541-2.874
		c1.662,0,2.529,1.076,2.529,2.843C134.49-51.707,133.633-50.672,131.93-50.672z M131.981-55.376c-0.899,0-1.327,0.784-1.327,1.818
		c0,1.16,0.324,1.861,1.285,1.861c0.973,0,1.307-0.868,1.307-1.83C133.246-54.529,132.985-55.376,131.981-55.376z"/>
	<path fill="#FFFFFF" d="M135.829-56.275h0.825c0.157,0,0.199,0.011,0.199,0.167v3.597h0.041l0.648-1.046
		c0.168-0.25,0.324-0.512,1.484-2.372c0.178-0.262,0.262-0.346,0.596-0.346H140c0.324,0,0.522,0.136,0.522,0.502v4.819
		c0,0.156-0.053,0.167-0.188,0.167h-0.836c-0.136,0-0.188-0.011-0.188-0.167v-3.533h-0.063l-0.627,1.003l-1.517,2.353
		c-0.177,0.282-0.303,0.345-0.596,0.345h-0.355c-0.344,0-0.512-0.167-0.512-0.502v-4.819
		C135.641-56.265,135.693-56.275,135.829-56.275z M136.227-57.979c-0.031-0.041-0.084-0.104,0.031-0.219l0.293-0.272
		c0.125-0.114,0.135-0.052,0.25,0.032c0.429,0.449,0.879,0.71,1.286,0.71c0.345,0,0.616-0.146,1.296-0.742
		c0.126-0.114,0.157-0.072,0.23-0.021l0.292,0.251c0.136,0.115,0.084,0.178,0.042,0.229c-0.637,0.826-1.285,1.192-1.912,1.192
		C137.281-56.818,136.645-57.362,136.227-57.979z"/>
	<path fill="#FFFFFF" d="M149.293-53.212l-0.679,1.432c-0.126,0.262-0.23,0.345-0.522,0.345h-0.355
		c-0.293,0-0.397-0.083-0.523-0.345l-0.647-1.358l-0.522-1.13h-0.053v3.304c0,0.157-0.042,0.178-0.198,0.178h-0.774
		c-0.135,0-0.208-0.021-0.208-0.178v-4.809c0-0.282,0.156-0.502,0.532-0.502h0.481c0.282,0,0.418,0.042,0.575,0.366l0.909,1.902
		l0.585,1.297h0.042l0.659-1.422l0.846-1.757c0.157-0.303,0.282-0.387,0.606-0.387h0.45c0.376,0,0.532,0.209,0.532,0.491v4.819
		c0,0.157-0.052,0.178-0.209,0.178h-0.763c-0.157,0-0.209-0.021-0.209-0.178v-3.387h-0.053L149.293-53.212z"/>
	<path fill="#FFFFFF" d="M156.653-51.038c-0.617,0.282-1.464,0.366-2.133,0.366c-1.851,0-2.342-0.795-2.342-1.746
		c0-0.972,0.606-1.871,2.279-1.871h1.171v-0.178c0-0.533-0.188-0.92-1.077-0.92c-0.47,0-1.108,0.095-1.453,0.209
		c-0.156,0.042-0.209,0.021-0.24-0.104l-0.146-0.596c-0.031-0.115,0-0.188,0.094-0.22c0.586-0.22,1.328-0.303,1.944-0.303
		c1.454,0,2.102,0.658,2.102,1.882v3.136C156.852-51.216,156.789-51.101,156.653-51.038z M154.614-53.358
		c-0.459,0-1.191,0.063-1.191,0.898c0,0.597,0.439,0.805,1.108,0.805c0.198,0,0.721-0.021,1.087-0.167v-1.536H154.614z"/>
	<path fill="#FFFFFF" d="M160.584-50.996c0,0.178-0.053,0.209-0.22,0.209h-0.752c-0.168,0-0.23-0.042-0.23-0.209v-4.265h-1.536
		c-0.168,0-0.21-0.073-0.21-0.209v-0.575c0-0.157,0.032-0.23,0.21-0.23h4.327c0.178,0,0.209,0.073,0.209,0.23v0.575
		c0,0.136-0.042,0.209-0.209,0.209h-1.589V-50.996z"/>
	<path fill="#FFFFFF" d="M167.504-54.091c0,0.722-0.365,0.92-0.836,0.92h-2.78c0.031,1.088,0.658,1.453,1.464,1.453
		c0.448,0,0.898-0.125,1.223-0.282c0.115-0.052,0.188-0.031,0.229,0.063l0.282,0.596c0.053,0.114,0.021,0.188-0.073,0.24
		c-0.533,0.324-1.191,0.429-1.767,0.429c-1.683,0-2.603-0.868-2.603-2.833c0-1.84,1.045-2.896,2.498-2.896
		C166.741-56.4,167.504-55.522,167.504-54.091z M163.929-54.049h2.405c0-0.742-0.23-1.338-1.171-1.338
		C164.431-55.387,163.961-54.749,163.929-54.049z"/>
	<path fill="#FFFFFF" d="M173.107-53.212l-0.68,1.432c-0.125,0.262-0.229,0.345-0.522,0.345h-0.355
		c-0.293,0-0.397-0.083-0.522-0.345l-0.648-1.358l-0.522-1.13h-0.053v3.304c0,0.157-0.041,0.178-0.198,0.178h-0.773
		c-0.136,0-0.209-0.021-0.209-0.178v-4.809c0-0.282,0.157-0.502,0.533-0.502h0.48c0.282,0,0.418,0.042,0.575,0.366l0.909,1.902
		l0.586,1.297h0.041l0.659-1.422l0.847-1.757c0.156-0.303,0.282-0.387,0.606-0.387h0.449c0.376,0,0.533,0.209,0.533,0.491v4.819
		c0,0.157-0.052,0.178-0.209,0.178h-0.763c-0.157,0-0.21-0.021-0.21-0.178v-3.387h-0.052L173.107-53.212z"/>
	<path fill="#FFFFFF" d="M180.467-51.038c-0.616,0.282-1.463,0.366-2.132,0.366c-1.851,0-2.342-0.795-2.342-1.746
		c0-0.972,0.606-1.871,2.279-1.871h1.171v-0.178c0-0.533-0.188-0.92-1.077-0.92c-0.471,0-1.108,0.095-1.453,0.209
		c-0.156,0.042-0.209,0.021-0.24-0.104l-0.146-0.596c-0.031-0.115,0-0.188,0.094-0.22c0.586-0.22,1.328-0.303,1.944-0.303
		c1.453,0,2.102,0.658,2.102,1.882v3.136C180.666-51.216,180.603-51.101,180.467-51.038z M178.429-53.358
		c-0.46,0-1.191,0.063-1.191,0.898c0,0.597,0.439,0.805,1.108,0.805c0.198,0,0.721-0.021,1.087-0.167v-1.536H178.429z"/>
	<path fill="#FFFFFF" d="M184.398-50.996c0,0.178-0.053,0.209-0.22,0.209h-0.753c-0.167,0-0.229-0.042-0.229-0.209v-4.265h-1.537
		c-0.167,0-0.209-0.073-0.209-0.209v-0.575c0-0.157,0.031-0.23,0.209-0.23h4.328c0.178,0,0.209,0.073,0.209,0.23v0.575
		c0,0.136-0.042,0.209-0.209,0.209h-1.589V-50.996z"/>
	<path fill="#FFFFFF" d="M187.169-56.275h0.825c0.157,0,0.199,0.011,0.199,0.167v3.597h0.041l0.648-1.046
		c0.168-0.25,0.324-0.512,1.484-2.372c0.178-0.262,0.262-0.346,0.596-0.346h0.377c0.323,0,0.522,0.136,0.522,0.502v4.819
		c0,0.156-0.053,0.167-0.188,0.167h-0.836c-0.136,0-0.188-0.011-0.188-0.167v-3.533h-0.063l-0.627,1.003l-1.516,2.353
		c-0.178,0.282-0.304,0.345-0.597,0.345h-0.354c-0.346,0-0.513-0.167-0.513-0.502v-4.819
		C186.98-56.265,187.033-56.275,187.169-56.275z"/>
	<path fill="#FFFFFF" d="M194.235-50.787h-0.836c-0.126,0-0.188-0.011-0.188-0.167v-5.154c0-0.156,0.063-0.167,0.188-0.167h0.836
		c0.136,0,0.188,0.011,0.188,0.167v1.913h0.658c0.387,0,0.742-0.104,0.941-0.721l0.387-1.224c0.031-0.125,0.104-0.136,0.178-0.136
		h0.856c0.136,0,0.136,0.104,0.126,0.178l-0.387,1.37c-0.115,0.428-0.324,0.794-0.711,0.961l-0.011,0.021
		c0.575,0.167,0.731,0.522,0.867,0.961l0.534,1.809c0.01,0.073,0.031,0.188-0.137,0.188h-0.898c-0.053,0-0.146-0.011-0.178-0.126
		l-0.502-1.672c-0.157-0.471-0.533-0.659-0.962-0.659h-0.763v2.29C194.424-50.798,194.371-50.787,194.235-50.787z"/>
	<path fill="#FFFFFF" d="M199.023-56.275h0.825c0.157,0,0.199,0.011,0.199,0.167v3.597h0.042l0.648-1.046
		c0.166-0.25,0.323-0.512,1.483-2.372c0.178-0.262,0.262-0.346,0.596-0.346h0.377c0.324,0,0.522,0.136,0.522,0.502v4.819
		c0,0.156-0.053,0.167-0.188,0.167h-0.836c-0.136,0-0.188-0.011-0.188-0.167v-3.533h-0.063l-0.627,1.003l-1.516,2.353
		c-0.178,0.282-0.304,0.345-0.596,0.345h-0.356c-0.345,0-0.512-0.167-0.512-0.502v-4.819
		C198.835-56.265,198.888-56.275,199.023-56.275z"/>
	<path fill="#FFFFFF" d="M210.303-50.672c-1.683,0-2.509-0.983-2.509-2.854c0-1.829,1.046-2.874,2.54-2.874
		c1.662,0,2.53,1.076,2.53,2.843C212.864-51.707,212.007-50.672,210.303-50.672z M210.355-55.376c-0.899,0-1.328,0.784-1.328,1.818
		c0,1.16,0.324,1.861,1.286,1.861c0.973,0,1.307-0.868,1.307-1.83C211.62-54.529,211.359-55.376,210.355-55.376z"/>
	<path fill="#FFFFFF" d="M216.388-50.996c0,0.178-0.053,0.209-0.22,0.209h-0.753c-0.167,0-0.229-0.042-0.229-0.209v-4.265h-1.537
		c-0.167,0-0.209-0.073-0.209-0.209v-0.575c0-0.157,0.031-0.23,0.209-0.23h4.328c0.178,0,0.209,0.073,0.209,0.23v0.575
		c0,0.136-0.042,0.209-0.209,0.209h-1.589V-50.996z"/>
	<path fill="#FFFFFF" d="M224.301-50.651c-0.889,0-1.808-0.146-2.509-0.731c-0.073-0.073-0.094-0.146-0.042-0.22l0.419-0.638
		c0.073-0.104,0.178-0.115,0.313-0.021c0.512,0.345,1.118,0.501,1.746,0.501c1.014,0,1.62-0.512,1.62-1.316
		c0-0.795-0.628-1.15-1.328-1.15c-0.711,0-1.024,0.178-1.558,0.397c-0.178,0.073-0.345,0.073-0.522,0.011l-0.24-0.084
		c-0.24-0.083-0.345-0.22-0.313-0.544l0.261-2.654c0.053-0.491,0.346-0.711,0.711-0.711h3.544c0.167,0,0.198,0.042,0.198,0.209
		v0.647c0,0.157-0.041,0.21-0.198,0.21h-3.115l-0.188,1.725c0.502-0.209,1.057-0.251,1.548-0.251c1.38,0,2.436,0.836,2.436,2.143
		C227.082-51.571,225.942-50.651,224.301-50.651z"/>
	<path fill="#FFFFFF" d="M231.881-53.316l0.355-2.395c0.052-0.387,0.25-0.564,0.721-0.564h2.624c0.512,0,0.596,0.22,0.596,0.586
		v3.94l0.324,0.031c0.282,0.032,0.324,0.188,0.324,0.387l-0.137,2.028c0,0.094-0.042,0.146-0.136,0.146h-0.763
		c-0.084,0-0.125-0.053-0.136-0.146l-0.053-1.484h-3.7c-0.031,0.491-0.063,0.993-0.094,1.484c-0.011,0.094-0.053,0.146-0.146,0.146
		h-0.742c-0.084,0-0.126-0.042-0.126-0.136l-0.125-2.028c0-0.209,0.041-0.376,0.334-0.407l0.304-0.032
		C231.661-52.114,231.776-52.554,231.881-53.316z M233.292-55.24l-0.199,1.578c-0.167,1.255-0.303,1.6-0.502,1.913h2.362v-3.491
		H233.292z"/>
	<path fill="#FFFFFF" d="M240.139-50.672c-1.683,0-2.509-0.983-2.509-2.854c0-1.829,1.046-2.874,2.54-2.874
		c1.662,0,2.53,1.076,2.53,2.843C242.7-51.707,241.843-50.672,240.139-50.672z M240.191-55.376c-0.899,0-1.328,0.784-1.328,1.818
		c0,1.16,0.324,1.861,1.286,1.861c0.973,0,1.307-0.868,1.307-1.83C241.456-54.529,241.195-55.376,240.191-55.376z"/>
	<path fill="#FFFFFF" d="M249.172-57.958c1.892,0,2.916,1.244,2.916,3.293c0,2.236-0.993,3.993-3.449,3.993
		c-0.387,0-0.931-0.042-1.297-0.199c-0.115-0.042-0.167-0.072-0.115-0.24l0.209-0.669c0.021-0.115,0.095-0.156,0.23-0.115
		c0.198,0.073,0.638,0.157,0.962,0.157c1.223,0,1.934-0.753,2.132-1.893c-0.449,0.157-1.098,0.251-1.631,0.251
		c-1.39,0-2.654-0.647-2.654-2.185C246.475-57.216,247.781-57.958,249.172-57.958z M249.066-54.425c0.628,0,1.14-0.073,1.767-0.251
		c0.032-0.178,0.021-0.251,0.021-0.335c0-1.118-0.784-1.902-1.693-1.902c-0.753,0-1.443,0.46-1.443,1.275
		C247.718-54.927,248.23-54.425,249.066-54.425z"/>
	<path fill="#FFFFFF" d="M255.621-57.958c1.893,0,2.917,1.244,2.917,3.293c0,2.236-0.993,3.993-3.45,3.993
		c-0.387,0-0.93-0.042-1.296-0.199c-0.115-0.042-0.167-0.072-0.115-0.24l0.209-0.669c0.021-0.115,0.095-0.156,0.23-0.115
		c0.198,0.073,0.638,0.157,0.961,0.157c1.224,0,1.935-0.753,2.133-1.893c-0.449,0.157-1.098,0.251-1.631,0.251
		c-1.39,0-2.655-0.647-2.655-2.185C252.924-57.216,254.231-57.958,255.621-57.958z M255.517-54.425c0.628,0,1.14-0.073,1.767-0.251
		c0.031-0.178,0.021-0.251,0.021-0.335c0-1.118-0.784-1.902-1.693-1.902c-0.753,0-1.443,0.46-1.443,1.275
		C254.168-54.927,254.681-54.425,255.517-54.425z"/>
</g>
<g>
	<g>
		<path fill="#C6C6C6" d="M152.677-125.827c-0.756,0-1.462,0.018-2.124,0.047c0.191,0.564,0.601,1.027,1.128,1.289
			c0.301,0.148,0.638,0.235,0.996,0.235c0.357,0,0.695-0.087,0.995-0.235c0.527-0.262,0.938-0.725,1.128-1.289
			C154.138-125.81,153.432-125.827,152.677-125.827z"/>
	</g>
	<g>
		<path fill="#C6C6C6" d="M163.547-126.001L163.547-126.001c-4.647-6.071-1.147-15.401-8.854-16.72
			c-0.035-1.083-0.925-1.954-2.016-1.954c-1.092,0-1.981,0.871-2.017,1.954c-7.707,1.319-4.206,10.649-8.854,16.72l0,0
			c-0.223,0.251-0.349,0.532-0.349,0.848c0,2.835,10.071,2.916,11.22,2.916s11.219-0.081,11.219-2.916
			C163.896-125.469,163.771-125.75,163.547-126.001z M152.677-143.777c0.557,0,1.017,0.409,1.104,0.942
			c-0.349-0.028-0.715-0.045-1.104-0.045c-0.39,0-0.755,0.017-1.104,0.045C151.659-143.368,152.119-143.777,152.677-143.777z
			 M152.677-123.583c-5.813,0-9.335-0.977-9.843-1.57c0.508-0.595,4.03-1.57,9.843-1.57c5.812,0,9.335,0.976,9.842,1.57
			C162.012-124.56,158.488-123.583,152.677-123.583z"/>
	</g>
</g>
<g>
	<path fill="#C6C6C6" d="M24.839-75.862l0.853,0.886c0,0,2.511-1.461,3.283-5.429c0.188-0.964,0.482-2.031,2.301-3.162
		c0,0,2.352,5.285,11.407,4.374c0,0-2.002-0.916-2.033-2.518c0,0,3.618,1.341,6.124,0.242c0,0-1.083-0.839-1.043-1.559
		c0,0,3.968-0.255,4.785-1.583l-1.476-0.605c0,0,2.886-1.438,3.769-3.448c0,0-2.78,0.386-5.578-1.59c0,0,3.43-2.268,4.271-5.638
		c0,0-1.226,0.416-2.062-0.096c0,0,2.618-2.014,2.841-4.015l-1.839,0.884c0,0,2.003-6.086,3.495-6.797c0,0-5.311,2.832-5.623,3.533
		l-0.03-1.601c0,0-2.868,3.454-3.401,3.349c0,0-0.798-2.273-0.446-3.001c0,0-2.81,5.962-6.352,5.642c0,0-2.503-4.69-2.252-5.959
		c0,0-1.399,4.438-3.344,5.856s-2.586,4.654-1.615,6.232c0,0-1.318-1.751-2.272-2.01c0,0-1.618,7.181,2.26,9.657
		c0,0-2.106,1.121-2.893,4.397C27.181-76.542,24.911-76.229,24.839-75.862z"/>
</g>
<g>
	<path d="M273.596-201.771H-0.457v-134.709h274.053V-201.771z M0.458-202.685h272.224v-132.88H0.458V-202.685z"/>
</g>
<g>
	<g>
		<g>
			<path d="M51.349-282.062c-1.9,0-3.622-0.912-4.385-2.323c-0.6-1.143-0.624-1.957-0.624-3.852v-9.385l-3.36,5.458
				c-0.983,1.6-2.046,2.592-4.303,2.592c-2.256,0-3.319-0.992-4.303-2.593l-3.36-5.457v9.385c0,1.895-0.024,2.709-0.621,3.847
				c-0.766,1.416-2.487,2.328-4.387,2.328c-1.9,0-3.621-0.912-4.384-2.323c-0.601-1.143-0.624-1.957-0.624-3.852v-23.987
				c0-1.929,0.241-3.269,1.475-4.406c0.91-0.853,2.01-1.268,3.361-1.268c1.198,0,2.037,0.216,2.895,0.747
				c1.064,0.671,1.794,1.673,2.368,2.564l7.58,12.114l7.577-12.109c0.577-0.896,1.307-1.898,2.368-2.567
				c0.862-0.532,1.706-0.749,2.916-0.749c1.34,0,2.435,0.416,3.347,1.271c1.231,1.135,1.472,2.475,1.472,4.404v23.987
				c0,1.895-0.024,2.709-0.622,3.847C54.97-282.974,53.249-282.062,51.349-282.062z M47.254-300.852v12.615
				c0,1.977,0.048,2.529,0.517,3.422c0.603,1.115,2.008,1.839,3.578,1.839s2.974-0.724,3.58-1.844
				c0.466-0.888,0.514-1.44,0.514-3.417v-23.987c0-1.716-0.188-2.819-1.18-3.734c-0.748-0.701-1.612-1.026-2.724-1.026
				c-1.04,0-1.721,0.171-2.432,0.61c-0.72,0.454-1.343,1.137-2.08,2.281l-8.349,13.343l-8.352-13.348
				c-0.733-1.139-1.356-1.822-2.08-2.278c-0.707-0.437-1.384-0.608-2.411-0.608c-1.124,0-1.994,0.325-2.739,1.023
				c-0.995,0.918-1.183,2.021-1.183,3.737v23.987c0,1.977,0.048,2.529,0.517,3.422c0.603,1.115,2.008,1.839,3.578,1.839
				c1.569,0,2.974-0.724,3.58-1.844c0.466-0.888,0.514-1.44,0.514-3.417v-12.615l5.053,8.208c0.859,1.399,1.676,2.157,3.524,2.157
				s2.665-0.758,3.524-2.157L47.254-300.852z"/>
		</g>
	</g>
</g>
<g>
	<g>
		<g>
			<path d="M92.857-282.062c-1.102,0-2.113-0.349-2.85-0.983c-0.86-0.734-1.234-1.452-1.922-3.235l-0.423-1.113H75.36l-0.438,1.115
				c-0.704,1.827-1.059,2.512-1.904,3.233c-0.756,0.634-1.773,0.982-2.866,0.982c-1.292,0-2.625-0.516-3.567-1.38
				c-2.02-1.912-1.209-3.956-0.426-5.933l9.828-24.441c0.674-1.628,1.191-2.387,2.052-3.01c0.96-0.728,2.002-1.04,3.475-1.04
				c1.454,0,2.495,0.312,3.479,1.043c0.862,0.638,1.394,1.425,2.031,3.006l9.826,24.439c0.798,1.974,1.623,4.015-0.422,5.932
				C95.504-282.579,94.168-282.062,92.857-282.062z M74.737-288.306h13.556l0.646,1.7c0.677,1.755,0.987,2.292,1.662,2.868
				c0.564,0.485,1.386,0.763,2.256,0.763c1.068,0,2.197-0.435,2.945-1.136c1.511-1.416,1.06-2.792,0.199-4.922l-9.827-24.44
				c-0.645-1.599-1.104-2.152-1.727-2.614c-0.826-0.613-1.676-0.863-2.935-0.863c-1.257,0-2.134,0.257-2.931,0.86
				c-0.619,0.448-1.078,0.996-1.75,2.621l-9.825,24.435c-0.846,2.134-1.289,3.515,0.2,4.924c0.773,0.709,1.876,1.135,2.944,1.135
				c0.878,0,1.686-0.271,2.275-0.765c0.696-0.595,0.991-1.176,1.643-2.867L74.737-288.306z M85.904-294.467h-8.783l4.392-11.315
				L85.904-294.467z M78.457-295.381h6.112l-3.056-7.874L78.457-295.381z"/>
		</g>
	</g>
</g>
<g>
	<g>
		<g>
			<path d="M118.77-282.062c-1.9,0-3.621-0.912-4.385-2.323c-0.601-1.143-0.624-1.957-0.624-3.852v-20.961h-5.61
				c-1.863,0-2.66-0.044-3.658-0.512c-1.33-0.584-2.229-2.083-2.229-3.725s0.898-3.141,2.238-3.729
				c0.988-0.463,1.785-0.507,3.648-0.507h20.732c1.863,0,2.661,0.044,3.659,0.512c1.329,0.584,2.229,2.083,2.229,3.725
				s-0.899,3.141-2.238,3.73c-0.988,0.463-1.786,0.507-3.649,0.507h-5.105v20.961c0,1.895-0.023,2.709-0.621,3.847
				C122.391-282.974,120.67-282.062,118.77-282.062z M108.15-316.758c-1.859,0-2.477,0.053-3.271,0.425
				c-1.022,0.45-1.702,1.613-1.702,2.897c0,1.285,0.68,2.447,1.692,2.893c0.804,0.376,1.421,0.43,3.28,0.43h6.524v21.875
				c0,1.977,0.048,2.529,0.517,3.422c0.604,1.115,2.008,1.839,3.578,1.839c1.568,0,2.975-0.724,3.58-1.844
				c0.466-0.888,0.514-1.44,0.514-3.417v-21.875h6.02c1.859,0,2.477-0.053,3.271-0.425c1.021-0.45,1.701-1.612,1.701-2.897
				c0-1.285-0.68-2.447-1.691-2.893c-0.805-0.377-1.422-0.43-3.281-0.43H108.15z"/>
		</g>
	</g>
</g>
<g>
	<g>
		<g>
			<g>
				<path d="M93.367-240.93c-1.979,0-3.045-1.041-4.566-2.754l-9.947-11.137h-0.131v7.716c0,1.895-0.024,2.709-0.622,3.847
					c-0.766,1.417-2.487,2.329-4.387,2.329c-1.9,0-3.622-0.912-4.385-2.324c-0.6-1.143-0.624-1.957-0.624-3.852v-23.454
					c0-1.895,0.024-2.709,0.622-3.847c0.766-1.416,2.487-2.328,4.387-2.328c1.9,0,3.621,0.912,4.384,2.323
					c0.6,1.143,0.624,1.957,0.624,3.852v6.828h0.131l9.155-10.25c1.503-1.712,2.56-2.753,4.548-2.753
					c1.088,0,2.105,0.37,3.025,1.101c1.15,0.908,1.759,2.026,1.759,3.233c0,1.421-0.479,2.347-2.14,4.125l-8.281,8.727L96-249.38
					c1.504,1.662,2.134,2.603,2.134,4.117c0,1.216-0.603,2.334-1.743,3.234C95.438-241.289,94.45-240.93,93.367-240.93z
					 M77.808-255.735h1.455l10.222,11.443c1.511,1.702,2.334,2.448,3.883,2.448c0.872,0,1.677-0.296,2.46-0.905
					c0.923-0.728,1.393-1.575,1.393-2.514c0-1.13-0.373-1.818-1.899-3.505l-9.643-10.799l8.857-9.335
					c1.502-1.608,1.891-2.328,1.891-3.498c0-0.93-0.475-1.777-1.411-2.516c-0.755-0.6-1.581-0.903-2.458-0.903
					c-1.555,0-2.371,0.745-3.863,2.445l-9.431,10.558h-1.455v-7.742c0-1.977-0.047-2.529-0.516-3.422
					c-0.604-1.115-2.009-1.839-3.578-1.839c-1.569,0-2.975,0.724-3.581,1.844c-0.466,0.888-0.514,1.44-0.514,3.417v23.454
					c0,1.976,0.047,2.529,0.517,3.422c0.603,1.115,2.008,1.839,3.578,1.839c1.569,0,2.974-0.724,3.58-1.844
					c0.466-0.888,0.514-1.441,0.514-3.417V-255.735z"/>
			</g>
		</g>
	</g>
	<g>
		<g>
			<g>
				<path d="M133.26-240.93c-1.9,0-3.621-0.912-4.385-2.324c-0.601-1.143-0.624-1.957-0.624-3.852v-20.961h-5.499v8.556
					c0,13.575-3.219,18.387-12.301,18.387c-2.197,0-2.994-0.04-4.018-0.51c-1.332-0.586-2.232-2.098-2.232-3.759
					c0-1.167,0.479-2.323,1.279-3.092c0.965-0.885,2.009-1.097,3.281-1.145c4.016-0.181,4.336-4.667,4.336-10.511v-10.742
					c0-1.277,0-3.027,1.422-4.342c1.387-1.316,3.236-1.316,4.586-1.316h13.154c1.35,0,3.199,0,4.59,1.321
					c1.418,1.311,1.418,3.06,1.418,4.337v23.777c0,1.895-0.023,2.709-0.621,3.847C136.881-241.842,135.16-240.93,133.26-240.93z
					 M121.838-268.98h7.327v21.875c0,1.976,0.048,2.529,0.517,3.422c0.604,1.115,2.008,1.839,3.578,1.839
					c1.568,0,2.974-0.724,3.58-1.844c0.466-0.888,0.514-1.44,0.514-3.417v-23.777c0-1.231,0-2.626-1.129-3.67
					c-1.131-1.074-2.637-1.074-3.965-1.074h-13.154c-1.263,0-2.834,0-3.961,1.07c-1.133,1.048-1.133,2.443-1.133,3.674v10.742
					c0,4.985,0,11.189-5.212,11.424c-1.305,0.049-2.034,0.292-2.694,0.898c-0.617,0.592-0.99,1.501-0.99,2.425
					c0,1.284,0.697,2.486,1.693,2.925c0.844,0.388,1.482,0.43,3.643,0.43c7.385,0,11.387-2.784,11.387-17.472V-268.98z"/>
			</g>
		</g>
	</g>
	<g>
		<g>
			<g>
				<path d="M175.811-240.93c-1.102,0-2.113-0.349-2.85-0.983c-0.859-0.734-1.233-1.452-1.921-3.235l-0.424-1.113h-12.303
					l-0.438,1.115c-0.704,1.827-1.059,2.512-1.904,3.233c-0.756,0.634-1.772,0.982-2.865,0.982c-1.292,0-2.625-0.516-3.567-1.38
					c-2.02-1.911-1.21-3.956-0.427-5.933l9.827-24.441c0.674-1.628,1.191-2.387,2.053-3.011c0.961-0.727,2.002-1.04,3.475-1.04
					c1.454,0,2.494,0.312,3.479,1.043c0.861,0.639,1.394,1.425,2.03,3.007l9.827,24.439c0.798,1.974,1.623,4.015-0.422,5.931
					C178.457-241.447,177.122-240.93,175.811-240.93z M157.69-247.174h13.557l0.646,1.7c0.677,1.755,0.987,2.292,1.662,2.868
					c0.563,0.485,1.385,0.763,2.255,0.763c1.068,0,2.197-0.436,2.946-1.136c1.511-1.416,1.06-2.793,0.198-4.922l-9.826-24.44
					c-0.645-1.599-1.104-2.152-1.728-2.614c-0.826-0.613-1.676-0.863-2.935-0.863c-1.257,0-2.134,0.257-2.931,0.86
					c-0.618,0.448-1.077,0.996-1.75,2.621l-9.825,24.435c-0.845,2.134-1.288,3.516,0.201,4.925c0.772,0.709,1.875,1.135,2.944,1.135
					c0.878,0,1.686-0.272,2.274-0.765c0.696-0.594,0.991-1.176,1.643-2.867L157.69-247.174z M168.858-253.335h-8.783l4.392-11.315
					L168.858-253.335z M161.411-254.25h6.111l-3.056-7.874L161.411-254.25z"/>
			</g>
		</g>
	</g>
	<g>
		<g>
			<g>
				<path d="M202.43-241.914c-4.316,0-7.643-1.241-10.468-3.904c-3.953-3.704-3.953-8.52-3.953-14.095
					c0-5.584,0-10.408,3.955-14.096c2.823-2.662,6.149-3.903,10.466-3.903c4.605,0,7.198,0.738,9.568,2.724
					c3.399,2.851,3.664,5.885,3.664,6.747c0,1.534-0.438,2.628-1.421,3.548c-0.907,0.851-2.127,1.319-3.433,1.319
					c-1.057,0-1.961-0.25-2.688-0.741c-1.017-0.652-1.705-1.583-2.548-2.968c-0.929-1.551-1.867-2.155-3.351-2.155
					c-1.204,0-2.181,0.449-2.903,1.334c-0.971,1.188-1.294,2.538-1.294,8.191s0.323,7.003,1.294,8.191
					c0.723,0.885,1.699,1.334,2.903,1.334c1.483,0,2.422-0.603,3.35-2.152c0.844-1.388,1.532-2.319,2.559-2.977
					c0.717-0.485,1.621-0.735,2.678-0.735c1.306,0,2.525,0.468,3.433,1.319c0.982,0.92,1.421,2.015,1.421,3.548
					c0,0.857-0.265,3.876-3.662,6.746C209.628-242.652,207.035-241.914,202.43-241.914z M202.43-276.998
					c-4.069,0-7.196,1.162-9.84,3.655c-3.667,3.419-3.667,7.837-3.667,13.43c0,5.584,0,9.995,3.665,13.428
					c2.646,2.495,5.772,3.656,9.842,3.656c4.362,0,6.797-0.68,8.981-2.51c3.096-2.614,3.336-5.289,3.336-6.046
					c0-1.276-0.338-2.138-1.131-2.881c-0.737-0.691-1.734-1.072-2.808-1.072c-0.883,0-1.595,0.191-2.175,0.583
					c-0.892,0.572-1.487,1.384-2.279,2.686c-1.087,1.818-2.323,2.594-4.132,2.594c-1.471,0-2.72-0.578-3.612-1.67
					c-1.205-1.475-1.499-3.196-1.499-8.769s0.294-7.294,1.5-8.77c0.892-1.092,2.141-1.67,3.611-1.67
					c1.809,0,3.045,0.776,4.134,2.597c0.79,1.299,1.386,2.111,2.268,2.677c0.59,0.399,1.302,0.59,2.185,0.59
					c1.073,0,2.07-0.38,2.808-1.072c0.793-0.743,1.131-1.604,1.131-2.881c0-0.762-0.24-3.45-3.336-6.046
					C209.227-276.317,206.792-276.998,202.43-276.998z"/>
			</g>
		</g>
	</g>
	<g>
		<g>
			<g>
				<path d="M237.251-242.492c-4.317,0-7.644-1.241-10.468-3.904c-3.954-3.704-3.954-8.52-3.954-14.095
					c0-5.584,0-10.408,3.956-14.097c2.822-2.662,6.148-3.902,10.466-3.902c4.604,0,7.198,0.738,9.568,2.724
					c3.399,2.851,3.663,5.885,3.663,6.747c0,1.534-0.438,2.628-1.42,3.548c-0.908,0.85-2.127,1.319-3.434,1.319
					c-1.057,0-1.96-0.25-2.687-0.741c-1.018-0.652-1.706-1.583-2.548-2.968c-0.929-1.551-1.867-2.155-3.351-2.155
					c-1.204,0-2.182,0.449-2.904,1.334c-0.971,1.188-1.293,2.539-1.293,8.191s0.322,7.003,1.293,8.191
					c0.723,0.885,1.7,1.334,2.904,1.334c1.483,0,2.422-0.604,3.349-2.152c0.844-1.388,1.532-2.318,2.56-2.977
					c0.717-0.485,1.62-0.735,2.677-0.735c1.307,0,2.525,0.469,3.434,1.319c0.982,0.92,1.42,2.015,1.42,3.548
					c0,0.857-0.264,3.876-3.662,6.746C244.449-243.23,241.855-242.492,237.251-242.492z M237.251-277.575
					c-4.069,0-7.196,1.161-9.841,3.655c-3.666,3.42-3.666,7.837-3.666,13.43c0,5.583,0,9.994,3.665,13.428
					c2.646,2.495,5.772,3.656,9.842,3.656c4.362,0,6.797-0.68,8.981-2.51c3.095-2.614,3.336-5.289,3.336-6.046
					c0-1.276-0.338-2.138-1.131-2.881c-0.738-0.691-1.735-1.072-2.809-1.072c-0.883,0-1.594,0.191-2.174,0.583
					c-0.889,0.569-1.507,1.415-2.279,2.686c-1.088,1.818-2.324,2.594-4.132,2.594c-1.472,0-2.721-0.578-3.612-1.67
					c-1.205-1.475-1.5-3.196-1.5-8.769c0-5.573,0.295-7.294,1.5-8.77c0.892-1.092,2.141-1.67,3.612-1.67
					c1.808,0,3.044,0.776,4.133,2.597c0.771,1.268,1.39,2.114,2.269,2.677c0.59,0.399,1.301,0.59,2.184,0.59
					c1.073,0,2.07-0.38,2.809-1.072c0.793-0.743,1.131-1.604,1.131-2.881c0-0.762-0.241-3.45-3.337-6.046
					C244.048-276.895,241.613-277.575,237.251-277.575z"/>
			</g>
		</g>
	</g>
</g>
<g>
	<path d="M30.63-219.833l0.648,2.425c0.032,0.073,0.032,0.209-0.146,0.209h-0.92c-0.073,0-0.167-0.01-0.209-0.146l-0.627-2.289
		c-0.209-0.752-0.596-0.93-1.317-0.93h-1.181l0.01,3.199c0,0.157-0.052,0.167-0.188,0.167h-0.888c-0.125,0-0.188-0.01-0.188-0.167
		v-6.983c0-0.157,0.063-0.167,0.188-0.167h0.899c0.136,0,0.198,0.011,0.167,0.167v2.718h1.119c0.408,0,1.003-0.094,1.233-0.993
		l0.46-1.767c0.031-0.136,0.136-0.146,0.209-0.146h0.857c0.178,0,0.178,0.136,0.146,0.209l-0.459,1.871
		c-0.136,0.585-0.418,1.035-0.868,1.296v0.052C30.306-220.856,30.463-220.459,30.63-219.833z"/>
	<path d="M33.275-215.076h-0.826c-0.136,0-0.199-0.021-0.199-0.178v-6.899c0-0.125,0.031-0.178,0.167-0.251
		c0.7-0.303,1.505-0.397,2.206-0.397c1.808,0,2.54,1.255,2.54,2.854c0,1.558-0.805,2.854-2.446,2.854
		c-0.376,0-0.752-0.032-1.244-0.146v1.986C33.474-215.097,33.432-215.076,33.275-215.076z M34.446-221.756
		c-0.282,0-0.721,0.063-0.972,0.146v3.324c0.429,0.115,0.742,0.146,1.024,0.146c0.805,0,1.401-0.46,1.401-1.819
		C35.899-221.285,35.345-221.756,34.446-221.756z"/>
	<path d="M39.15-214.992c-0.219,0-0.575-0.011-0.92-0.125c-0.157-0.032-0.178-0.073-0.146-0.199l0.146-0.638
		c0.032-0.136,0.084-0.146,0.209-0.115c0.24,0.053,0.334,0.073,0.512,0.073c0.491,0,0.752-0.157,0.92-0.658l0.219-0.659H39.84
		c-0.25,0-0.397-0.021-0.522-0.429l-1.568-4.798c-0.031-0.094,0.01-0.146,0.115-0.146h0.962c0.157,0,0.188,0.021,0.219,0.136
		l0.711,2.404l0.543,1.892h0.063l0.585-1.913l0.773-2.373c0.031-0.115,0.052-0.146,0.209-0.146h0.951
		c0.104,0,0.136,0.042,0.104,0.136l-2.091,6.251v-0.01C40.572-215.348,40.028-214.992,39.15-214.992z"/>
	<path d="M46.029-219.665c-0.429,0-0.826,0.199-0.961,0.669l-0.502,1.673c-0.031,0.115-0.125,0.125-0.178,0.125h-0.899
		c-0.167,0-0.146-0.115-0.135-0.188l0.533-1.809c0.136-0.439,0.272-0.794,0.857-0.961l-0.011-0.021
		c-0.387-0.167-0.585-0.533-0.7-0.961l-0.387-1.37c-0.011-0.073-0.011-0.178,0.125-0.178h0.857c0.073,0,0.136,0.01,0.178,0.136
		l0.376,1.223c0.199,0.617,0.543,0.732,0.951,0.732h0.46v-1.924c0-0.157,0.052-0.167,0.188-0.167h0.836
		c0.125,0,0.188,0.01,0.188,0.167v1.924h0.45c0.387,0,0.752-0.115,0.951-0.732l0.376-1.223c0.042-0.125,0.104-0.136,0.178-0.136
		h0.857c0.136,0,0.136,0.104,0.125,0.178l-0.387,1.37c-0.115,0.428-0.313,0.794-0.7,0.961l-0.011,0.021
		c0.585,0.167,0.721,0.522,0.857,0.961l0.533,1.809c0.01,0.073,0.031,0.188-0.136,0.188h-0.899c-0.052,0-0.146-0.01-0.178-0.125
		l-0.501-1.673c-0.136-0.47-0.533-0.669-0.962-0.669h-0.554v2.3c0,0.157-0.063,0.167-0.188,0.167h-0.836
		c-0.136,0-0.188-0.01-0.188-0.167v-2.3H46.029z"/>
	<path d="M52.991-217.198h-0.836c-0.125,0-0.188-0.01-0.188-0.167v-5.154c0-0.157,0.063-0.167,0.188-0.167h0.836
		c0.136,0,0.188,0.01,0.188,0.167v1.913h0.659c0.387,0,0.742-0.104,0.941-0.721l0.387-1.223c0.031-0.125,0.104-0.136,0.178-0.136
		H56.2c0.136,0,0.136,0.104,0.125,0.178l-0.387,1.37c-0.115,0.428-0.324,0.794-0.711,0.961l-0.01,0.021
		c0.575,0.167,0.732,0.522,0.868,0.961l0.533,1.809c0.01,0.073,0.031,0.188-0.136,0.188h-0.898c-0.053,0-0.146-0.01-0.178-0.125
		l-0.501-1.673c-0.157-0.47-0.533-0.659-0.962-0.659h-0.763v2.29C53.179-217.208,53.127-217.198,52.991-217.198z"/>
	<path d="M57.779-222.686h0.826c0.157,0,0.199,0.01,0.199,0.167v3.596h0.042l0.648-1.045c0.167-0.25,0.324-0.512,1.484-2.373
		c0.178-0.262,0.261-0.345,0.596-0.345h0.376c0.324,0,0.522,0.136,0.522,0.502v4.819c0,0.157-0.052,0.167-0.188,0.167h-0.836
		c-0.136,0-0.188-0.01-0.188-0.167v-3.533h-0.063l-0.627,1.003l-1.516,2.352c-0.178,0.282-0.303,0.345-0.596,0.345h-0.356
		c-0.345,0-0.512-0.167-0.512-0.501v-4.819C57.591-222.676,57.643-222.686,57.779-222.686z"/>
	<path d="M67.752-217.198h-0.763c-0.157,0-0.23-0.042-0.23-0.209v-5.08c0-0.157,0.073-0.199,0.23-0.199h0.763
		c0.167,0,0.23,0.031,0.23,0.199v1.86h2.3v-1.86c0-0.157,0.073-0.199,0.23-0.199h0.763c0.178,0,0.219,0.031,0.219,0.199v5.08
		c0,0.178-0.042,0.209-0.219,0.209h-0.763c-0.157,0-0.23-0.042-0.23-0.209v-2.227h-2.3v2.227
		C67.982-217.229,67.919-217.198,67.752-217.198z"/>
	<path d="M77.505-220.501c0,0.721-0.366,0.92-0.836,0.92h-2.781c0.031,1.087,0.659,1.453,1.463,1.453
		c0.45,0,0.899-0.125,1.223-0.282c0.115-0.052,0.188-0.031,0.23,0.063l0.282,0.596c0.052,0.115,0.021,0.188-0.073,0.24
		c-0.533,0.324-1.191,0.429-1.767,0.429c-1.683,0-2.603-0.868-2.603-2.833c0-1.84,1.045-2.896,2.499-2.896
		C76.743-222.812,77.505-221.934,77.505-220.501z M73.931-220.459h2.404c0-0.742-0.23-1.338-1.171-1.338
		C74.432-221.797,73.962-221.16,73.931-220.459z"/>
	<path d="M82.241-218.421c0.157-0.073,0.199-0.042,0.24,0.073l0.261,0.606c0.073,0.115,0.052,0.199-0.063,0.262
		c-0.575,0.324-1.275,0.397-1.85,0.397c-1.558,0-2.415-0.951-2.415-2.822c0-1.767,0.983-2.906,2.53-2.906
		c0.575,0,1.119,0.115,1.589,0.366c0.125,0.073,0.156,0.125,0.083,0.262l-0.261,0.617c-0.052,0.115-0.094,0.146-0.261,0.073
		c-0.334-0.125-0.69-0.23-1.098-0.23c-0.961,0-1.338,0.868-1.338,1.819c0,0.972,0.282,1.756,1.359,1.756
		C81.468-218.149,81.948-218.285,82.241-218.421z"/>
	<path d="M86.151-217.407c0,0.178-0.052,0.209-0.22,0.209h-0.753c-0.167,0-0.229-0.042-0.229-0.209v-4.265h-1.537
		c-0.167,0-0.209-0.073-0.209-0.209v-0.575c0-0.157,0.032-0.23,0.209-0.23h4.328c0.178,0,0.209,0.073,0.209,0.23v0.575
		c0,0.136-0.042,0.209-0.209,0.209h-1.589V-217.407z"/>
	<path d="M92.477-217.449c-0.617,0.282-1.465,0.366-2.133,0.366c-1.851,0-2.342-0.794-2.342-1.746c0-0.972,0.605-1.871,2.279-1.871
		h1.17v-0.178c0-0.533-0.188-0.919-1.076-0.919c-0.471,0-1.108,0.094-1.453,0.209c-0.156,0.042-0.209,0.021-0.24-0.104l-0.146-0.596
		c-0.031-0.115,0-0.188,0.094-0.22c0.586-0.22,1.328-0.303,1.944-0.303c1.453,0,2.101,0.659,2.101,1.881v3.136
		C92.674-217.626,92.611-217.512,92.477-217.449z M90.438-219.77c-0.46,0-1.191,0.063-1.191,0.899c0,0.596,0.439,0.805,1.107,0.805
		c0.199,0,0.722-0.021,1.088-0.167v-1.537H90.438z"/>
	<path d="M95.027-217.198h-0.764c-0.156,0-0.23-0.042-0.23-0.209v-5.08c0-0.157,0.074-0.199,0.23-0.199h0.764
		c0.167,0,0.229,0.031,0.229,0.199v1.86h2.3v-1.86c0-0.157,0.073-0.199,0.23-0.199h0.763c0.178,0,0.22,0.031,0.22,0.199v5.08
		c0,0.178-0.042,0.209-0.22,0.209h-0.763c-0.157,0-0.23-0.042-0.23-0.209v-2.227h-2.3v2.227
		C95.257-217.229,95.194-217.198,95.027-217.198z"/>
	<path d="M100.734-219.728l0.355-2.394c0.053-0.387,0.251-0.564,0.722-0.564h2.624c0.512,0,0.596,0.22,0.596,0.585v3.941
		l0.324,0.031c0.281,0.031,0.324,0.188,0.324,0.387l-0.137,2.028c0,0.094-0.041,0.146-0.136,0.146h-0.763
		c-0.084,0-0.125-0.052-0.137-0.146l-0.052-1.485h-3.7c-0.031,0.492-0.063,0.993-0.094,1.485c-0.012,0.094-0.053,0.146-0.146,0.146
		h-0.742c-0.084,0-0.126-0.042-0.126-0.136l-0.126-2.028c0-0.209,0.043-0.376,0.335-0.408l0.304-0.032
		C100.516-218.525,100.631-218.965,100.734-219.728z M102.146-221.651l-0.199,1.579c-0.167,1.254-0.303,1.6-0.502,1.913h2.362
		v-3.492H102.146z"/>
	<path d="M110.959-217.449c-0.617,0.282-1.464,0.366-2.133,0.366c-1.851,0-2.342-0.794-2.342-1.746c0-0.972,0.606-1.871,2.279-1.871
		h1.17v-0.178c0-0.533-0.188-0.919-1.076-0.919c-0.471,0-1.108,0.094-1.453,0.209c-0.156,0.042-0.209,0.021-0.24-0.104l-0.146-0.596
		c-0.031-0.115,0-0.188,0.094-0.22c0.586-0.22,1.328-0.303,1.945-0.303c1.452,0,2.101,0.659,2.101,1.881v3.136
		C111.157-217.626,111.094-217.512,110.959-217.449z M108.92-219.77c-0.459,0-1.191,0.063-1.191,0.899
		c0,0.596,0.439,0.805,1.107,0.805c0.199,0,0.722-0.021,1.088-0.167v-1.537H108.92z"/>
	<path d="M113.541-215.076h-0.826c-0.136,0-0.198-0.021-0.198-0.178v-6.899c0-0.125,0.031-0.178,0.167-0.251
		c0.701-0.303,1.506-0.397,2.206-0.397c1.808,0,2.54,1.255,2.54,2.854c0,1.558-0.805,2.854-2.446,2.854
		c-0.376,0-0.753-0.032-1.243-0.146v1.986C113.74-215.097,113.697-215.076,113.541-215.076z M114.712-221.756
		c-0.282,0-0.722,0.063-0.972,0.146v3.324c0.428,0.115,0.742,0.146,1.023,0.146c0.805,0,1.4-0.46,1.4-1.819
		C116.164-221.285,115.611-221.756,114.712-221.756z"/>
	<path d="M120.953-217.407c0,0.178-0.053,0.209-0.221,0.209h-0.752c-0.168,0-0.23-0.042-0.23-0.209v-4.265h-1.536
		c-0.167,0-0.21-0.073-0.21-0.209v-0.575c0-0.157,0.032-0.23,0.21-0.23h4.327c0.178,0,0.209,0.073,0.209,0.23v0.575
		c0,0.136-0.041,0.209-0.209,0.209h-1.588V-217.407z"/>
	<path d="M124.528-217.198h-0.763c-0.157,0-0.23-0.042-0.23-0.209v-5.08c0-0.157,0.073-0.199,0.23-0.199h0.763
		c0.167,0,0.229,0.031,0.229,0.199v1.86h2.3v-1.86c0-0.157,0.073-0.199,0.229-0.199h0.764c0.178,0,0.22,0.031,0.22,0.199v5.08
		c0,0.178-0.042,0.209-0.22,0.209h-0.764c-0.156,0-0.229-0.042-0.229-0.209v-2.227h-2.3v2.227
		C124.758-217.229,124.695-217.198,124.528-217.198z"/>
	<path d="M131.93-217.083c-1.684,0-2.51-0.983-2.51-2.854c0-1.829,1.046-2.875,2.541-2.875c1.662,0,2.529,1.077,2.529,2.843
		C134.49-218.118,133.633-217.083,131.93-217.083z M131.981-221.787c-0.899,0-1.327,0.784-1.327,1.819
		c0,1.16,0.324,1.861,1.285,1.861c0.973,0,1.307-0.868,1.307-1.83C133.246-220.94,132.985-221.787,131.981-221.787z"/>
	<path d="M135.829-222.686h0.825c0.157,0,0.199,0.01,0.199,0.167v3.596h0.041l0.648-1.045c0.168-0.25,0.324-0.512,1.484-2.373
		c0.178-0.262,0.262-0.345,0.596-0.345H140c0.324,0,0.522,0.136,0.522,0.502v4.819c0,0.157-0.053,0.167-0.188,0.167h-0.836
		c-0.136,0-0.188-0.01-0.188-0.167v-3.533h-0.063l-0.627,1.003l-1.517,2.352c-0.177,0.282-0.303,0.345-0.596,0.345h-0.355
		c-0.344,0-0.512-0.167-0.512-0.501v-4.819C135.641-222.676,135.693-222.686,135.829-222.686z M136.227-224.39
		c-0.031-0.042-0.084-0.104,0.031-0.219l0.293-0.272c0.125-0.115,0.135-0.052,0.25,0.031c0.429,0.45,0.879,0.711,1.286,0.711
		c0.345,0,0.616-0.146,1.296-0.742c0.126-0.115,0.157-0.073,0.23-0.021l0.292,0.251c0.136,0.115,0.084,0.178,0.042,0.23
		c-0.637,0.826-1.285,1.192-1.912,1.192C137.281-223.229,136.645-223.773,136.227-224.39z"/>
	<path d="M149.293-219.623l-0.679,1.432c-0.126,0.262-0.23,0.345-0.522,0.345h-0.355c-0.293,0-0.397-0.083-0.523-0.345l-0.647-1.358
		l-0.522-1.129h-0.053v3.304c0,0.157-0.042,0.177-0.198,0.177h-0.774c-0.135,0-0.208-0.021-0.208-0.177v-4.809
		c0-0.282,0.156-0.502,0.532-0.502h0.481c0.282,0,0.418,0.042,0.575,0.366l0.909,1.903l0.585,1.296h0.042l0.659-1.421l0.846-1.756
		c0.157-0.303,0.282-0.387,0.606-0.387h0.45c0.376,0,0.532,0.209,0.532,0.491v4.819c0,0.157-0.052,0.177-0.209,0.177h-0.763
		c-0.157,0-0.209-0.021-0.209-0.177v-3.387h-0.053L149.293-219.623z"/>
	<path d="M156.653-217.449c-0.617,0.282-1.464,0.366-2.133,0.366c-1.851,0-2.342-0.794-2.342-1.746c0-0.972,0.606-1.871,2.279-1.871
		h1.171v-0.178c0-0.533-0.188-0.919-1.077-0.919c-0.47,0-1.108,0.094-1.453,0.209c-0.156,0.042-0.209,0.021-0.24-0.104l-0.146-0.596
		c-0.031-0.115,0-0.188,0.094-0.22c0.586-0.22,1.328-0.303,1.944-0.303c1.454,0,2.102,0.659,2.102,1.881v3.136
		C156.852-217.626,156.789-217.512,156.653-217.449z M154.614-219.77c-0.459,0-1.191,0.063-1.191,0.899
		c0,0.596,0.439,0.805,1.108,0.805c0.198,0,0.721-0.021,1.087-0.167v-1.537H154.614z"/>
	<path d="M160.584-217.407c0,0.178-0.053,0.209-0.22,0.209h-0.752c-0.168,0-0.23-0.042-0.23-0.209v-4.265h-1.536
		c-0.168,0-0.21-0.073-0.21-0.209v-0.575c0-0.157,0.032-0.23,0.21-0.23h4.327c0.178,0,0.209,0.073,0.209,0.23v0.575
		c0,0.136-0.042,0.209-0.209,0.209h-1.589V-217.407z"/>
	<path d="M167.504-220.501c0,0.721-0.365,0.92-0.836,0.92h-2.78c0.031,1.087,0.658,1.453,1.464,1.453
		c0.448,0,0.898-0.125,1.223-0.282c0.115-0.052,0.188-0.031,0.229,0.063l0.282,0.596c0.053,0.115,0.021,0.188-0.073,0.24
		c-0.533,0.324-1.191,0.429-1.767,0.429c-1.683,0-2.603-0.868-2.603-2.833c0-1.84,1.045-2.896,2.498-2.896
		C166.741-222.812,167.504-221.934,167.504-220.501z M163.929-220.459h2.405c0-0.742-0.23-1.338-1.171-1.338
		C164.431-221.797,163.961-221.16,163.929-220.459z"/>
	<path d="M173.107-219.623l-0.68,1.432c-0.125,0.262-0.229,0.345-0.522,0.345h-0.355c-0.293,0-0.397-0.083-0.522-0.345l-0.648-1.358
		l-0.522-1.129h-0.053v3.304c0,0.157-0.041,0.177-0.198,0.177h-0.773c-0.136,0-0.209-0.021-0.209-0.177v-4.809
		c0-0.282,0.157-0.502,0.533-0.502h0.48c0.282,0,0.418,0.042,0.575,0.366l0.909,1.903l0.586,1.296h0.041l0.659-1.421l0.847-1.756
		c0.156-0.303,0.282-0.387,0.606-0.387h0.449c0.376,0,0.533,0.209,0.533,0.491v4.819c0,0.157-0.052,0.177-0.209,0.177h-0.763
		c-0.157,0-0.21-0.021-0.21-0.177v-3.387h-0.052L173.107-219.623z"/>
	<path d="M180.467-217.449c-0.616,0.282-1.463,0.366-2.132,0.366c-1.851,0-2.342-0.794-2.342-1.746c0-0.972,0.606-1.871,2.279-1.871
		h1.171v-0.178c0-0.533-0.188-0.919-1.077-0.919c-0.471,0-1.108,0.094-1.453,0.209c-0.156,0.042-0.209,0.021-0.24-0.104
		l-0.146-0.596c-0.031-0.115,0-0.188,0.094-0.22c0.586-0.22,1.328-0.303,1.944-0.303c1.453,0,2.102,0.659,2.102,1.881v3.136
		C180.666-217.626,180.603-217.512,180.467-217.449z M178.429-219.77c-0.46,0-1.191,0.063-1.191,0.899
		c0,0.596,0.439,0.805,1.108,0.805c0.198,0,0.721-0.021,1.087-0.167v-1.537H178.429z"/>
	<path d="M184.398-217.407c0,0.178-0.053,0.209-0.22,0.209h-0.753c-0.167,0-0.229-0.042-0.229-0.209v-4.265h-1.537
		c-0.167,0-0.209-0.073-0.209-0.209v-0.575c0-0.157,0.031-0.23,0.209-0.23h4.328c0.178,0,0.209,0.073,0.209,0.23v0.575
		c0,0.136-0.042,0.209-0.209,0.209h-1.589V-217.407z"/>
	<path d="M187.169-222.686h0.825c0.157,0,0.199,0.01,0.199,0.167v3.596h0.041l0.648-1.045c0.168-0.25,0.324-0.512,1.484-2.373
		c0.178-0.262,0.262-0.345,0.596-0.345h0.377c0.323,0,0.522,0.136,0.522,0.502v4.819c0,0.157-0.053,0.167-0.188,0.167h-0.836
		c-0.136,0-0.188-0.01-0.188-0.167v-3.533h-0.063l-0.627,1.003l-1.516,2.352c-0.178,0.282-0.304,0.345-0.597,0.345h-0.354
		c-0.346,0-0.513-0.167-0.513-0.501v-4.819C186.98-222.676,187.033-222.686,187.169-222.686z"/>
	<path d="M194.235-217.198h-0.836c-0.126,0-0.188-0.01-0.188-0.167v-5.154c0-0.157,0.063-0.167,0.188-0.167h0.836
		c0.136,0,0.188,0.01,0.188,0.167v1.913h0.658c0.387,0,0.742-0.104,0.941-0.721l0.387-1.223c0.031-0.125,0.104-0.136,0.178-0.136
		h0.856c0.136,0,0.136,0.104,0.126,0.178l-0.387,1.37c-0.115,0.428-0.324,0.794-0.711,0.961l-0.011,0.021
		c0.575,0.167,0.731,0.522,0.867,0.961l0.534,1.809c0.01,0.073,0.031,0.188-0.137,0.188h-0.898c-0.053,0-0.146-0.01-0.178-0.125
		l-0.502-1.673c-0.157-0.47-0.533-0.659-0.962-0.659h-0.763v2.29C194.424-217.208,194.371-217.198,194.235-217.198z"/>
	<path d="M199.023-222.686h0.825c0.157,0,0.199,0.01,0.199,0.167v3.596h0.042l0.648-1.045c0.166-0.25,0.323-0.512,1.483-2.373
		c0.178-0.262,0.262-0.345,0.596-0.345h0.377c0.324,0,0.522,0.136,0.522,0.502v4.819c0,0.157-0.053,0.167-0.188,0.167h-0.836
		c-0.136,0-0.188-0.01-0.188-0.167v-3.533h-0.063l-0.627,1.003l-1.516,2.352c-0.178,0.282-0.304,0.345-0.596,0.345h-0.356
		c-0.345,0-0.512-0.167-0.512-0.501v-4.819C198.835-222.676,198.888-222.686,199.023-222.686z"/>
	<path d="M210.303-217.083c-1.683,0-2.509-0.983-2.509-2.854c0-1.829,1.046-2.875,2.54-2.875c1.662,0,2.53,1.077,2.53,2.843
		C212.864-218.118,212.007-217.083,210.303-217.083z M210.355-221.787c-0.899,0-1.328,0.784-1.328,1.819
		c0,1.16,0.324,1.861,1.286,1.861c0.973,0,1.307-0.868,1.307-1.83C211.62-220.94,211.359-221.787,210.355-221.787z"/>
	<path d="M216.388-217.407c0,0.178-0.053,0.209-0.22,0.209h-0.753c-0.167,0-0.229-0.042-0.229-0.209v-4.265h-1.537
		c-0.167,0-0.209-0.073-0.209-0.209v-0.575c0-0.157,0.031-0.23,0.209-0.23h4.328c0.178,0,0.209,0.073,0.209,0.23v0.575
		c0,0.136-0.042,0.209-0.209,0.209h-1.589V-217.407z"/>
	<path d="M224.301-217.062c-0.889,0-1.808-0.146-2.509-0.732c-0.073-0.073-0.094-0.146-0.042-0.22l0.419-0.637
		c0.073-0.104,0.178-0.115,0.313-0.021c0.512,0.345,1.118,0.501,1.746,0.501c1.014,0,1.62-0.512,1.62-1.317
		c0-0.794-0.628-1.15-1.328-1.15c-0.711,0-1.024,0.178-1.558,0.397c-0.178,0.074-0.345,0.074-0.522,0.011l-0.24-0.083
		c-0.24-0.083-0.345-0.22-0.313-0.543l0.261-2.655c0.053-0.492,0.346-0.711,0.711-0.711h3.544c0.167,0,0.198,0.042,0.198,0.209
		v0.648c0,0.157-0.041,0.209-0.198,0.209h-3.115l-0.188,1.725c0.502-0.209,1.057-0.251,1.548-0.251c1.38,0,2.436,0.836,2.436,2.143
		C227.082-217.982,225.942-217.062,224.301-217.062z"/>
	<path d="M231.881-219.728l0.355-2.394c0.052-0.387,0.25-0.564,0.721-0.564h2.624c0.512,0,0.596,0.22,0.596,0.585v3.941l0.324,0.031
		c0.282,0.031,0.324,0.188,0.324,0.387l-0.137,2.028c0,0.094-0.042,0.146-0.136,0.146h-0.763c-0.084,0-0.125-0.052-0.136-0.146
		l-0.053-1.485h-3.7c-0.031,0.492-0.063,0.993-0.094,1.485c-0.011,0.094-0.053,0.146-0.146,0.146h-0.742
		c-0.084,0-0.126-0.042-0.126-0.136l-0.125-2.028c0-0.209,0.041-0.376,0.334-0.408l0.304-0.032
		C231.661-218.525,231.776-218.965,231.881-219.728z M233.292-221.651l-0.199,1.579c-0.167,1.254-0.303,1.6-0.502,1.913h2.362
		v-3.492H233.292z"/>
	<path d="M240.139-217.083c-1.683,0-2.509-0.983-2.509-2.854c0-1.829,1.046-2.875,2.54-2.875c1.662,0,2.53,1.077,2.53,2.843
		C242.7-218.118,241.843-217.083,240.139-217.083z M240.191-221.787c-0.899,0-1.328,0.784-1.328,1.819
		c0,1.16,0.324,1.861,1.286,1.861c0.973,0,1.307-0.868,1.307-1.83C241.456-220.94,241.195-221.787,240.191-221.787z"/>
	<path d="M249.172-224.369c1.892,0,2.916,1.244,2.916,3.293c0,2.237-0.993,3.993-3.449,3.993c-0.387,0-0.931-0.042-1.297-0.199
		c-0.115-0.042-0.167-0.073-0.115-0.24l0.209-0.669c0.021-0.115,0.095-0.156,0.23-0.115c0.198,0.073,0.638,0.157,0.962,0.157
		c1.223,0,1.934-0.752,2.132-1.892c-0.449,0.157-1.098,0.251-1.631,0.251c-1.39,0-2.654-0.648-2.654-2.185
		C246.475-223.627,247.781-224.369,249.172-224.369z M249.066-220.836c0.628,0,1.14-0.073,1.767-0.251
		c0.032-0.178,0.021-0.25,0.021-0.334c0-1.118-0.784-1.902-1.693-1.902c-0.753,0-1.443,0.46-1.443,1.275
		C247.718-221.337,248.23-220.836,249.066-220.836z"/>
	<path d="M255.621-224.369c1.893,0,2.917,1.244,2.917,3.293c0,2.237-0.993,3.993-3.45,3.993c-0.387,0-0.93-0.042-1.296-0.199
		c-0.115-0.042-0.167-0.073-0.115-0.24l0.209-0.669c0.021-0.115,0.095-0.156,0.23-0.115c0.198,0.073,0.638,0.157,0.961,0.157
		c1.224,0,1.935-0.752,2.133-1.892c-0.449,0.157-1.098,0.251-1.631,0.251c-1.39,0-2.655-0.648-2.655-2.185
		C252.924-223.627,254.231-224.369,255.621-224.369z M255.517-220.836c0.628,0,1.14-0.073,1.767-0.251
		c0.031-0.178,0.021-0.25,0.021-0.334c0-1.118-0.784-1.902-1.693-1.902c-0.753,0-1.443,0.46-1.443,1.275
		C254.168-221.337,254.681-220.836,255.517-220.836z"/>
</g>
<g>
	<g>
		<path fill="#BDBCBC" d="M152.677-292.238c-0.756,0-1.462,0.018-2.124,0.047c0.191,0.564,0.601,1.027,1.128,1.289
			c0.301,0.149,0.638,0.235,0.996,0.235c0.357,0,0.695-0.086,0.995-0.235c0.527-0.262,0.938-0.724,1.128-1.289
			C154.138-292.22,153.432-292.238,152.677-292.238z"/>
	</g>
	<g>
		<path fill="#BDBCBC" d="M163.547-292.412L163.547-292.412c-4.647-6.071-1.147-15.401-8.854-16.721
			c-0.035-1.083-0.925-1.954-2.016-1.954c-1.092,0-1.981,0.871-2.017,1.954c-7.707,1.319-4.206,10.65-8.854,16.721l0,0
			c-0.223,0.25-0.349,0.532-0.349,0.847c0,2.835,10.071,2.917,11.22,2.917s11.219-0.082,11.219-2.917
			C163.896-291.88,163.771-292.161,163.547-292.412z M152.677-310.188c0.557,0,1.017,0.41,1.104,0.943
			c-0.349-0.029-0.715-0.045-1.104-0.045c-0.39,0-0.755,0.017-1.104,0.045C151.659-309.779,152.119-310.188,152.677-310.188z
			 M152.677-289.994c-5.813,0-9.335-0.976-9.843-1.57c0.508-0.594,4.03-1.571,9.843-1.571c5.812,0,9.335,0.977,9.842,1.571
			C162.012-290.97,158.488-289.994,152.677-289.994z"/>
	</g>
</g>
<g>
	<path fill="#AAAAA9" d="M24.839-242.273l0.853,0.886c0,0,2.511-1.461,3.283-5.429c0.188-0.964,0.482-2.031,2.301-3.162
		c0,0,2.352,5.285,11.407,4.374c0,0-2.002-0.916-2.033-2.518c0,0,3.618,1.341,6.124,0.242c0,0-1.083-0.838-1.043-1.559
		c0,0,3.968-0.254,4.785-1.583l-1.476-0.605c0,0,2.886-1.439,3.769-3.449c0,0-2.78,0.386-5.578-1.589c0,0,3.43-2.268,4.271-5.638
		c0,0-1.226,0.416-2.062-0.096c0,0,2.618-2.013,2.841-4.015l-1.839,0.884c0,0,2.003-6.087,3.495-6.797c0,0-5.311,2.832-5.623,3.533
		l-0.03-1.601c0,0-2.868,3.454-3.401,3.349c0,0-0.798-2.273-0.446-3c0,0-2.81,5.961-6.352,5.641c0,0-2.503-4.69-2.252-5.958
		c0,0-1.399,4.438-3.344,5.855c-1.945,1.418-2.586,4.655-1.615,6.233c0,0-1.318-1.751-2.272-2.01c0,0-1.618,7.18,2.26,9.657
		c0,0-2.106,1.121-2.893,4.397C27.181-242.953,24.911-242.64,24.839-242.273z"/>
</g>
</svg>
