<svg width="10" height="6" viewBox="0 0 10 6" fill="none" xmlns="http://www.w3.org/2000/svg">
<path d="M4.99978 2.84004L7.28978 0.540041V0.580041C7.47808 0.391737 7.73348 0.28595 7.99978 0.28595C8.26608 0.28595 8.52147 0.391737 8.70978 0.580041C8.89808 0.768345 9.00387 1.02374 9.00387 1.29004C9.00387 1.55634 8.89808 1.81174 8.70978 2.00004L5.70978 5.00004C5.61681 5.09377 5.50621 5.16816 5.38435 5.21893C5.2625 5.2697 5.13179 5.29584 4.99978 5.29584C4.86777 5.29584 4.73706 5.2697 4.6152 5.21893C4.49334 5.16816 4.38274 5.09377 4.28978 5.00004L1.28978 2.00004C1.09617 1.81174 0.985294 1.55424 0.981544 1.28418C0.977793 1.01413 1.08147 0.75365 1.26978 0.560042C1.45808 0.366434 1.71558 0.255558 1.98564 0.251807C2.25569 0.248057 2.51617 0.351737 2.70978 0.540041L4.99978 2.84004Z" fill="black"/>
</svg>
