<svg width="88" height="64" viewBox="0 0 88 64" fill="none" xmlns="http://www.w3.org/2000/svg">
<path d="M17.4282 24.3562C18.4461 24.0971 19.464 23.8381 20.4819 23.579C22.5176 23.0607 24.299 23.0608 26.3347 22.8017C26.8437 22.8017 27.0981 22.5425 27.3526 22.2834C28.116 21.247 28.8794 20.4696 29.6429 19.4332C30.1518 18.6559 30.6608 17.8785 30.6608 16.8421C30.6608 15.5466 30.4063 14.5101 29.6429 13.4737C29.1339 12.9555 28.3705 12.9555 27.6071 13.4737C27.3526 13.7328 27.0981 13.9919 27.3526 14.5101C27.3526 14.7692 27.3526 14.7693 27.6071 15.0284C28.1161 16.0648 27.8616 16.583 27.0981 17.3603C26.5892 18.1377 25.8258 18.3968 24.8079 18.6559H24.5534C23.281 18.1377 22.5176 17.1012 22.7721 15.8057C23.281 13.2146 24.5534 11.4008 27.0981 10.3644C29.3884 9.32793 31.6786 10.8826 32.1876 12.6963C32.4421 13.7328 32.6965 15.0284 32.4421 16.0648C32.4421 17.6195 32.1876 18.915 31.9331 20.4696C31.9331 20.7287 31.9331 20.7288 31.9331 20.9879C32.1876 21.5061 32.4421 21.7652 32.6966 22.2834C32.6966 22.5425 32.951 22.5425 33.2055 22.5425C35.7502 22.2834 38.5494 22.2834 41.0941 22.0243C41.3486 22.0243 41.6031 22.0243 41.6031 21.5061C41.8576 20.4697 41.6031 19.4332 41.3486 18.3968C40.8397 15.8057 40.0763 13.2146 39.3128 10.6235C39.0584 10.1053 39.0584 10.1053 38.5494 10.3644C38.0405 10.6235 37.5315 10.8826 37.277 11.1417C37.0226 11.1417 36.7681 11.4009 36.7681 11.1417C36.5136 10.8826 36.7681 10.8826 36.7681 10.6235C36.7681 9.58706 37.2771 9.06885 37.5315 8.29153C37.786 7.25509 38.0405 6.47775 38.0405 5.44131C38.0405 4.40487 38.295 3.3684 38.295 2.33197C38.295 1.81375 38.295 1.03647 38.295 0.51825C38.295 0.259141 38.2949 0 38.5494 0C38.8039 0 39.0584 0.259141 39.0584 0.51825C39.8218 6.21865 41.0941 11.6599 43.1299 17.1012C43.6389 18.6559 44.1478 20.2105 44.6568 21.7652C44.6568 22.0243 44.9113 22.2834 45.4202 22.2834C46.6926 22.2834 48.2194 22.0243 49.4917 22.0243C49.7462 22.0243 50.0007 22.0243 49.7462 21.5061C49.2373 19.6923 48.9828 17.6194 48.9828 15.8057C48.9828 15.0283 48.9828 14.5102 48.7283 13.7328C48.7283 12.9555 48.9828 12.4373 49.7462 12.1782C50.7641 11.6599 51.782 11.6599 52.7999 11.919C54.8357 12.4373 56.617 11.919 58.3983 10.6235C58.6528 10.3644 59.1617 10.1053 59.4162 9.8462C60.1796 9.58709 60.4341 9.58704 60.943 10.3644C61.452 11.1417 61.452 11.66 60.943 12.4373C60.943 12.6964 60.6886 12.6963 60.6886 12.6963C59.6707 13.4737 58.6528 13.9919 57.3804 14.251C56.1081 14.5101 54.8357 14.7693 53.5633 15.0284C52.7999 15.2875 52.0365 15.2875 51.273 15.0284C51.0186 15.0284 51.0186 15.0283 51.0186 15.2874C51.5275 17.1012 51.782 18.915 52.0365 20.7287C52.2909 20.7287 52.2909 20.4696 52.5454 20.4696C55.3446 17.6194 59.6707 18.3968 61.1975 22.0243C61.452 22.5425 61.7064 22.5425 62.2154 22.8017C64.5056 23.0608 66.5414 23.579 68.8317 23.8381C69.0862 23.8381 69.3406 23.8381 69.3406 23.579C69.5951 22.8016 70.104 22.0243 70.613 21.5061C72.1398 20.2106 73.9212 18.915 75.9569 18.6559C77.2293 18.3968 78.5017 18.6559 79.774 18.915C80.0285 18.915 80.283 19.1741 80.5374 19.1741C81.8098 19.4332 82.3187 20.4696 82.5732 21.7652C83.0822 23.5789 82.5732 25.1336 81.5553 26.4292L81.3008 26.6883C82.3187 26.9474 83.3366 27.4656 84.1001 27.9838C85.3724 28.5021 85.6269 29.5384 86.1359 30.834C86.1359 31.0931 86.1358 31.3522 85.8814 31.6114C85.6269 31.8705 85.6269 32.1295 85.8814 32.3886C86.6448 33.4251 87.4082 34.7206 87.4082 36.0162C87.6627 37.3117 87.4082 38.3482 86.3903 39.3846C85.6269 40.162 85.3724 40.9393 84.8635 41.9757C83.5911 44.3077 82.0643 46.6397 80.283 48.7126C78.7561 50.5263 76.7204 52.3401 74.6846 53.6356C71.6309 55.7085 68.3227 57.7813 64.7601 59.336C62.7243 60.1133 60.6886 60.8907 58.6528 61.668C58.3983 61.668 58.1438 61.668 57.8894 61.9271H57.6349C56.617 61.668 55.8536 62.1862 54.8357 62.4453C50.2552 63.4818 45.6746 64 41.0941 64C36.7681 64 32.6965 62.9635 28.3705 61.9271C23.0266 60.6315 17.9371 58.0405 13.3566 54.9312C11.3208 53.3765 9.79398 51.5628 8.01267 49.749C5.72242 47.1579 3.43218 44.3077 1.90534 41.1983C1.39639 40.1619 0.887449 39.3846 0.632976 38.3482C0.378504 36.5344 0.378488 34.7207 1.65085 33.166C2.41427 32.3887 2.92322 31.6113 3.68664 30.834C3.94112 30.5749 4.45006 30.3158 4.95901 30.0567C8.01268 28.502 11.0664 27.4656 14.12 26.4292C14.3745 26.4292 14.629 25.911 14.629 25.3927C14.3745 24.8745 14.12 25.1336 13.8656 25.1336C12.5932 25.6518 11.3208 25.3927 10.303 24.3562C10.0485 24.0971 9.794 23.8381 9.53952 23.8381C9.28505 23.579 9.03057 23.579 8.7761 23.579C8.01268 23.8381 7.75821 24.0972 8.26716 24.8745C8.52163 25.1336 8.77612 25.6518 8.52165 25.9109C8.26718 26.4291 7.75823 26.6883 7.24928 26.6883C6.23139 26.6883 5.46794 26.1701 5.46794 25.1336C5.46794 23.0607 5.72244 22.5425 7.75822 22.2834C9.53953 21.7652 11.0664 22.0243 12.5932 23.3198C12.8477 23.5789 13.1021 23.5789 13.3566 23.3198C14.12 23.0607 14.629 22.5425 15.1379 22.2834C15.9013 21.7652 16.4103 20.9879 17.1737 20.9879C17.6827 20.7288 17.6826 20.9879 17.6826 21.247C17.4282 22.5425 17.1737 23.8381 16.6648 25.1336C17.4282 24.0972 17.4282 24.3562 17.4282 24.3562ZM78.5017 25.6518C77.9927 25.3927 77.2293 25.3927 76.7203 25.1336C76.2114 24.8745 75.7025 25.1336 75.1935 25.3927C73.4122 26.4292 70.613 25.911 69.3406 24.0972C69.0862 23.8381 69.0862 23.8381 68.8317 23.8381C66.5414 23.579 64.5056 23.0608 62.2154 22.8017C61.7064 22.8017 61.7065 22.8016 61.9609 23.0607C62.2154 23.838 62.2154 24.6154 62.2154 25.1336C62.2154 27.7247 60.1796 31.0931 57.1259 31.6114C56.3625 31.8705 55.3446 31.8705 54.5812 31.8705C53.0544 31.8705 52.0365 31.3522 50.7641 30.3158C50.0007 29.7976 50.0007 28.502 50.2552 27.7247C50.5096 26.9474 51.2731 26.9473 52.0365 26.9473C52.7999 26.9473 53.8178 27.2065 54.5812 27.4656C56.108 27.9838 56.8715 27.4656 57.3804 25.9109C57.6349 25.3927 57.6349 24.8745 57.6349 24.3562C57.6349 23.5789 57.6349 22.8016 57.1259 22.0243C57.1259 21.7652 56.8715 21.7652 56.617 21.5061C55.5991 21.247 54.8357 21.247 54.3268 22.2834C54.3268 22.5425 54.0723 22.5425 53.8178 22.8017C53.5633 23.0608 53.0544 23.3198 52.5454 23.579C51.782 23.8381 51.0186 23.5789 50.5097 23.0607C50.2552 22.8016 50.0007 22.2834 49.7462 21.7652C49.7462 21.506 49.4918 21.5061 49.2373 21.5061C47.7105 21.5061 46.4381 21.7652 44.9112 21.7652C44.6568 21.7652 44.6568 21.7652 44.6568 22.0243C44.6568 22.0243 44.6568 22.2834 44.9112 22.2834C45.1657 22.8016 44.9112 23.3198 44.4023 23.3198C43.1299 23.5789 42.1121 23.579 40.8397 24.0972C40.5852 24.0972 40.3307 24.0972 40.3307 23.8381C40.3307 23.579 40.0763 23.3199 40.3307 22.8017C40.5852 22.5425 40.5852 22.2834 40.5852 22.0243C40.8397 21.7652 40.5852 21.5061 40.3307 21.5061C38.0405 21.7652 35.7502 21.7652 33.46 22.0243C32.951 22.0243 32.951 22.0243 33.2055 22.5425C34.2234 25.3927 33.7145 28.2429 31.4242 30.3158C29.8974 31.6114 28.116 32.3886 26.0803 32.3886C24.2989 32.3886 23.5355 31.8704 23.281 30.0567C23.0266 29.2794 23.2811 28.502 23.79 27.7247C24.299 26.9474 25.3168 26.6883 26.0803 26.6883C26.8437 26.6883 27.0981 27.4656 27.3526 27.9838C27.6071 28.2429 27.6071 28.7612 27.8616 29.0203C28.116 29.2794 28.116 29.2794 28.3705 29.2794C28.8794 29.0203 29.3884 29.0202 29.8973 28.7611C31.1697 28.2429 31.9331 27.2064 31.6786 25.6518C31.6786 25.3927 31.6786 25.1336 31.6786 25.1336C31.4242 23.579 30.4063 22.5425 28.8795 22.5425C28.1161 22.5425 27.0982 22.8017 26.3347 22.8017H26.0803C26.0803 22.2834 25.8258 22.5425 25.5713 22.5425C25.3168 22.5425 25.0624 22.5425 25.0624 22.5425C22.5177 22.8016 19.9729 23.3199 17.4282 23.8381C17.1737 23.8381 16.9192 24.0971 16.9192 24.3562C16.9192 24.8745 16.6648 25.3927 16.4103 25.9109C16.4103 26.17 16.4103 26.4292 16.6648 26.4292C18.1916 26.6883 19.464 26.9474 20.9908 27.2065C20.7363 27.9838 19.9729 28.2429 19.4639 28.502C18.7005 28.7611 17.9371 28.502 17.1737 28.502C15.9013 28.502 15.6469 28.7611 15.1379 30.0567C14.8834 31.0931 14.629 31.8705 14.3745 32.9069C14.3745 33.166 14.12 33.4251 13.8656 33.6842C13.6111 33.9433 13.1021 33.9433 12.5932 33.9433C12.0842 33.6842 12.3387 33.4251 12.3387 33.166C12.3387 32.6478 12.5932 32.1296 12.5932 31.6114C12.8477 31.0931 13.1021 30.3158 13.1021 29.7976C13.1021 29.0202 13.1022 28.7611 12.3387 28.7611C11.8298 28.7611 11.5753 28.7611 11.0664 28.7611C10.8119 28.7611 10.8119 28.7611 10.5574 28.502C10.3029 27.9838 10.8119 27.4656 11.3208 27.2065C12.0842 26.9474 12.5932 26.9474 13.3566 26.6883C14.3745 26.4292 14.629 25.6518 14.8835 24.6154C14.629 24.6154 14.629 24.6154 14.629 24.6154C11.8298 25.6518 8.77612 26.6883 5.97692 27.9838C4.19561 28.7612 2.92323 30.3158 1.90534 32.1295C1.39639 32.9069 1.39639 33.9433 1.90534 34.9797C2.15981 35.498 2.66876 36.0162 3.1777 36.5344C4.1956 37.3117 5.21349 37.83 6.48586 38.3482C9.03059 39.3846 11.8298 40.162 14.629 40.6802C20.4819 41.9757 26.0803 42.753 31.9331 43.2713C35.2413 43.5304 38.5494 43.7894 41.8576 43.7894C45.4202 43.7894 48.7283 43.7894 52.291 43.7894C57.8894 43.5303 63.4878 43.5303 68.8317 42.4939C71.8854 41.9757 75.1935 41.1984 78.2472 40.421C80.283 39.6437 82.5732 38.8664 84.3545 37.5708C84.8635 37.3117 85.3724 36.7935 85.3724 36.0162C85.3724 35.7571 85.6269 35.498 85.8814 35.498C86.1358 35.498 86.1359 35.498 86.1359 35.2389C86.3903 34.4615 86.3903 33.6842 86.1359 32.9069C85.8814 31.8705 85.3724 30.834 84.609 30.0567C84.1001 29.5385 84.1001 29.2794 84.609 28.7611V28.502C84.3545 27.7247 84.1001 26.9474 83.3366 26.6883C82.3187 26.1701 81.5553 25.911 80.5374 25.3927C80.0285 25.1336 79.774 25.3927 79.5195 25.6518C77.7382 27.2064 75.9569 29.0202 73.4122 29.7976C72.9033 30.0567 72.6488 30.3158 72.6488 30.834C72.6488 31.0931 72.6488 31.3522 73.1577 31.3522C74.6846 31.3522 75.9569 31.8704 76.7203 33.4251C76.7203 33.6842 76.9748 33.6842 77.2293 33.6842C77.9927 33.6842 78.5017 33.166 79.0106 32.6478C79.5196 32.1296 79.774 31.6113 80.283 31.3522C81.0464 30.834 81.0464 30.834 81.3008 31.6114C81.8098 33.6842 80.7919 35.2389 78.7561 35.7571C77.7382 36.0162 76.7203 36.0162 75.448 35.7571C74.939 35.7571 74.6846 35.498 74.6846 34.9797C74.6846 34.7206 74.4301 34.2024 74.4301 33.9433C74.1756 33.6842 73.9211 33.4251 73.6667 33.4251C73.1577 33.4251 72.6488 33.6842 72.3943 33.9433C71.8854 34.4615 71.3764 34.9798 71.1219 35.498C70.613 36.0162 70.3585 36.2753 69.5951 36.5344C69.0862 36.5344 68.8317 36.5344 68.8317 36.0162C68.8317 35.7571 68.5772 35.498 68.5772 35.2389C67.8138 32.6478 68.3227 30.3158 70.3585 28.2429C71.1219 27.4656 72.1398 26.9474 73.1577 26.4292C74.939 26.9474 76.7204 26.4291 78.5017 25.6518ZM14.8835 42.753C15.1379 43.7895 15.3924 44.5668 16.1558 45.085C16.4103 45.085 16.4103 45.3441 16.6648 45.6032C17.1737 46.6397 17.9371 47.417 18.7006 48.1943C19.464 48.9717 20.2274 50.0081 20.7363 51.0445C21.2453 52.081 21.4997 53.3765 20.9908 54.6721C20.7363 55.1903 20.7363 55.7085 20.4819 56.2267C20.4819 56.4858 20.4818 56.7449 20.7363 57.004C23.0266 58.2996 25.3168 59.0769 27.8616 59.5951C28.116 59.5951 28.116 59.5951 28.3705 59.336C28.8794 58.0404 28.8794 57.004 28.3705 55.7085C27.8616 54.4129 27.0982 53.1174 26.3347 51.8218C25.5713 51.0445 25.0624 50.2672 24.299 49.2307C23.2811 47.6761 22.2632 46.1214 22.2632 44.0486C22.2632 43.7895 22.2631 43.7894 22.0087 43.7894C19.7184 43.5303 17.1737 43.2712 14.8835 42.753ZM38.8039 45.6032C38.8039 45.6032 38.5494 45.6032 38.8039 45.6032C36.5136 45.3441 34.7323 45.3441 32.6966 45.085C32.1876 45.085 32.1876 45.085 32.1876 45.6032C32.1876 47.1579 32.951 48.7126 33.9689 50.0081C34.7323 50.7854 35.4957 51.5628 36.0047 52.3401C37.786 54.413 39.0584 56.7449 39.3128 59.5951C39.3128 60.3724 39.3128 60.8907 38.8039 61.4089C38.5494 61.668 38.8039 61.668 39.0584 61.668C39.8218 61.668 40.5852 61.668 41.6031 61.9271C42.3665 61.9271 42.8754 61.9271 43.6389 61.9271C42.8754 60.3724 42.8755 59.5951 44.1478 58.2996C44.4023 58.0405 44.4023 58.0405 44.6568 57.7814C44.9113 57.5223 44.9112 57.2631 44.9112 56.7449C44.9112 55.4493 44.1478 54.6721 43.1299 53.8948C42.112 53.1174 41.3486 52.5991 40.5852 51.5627C38.8039 50.0081 37.5315 48.1943 38.8039 45.6032ZM60.4341 45.6032C60.4341 45.6032 60.4341 45.3441 60.4341 45.6032C57.8894 45.6032 55.3446 45.8624 53.0544 45.8624C52.7999 45.8624 52.7999 45.8624 52.7999 46.1215C52.7999 47.1579 53.0544 48.1943 53.5633 48.9716C54.3267 50.2672 55.3446 51.5628 56.3625 52.3401C58.3983 54.1539 59.1617 56.4859 59.1617 59.0769C59.1617 59.3361 59.1617 59.336 59.4162 59.336C60.943 58.8178 62.2154 58.2996 63.7422 57.7814C63.9967 57.7814 64.2512 57.5223 64.5057 57.5223C63.7422 56.7449 63.7422 56.2267 64.2512 55.1903C64.2512 54.9312 64.5057 54.672 64.5057 54.4129C65.0146 53.6356 65.0146 53.3765 64.2512 52.5992C63.9967 52.3401 63.7422 52.0809 63.4878 51.8218C62.9788 51.5627 62.4699 51.3036 62.2154 51.0445C60.6885 50.0081 60.1796 48.7125 60.1796 46.8988C60.1796 46.3806 60.4341 45.8623 60.4341 45.6032ZM47.2015 61.9271C47.456 61.9271 47.9649 61.9271 48.4739 61.668C48.7283 61.668 48.7283 61.668 48.7283 61.4089C48.7283 60.8907 48.7283 60.6316 48.9828 60.3725C49.2373 60.1134 49.4917 59.5951 49.4917 59.336C50.0007 56.4858 49.2373 53.8947 47.2015 51.8218C46.6926 51.3036 45.9291 50.7854 45.4202 50.0081C44.4023 48.9717 44.4023 47.6761 44.6568 46.3805C44.6568 46.1214 44.6568 45.8624 44.4023 45.8624C43.1299 45.8624 42.1121 45.8624 40.8397 45.8624C40.5852 45.8624 40.5852 45.8624 40.5852 46.1215C40.5852 46.3806 40.5852 46.6397 40.5852 46.8988C40.3307 47.417 40.3307 48.1944 40.5852 48.7126C41.0941 49.749 41.6031 50.5263 42.3665 51.3037C43.1299 51.8219 43.6389 52.34 44.4023 52.8583C45.4202 53.6356 45.9291 54.4129 46.4381 55.4493C46.947 57.004 46.947 58.2996 45.6747 59.5951C45.4202 59.8542 45.4202 59.8543 45.1657 60.1134C44.9112 60.3725 44.9112 60.6315 45.1657 60.8907C45.4202 61.1498 45.6747 61.4089 45.4202 61.9271C45.4202 62.1862 45.4202 62.1862 45.6747 62.1862C45.9291 61.9271 46.4381 61.9271 47.2015 61.9271ZM66.0325 56.7449C66.0325 56.7449 66.2869 56.7449 66.0325 56.7449C68.0683 55.9676 69.8496 54.9312 71.3764 53.8948C71.8854 53.6357 71.8853 53.3765 71.6309 52.8583C71.3764 52.0809 70.8675 51.5628 70.1041 51.0445C69.3406 50.2672 68.8317 49.4899 68.3228 48.4534C67.8138 47.417 67.5593 46.1215 67.8138 44.8259C67.8138 44.5668 67.8138 44.5668 67.5593 44.5668C67.0504 44.5668 66.5414 44.5668 66.0325 44.8259C64.7601 45.085 63.7422 45.085 62.4699 45.085C62.2154 45.085 61.9609 45.085 62.2154 45.3441C62.2154 45.8623 62.2154 46.1214 61.9609 46.3805C61.7065 46.6396 61.7064 47.1579 61.7064 47.6761C61.9609 48.4534 62.2154 48.9717 62.9788 49.4899C63.4878 49.749 63.7422 50.0081 64.2512 50.2672C65.0146 50.7854 65.778 51.5628 66.287 52.3401C66.7959 53.3765 66.7959 54.1539 66.287 55.1903C66.0325 55.7085 65.778 56.2267 66.0325 56.7449ZM84.8635 39.9028C84.609 39.9028 84.609 39.9028 84.8635 39.9028C83.3367 40.6801 82.0643 41.1984 80.7919 41.7166C77.9927 42.753 75.448 43.2712 72.6488 43.7894C72.3943 43.7894 72.3943 43.7895 72.3943 44.0486C72.3943 44.5668 72.1398 45.3441 72.3943 45.8624C72.9032 46.6397 73.1577 47.417 73.9212 47.9352C74.6846 48.4534 75.1935 49.2308 75.448 50.0081C75.448 50.2672 75.7025 50.7854 75.7025 51.0445C77.9927 50.0081 83.5911 43.2712 84.8635 39.9028ZM8.7761 41.1983C8.7761 41.7166 8.77612 42.2348 8.52165 42.4939C8.26718 42.753 8.26718 42.753 8.52165 43.0121C9.03059 43.2713 9.53952 43.7895 9.53952 44.5668C9.53952 45.3441 9.79401 46.1214 9.79401 46.6397C9.79401 47.1579 9.79398 47.417 9.28504 47.6761C9.03056 47.9352 9.03056 47.9352 9.28504 48.1943C10.8119 49.749 12.0842 51.3037 13.8656 52.5992C14.8834 53.3765 15.9013 53.8947 16.9192 54.6721C16.9192 54.1538 16.9192 53.3765 17.1737 52.8583C17.4282 52.34 17.4282 51.5628 17.1737 51.0445C16.9192 50.5263 16.6648 50.0081 16.1558 49.2307C15.3924 47.9352 14.3745 47.1579 13.3566 46.1215C12.3387 45.085 11.8298 43.7895 12.0843 42.2348C12.0843 41.9757 12.0842 41.9757 11.8298 41.9757C10.8119 41.7166 9.79399 41.4575 8.7761 41.1983ZM76.4659 20.7287C75.448 20.7287 74.6845 20.9878 74.1756 21.7652C73.9211 22.2834 73.9211 22.2834 74.4301 22.5425C74.6846 22.8016 75.1935 22.8016 75.448 23.0607C76.2114 23.3198 76.4659 23.579 76.4659 24.0972C76.4659 24.3563 76.4659 24.3563 76.7203 24.6154C77.4837 24.8745 78.2472 24.8745 79.0106 25.1336C79.2651 25.1336 79.2651 25.1336 79.5195 24.8745C80.0285 23.579 79.774 21.7652 78.5017 20.7287C78.5017 20.7287 78.2472 20.4696 78.2472 20.7287C77.7382 20.7287 76.9748 20.7287 76.4659 20.7287ZM2.15983 37.5708C2.66877 39.3846 6.48586 45.3442 7.75822 46.1215C7.75822 45.8624 7.75822 45.6032 7.75822 45.6032C7.75822 45.085 7.50376 44.8259 7.24928 44.3077C6.99481 44.0486 6.74033 43.7895 6.48586 43.2713C5.97691 42.2348 6.23139 41.1984 7.24928 40.6802C7.24928 40.6802 7.50373 40.6802 7.50373 40.421C6.48584 40.1619 5.72245 39.6437 4.70456 39.1255C3.68667 38.8664 2.92325 38.3482 2.15983 37.5708Z" fill="black"/>
<path d="M69.8496 8.03271C70.3585 8.03271 70.613 8.29181 70.3585 9.06914C69.3406 11.142 68.0683 13.2149 67.0504 15.5469C66.5415 16.3242 66.287 17.1015 65.778 17.8788C65.5236 18.1379 65.5236 18.3971 65.5236 18.9153C65.5236 19.1744 65.5235 19.4335 65.2691 19.4335C65.0146 19.4335 64.5057 19.4335 64.5057 19.1744C64.2512 18.9153 64.5057 18.6562 64.5057 18.6562C65.2691 17.1016 66.0325 15.2878 66.7959 13.7331C67.5593 11.9194 68.5772 10.3647 69.5951 8.81001C69.3407 8.03268 69.5951 8.03271 69.8496 8.03271Z" fill="black"/>
<path d="M69.0865 14.5103C70.1044 14.5103 70.6133 15.0285 70.6133 15.8058C70.6133 17.1013 69.8499 17.8786 69.0865 17.8786C68.3231 17.8786 67.5596 17.1014 67.3052 16.324C67.3052 15.2876 68.0686 14.5103 69.0865 14.5103Z" fill="black"/>
<path d="M65.2691 9.32812C66.287 9.32812 66.7959 9.84634 67.0504 10.6237C67.0504 11.401 66.287 12.1783 65.5235 12.1783C64.7601 12.1783 63.9967 11.6601 63.9967 10.6237C63.7422 10.1055 64.5056 9.32812 65.2691 9.32812Z" fill="black"/>
<path d="M62.9785 15.5465C62.2151 15.5465 61.4517 14.7691 61.7062 13.9918C61.7062 13.7327 61.9607 13.7327 61.9607 13.4736C62.2151 13.4736 62.2151 13.4736 62.4696 13.4736C62.7241 13.7327 62.7241 13.7327 62.4696 13.9918C62.2151 14.2509 62.2151 14.5101 62.724 14.7692C62.9785 15.0283 63.233 15.0283 63.4875 14.5101C63.4875 14.2509 63.7419 14.2509 63.9964 14.2509C64.2509 14.2509 64.2509 14.5101 64.2509 14.7692C64.2509 15.0283 63.742 15.5465 62.9785 15.5465Z" fill="black"/>
<path d="M57.8893 43.0119C56.3624 43.0119 55.0901 43.012 53.8177 41.9755C52.5453 40.9391 51.7819 38.8662 52.7998 37.3115C53.0543 36.7933 53.5632 36.5342 54.0722 36.016C55.599 34.9795 57.1259 34.4614 58.6527 34.2023C59.6706 33.9431 60.6885 33.684 61.7064 33.684C62.4698 33.4249 62.9787 32.9067 62.7242 32.1293C62.7242 30.8338 62.7243 29.5382 63.2332 28.2427C63.7422 27.2063 64.2511 26.4289 65.5235 25.9107C66.0324 25.6516 67.5592 25.9108 68.0682 26.429C68.5771 26.9472 68.8316 29.02 68.3227 29.5382C68.3227 29.7973 68.0682 30.0565 67.8137 30.0565C66.7958 31.352 65.5235 32.6475 64.2511 33.4249C63.7421 33.684 63.4877 34.2022 63.7422 34.7204C63.7422 36.016 63.9966 37.3115 63.4877 38.6071C62.9787 41.1982 61.7064 42.4937 59.1616 42.7528C58.9072 43.0119 58.3982 43.0119 57.8893 43.0119ZM57.6348 37.8298C57.3803 37.8298 56.8714 37.8298 56.6169 37.8298C55.8535 37.8298 55.3446 38.0888 54.8356 38.6071C54.3267 39.1253 54.3267 39.6435 54.8356 39.9026C55.0901 40.1617 55.599 40.4209 55.8535 40.4209C56.6169 40.68 57.3803 40.68 58.1438 40.68C58.9072 40.68 59.6706 40.4208 60.1795 39.9026C60.6885 39.3844 60.9429 38.8662 60.9429 38.0889C60.9429 37.8298 60.943 37.8298 60.6885 37.8298C59.6706 37.8298 58.6527 37.8298 57.6348 37.8298ZM66.0324 28.7609C66.0324 28.5018 66.0324 28.2427 65.7779 28.2427C65.5235 28.2427 65.5235 28.2427 65.5235 28.5018C65.5235 28.7609 65.269 28.761 65.269 29.0201C65.0145 29.2792 64.76 29.7974 64.76 30.0565C64.76 30.3156 64.76 30.3156 65.0145 30.3156C65.5235 29.7974 65.7779 29.5383 66.0324 28.7609Z" fill="black"/>
<path d="M39.058 26.947C39.8215 27.9835 39.8214 28.7608 39.567 29.7972C39.3125 30.5746 39.3125 31.611 39.058 32.3883C39.058 32.6474 39.058 32.9066 39.058 33.1657C39.058 33.6839 39.3125 33.6839 39.567 33.943C40.3304 34.2021 41.0938 33.6839 41.3483 32.9066C41.6027 32.3884 41.6028 31.8701 41.6028 31.0928C41.6028 30.5746 41.8572 30.0563 42.3661 29.7972C42.8751 29.279 43.384 29.5381 43.6385 30.0564C43.893 30.3155 43.893 30.5746 43.6385 31.0928C43.384 32.6474 42.8751 34.2021 42.6206 36.0158C42.3662 37.0523 42.3661 38.0887 42.3661 39.1252C42.3661 39.3843 42.3662 39.6434 42.1117 39.6434C41.6028 39.9025 41.3483 40.1616 40.8393 40.1616C40.5849 40.1616 40.3304 39.9025 40.3304 39.6434C40.3304 39.1252 40.3304 38.607 40.5848 38.0888C40.8393 37.5705 41.0938 36.7932 40.8393 36.275C40.8393 36.0159 40.5849 35.7568 40.3304 35.7568C39.8215 35.4977 39.058 35.4977 38.5491 35.7568C37.7856 36.0159 37.2767 36.275 36.5133 36.5341C36.2588 36.7932 36.0043 36.5341 36.0043 36.275C35.7499 34.9794 36.0043 33.943 36.2588 32.6475C36.5133 32.1292 36.5133 31.611 36.7678 31.0928C38.0401 29.7972 38.8036 28.5017 39.058 26.947Z" fill="black"/>
<path d="M29.6429 38.6072C30.1519 38.8663 30.4064 39.1255 30.6608 39.3846C31.1698 39.9028 31.1698 40.421 30.4064 40.6801C30.1519 40.9392 29.8974 41.1983 29.3885 41.1983C29.134 41.4574 28.8795 41.4574 28.6251 41.4574C28.3706 41.4574 28.1161 41.1984 28.1161 40.9393C28.1161 40.421 27.8617 40.421 27.6072 40.1619C27.3527 39.9028 26.8437 39.6437 26.5893 39.1255C26.5893 39.1255 26.3348 39.1255 26.0803 39.1255C25.0624 39.1255 24.299 39.1255 23.2811 39.3846C22.7722 39.3846 22.5177 39.6436 22.2632 39.9028C22.0088 40.1619 21.7543 40.1619 21.4998 39.9028C20.9909 39.6436 20.7364 39.1254 20.4819 38.6072C20.4819 38.3481 20.4819 38.3481 20.7364 38.089C21.4998 37.3117 22.2632 37.3117 23.2811 37.3117C23.5356 37.3117 23.7901 37.3117 24.0445 37.3117C24.299 37.3117 24.5535 37.3117 24.299 37.0526C23.7901 36.5344 23.5356 35.757 23.5356 34.9797C23.5356 34.4615 23.7901 34.2024 24.299 34.4615C24.808 34.4615 25.0624 34.4615 25.5714 34.4615C26.0803 34.4615 26.3348 34.7206 26.0803 35.2388C25.8259 35.757 26.0803 36.0161 26.3348 36.2752C27.0982 37.3117 27.0982 37.3117 28.1161 36.7935C28.6251 36.5344 28.8795 36.5343 29.3885 36.0161C29.643 35.757 30.1519 35.7571 30.4064 35.7571C30.6608 35.7571 30.6608 36.0161 30.6608 36.0161C30.9153 36.5343 31.1698 36.7934 31.1698 37.3117C31.4243 37.8299 31.1698 38.089 30.6608 38.089C30.6608 38.089 30.1519 38.089 29.6429 38.6072Z" fill="black"/>
<path d="M49.2372 35.498C49.2372 36.2753 48.7283 37.0527 47.9648 37.0527C47.2014 37.0527 46.438 36.2753 46.438 35.498C46.438 34.7207 46.9469 34.2024 47.7104 34.2024C48.4738 33.9433 49.2372 34.7207 49.2372 35.498Z" fill="black"/>
<path d="M22.2632 54.1539C22.2632 53.1174 23.5355 52.0811 24.5534 52.5993C24.8079 52.5993 24.8079 52.5992 25.0624 52.8583C25.8258 53.1174 26.3347 53.8948 26.0803 54.6721C25.8258 55.4494 25.3169 56.2268 24.299 56.2268C23.2811 55.9677 22.2632 55.1903 22.2632 54.1539Z" fill="black"/>
<path d="M40.8395 54.4128C41.6029 54.4128 42.1118 54.6719 42.3663 55.4493C42.6208 56.2266 42.8752 56.7449 42.3663 57.5222C42.1118 58.0404 41.3484 58.2995 40.8395 58.0404C39.5671 57.7812 39.0582 55.9675 39.8216 54.9311C40.076 54.672 40.3305 54.4128 40.8395 54.4128Z" fill="black"/>
<path d="M59.6709 54.154C59.6709 53.1175 60.1799 52.5994 61.1978 52.5994C62.2156 52.5994 62.7246 53.1175 62.9791 54.154C62.9791 55.4495 62.4701 56.2269 61.7067 56.2269C60.4343 55.9678 59.6709 55.1904 59.6709 54.154Z" fill="black"/>
<path d="M75.1938 46.3804C75.1938 45.3439 75.7028 44.5667 76.7207 44.5667C77.7386 44.5667 78.502 45.344 78.7565 46.1213C78.7565 47.1578 77.993 48.1942 76.9752 48.1942C75.9573 48.1942 75.1938 47.4168 75.1938 46.3804Z" fill="black"/>
<path d="M14.8833 49.2305C14.8833 50.0078 14.3743 50.7851 13.6109 50.7851C12.593 50.7851 11.8296 50.2669 11.8296 49.2305C11.8296 48.4531 12.3385 47.6758 13.102 47.6758C14.1198 47.6758 14.8833 48.194 14.8833 49.2305Z" fill="black"/>
</svg>
