<svg width="72" height="41" viewBox="0 0 72 41" fill="none" xmlns="http://www.w3.org/2000/svg">
<path d="M40.9143 2.08319C40.9143 2.08319 37.7143 1.39846 35.2 3.45267C32.6857 5.50688 32.6857 7.5611 33.1429 9.38706C33.6 11.4413 34.2857 12.3542 31.3143 13.4954C28.3428 14.6367 25.6 13.2672 20.8 16.9191C16 20.571 18.2857 24.223 16.4571 23.7665C14.6286 23.31 9.82857 19.4298 6.62857 22.397C3.2 25.3642 0 31.5268 0 31.5268C0 31.5268 5.25715 28.3314 7.77143 29.0161C10.2857 29.9291 14.8571 28.5597 15.7714 27.8749C16.4571 27.4184 18.5143 26.7336 18.0571 29.2443C17.6 31.755 17.6 34.494 16.2286 34.494C14.8571 34.2658 11.8857 33.8093 12.3429 35.8635C12.8 37.9177 15.3143 35.1787 16.9143 36.0917C18.5143 37.0047 18.9714 41.7978 20.1143 40.8849C21.2571 39.9719 21.2571 38.6024 20.5714 36.7765C19.8857 34.9505 21.4857 35.8635 22.4 36.5482C23.3143 37.2329 23.7714 39.5154 24.6857 38.146C25.6 37.0047 24.9143 36.0917 23.0857 35.407C21.2571 34.7222 20.5714 34.7222 21.0286 34.2658C21.4857 34.0375 26.0571 36.5482 26.5143 35.6352C26.9714 34.494 28.1143 32.8963 24.9143 32.8963C21.7143 32.8963 21.0286 33.581 20.1143 32.8963C19.2 32.2115 20.1143 27.6466 20.5714 26.9619C21.0286 26.2772 24.2286 23.5382 25.6 25.136C27.2 26.7337 30.1714 30.1573 30.6286 31.755C31.0857 33.3528 30.6286 34.9505 29.4857 34.9505C28.3429 34.9505 27.8857 36.3199 28.8 36.0917C29.7143 36.0917 30.1714 36.3199 30.6286 36.0917C31.0857 35.6352 30.8571 35.6352 31.3143 34.9505C31.7714 34.2657 32.2286 33.1245 32.9143 33.8092C33.3714 34.494 36.3429 37.4612 36.5714 36.0917C36.8 34.7222 36.1143 34.494 34.7428 33.581C33.6 32.6681 31.7714 31.755 33.3714 31.755C34.9714 31.755 38.1714 33.1245 38.8571 31.5268C39.5429 29.7008 36.3428 29.4726 34.7428 29.7009C33.1428 29.9291 33.1429 31.0703 32 29.7009C30.8571 28.3314 28.3428 27.1901 29.0286 24.9077C29.7143 22.8535 32.2286 20.3428 33.8286 19.2016C35.4286 18.0603 34.0571 15.7779 34.9714 14.4084C35.8857 13.2672 36.1143 12.126 38.4 12.5825C40.6857 13.039 40.2286 11.213 42.9714 12.8107C45.7143 14.4084 51.8857 16.4626 52.3429 16.0062C52.8 15.5497 47.0857 11.4413 46.1714 9.61532C45.2571 7.78935 45.0286 2.76792 40.9143 2.08319Z" fill="black"/>
<path d="M56.2287 28.7883C56.6858 29.7013 56.0001 30.1577 55.3144 30.386C53.2573 31.5272 50.9715 32.4402 49.3715 34.0379C48.4573 33.8097 48.0001 33.8097 47.543 33.1249C48.2287 31.9837 50.0573 32.212 50.743 30.8425C50.2858 29.7013 50.2858 29.7013 47.543 28.3318C49.6001 25.5928 52.8001 25.5929 55.543 24.4517C54.8573 26.7341 52.343 26.9623 50.9715 28.3318C50.9715 29.0165 51.4287 29.2448 51.8858 29.7013C53.4858 29.7013 54.6287 27.8753 56.2287 28.7883Z" fill="black"/>
<path d="M25.1429 8.93063C25.8286 9.15887 25.8286 9.84361 26.2858 10.0719C27.2001 9.61536 28.1144 9.15889 27.6572 8.01766C27.2001 6.41994 26.0572 6.41996 24.4572 7.10469C24.9144 5.27873 26.9715 3.68098 25.3715 1.85501C24.9144 1.39852 24.6858 1.39852 24.2286 1.85501C23.7715 2.53975 24.6858 2.76801 24.4572 3.2245C24.2286 3.90923 23.7715 4.36574 23.0858 4.59398C21.9429 4.36574 21.7144 3.45277 21.9429 2.53979C22.4001 0.942076 23.5429 -0.199163 24.6858 0.029082C26.2858 0.257327 26.7429 1.39857 26.7429 4.82224C26.9715 5.05049 27.4286 5.50698 27.8858 5.96347C28.5715 7.10469 28.8001 8.24592 28.3429 9.38715C27.8858 10.7566 26.7429 11.4414 25.3715 11.6696C24.4572 11.8978 24.0001 11.4414 23.7715 10.5284C23.5429 9.38715 24.2286 8.93063 25.1429 8.93063Z" fill="black"/>
<path d="M65.1428 18.0604C64.9143 16.691 65.8285 15.778 65.8285 14.6368C65.3714 13.952 64.4571 14.6367 64 14.4085C64 13.952 64 13.7238 64.2285 13.4955C66.7428 12.8108 66.9714 12.8108 67.2 10.0719C66.9714 9.84361 66.7428 9.84361 66.5142 10.0719C65.3714 10.5283 64.6857 10.0719 64 9.38715C63.5428 8.93066 62.8571 8.7024 62.4 9.15889C62.4 9.61538 62.8571 9.84363 62.8571 10.3001C62.6285 10.9849 62.1714 11.2131 61.7142 11.2131C61.2571 11.2131 60.5714 10.7566 60.5714 10.0719C60.5714 9.38712 60.3428 8.47416 61.4857 8.01767C63.0857 7.33293 64.6857 7.33296 66.2857 8.47418C67.6571 8.24594 68.3428 6.64817 69.9428 6.41992C69.7142 8.47413 68.8 10.5284 68.3428 12.5826C69.4857 12.8108 70.6285 13.039 72 13.2673C71.3143 14.4085 70.4 14.1803 69.4857 14.1803C67.6571 14.1803 67.6571 14.1803 67.2 15.778C66.9714 16.2345 66.9714 16.9192 66.7428 17.3757C66.2857 18.0605 65.8285 18.2887 65.1428 18.0604Z" fill="black"/>
</svg>
