<svg width="200" height="139" viewBox="0 0 200 139" fill="none" xmlns="http://www.w3.org/2000/svg">
<path d="M151.593 0C124.872 0 103.185 21.6871 103.185 48.4075C103.185 56.0313 104.962 63.211 108.07 69.5765L99.8545 73.2774L110.957 74.7577C119.617 88.0809 134.569 96.889 151.593 96.889C178.313 96.889 200 75.2018 200 48.4815C200 21.7612 178.313 0 151.593 0Z" fill="#FFCE01"/>
<path d="M121.467 35.9725C121.689 35.9725 121.911 36.4166 122.207 37.3048L122.503 38.3411C122.652 38.7112 122.652 39.0072 122.726 39.0813C122.874 39.3773 122.948 39.6734 123.022 39.9695C123.466 40.9317 123.688 41.4498 123.688 41.4498C123.54 41.4498 124.354 39.9695 125.982 36.9348C126.204 36.5647 126.352 36.3426 126.352 36.3426C126.871 36.0465 127.241 36.1206 127.537 36.5647C127.611 36.6387 127.611 37.3789 127.537 38.8592C127.389 43.8924 127.315 49.8138 127.241 56.6974C127.241 57.2155 126.945 57.5116 126.426 57.5856C126.056 57.7337 125.686 57.5856 125.464 57.2156C125.464 57.1415 125.464 56.3273 125.464 54.773C125.464 49.2957 125.538 44.8546 125.76 41.3758C125.612 41.4498 125.168 42.116 124.502 43.4483C124.206 43.9664 123.984 44.1885 123.836 44.3365C123.762 44.4105 123.614 44.4105 123.466 44.3365C122.874 44.2625 122.429 43.4483 121.985 41.9679C121.837 41.6719 121.763 41.5238 121.689 41.4498C121.689 41.8939 121.689 42.412 121.689 43.0782V44.4105C121.689 45.8909 121.615 47.5933 121.541 49.6658C121.541 50.3319 121.541 51.2941 121.541 52.4784C121.541 53.6627 121.541 54.5509 121.541 55.069C121.467 56.5494 121.245 57.3636 121.023 57.4376C120.579 57.6597 120.283 57.5856 120.135 57.2156C120.061 56.9195 119.987 55.5131 119.913 52.9965C119.913 52.7745 119.913 52.3304 119.839 51.5162C119.839 50.9241 119.839 50.4059 119.839 50.0358C119.913 48.4075 119.987 46.409 120.061 43.9664L120.135 36.5647C120.283 36.0465 120.727 35.8985 121.467 35.9725Z" fill="#231F20"/>
<path d="M135.679 45.0026C135.679 46.409 135.679 47.7413 135.531 48.9996L135.383 50.85C135.309 51.6642 135.235 52.3304 135.235 52.8485C135.161 54.5509 134.939 55.6612 134.494 56.3273C133.976 57.1415 133.384 57.5116 132.718 57.5856C131.386 57.7337 130.498 57.2155 129.831 56.1793C129.461 55.5872 129.239 54.995 129.165 54.5509C129.091 53.8847 129.017 53.3666 129.091 52.9225C129.165 52.1823 129.165 51.0721 129.165 49.5177C129.239 47.7413 129.239 46.557 129.313 45.7428V42.116C129.313 39.7474 129.461 38.267 129.831 37.6009C130.275 36.8607 130.794 36.4166 131.46 36.2686C133.014 35.9725 134.198 36.4166 135.013 37.6009C135.383 38.193 135.531 39.0812 135.531 40.4136L135.679 45.0026ZM133.458 38.6371C133.31 38.4891 133.162 38.3411 132.94 38.193C132.644 38.045 132.348 38.045 132.126 38.193C131.534 38.4151 131.164 39.0072 131.016 39.8954C130.942 40.1915 130.942 41.1537 131.016 42.7081C131.09 43.7443 131.09 45.0767 131.016 46.7791L130.942 50.702C130.942 50.924 130.942 51.5162 130.868 52.4044C130.794 53.0706 130.794 53.5887 130.868 53.9588C131.016 54.995 131.534 55.5131 132.496 55.5871C132.94 55.5871 133.236 55.069 133.31 54.1068C133.31 53.8847 133.384 53.4406 133.384 52.8485C133.384 52.3304 133.458 52.0343 133.458 51.8123C134.05 48.4815 134.198 44.7066 133.828 40.4876C133.828 39.7474 133.68 39.1553 133.458 38.6371Z" fill="#231F20"/>
<path d="M137.307 57.2155C136.789 57.0675 136.641 56.6234 136.789 56.0313C136.937 55.4391 137.307 55.2171 138.047 55.3651H138.343C138.639 55.1431 138.787 53.8848 138.787 51.7382C138.787 50.9981 138.787 50.0358 138.713 48.9996L138.639 47.0751C138.639 46.335 138.639 45.2247 138.639 43.7444L138.491 40.1915C138.491 39.3033 138.491 38.5631 138.491 38.045C137.751 37.897 137.381 37.7489 137.307 37.6009C137.085 36.6387 137.307 36.1946 137.899 36.1946C138.565 36.1205 139.453 36.1946 140.712 36.3426L142.932 36.4906C143.524 36.4906 143.746 37.5269 143.672 39.5994C143.746 40.2655 143.746 41.0797 143.746 42.0419V43.9664C143.746 45.2987 143.894 49.2217 144.117 55.6612C144.191 56.7714 144.117 57.3636 143.82 57.4376C142.932 57.9557 142.34 57.1415 142.192 54.995C142.044 52.8485 141.97 50.0358 142.118 46.483C142.044 42.9302 141.896 40.2655 141.674 38.5631C141.674 38.4151 141.156 38.3411 140.194 38.193V39.9695C140.194 41.3018 140.268 43.3743 140.342 46.0389C140.416 48.9996 140.49 50.9981 140.564 52.0343C140.638 53.7367 140.49 54.921 140.268 55.6612C139.972 56.7714 139.379 57.3636 138.565 57.4376C138.417 57.4376 138.269 57.4376 138.195 57.4376C137.899 57.4376 137.603 57.3636 137.307 57.2155Z" fill="#231F20"/>
<path d="M152.259 45.0026C152.259 46.409 152.259 47.7413 152.111 48.9996L151.963 50.85C151.889 51.6642 151.815 52.3304 151.815 52.8485C151.741 54.5509 151.519 55.6612 151.075 56.3273C150.556 57.1415 149.964 57.5116 149.298 57.5856C147.966 57.7337 147.078 57.2155 146.411 56.1793C146.041 55.5872 145.819 54.995 145.745 54.5509C145.671 53.8847 145.597 53.3666 145.671 52.9225C145.745 52.1823 145.745 51.0721 145.745 49.5177C145.819 47.7413 145.819 46.557 145.893 45.7428V42.116C145.893 39.7474 146.041 38.267 146.411 37.6009C146.856 36.8607 147.374 36.4166 148.04 36.2686C149.594 35.9725 150.778 36.4166 151.593 37.6009C151.963 38.193 152.111 39.0812 152.111 40.4136L152.259 45.0026ZM150.038 38.6371C149.89 38.4891 149.742 38.3411 149.52 38.193C149.224 38.045 148.928 38.045 148.706 38.193C148.114 38.4151 147.744 39.0072 147.596 39.8954C147.522 40.1915 147.522 41.1537 147.596 42.7081C147.67 43.7443 147.67 45.0767 147.596 46.7791L147.522 50.702C147.522 50.924 147.522 51.5162 147.448 52.4044C147.374 53.0706 147.374 53.5887 147.448 53.9588C147.596 54.995 148.114 55.5131 149.076 55.5871C149.52 55.5871 149.816 55.069 149.89 54.1068C149.89 53.8847 149.964 53.4406 149.964 52.8485C149.964 52.3304 150.038 52.0343 150.038 51.8123C150.63 48.4815 150.778 44.7066 150.408 40.4876C150.408 39.7474 150.26 39.1553 150.038 38.6371Z" fill="#231F20"/>
<path d="M155.219 59.214C155.219 60.0282 154.997 60.5463 154.627 60.8424C154.257 61.0644 153.961 61.0644 153.665 60.8424C153.443 60.6203 153.295 60.1762 153.369 59.6581C153.665 57.4376 153.813 56.2533 153.887 56.1793C154.183 55.5131 154.997 55.2171 156.404 55.2911L160.327 55.3651C161.289 55.2911 161.807 55.5872 161.881 56.1793C161.807 57.5116 161.807 58.7699 161.733 60.1022C161.733 60.3243 161.511 60.4723 161.141 60.6203C160.771 60.7684 160.475 60.7684 160.327 60.5463C159.882 59.8062 159.808 58.7699 160.104 57.5856C159.142 57.5116 158.328 57.4376 157.736 57.3636C157.144 57.2896 156.404 57.2896 155.589 57.3636C155.367 57.5856 155.293 58.2518 155.219 59.214ZM160.993 56.2533L159.068 56.4013C158.994 56.1053 158.994 55.8092 158.994 55.3651C158.846 53.5887 158.846 50.628 158.994 46.483C159.142 42.9302 159.142 40.2655 158.994 38.5631C158.994 38.4151 158.624 38.3411 157.81 38.193L157.662 39.9695C157.588 41.3018 157.514 43.3743 157.44 46.0389C157.366 49.5917 157.292 51.8863 157.292 52.9225C157.292 54.4769 156.996 55.5872 156.404 56.1793L154.479 57.3636C154.997 55.5131 155.293 53.8848 155.367 52.6265C155.441 51.8863 155.441 50.9241 155.515 49.8878V47.0751C155.589 46.335 155.589 45.2247 155.663 43.7444L155.811 40.1915C155.885 39.3033 155.885 38.5631 155.959 38.045C155.219 37.897 154.849 37.7489 154.775 37.6009C154.627 36.6387 154.849 36.1946 155.441 36.1946C156.108 36.1205 156.996 36.1946 158.254 36.3426L160.178 36.4906C160.771 36.4906 161.067 37.5269 161.067 39.5994C161.067 40.2655 161.067 41.0797 160.993 42.0419L160.919 43.9664C160.845 45.2987 160.771 48.5555 160.771 53.6627C160.771 53.9588 160.771 54.4769 160.845 55.069C160.993 55.5872 160.993 56.0313 160.993 56.2533Z" fill="#231F20"/>
<path d="M164.916 38.7852C164.916 39.5254 164.99 40.7097 165.138 42.338C165.286 43.9664 165.36 45.1507 165.36 45.9649C166.396 46.187 166.84 46.483 166.692 47.0752C166.618 47.4453 166.248 47.7413 165.508 47.9634C165.582 48.7036 165.656 50.0359 165.804 52.0343C165.878 53.7368 166.026 55.0691 166.174 56.0313C167.358 55.7352 168.394 55.7352 169.135 56.1053C169.357 56.2533 169.357 56.4754 169.209 56.8455C169.061 57.2156 168.912 57.4376 168.69 57.4376C167.432 57.5857 166.1 57.6597 164.841 57.8077C164.249 57.8077 163.953 57.2896 163.953 56.3274C163.657 52.3304 163.361 48.1114 163.139 43.5963C163.139 42.8562 162.991 41.5979 162.843 39.8215C162.695 38.4151 162.991 37.6009 163.657 37.2308C163.805 37.1568 164.916 36.9348 167.136 36.5647C167.654 36.4907 168.024 36.5647 168.32 36.7867C168.542 37.0088 168.616 37.3789 168.394 37.749C168.172 38.1931 167.654 38.4151 166.84 38.4151C165.878 38.4151 165.212 38.5632 164.916 38.7852Z" fill="#231F20"/>
<path d="M176.167 36.1205C176.611 36.1205 176.833 36.1946 176.833 36.4166C177.129 43.6703 177.277 50.3319 177.351 56.4754C177.351 56.9935 177.203 57.3636 176.833 57.5856C176.463 57.7337 175.648 57.7337 174.39 57.7337C173.132 57.7337 172.244 57.7337 171.577 57.6596C171.207 57.6596 170.985 56.9935 170.985 55.5872C170.985 55.1431 170.985 54.5509 170.985 53.6627C171.059 52.7005 171.059 52.1083 171.059 51.7382V40.1915C171.059 38.3411 171.059 37.3788 171.059 37.3048C171.133 37.0088 171.207 36.7867 171.429 36.5647C171.652 36.3426 172.022 36.3426 172.392 36.4166C172.688 36.5647 172.836 37.971 172.762 40.6356C172.762 50.4059 172.762 55.3651 172.91 55.4391C172.91 55.5131 173.28 55.5872 174.094 55.5131C174.834 55.4391 175.278 55.4391 175.278 55.3651C175.426 55.2171 175.426 50.4799 175.278 41.0057C175.204 38.5631 175.204 37.0828 175.352 36.7127C175.574 36.3426 175.871 36.1205 176.167 36.1205ZM175.796 57.6596L175.426 55.5131H176.611C177.573 55.4391 178.091 55.7352 178.165 56.3273C178.091 57.6596 178.091 58.9179 178.017 60.2503C178.017 60.4723 177.795 60.6203 177.425 60.7684C177.055 60.9164 176.759 60.9164 176.611 60.6944C176.167 59.9542 176.093 58.9179 176.389 57.7337C176.241 57.7337 176.019 57.7337 175.796 57.6596Z" fill="#231F20"/>
<path d="M181.051 37.7489C181.051 37.5269 181.199 37.2308 181.421 36.8607C181.643 36.5646 181.865 36.4166 182.161 36.3426H182.457C183.197 36.4166 183.494 36.7867 183.42 37.6009L183.346 40.2655C183.346 41.0057 183.346 41.6719 183.346 42.19C183.346 43.0042 183.346 44.7806 183.346 47.5192C183.346 47.6673 183.346 47.8893 183.42 48.1854L183.568 49.8138L183.938 52.2564C184.012 52.5524 184.012 52.8485 183.938 53.2186C183.864 53.8107 183.494 54.1808 182.901 54.2548C182.383 54.3289 181.939 54.1068 181.569 53.6627C181.421 53.5147 181.421 53.3666 181.421 53.1446C181.347 52.9965 181.347 52.7005 181.347 52.3304C181.421 51.9603 181.347 51.1461 181.199 49.8878C180.903 46.705 180.829 43.7443 181.051 41.0057V37.7489ZM183.346 55.5131C183.716 55.6612 183.864 55.9572 183.938 56.3273C184.012 56.6974 183.864 56.9935 183.494 57.2155C183.123 57.4376 182.753 57.5856 182.383 57.5856C182.087 57.5856 181.865 57.5116 181.569 57.2896C181.347 57.0675 181.273 56.8454 181.199 56.5494C181.199 56.4013 181.199 56.2533 181.273 56.1793C181.569 55.7352 182.013 55.5131 182.753 55.4391L183.346 55.5131Z" fill="#231F20"/>
<path d="M70.6173 138.635C70.3953 138.117 70.1732 137.525 70.0992 137.006C69.285 133.306 69.285 133.306 65.5842 133.75C64.3999 133.898 63.2896 134.046 62.1053 134.194C61.2911 134.268 60.551 134.268 60.4029 133.232C60.2549 132.195 60.921 131.825 61.8093 131.529C64.0298 130.937 66.2503 131.381 68.5449 131.085C68.6189 129.901 67.5826 129.827 66.9905 129.309C66.4724 128.865 65.2881 128.642 65.8802 127.754C66.5464 126.644 67.2866 127.754 67.9527 128.124C68.6189 128.42 68.989 129.235 70.0252 129.161C70.0252 128.865 70.0992 128.568 70.0992 128.272C69.9512 122.351 69.4331 116.43 69.5071 110.508C69.5811 107.844 69.359 104.513 67.4346 103.106C66.1763 102.144 63.5117 104.735 61.4392 105.771C58.7745 107.103 56.1099 108.584 53.5933 110.138C51.5948 111.322 49.8184 111.322 47.7459 110.36C42.4907 107.844 37.0874 105.623 31.7581 103.254C30.4258 102.662 30.0557 102.736 29.3896 104.291C26.873 109.546 27.5391 114.801 28.7234 120.204C29.0195 121.611 29.0935 123.017 29.3156 124.423C29.4636 125.608 29.0195 127.384 31.314 126.718C31.6841 126.644 32.0542 126.866 31.9802 127.236C31.9062 128.198 30.7959 127.976 30.2038 128.642C31.9062 129.679 33.6086 130.715 35.237 131.825C36.0512 132.417 37.4575 133.084 36.5693 134.268C35.7551 135.378 34.7188 134.268 33.9787 133.75C32.4243 132.639 30.9439 131.455 29.3156 130.123C28.6494 131.603 28.7234 132.935 28.5014 134.342C28.4274 135.082 28.2793 135.896 27.2431 135.896C26.4289 135.822 26.2808 135.082 26.1328 134.416C26.1328 134.342 26.1328 134.268 26.1328 134.194C25.6887 132.787 27.021 130.863 25.7627 130.049C24.6525 129.383 22.876 129.975 21.3217 129.975C20.8776 129.975 20.5075 129.975 20.0634 129.901C18.8791 129.679 16.8066 130.345 16.8806 128.494C16.9546 126.792 19.0271 127.384 20.2114 127.236C21.9138 127.088 23.5422 127.384 25.1706 127.754C26.4289 128.05 27.2431 127.828 26.873 126.126C26.0588 122.277 25.5407 118.428 24.7265 114.579C23.7642 110.434 24.4304 106.289 24.3564 102.07C24.3564 100.516 23.8383 99.8496 22.5059 99.3315C15.8444 96.5188 9.25681 93.5581 2.59523 90.7455C0.744791 90.0053 -0.0694021 88.9691 0.00461544 86.8225C0.448721 68.7623 0.892826 50.628 1.1889 32.5677C1.26291 30.1991 2.22514 29.0148 4.37165 28.2007C17.6208 22.8714 30.9439 17.6902 44.2671 12.4349C46.0435 11.7688 47.5979 11.7688 49.3003 12.4349C64.3999 18.1343 79.4995 23.7596 94.673 29.3849C94.673 48.9256 94.673 68.4662 94.673 88.0808C87.1973 91.4116 80.3136 95.7787 73.1339 99.4795C71.8016 100.146 72.0977 101.182 72.0237 102.292C71.5796 110.656 72.9119 118.946 71.7276 127.31C71.3575 129.975 72.0977 131.529 74.9844 131.899C76.1687 132.047 77.3529 132.713 78.4632 133.232C79.2034 133.528 80.3877 133.824 80.0176 134.786C79.6475 135.97 78.4632 135.452 77.649 135.23C75.8726 134.786 74.0962 134.194 72.1717 133.602C72.7639 135.6 72.7639 137.154 72.0977 138.783C71.5796 138.635 71.0614 138.635 70.6173 138.635ZM51.6689 109.028C52.335 108.806 52.5571 108.732 52.7791 108.658C65.6582 101.7 78.6112 94.6684 91.4903 87.7848C93.0447 86.9706 93.1927 85.7863 93.1927 84.306C93.1927 67.578 93.1927 50.924 93.1927 34.1961C93.1927 31.4574 93.1187 31.3834 90.6021 32.4197C78.5372 37.4528 66.4724 42.486 54.3335 47.3712C52.335 48.1854 51.5948 49.2957 51.5948 51.4422C51.6689 69.5765 51.6689 87.7108 51.6689 105.771C51.6689 106.807 51.6689 107.77 51.6689 109.028ZM33.9787 63.9511C33.9787 70.4647 33.9787 76.6821 33.9787 82.8996C33.9787 83.9359 34.7188 84.306 35.459 84.602C39.826 86.4525 44.1931 88.2289 48.4861 90.1533C50.0405 90.8195 50.1145 90.2273 50.1145 88.9691C50.1145 83.1957 50.1145 77.4963 50.1145 71.723C50.1145 70.8348 50.0405 70.1686 49.0042 69.7985C44.1191 67.8741 39.2339 65.9496 33.9787 63.9511ZM32.4983 52.0343C32.4983 49.3697 32.4243 46.705 32.4983 44.0404C32.5723 42.7081 32.0542 41.8939 30.7959 41.3758C26.4289 39.7474 22.0618 38.119 17.7688 36.4166C16.4365 35.8985 15.9924 36.1205 15.9924 37.6009C16.0664 42.9301 15.9924 48.2594 15.9184 53.5887C15.9184 54.773 16.3625 55.4391 17.4728 55.8092C21.9878 57.5116 26.5029 59.288 30.9439 61.1385C32.2022 61.6566 32.5723 61.2865 32.4983 60.0282C32.4243 57.3636 32.4983 54.6989 32.4983 52.0343ZM15.9924 56.8454C15.9924 63.0629 15.9924 68.9103 15.9924 74.7577C15.9924 75.7939 16.3625 76.5341 17.3247 76.9042C21.8398 78.8287 26.3549 80.6791 30.8699 82.6776C32.1282 83.1957 32.4983 82.8996 32.4243 81.5673C32.3503 75.942 32.3503 70.3907 32.4243 64.7653C32.4243 63.6551 31.9802 63.0629 31.018 62.6928C26.2068 60.8424 21.3217 58.9179 15.9924 56.8454ZM33.9787 52.6264C33.9787 55.2911 34.0527 57.9557 33.9787 60.6203C33.9787 61.8046 34.2747 62.4708 35.385 62.9149C39.826 64.6173 44.2671 66.3197 48.6341 68.0961C50.0405 68.6882 50.1885 68.0961 50.1885 66.9118C50.1885 61.4345 50.1885 55.8832 50.1885 50.4059C50.1885 49.3697 49.8924 48.7035 48.7822 48.3334C44.3411 46.705 39.9001 45.0026 35.533 43.2262C34.2007 42.7081 33.9787 43.1522 33.9787 44.3365C33.9787 47.1491 33.9787 49.8878 33.9787 52.6264ZM15.9924 77.7924C15.9924 83.1957 16.0664 88.2289 15.9924 93.2621C15.9924 94.6684 16.7326 95.1125 17.7688 95.5566C21.9138 97.333 25.9848 99.1095 30.0557 100.96C31.7581 101.7 32.4983 101.552 32.4983 99.4795C32.4243 95.1125 32.4983 90.8195 32.4983 86.4525C32.4983 85.4902 32.3503 84.7501 31.314 84.306C26.3549 82.2335 21.3957 80.087 15.9924 77.7924ZM50.1145 100.96C50.1145 98.7394 50.0405 96.4448 50.1145 94.2243C50.1885 92.966 49.7444 92.2258 48.5601 91.7077C44.2671 89.9313 39.9741 88.1549 35.6811 86.2304C34.0527 85.4902 33.9046 86.0824 33.9046 87.4887C33.9787 91.9298 33.9787 96.3708 33.9046 100.738C33.9046 101.996 34.2747 102.736 35.459 103.254C39.826 105.105 44.1931 107.029 48.4861 108.954C49.6704 109.472 50.1145 109.25 50.1145 107.918C50.1145 105.697 50.1145 103.328 50.1145 100.96ZM14.5861 65.9496C14.5861 63.285 14.5121 60.6203 14.5861 57.9557C14.6601 56.6974 14.142 55.9572 12.9577 55.5131C9.99698 54.4029 7.03628 53.2926 4.1496 52.0343C2.52121 51.3681 2.07711 51.8122 2.07711 53.4406C2.07711 58.5478 1.92907 63.6551 1.78104 68.6883C1.78104 69.7985 2.07711 70.3907 3.11335 70.7607C6.44414 72.0931 9.70091 73.4994 13.0317 74.9797C14.29 75.5719 14.6601 75.2758 14.5861 73.9435C14.5121 71.3529 14.5861 68.6142 14.5861 65.9496ZM14.5121 45.0026C14.5121 42.338 14.438 39.6734 14.5121 37.0087C14.5121 35.7504 14.142 35.0103 12.8837 34.5662C10.071 33.5299 7.25833 32.4937 4.51969 31.3094C3.11335 30.7173 2.44719 30.7913 2.44719 32.5677C2.44719 37.7489 2.29916 42.8561 2.22514 48.0374C2.22514 49.1476 2.44719 49.8878 3.63147 50.3319C6.74021 51.5162 9.84895 52.7005 12.8837 53.9588C14.142 54.4769 14.5121 54.1808 14.438 52.9225C14.5121 50.3319 14.5121 47.6673 14.5121 45.0026ZM14.5121 94.0763C14.5121 88.599 14.5121 83.5658 14.5121 78.4586C14.5121 77.4223 14.0679 76.9782 13.1797 76.6081C9.84895 75.2018 6.59218 73.8695 3.3354 72.3891C1.85505 71.723 1.633 72.3151 1.633 73.5734C1.55898 78.0145 1.48497 82.3815 1.33693 86.8225C1.33693 87.8588 1.633 88.5249 2.66925 88.9691C6.51816 90.5974 10.2931 92.2998 14.5121 94.0763ZM17.2507 34.7142C22.802 36.7867 27.8352 38.7111 32.8684 40.6356C33.8306 41.0057 34.7188 40.7096 35.533 40.2655C38.5678 38.8592 41.5285 37.3788 44.5632 36.0465C45.3033 35.6764 45.9695 35.1583 46.0435 34.4921C46.1175 33.678 45.1553 33.6039 44.5632 33.3819C41.3064 31.9755 37.9016 30.7173 34.6448 29.3109C33.3865 28.7928 32.3503 28.7928 31.092 29.3109C26.6509 31.0873 22.2099 32.7897 17.2507 34.7142ZM35.7551 41.8199C40.7143 43.7443 45.1553 45.3727 49.5223 47.0751C50.4106 47.4452 51.1507 47.1491 51.8909 46.8531C55.3697 45.4467 58.7745 43.9664 62.2534 42.5601C62.7715 42.338 63.5857 42.338 63.5117 41.5978C63.4376 40.8577 62.6235 40.9317 62.1793 40.7096C58.6265 39.1553 54.9996 37.6749 51.3728 36.1946C50.1145 35.6764 48.7822 35.6764 47.5239 36.2686C43.675 37.971 39.9741 39.8214 35.7551 41.8199ZM79.6475 35.2323C77.723 34.4921 76.3907 34.1961 75.1324 33.5299C71.5056 31.6795 67.5826 30.6432 63.7337 29.3109C63.2896 29.1629 62.6975 29.1629 62.2534 29.3849C58.6265 31.0133 55.0737 32.7157 51.0767 34.5662C55.8138 36.5646 60.1809 38.4151 64.5479 40.1915C65.5842 40.6356 66.7684 40.6356 67.7307 40.2655C71.6536 38.7111 75.3545 37.0828 79.6475 35.2323ZM35.6811 27.6085C35.6811 27.8306 35.6071 28.1266 35.6811 28.1266C39.9741 29.9031 44.2671 31.6795 48.5601 33.4559C48.8562 33.6039 49.2263 33.678 49.5223 33.6039C53.2232 31.9015 56.9241 30.1991 61.2171 28.2747C56.406 26.5723 52.335 25.1659 48.264 23.7596C47.3758 23.3895 46.5616 23.3895 45.5994 23.7596C42.2686 25.0919 38.9378 26.2762 35.6811 27.6085ZM64.918 28.0526C70.9134 30.1251 76.3167 31.9755 81.72 33.9C82.4602 34.1961 82.9783 33.9 83.5704 33.6039C85.5689 32.7897 87.5674 31.9756 89.5658 31.0873C90.084 30.8653 91.0462 30.9393 91.1202 30.0511C91.1942 29.0889 90.158 29.2369 89.6399 29.0149C85.1988 27.3124 80.7578 25.6841 76.3167 24.0557C75.3545 23.6856 74.3922 23.5376 73.43 23.9817C70.8394 25.314 68.1748 26.5723 64.918 28.0526ZM4.44567 29.681C10.219 32.0496 15.5483 35.5284 21.8398 31.3834C23.3942 30.3472 25.3926 30.0511 27.1691 29.2369C27.8352 28.9408 28.9455 29.0889 29.0195 27.9046C29.0935 26.7203 27.9832 26.7203 27.3171 26.4242C25.9108 25.7581 24.4304 25.1659 22.9501 24.4998C21.1736 23.6856 19.3972 23.6116 17.6208 24.3517C13.3278 26.1282 9.03475 27.8306 4.44567 29.681ZM72.7639 22.7974C68.6189 21.243 65.14 19.9847 61.6612 18.6524C60.921 18.3563 60.1809 18.1343 59.5147 18.3563C56.1839 19.6146 52.9272 20.8729 49.0782 22.4273C53.8894 24.1297 58.0344 25.61 62.2534 27.0904C62.7715 27.2384 63.2156 27.2384 63.6597 27.0164C66.4724 25.6841 69.285 24.4258 72.7639 22.7974ZM22.2099 22.7234C25.8367 24.2037 28.9455 25.536 32.0542 26.7943C32.5723 27.0164 33.2385 26.9424 33.7566 26.7943C37.2354 25.462 40.7143 24.0557 44.1191 22.7234C37.8276 19.2445 31.3881 17.4681 24.7265 21.7611C24.2083 22.0572 23.3942 22.2052 22.2099 22.7234ZM57.9603 17.3201C54.7036 16.0618 51.8909 15.0255 49.1523 13.9893C48.6341 13.7672 48.3381 13.6932 47.894 14.4334C47.0798 15.6177 45.6734 15.9137 44.4151 14.7295C44.0451 14.3594 43.749 14.2854 43.3789 14.4334C40.7883 15.3956 38.2717 16.3579 35.459 17.4681C46.0435 21.9832 46.0435 21.9832 56.1839 17.9862C56.628 17.9122 56.9981 17.7642 57.9603 17.3201Z" fill="#0C0E0F"/>
<path d="M51.6687 109.028C51.6687 107.77 51.6687 106.807 51.6687 105.845C51.6687 87.7108 51.6687 69.5765 51.5947 51.5162C51.5947 49.3697 52.2609 48.2594 54.3334 47.4452C66.4722 42.5601 78.5371 37.4528 90.602 32.4937C93.1186 31.4574 93.1926 31.4574 93.1926 34.2701C93.1926 50.9981 93.1926 67.652 93.1926 84.38C93.1926 85.8603 93.0445 87.0446 91.4902 87.8588C78.5371 94.8164 65.6581 101.774 52.779 108.732C52.557 108.732 52.2609 108.806 51.6687 109.028ZM78.3891 58.9919C77.5749 58.6219 76.9827 58.3258 76.3906 58.1778C74.6882 57.7337 72.9858 57.4376 74.5402 54.995C74.9843 54.3288 74.6142 53.2186 73.5039 53.0705C72.6897 52.9965 72.0976 53.5887 72.0236 54.4029C71.9495 55.069 72.0236 55.7352 72.0976 56.4013C72.3937 57.9557 71.1354 59.214 69.1369 59.362C67.3605 59.4361 67.2864 58.3998 67.7305 57.0675C67.9526 56.4754 67.5825 55.8832 66.9164 55.8092C66.1022 55.7352 65.6581 56.1053 65.584 56.9195C65.436 58.1037 65.8061 59.066 66.6203 59.8802C67.3605 60.6203 67.5085 61.2865 66.6943 61.9526C65.9541 62.6188 65.584 64.0992 64.1777 63.507C63.2895 63.1369 62.3273 62.6188 62.8454 61.2125C63.1415 60.4723 62.6233 59.8802 61.9572 59.5841C61.365 59.288 60.7729 59.5101 60.4028 60.0282C59.8847 60.6944 60.1067 61.2865 60.4768 61.8786C61.069 62.9889 61.9572 63.9511 62.9934 64.6173C63.8076 65.1354 64.3257 65.5795 63.6596 66.6158C63.1415 67.4299 62.4753 68.2441 61.4391 67.726C60.6989 67.3559 59.1445 67.652 59.7367 65.9496C60.1067 64.9874 59.5886 64.3212 58.7744 63.9511C58.2563 63.7291 57.5901 63.7291 57.146 64.2472C56.5539 64.9874 56.7019 65.8756 57.146 66.6158C58.0343 67.8741 59.2926 68.7623 60.7729 69.0583C61.8832 69.2804 62.1052 69.7245 61.5131 70.7607C60.8469 72.019 60.3288 73.3513 59.8107 74.6837C59.2185 76.09 60.1067 76.8302 61.217 76.3861C63.5115 75.5719 65.362 77.2743 67.5085 76.9042C67.9526 76.8302 68.1747 77.2743 68.1006 77.7924C68.0266 78.4586 67.8046 79.2728 68.8408 79.2728C69.729 79.2728 69.729 78.3845 69.8771 77.7924C70.0251 77.2003 70.3212 76.6821 70.9873 76.6081C71.5795 76.5341 71.9495 76.8302 72.0236 77.4223C72.0976 78.0145 71.9495 79.0507 72.8378 78.9767C74.022 78.9027 73.5039 77.8664 73.5039 77.2003C73.5779 76.238 73.948 75.5719 74.7622 75.2018C75.8725 74.7577 75.6504 75.8679 75.9465 76.312C76.3906 76.8302 76.8347 77.0522 77.4268 76.6821C77.871 76.3861 78.019 75.942 77.6489 75.4238C76.6127 74.0915 77.5009 73.1293 78.3891 72.1671C79.4253 70.9828 80.6096 69.8725 81.6458 68.6882C82.6821 67.43 83.9404 67.1339 85.4207 67.504C86.0129 67.652 86.7531 68.3182 87.1972 67.578C87.7153 66.7638 86.8271 66.2457 86.383 65.6535C85.0507 63.9511 83.2002 62.6928 81.7199 61.1385C80.9057 60.3243 78.9812 59.288 81.3498 57.7337C82.0899 57.2895 81.8679 56.1053 81.0537 55.5871C80.2395 55.069 79.4993 55.4391 78.8332 56.1053C78.3151 56.9935 78.7592 57.9557 78.3891 58.9919ZM76.6867 84.454C76.6867 83.7878 76.9087 83.0476 75.9465 82.8996C75.1323 82.8256 75.1323 83.4917 75.0583 84.0839C74.9843 84.676 75.5024 85.6383 74.6882 85.7863C73.652 86.0083 73.726 84.9721 73.5039 84.3059C73.2819 83.7878 72.9118 83.1957 72.2456 83.4918C71.5795 83.7878 71.7275 84.454 71.9495 84.9721C72.4677 86.3784 73.3559 87.5627 74.9843 87.3407C76.6867 87.3407 76.6127 85.7863 76.6867 84.454Z" fill="#33B8CD"/>
<path d="M33.9785 63.9512C39.1597 65.9496 44.1189 67.9481 49.0781 69.7986C50.1143 70.1686 50.1884 70.8348 50.1884 71.723C50.1884 77.4964 50.1884 83.1957 50.1884 88.9691C50.1884 90.2274 50.0403 90.8936 48.56 90.1534C44.267 88.2289 39.8999 86.3785 35.5329 84.6021C34.7187 84.232 34.0525 83.9359 34.0525 82.8997C33.9785 76.6822 33.9785 70.4647 33.9785 63.9512Z" fill="#7ECFE4"/>
<path d="M32.4989 52.0343C32.4989 54.6989 32.4249 57.3636 32.4989 60.0282C32.4989 61.2865 32.2028 61.6566 30.9445 61.1385C26.5035 59.288 21.9884 57.5856 17.4733 55.8092C16.4371 55.3651 15.9189 54.773 15.9189 53.5887C15.993 48.2594 15.993 42.9302 15.993 37.6009C15.993 36.1205 16.4371 35.8985 17.7694 36.4166C22.1364 38.119 26.4294 39.8214 30.7965 41.3758C32.1288 41.8939 32.5729 42.6341 32.4989 44.0404C32.4249 46.7051 32.4989 49.3697 32.4989 52.0343Z" fill="#9A84BC"/>
<path d="M15.9922 56.8455C21.3214 58.918 26.2066 60.8424 31.0918 62.7669C32.054 63.137 32.4981 63.7291 32.4981 64.8394C32.4241 70.4647 32.4241 76.016 32.4981 81.6413C32.4981 82.9737 32.202 83.2697 30.9437 82.7516C26.4287 80.7531 21.9136 78.9027 17.3985 76.9782C16.4363 76.6081 16.0662 75.868 16.0662 74.8317C15.9922 68.9103 15.9922 63.0629 15.9922 56.8455ZM22.4317 64.1732C21.6915 64.3212 21.3955 64.6173 21.5435 65.0614C21.9136 66.1717 22.1356 67.356 23.468 67.726C23.838 67.8001 24.3562 67.43 24.1341 66.9859C23.616 65.9496 22.9498 65.0614 22.4317 64.1732ZM22.6538 75.1278C21.9136 74.6097 22.1356 73.1293 20.8033 73.1293C20.3592 73.1293 20.2852 73.7955 20.4332 74.1656C20.7293 74.9798 20.8033 76.09 21.9876 76.09C22.5057 76.09 22.7278 75.794 22.6538 75.1278ZM28.5012 75.6459C27.909 75.1278 28.2051 73.7955 26.9468 73.5734C26.4287 73.4994 26.3546 74.0915 26.4287 74.4616C26.5767 75.4239 26.7987 76.4601 27.983 76.6822C28.4271 76.8302 28.5012 76.3121 28.5012 75.6459ZM28.5012 65.3575C27.761 65.5055 27.687 65.9496 27.761 66.4677C27.983 67.2079 27.983 68.2442 29.0193 68.3182C29.5374 68.3182 29.6114 67.8001 29.5374 67.356C29.3894 66.6158 29.3894 65.7276 28.5012 65.3575Z" fill="#33B7CB"/>
<path d="M33.9788 52.6265C33.9788 49.8878 33.9788 47.1492 33.9788 44.3365C33.9788 43.1522 34.2009 42.6341 35.5332 43.2263C39.9002 45.0027 44.3413 46.7051 48.7823 48.3335C49.8186 48.7036 50.1887 49.3697 50.1887 50.406C50.1887 55.8833 50.1887 61.4346 50.1887 66.9119C50.1887 68.0961 50.0406 68.6143 48.6343 68.0961C44.2673 66.3197 39.8262 64.6173 35.3851 62.9149C34.2749 62.4708 33.9048 61.8047 33.9788 60.6204C34.0528 57.9557 33.9788 55.2911 33.9788 52.6265ZM43.009 49.8138C42.8609 49.1477 42.4168 48.7036 41.9727 49.1477C40.9365 50.1099 40.4924 51.4422 40.0483 52.7745C39.9742 52.9226 40.1963 53.2926 40.3443 53.3667C40.6404 53.5887 41.0105 53.5147 41.2325 53.2186C41.8987 52.1084 42.4168 50.9241 43.009 49.8138ZM46.8579 51.7383C46.9319 51.2942 46.7098 50.9241 46.3397 50.9981C45.0074 51.1461 44.5633 52.3304 44.0452 53.3667C43.8232 53.7367 44.1192 54.3289 44.5633 54.2549C45.8216 53.7367 46.1917 52.5525 46.8579 51.7383ZM43.4531 59.3621C43.4531 58.844 43.157 58.4739 42.7129 58.5479C41.8247 58.844 41.2325 59.5101 40.7884 60.3243C40.5664 60.7684 41.0105 61.2125 41.3806 61.1385C42.4908 61.0645 43.009 60.1763 43.4531 59.3621Z" fill="#4B7DBE"/>
<path d="M15.9924 77.7924C21.3957 80.087 26.3548 82.2335 31.314 84.306C32.3503 84.7501 32.4983 85.4902 32.4983 86.4525C32.4983 90.8195 32.4243 95.1125 32.4983 99.4795C32.4983 101.478 31.7581 101.7 30.0557 100.96C25.9848 99.1095 21.8398 97.333 17.7688 95.5566C16.6586 95.1125 15.9184 94.5944 15.9924 93.2621C16.0664 88.2289 15.9924 83.2697 15.9924 77.7924Z" fill="#CE9CC6"/>
<path d="M50.1141 100.96C50.1141 103.329 50.1141 105.623 50.1141 107.992C50.1141 109.324 49.744 109.62 48.4858 109.028C44.1187 107.103 39.8257 105.179 35.4587 103.329C34.2744 102.81 33.9043 102.07 33.9043 100.812C33.9783 96.3709 33.9783 91.9298 33.9043 87.5628C33.9043 86.1564 34.0523 85.5643 35.6807 86.3045C39.9737 88.2289 44.2668 90.0053 48.5598 91.7818C49.7441 92.2999 50.1141 93.0401 50.1141 94.2984C50.0401 96.4449 50.1141 98.7394 50.1141 100.96ZM37.3091 94.4464C38.0493 93.7062 38.6414 92.744 39.0855 91.6337C39.1595 91.3377 39.0115 90.8936 38.5674 91.0416C37.3831 91.4857 36.791 92.3739 36.4949 93.5582C36.4209 94.0023 36.6429 94.3724 37.3091 94.4464ZM42.9344 100.442C43.8967 99.9977 44.5628 99.1835 44.8589 98.0733C45.0069 97.7032 44.5628 97.4071 44.2668 97.4811C43.0825 97.9252 42.4903 98.8134 42.1202 99.9237C42.1202 100.368 42.5644 100.516 42.9344 100.442ZM40.0478 96.0748C39.9737 96.6669 40.1958 97.1851 40.6399 96.963C41.6021 96.5189 42.2683 95.6307 42.7864 94.7425C43.0825 94.2984 42.5643 93.9283 42.1202 94.0023C41.01 94.2984 40.4178 95.2606 40.0478 96.0748Z" fill="#3D459A"/>
<path d="M14.5863 65.9496C14.5863 68.6142 14.5123 71.2789 14.5863 73.9435C14.5863 75.2758 14.2902 75.4979 13.0319 74.9798C9.77514 73.4994 6.44436 72.1671 3.11357 70.7608C2.15134 70.3166 1.78125 69.7245 1.78125 68.6883C1.92929 63.6551 2.07732 58.5479 2.07732 53.4406C2.07732 51.8123 2.52143 51.3682 4.14981 52.0343C7.0365 53.2926 9.9972 54.4029 12.9579 55.5131C14.1422 55.9572 14.5863 56.6234 14.5863 57.9557C14.5123 60.6204 14.5863 63.285 14.5863 65.9496Z" fill="#C0ABD1"/>
<path d="M14.5117 45.0026C14.5117 47.6673 14.5117 50.3319 14.5117 52.9965C14.5117 54.2548 14.2157 54.6249 12.9574 54.0328C9.92264 52.7745 6.8139 51.5162 3.70516 50.4059C2.52088 49.9618 2.29883 49.2216 2.29883 48.1114C2.44686 42.9302 2.52088 37.8229 2.52088 32.6417C2.52088 30.7913 3.18704 30.7913 4.59337 31.3834C7.33202 32.4937 10.1447 33.6039 12.9574 34.6402C14.2157 35.0843 14.5857 35.8245 14.5857 37.0828C14.5117 39.6734 14.5117 42.338 14.5117 45.0026ZM7.92416 36.7867C7.03595 37.0088 6.8139 37.897 6.36979 38.5631C5.92569 39.3033 5.48158 39.9695 5.92569 40.8577C6.14774 41.3018 6.59185 41.4498 6.88792 40.9317C7.48006 39.8214 7.99818 38.7112 8.5163 37.6009C8.66434 37.2308 8.5163 36.8607 7.92416 36.7867ZM9.47853 48.6295C10.1447 47.9633 10.2927 46.9271 10.5888 46.0389C10.8108 45.5208 10.4408 45.1507 9.99665 45.2247C8.88639 45.4468 8.88639 46.557 8.59032 47.3712C8.44228 47.8893 8.66434 48.3334 9.47853 48.6295ZM10.7368 42.19C11.6991 41.5238 11.8471 40.3395 12.4392 39.3033C12.6613 38.9332 12.3652 38.3411 11.9211 38.4151C10.7368 38.7112 10.5148 39.9695 10.0707 40.9317C9.7746 41.5238 9.99665 41.9679 10.7368 42.19ZM5.5556 44.2625C4.74141 44.5585 4.81542 45.4468 4.66739 46.1129C4.59337 46.483 4.88944 47.0011 5.40756 46.8531C6.29577 46.631 6.22176 45.6688 6.36979 45.0026C6.44381 44.5585 6.14774 44.2625 5.5556 44.2625Z" fill="#90CFC3"/>
<path d="M14.512 94.0763C10.293 92.2259 6.44412 90.5975 2.66923 88.9691C1.707 88.525 1.33691 87.9328 1.33691 86.8226C1.48495 82.3815 1.55897 78.0145 1.63298 73.5734C1.63298 72.3151 1.85504 71.723 3.33539 72.3892C6.59216 73.8695 9.92295 75.2018 13.1797 76.6081C13.9939 76.9782 14.512 77.4964 14.512 78.4586C14.512 83.5658 14.512 88.673 14.512 94.0763ZM12.4395 82.3815C12.3655 81.7894 12.0695 81.4193 11.6254 81.6413C10.6631 82.0855 9.62688 82.4555 9.33081 83.6398C9.25679 83.8619 9.55286 84.306 9.99697 84.1579C10.9592 83.8619 11.8474 83.2697 12.4395 82.3815ZM7.48037 80.161C7.40635 79.5689 7.92447 78.5326 7.03626 78.4586C5.85198 78.3846 6.07404 79.5689 6.00002 80.309C5.926 81.0492 5.77797 82.1595 6.74019 82.1595C7.92447 82.0854 7.1843 80.8272 7.48037 80.161ZM8.36858 88.525C7.77644 88.0809 8.14653 86.7486 7.03626 86.5265C6.37011 86.3785 6.29609 87.0446 6.44412 87.5628C6.66618 88.451 6.66618 89.4132 7.85046 89.5612C8.29456 89.5612 8.4426 89.1171 8.36858 88.525ZM4.59369 78.3846C5.33386 77.9405 5.77797 77.2743 5.926 76.4601C6.00002 76.09 5.77797 75.794 5.33386 75.868C4.37163 76.016 4.00155 76.7562 3.77949 77.5704C3.77949 78.0145 4.00155 78.3846 4.59369 78.3846Z" fill="#CCDC84"/>
<path d="M17.251 34.7142C22.2102 32.7898 26.6512 31.0874 31.0923 29.311C32.3506 28.7928 33.4608 28.7928 34.6451 29.311C37.9019 30.7173 41.2327 32.0496 44.5634 33.3819C45.1556 33.604 46.1178 33.678 46.0438 34.4922C45.9698 35.1583 45.3776 35.6765 44.5634 36.0466C41.5287 37.3789 38.568 38.8592 35.5333 40.2655C34.7191 40.6356 33.8309 41.0057 32.8687 40.6356C27.7615 38.7112 22.7283 36.7867 17.251 34.7142ZM33.0167 34.7883C32.9427 34.2701 33.3128 33.4559 32.4986 33.3819C31.6104 33.3079 31.6844 34.1961 31.5364 34.7883C31.3883 35.3804 31.3883 36.1206 32.1285 36.1946C33.0907 36.3426 32.9427 35.3804 33.0167 34.7883Z" fill="#BAA6CD"/>
<path d="M35.7549 41.8199C39.9739 39.8214 43.6748 38.045 47.4497 36.2686C48.708 35.6764 50.0403 35.6764 51.2986 36.1946C54.9254 37.6749 58.4783 39.1553 62.1051 40.7096C62.6232 40.9317 63.4374 40.8577 63.4374 41.5978C63.5115 42.412 62.6973 42.338 62.1791 42.5601C58.7743 44.0404 55.2955 45.4468 51.8167 46.8531C51.0765 47.1492 50.3363 47.4452 49.4481 47.0751C45.1551 45.3727 40.7141 43.6703 35.7549 41.8199Z" fill="#9A84BC"/>
<path d="M79.6473 35.2323C75.2803 37.0828 71.5794 38.7112 67.8786 40.2655C66.9163 40.6356 65.658 40.6356 64.6958 40.1915C60.3288 38.4151 55.9617 36.5647 51.2246 34.5662C55.1475 32.7157 58.7744 31.0133 62.4013 29.385C62.8454 29.1629 63.4375 29.1629 63.8816 29.3109C67.6565 30.6432 71.6534 31.6795 75.2803 33.5299C76.3906 34.1221 77.7229 34.4922 79.6473 35.2323ZM71.8015 34.3441C71.8015 33.9 71.4314 33.678 71.2093 33.752C70.2471 34.0481 69.4329 34.5662 69.0628 35.6024C68.9148 35.9725 69.2849 36.4166 69.803 36.2686C70.7652 35.9725 71.5054 35.3804 71.8015 34.3441ZM63.3635 32.2716C63.5855 31.6055 63.2154 31.3094 62.8454 31.3834C61.6611 31.5315 61.439 32.6417 61.0689 33.5299C60.8469 34.0481 61.0689 34.7142 61.6611 34.6402C62.9194 34.3441 62.6973 32.8638 63.3635 32.2716ZM67.1384 37.4529C66.6203 36.5647 65.658 36.5647 64.8438 36.4166C64.3997 36.3426 63.9556 36.6387 64.0296 37.0828C64.2517 38.119 65.2879 37.971 66.0281 38.193C66.6203 38.4151 66.9903 38.119 67.1384 37.4529ZM66.7683 35.6024C67.6565 35.3064 67.8045 34.4181 68.0266 33.678C68.1746 33.1598 67.8786 32.7898 67.4345 32.8638C66.4722 33.0858 66.3242 33.974 66.1021 34.7142C65.9541 35.1583 66.1762 35.5284 66.7683 35.6024Z" fill="#33B7CB"/>
<path d="M35.6813 27.6085C38.9381 26.3502 42.3429 25.0919 45.5997 23.7596C46.4879 23.3895 47.3021 23.3895 48.2643 23.7596C52.3353 25.24 56.4062 26.6463 61.2174 28.2747C56.9244 30.1991 53.2235 31.9756 49.5226 33.604C49.3006 33.752 48.8565 33.604 48.5604 33.4559C44.2674 31.6795 39.9744 29.9031 35.6813 28.1267C35.6073 28.0526 35.6813 27.8306 35.6813 27.6085Z" fill="#4B7DBE"/>
<path d="M64.918 28.0526C68.1747 26.4983 70.7654 25.24 73.43 24.0557C74.3922 23.6116 75.3544 23.7596 76.3167 24.1297C80.7577 25.8321 85.1988 27.4605 89.6398 29.0889C90.158 29.3109 91.1942 29.2369 91.1202 30.1251C91.0462 31.0133 90.158 30.9393 89.5658 31.1614C87.5673 32.0496 85.5689 32.8638 83.5704 33.678C82.9783 33.9 82.4601 34.1961 81.72 33.974C76.3167 32.0496 70.9134 30.1251 64.918 28.0526Z" fill="#CE9CC6"/>
<path d="M4.44531 29.681C9.0344 27.8306 13.3274 26.1282 17.6204 24.4258C19.3969 23.6856 21.1733 23.8336 22.9497 24.5738C24.356 25.24 25.8364 25.8321 27.3167 26.4983C27.9829 26.7943 29.0932 26.7943 29.0191 27.9786C28.9451 29.1629 27.8349 29.0149 27.1687 29.3109C25.3923 30.1251 23.3938 30.4212 21.8394 31.4574C15.622 35.5284 10.2187 32.0496 4.44531 29.681Z" fill="#CCDC84"/>
<path d="M72.7637 22.7974C69.3589 24.4258 66.5463 25.6841 63.6596 27.0164C63.2155 27.2384 62.6974 27.2384 62.2532 27.0904C58.0342 25.6101 53.8893 24.1297 49.0781 22.4273C52.927 20.947 56.1838 19.6146 59.5146 18.3563C60.1808 18.0603 60.9949 18.3563 61.6611 18.6524C65.1399 19.9847 68.6188 21.243 72.7637 22.7974Z" fill="#90CFC3"/>
<path d="M22.21 22.7234C23.3942 22.2793 24.2084 22.1313 24.8006 21.6872C31.4622 17.3941 37.8277 19.1706 44.1932 22.6494C40.7884 23.9817 37.3095 25.388 33.8307 26.7203C33.3126 26.9424 32.6464 26.9424 32.1283 26.7203C28.9456 25.5361 25.8368 24.2037 22.21 22.7234Z" fill="#7ECFE4"/>
<path d="M57.9605 17.3201C56.9983 17.6902 56.6282 17.8382 56.2581 17.9863C46.1177 21.9832 46.1177 21.9832 35.5332 17.4682C38.3459 16.3579 40.8625 15.3957 43.4531 14.4334C43.8232 14.2854 44.1192 14.3594 44.4893 14.7295C45.6736 15.8398 47.154 15.6177 47.9681 14.4334C48.4863 13.6933 48.7083 13.7673 49.2264 13.9893C51.8911 15.0256 54.7037 16.0618 57.9605 17.3201Z" fill="#CCDC84"/>
<path d="M78.3897 58.992C78.7598 57.9558 78.3157 56.9195 78.9819 56.1793C79.574 55.4392 80.3882 55.0691 81.2024 55.6612C82.0166 56.1793 82.1646 57.3636 81.4985 57.8077C79.1299 59.2881 81.0544 60.3243 81.8686 61.2125C83.3489 62.7669 85.1993 64.0252 86.5317 65.7276C86.9758 66.2457 87.864 66.8379 87.3458 67.6521C86.9017 68.3922 86.1616 67.7261 85.5694 67.578C84.0891 67.2079 82.8308 67.504 81.7945 68.7623C80.7583 69.9466 79.648 71.0569 78.5378 72.2411C77.7236 73.2034 76.7614 74.1656 77.7976 75.4979C78.1677 76.016 78.0196 76.4601 77.5755 76.7562C76.9834 77.1263 76.5393 76.9783 76.0952 76.3861C75.7251 75.942 75.9472 74.8317 74.9109 75.2759C74.0227 75.6459 73.7266 76.3121 73.6526 77.2743C73.5786 77.9405 74.0967 79.0507 72.9865 79.0507C72.0982 79.0507 72.2463 78.0885 72.1723 77.4964C72.0982 76.9042 71.7282 76.6082 71.136 76.6822C70.4699 76.7562 70.1738 77.2003 70.0258 77.8665C69.8777 78.5326 69.9517 79.3468 68.9895 79.3468C67.9533 79.3468 68.1753 78.5326 68.2493 77.8665C68.3234 77.4224 68.1013 76.9042 67.6572 76.9783C65.5107 77.3483 63.5862 75.5719 61.3657 76.4601C60.2554 76.9042 59.4412 76.09 59.9594 74.7577C60.4775 73.4254 60.9956 72.0931 61.6618 70.8348C62.2539 69.7986 62.0319 69.3545 60.9216 69.1324C59.3672 68.8363 58.1089 67.9481 57.2947 66.6898C56.7766 66.0237 56.7026 65.1355 57.2947 64.3213C57.6648 63.8031 58.331 63.7291 58.9231 64.0252C59.7373 64.3953 60.2554 64.9874 59.8854 66.0237C59.2932 67.7261 60.9216 67.43 61.5878 67.8001C62.624 68.3182 63.2161 67.504 63.8083 66.6898C64.4744 65.6536 63.9563 65.2095 63.1421 64.6913C62.1059 64.0252 61.2917 63.063 60.6255 61.9527C60.2554 61.3606 60.1074 60.6944 60.5515 60.1023C60.9216 59.5841 61.5137 59.3621 62.1059 59.6582C62.772 59.9542 63.2161 60.5464 62.9941 61.2865C62.476 62.6929 63.4382 63.211 64.3264 63.5811C65.7327 64.1732 66.1028 62.6929 66.843 62.0267C67.6572 61.3606 67.5092 60.6204 66.769 59.9542C65.9548 59.14 65.5847 58.1778 65.7327 56.9935C65.8068 56.1793 66.3249 55.8092 67.0651 55.8833C67.8052 55.9573 68.1013 56.5494 67.8792 57.1416C67.4351 58.5479 67.5092 59.5101 69.2856 59.4361C71.2841 59.3621 72.4683 58.0298 72.2463 56.4754C72.1723 55.8092 72.0982 55.1431 72.1723 54.4769C72.2463 53.5887 72.7644 52.9966 73.6526 53.1446C74.6889 53.2927 75.133 54.4029 74.6889 55.0691C73.1345 57.5117 74.8369 57.8077 76.5393 58.2518C76.9834 58.3258 77.5755 58.6959 78.3897 58.992ZM67.8792 75.4239C71.6541 75.72 74.6889 74.3136 77.1314 71.4269C78.4638 69.8726 79.9441 68.3182 81.4244 66.8379C83.793 64.5433 83.793 64.5433 80.9063 62.4708C80.2402 61.9527 79.5 61.5086 78.8338 61.0645C74.7629 58.5479 72.0982 58.844 68.4714 62.1007C66.0288 64.3213 64.9926 67.356 63.5122 70.1686C61.4397 74.2396 62.1059 75.2018 66.843 75.3499C67.2131 75.4239 67.5832 75.4239 67.8792 75.4239Z" fill="#080F10"/>
<path d="M76.687 84.454C76.613 85.7863 76.761 87.3407 74.9106 87.4887C73.2822 87.6367 72.394 86.5265 71.8759 85.1201C71.6538 84.528 71.5058 83.9359 72.172 83.6398C72.9121 83.3437 73.2822 83.8618 73.4303 84.454C73.6523 85.1201 73.5783 86.1564 74.6145 85.9343C75.4287 85.7123 74.9106 84.8241 74.9846 84.2319C75.0586 83.6398 75.0586 82.9736 75.8728 83.0476C76.9091 83.0476 76.687 83.8618 76.687 84.454Z" fill="#080F10"/>
<path d="M22.4321 64.1732C22.9502 65.0614 23.6163 65.9496 24.1345 66.9859C24.3565 67.43 23.8384 67.8741 23.4683 67.7261C22.136 67.356 21.8399 66.1717 21.5438 65.0614C21.3958 64.6173 21.6919 64.3213 22.4321 64.1732Z" fill="#080F10"/>
<path d="M22.6543 75.1278C22.7283 75.7199 22.5062 76.09 22.0621 76.09C20.8038 76.09 20.8038 74.9798 20.5078 74.1656C20.3597 73.7955 20.4337 73.1293 20.8779 73.1293C22.1361 73.2034 21.9141 74.6837 22.6543 75.1278Z" fill="#080F10"/>
<path d="M28.5011 75.6459C28.5011 76.238 28.4271 76.8302 27.983 76.7562C26.8727 76.5341 26.5766 75.4979 26.4286 74.5356C26.3546 74.1656 26.4286 73.5734 26.9467 73.6474C28.205 73.7955 27.909 75.1278 28.5011 75.6459Z" fill="#080F10"/>
<path d="M28.5011 65.3575C29.3893 65.7276 29.3893 66.6158 29.5373 67.356C29.6853 67.8001 29.5373 68.3182 29.0192 68.3182C27.9089 68.2442 27.9089 67.2079 27.7609 66.4677C27.6869 65.9496 27.7609 65.4315 28.5011 65.3575Z" fill="#080F10"/>
<path d="M43.0086 49.8138C42.4165 50.9241 41.8983 52.1083 41.2322 53.2186C41.0842 53.5147 40.64 53.5887 40.344 53.3666C40.1959 53.2186 39.9739 52.9225 40.0479 52.7745C40.492 51.4422 40.9361 50.1099 41.9724 49.1476C42.4165 48.7035 42.8606 49.1476 43.0086 49.8138Z" fill="#080F10"/>
<path d="M46.8581 51.7383C46.1919 52.5525 45.8219 53.8108 44.6376 54.1808C44.1935 54.3289 43.8974 53.7367 44.1195 53.2926C44.6376 52.2564 45.0817 51.1461 46.414 50.9241C46.7101 50.9241 46.9321 51.2942 46.8581 51.7383Z" fill="#080F10"/>
<path d="M43.4527 59.3621C43.0086 60.1763 42.4904 61.0645 41.3802 61.2125C41.0101 61.2865 40.566 60.8424 40.788 60.3983C41.2321 59.5841 41.8243 58.918 42.7125 58.6219C43.1566 58.3998 43.4527 58.7699 43.4527 59.3621Z" fill="#080F10"/>
<path d="M37.3092 94.4464C36.6431 94.3724 36.421 94.0023 36.495 93.5582C36.7171 92.3739 37.3833 91.4117 38.5675 91.0416C38.9376 90.8936 39.1597 91.3377 39.0857 91.6338C38.7156 92.744 38.0494 93.7062 37.3092 94.4464Z" fill="#080F10"/>
<path d="M42.9352 100.442C42.4911 100.442 42.047 100.294 42.1951 99.9977C42.5651 98.8874 43.1573 97.9252 44.3416 97.5551C44.6376 97.4811 45.0077 97.7772 44.9337 98.1473C44.5636 99.1835 43.9715 99.9977 42.9352 100.442Z" fill="#080F10"/>
<path d="M40.0482 96.0748C40.4923 95.1866 41.0104 94.2984 42.1207 94.0023C42.5648 93.9283 43.0089 94.2243 42.7869 94.7425C42.2687 95.6307 41.6026 96.5189 40.6403 96.963C40.1962 97.185 39.9742 96.6669 40.0482 96.0748Z" fill="#080F10"/>
<path d="M7.92453 36.7867C8.51667 36.8608 8.73872 37.2308 8.51667 37.6009C7.99855 38.7112 7.48042 39.8215 6.88828 40.9317C6.59221 41.3758 6.14811 41.3018 5.92606 40.8577C5.48195 39.9695 6.00007 39.2293 6.37016 38.5632C6.74025 37.897 7.03632 37.0828 7.92453 36.7867Z" fill="#080F10"/>
<path d="M9.47927 48.6295C8.66507 48.3334 8.44302 47.9633 8.66507 47.3712C8.96114 46.557 8.88713 45.4467 10.0714 45.2247C10.5155 45.1507 10.8856 45.5948 10.6635 46.0389C10.2935 46.9271 10.1454 47.9633 9.47927 48.6295Z" fill="#0C0E0F"/>
<path d="M10.737 42.19C10.0708 41.9679 9.77475 41.5238 10.0708 41.0057C10.5149 40.0435 10.737 38.8592 11.9213 38.4891C12.3654 38.3411 12.6614 39.0073 12.4394 39.3773C11.8472 40.3396 11.6992 41.5238 10.737 42.19Z" fill="#0C0E0F"/>
<path d="M5.55572 44.2625C6.14786 44.2625 6.44393 44.5586 6.36991 45.0767C6.22187 45.7429 6.29589 46.7051 5.40768 46.9271C4.88956 47.0752 4.59349 46.5571 4.66751 46.187C4.81554 45.4468 4.74152 44.5586 5.55572 44.2625Z" fill="#0C0E0F"/>
<path d="M12.4396 82.3816C11.8475 83.2698 10.9592 83.7879 9.92299 84.232C9.47889 84.38 9.25684 83.9359 9.25684 83.7139C9.55291 82.5296 10.5892 82.0855 11.5514 81.7154C12.0695 81.4933 12.3656 81.8634 12.4396 82.3816Z" fill="#0C0E0F"/>
<path d="M7.48019 80.161C7.18412 80.8272 7.85028 82.0855 6.666 82.0855C5.77779 82.0855 5.85181 80.9752 5.92582 80.235C5.99984 79.4949 5.85181 78.3106 6.96207 78.3846C7.9243 78.6066 7.40617 79.5689 7.48019 80.161Z" fill="#0C0E0F"/>
<path d="M8.3684 88.525C8.51644 89.1911 8.3684 89.5612 7.85028 89.5612C6.666 89.4132 6.666 88.3769 6.44395 87.5628C6.29591 87.0446 6.36993 86.4525 7.03609 86.5265C8.14635 86.7486 7.77626 88.0069 8.3684 88.525Z" fill="#0C0E0F"/>
<path d="M4.59376 78.3846C4.00162 78.3846 3.77956 78.0145 3.85358 77.5704C4.00162 76.7562 4.44572 76.016 5.40795 75.868C5.77804 75.794 6.00009 76.09 6.00009 76.4601C5.77804 77.3483 5.33393 78.0145 4.59376 78.3846Z" fill="#0C0E0F"/>
<path d="M33.0162 34.7882C32.9422 35.3804 33.0902 36.2686 32.128 36.1946C31.3878 36.1206 31.4618 35.3804 31.5358 34.7882C31.6839 34.1961 31.6099 33.2339 32.4981 33.3819C33.3123 33.4559 32.9422 34.2701 33.0162 34.7882Z" fill="#0C0E0F"/>
<path d="M71.8016 34.3441C71.5055 35.3804 70.7654 35.9725 69.7291 36.2686C69.211 36.4166 68.8409 35.9725 68.9889 35.6024C69.359 34.6402 70.1732 34.1221 71.1355 33.752C71.4315 33.678 71.8016 33.9 71.8016 34.3441Z" fill="#080F10"/>
<path d="M63.364 32.2717C62.6978 32.8638 62.9199 34.3442 61.6616 34.5662C61.1435 34.6402 60.9214 33.9741 61.0694 33.456C61.4395 32.5677 61.6616 31.5315 62.8459 31.3094C63.29 31.3094 63.6601 31.6055 63.364 32.2717Z" fill="#080F10"/>
<path d="M67.1384 37.4529C66.9903 38.119 66.6202 38.4151 66.0281 38.1931C65.2879 37.897 64.2517 38.119 64.0296 37.0828C63.9556 36.6387 64.3997 36.2686 64.8438 36.4166C65.658 36.5647 66.6202 36.5647 67.1384 37.4529Z" fill="#080F10"/>
<path d="M66.7687 35.6025C66.2506 35.5284 65.9545 35.2324 66.1026 34.7883C66.3246 34.0481 66.4726 33.0859 67.4349 32.9378C67.879 32.8638 68.175 33.2339 68.027 33.752C67.7309 34.4182 67.6569 35.3064 66.7687 35.6025Z" fill="#080F10"/>
<path d="M67.879 75.4239C67.5089 75.4239 67.2128 75.4239 66.8428 75.4239C62.1056 75.2759 61.4395 74.2396 63.512 70.2427C64.9923 67.43 66.0286 64.3953 68.4711 62.1748C72.024 58.918 74.7626 58.6219 78.8336 61.1385C79.5738 61.5826 80.2399 62.0267 80.9061 62.5448C83.8668 64.6173 83.7928 64.6173 81.4242 66.9119C79.9438 68.3922 78.4635 69.8726 77.1312 71.501C74.7626 74.3136 71.7279 75.72 67.879 75.4239ZM75.7989 66.8379C75.7989 64.4693 74.8366 63.4331 72.5421 63.4331C69.9515 63.4331 68.101 64.9874 68.101 67.1339C68.101 69.2064 69.8035 70.9828 71.8759 70.9828C74.2445 70.9828 75.7989 69.3545 75.7989 66.8379Z" fill="#F6F6F6"/>
<path d="M75.7984 66.8379C75.7984 69.4285 74.244 71.0569 71.8755 70.9828C69.803 70.9088 68.1006 69.2064 68.1006 67.1339C68.1006 64.9874 69.951 63.433 72.5416 63.433C74.7622 63.433 75.7984 64.4693 75.7984 66.8379ZM71.7274 66.7638C71.6534 66.1717 71.5054 65.4315 70.4691 65.4315C69.655 65.4315 69.2109 65.9496 69.2849 66.6898C69.3589 67.504 69.803 68.0962 70.7652 68.0962C71.5054 68.1702 71.6534 67.578 71.7274 66.7638Z" fill="#0C0E0F"/>
<path d="M71.7279 66.7638C71.7279 67.578 71.5059 68.1701 70.7657 68.1701C69.8775 68.1701 69.3593 67.578 69.2853 66.7638C69.2113 66.0236 69.6554 65.5055 70.4696 65.5055C71.5059 65.4315 71.6539 66.1717 71.7279 66.7638Z" fill="#F6F6F6"/>
</svg>
