<svg width="90" height="120" viewBox="0 0 90 120" fill="none" xmlns="http://www.w3.org/2000/svg">
<path d="M67.024 119.86C66.8139 119.37 66.6039 118.81 66.5338 118.319C65.7636 114.818 65.7636 114.818 62.2625 115.239C61.1421 115.379 60.0918 115.519 58.9715 115.659C58.2012 115.729 57.501 115.729 57.361 114.748C57.2209 113.768 57.8511 113.418 58.6914 113.138C60.792 112.578 62.8927 112.998 65.0634 112.718C65.1334 111.597 64.1531 111.527 63.5929 111.037C63.1028 110.617 61.9824 110.407 62.5426 109.567C63.1728 108.516 63.873 109.567 64.5032 109.917C65.1334 110.197 65.4835 110.967 66.4638 110.897C66.4638 110.617 66.5338 110.337 66.5338 110.057C66.3938 104.455 65.9036 98.8534 65.9737 93.2516C66.0437 90.7309 65.8336 87.5799 64.013 86.2495C62.8227 85.3392 60.3019 87.7899 58.3413 88.7702C55.8205 90.0306 53.2997 91.4311 50.919 92.9015C49.0284 94.0219 47.3478 94.0219 45.3872 93.1116C40.4157 90.7308 35.3041 88.6302 30.2625 86.3895C29.0021 85.8293 28.652 85.8993 28.0218 87.3698C25.6411 92.3413 26.2713 97.3129 27.3916 102.424C27.6717 103.755 27.7417 105.085 27.9518 106.416C28.0918 107.536 27.6717 109.217 29.8424 108.586C30.1925 108.516 30.5426 108.726 30.4726 109.077C30.4025 109.987 29.3522 109.777 28.792 110.407C30.4025 111.387 32.0131 112.368 33.5535 113.418C34.3238 113.978 35.6542 114.608 34.8139 115.729C34.0437 116.779 33.0634 115.729 32.3632 115.239C30.8927 114.188 29.4923 113.068 27.9518 111.807C27.3216 113.208 27.3916 114.468 27.1815 115.799C27.1115 116.499 26.9715 117.269 25.9912 117.269C25.2209 117.199 25.0809 116.499 24.9408 115.869C24.9408 115.799 24.9408 115.729 24.9408 115.659C24.5207 114.328 25.7811 112.508 24.5907 111.737C23.5404 111.107 21.8599 111.667 20.3894 111.667C19.9693 111.667 19.6192 111.667 19.199 111.597C18.0787 111.387 16.1181 112.017 16.1881 110.267C16.2581 108.656 18.2187 109.217 19.3391 109.077C20.9496 108.937 22.4901 109.217 24.0306 109.567C25.2209 109.847 25.9912 109.637 25.6411 108.026C24.8708 104.385 24.3807 100.744 23.6104 97.1028C22.7001 93.1816 23.3303 89.2604 23.2603 85.2691C23.2603 83.7987 22.7702 83.1685 21.5098 82.6783C15.2078 80.0175 8.97585 77.2166 2.67388 74.5558C0.923335 73.8556 0.153094 72.8753 0.223116 70.8446C0.573226 53.5492 0.923335 36.3939 1.20342 19.3085C1.27344 17.0678 2.18373 15.9475 4.21436 15.1772C16.8883 10.3457 29.4923 5.4442 42.0962 0.472648C43.7767 -0.157549 45.2472 -0.157549 46.8577 0.472648C61.1421 5.86433 75.4266 11.186 89.7811 16.5077C89.7811 34.9934 89.7811 53.4792 89.7811 72.035C82.7089 75.186 76.1969 79.3173 69.4047 82.8184C68.1443 83.4486 68.4244 84.4289 68.3544 85.4792C67.9343 93.3917 69.1947 101.234 68.0743 109.147C67.7242 111.667 68.4244 113.138 71.1553 113.488C72.2756 113.628 73.396 114.258 74.4463 114.748C75.1465 115.028 76.2669 115.309 75.9168 116.219C75.5667 117.339 74.4463 116.849 73.6761 116.639C71.9955 116.219 70.315 115.659 68.4944 115.098C69.0546 116.989 69.0546 118.46 68.4244 120C68.0043 119.86 67.5141 119.86 67.024 119.86ZM49.0984 91.8512C49.7286 91.6411 49.9387 91.5711 50.1487 91.5011C62.3325 84.919 74.5863 78.267 86.7702 71.7549C88.2406 70.9847 88.3807 69.8643 88.3807 68.4639C88.3807 52.6389 88.3807 36.884 88.3807 21.0591C88.3807 18.4683 88.3106 18.3983 85.9299 19.3786C74.5163 24.14 63.1028 28.9015 51.6192 33.523C49.7286 34.2932 49.0284 35.3435 49.0284 37.3742C49.0984 54.5295 49.0984 71.6849 49.0984 88.7702C49.0984 89.7505 49.0984 90.6608 49.0984 91.8512ZM32.4332 49.2079C32.4332 55.3698 32.4332 61.2516 32.4332 67.1335C32.4332 68.1138 33.1334 68.4639 33.8336 68.744C37.9649 70.4945 42.0962 72.175 46.1575 73.9956C47.6279 74.6258 47.698 74.0656 47.698 72.8753C47.698 67.4136 47.698 62.0219 47.698 56.5602C47.698 55.7199 47.6279 55.0897 46.6476 54.7396C42.0262 52.919 37.3347 51.0985 32.4332 49.2079ZM30.9627 37.9344C30.9627 35.4136 30.8927 32.8928 30.9627 30.372C31.0327 29.1116 30.5426 28.3414 29.3522 27.8512C25.2209 26.3107 21.0896 24.7702 17.0284 23.1597C15.768 22.6696 15.3478 22.8796 15.3478 24.2801C15.4179 29.3217 15.3478 34.3632 15.2778 39.4048C15.2778 40.5252 15.698 41.1554 16.7483 41.5055C21.0196 43.116 25.2909 44.7965 29.4923 46.547C30.6826 47.0372 31.0327 46.6871 30.9627 45.4967C30.9627 42.9759 30.9627 40.4551 30.9627 37.9344ZM15.4179 42.4858C15.4179 48.3676 15.4179 53.8993 15.4179 59.4311C15.4179 60.4114 15.768 61.1116 16.6783 61.4617C20.9496 63.2823 25.2209 65.0328 29.4923 66.9234C30.6826 67.4136 31.0327 67.1335 30.9627 65.8731C30.8927 60.5514 30.8927 55.2998 30.9627 49.9781C30.9627 48.9278 30.5426 48.3676 29.6323 48.0175C25.0109 46.267 20.4594 44.4464 15.4179 42.4858ZM32.3632 38.4945C32.3632 41.0153 32.4332 43.5361 32.3632 46.0569C32.3632 47.1772 32.6432 47.8074 33.6936 48.2276C37.8949 49.8381 42.0962 51.4486 46.2275 53.1291C47.5579 53.6893 47.698 53.1291 47.698 52.0087C47.698 46.8271 47.698 41.5755 47.698 36.3939C47.698 35.4136 47.4179 34.7834 46.3675 34.4333C42.1662 32.8928 37.9649 31.2823 33.8336 29.6018C32.5732 29.1116 32.3632 29.5317 32.3632 30.6521C32.4332 33.3129 32.3632 35.9037 32.3632 38.4945ZM15.3478 62.302C15.3478 67.4136 15.4179 72.175 15.3478 76.9365C15.3478 78.267 16.0481 78.6871 17.0284 79.1072C20.9496 80.7877 24.8008 82.4683 28.652 84.2188C30.2625 84.919 30.9627 84.779 30.9627 82.8184C30.8927 78.6871 30.9627 74.6258 30.9627 70.4945C30.9627 69.5842 30.8227 68.884 29.8424 68.4639C25.1509 66.5033 20.4594 64.4726 15.3478 62.302ZM47.6279 84.2188C47.6279 82.1182 47.5579 79.9475 47.6279 77.8468C47.6979 76.6564 47.2778 75.9562 46.1575 75.4661C42.0962 73.7856 38.0349 72.105 33.9737 70.2845C32.4332 69.5842 32.2931 70.1444 32.2931 71.4748C32.3632 75.6761 32.3632 79.8775 32.2931 84.0088C32.2931 85.1991 32.6432 85.8993 33.7636 86.3895C37.8949 88.14 42.0262 89.9606 46.0874 91.7812C47.2078 92.2713 47.6279 92.0613 47.6279 90.8009C47.6279 88.7002 47.6979 86.4595 47.6279 84.2188ZM14.0174 51.0985C14.0174 48.5777 13.9474 46.0569 14.0174 43.5361C14.0874 42.3457 13.5973 41.6455 12.4769 41.2254C9.67607 40.1751 6.8752 39.1247 4.14434 37.9344C2.67388 37.3042 2.25375 37.7243 2.25375 39.2648C2.18373 44.0963 2.11371 48.9278 1.97366 53.6893C1.97366 54.7396 2.25375 55.2998 3.23406 55.6499C6.38504 56.9103 9.466 58.2407 12.617 59.6411C13.8074 60.2013 14.1575 59.9212 14.0874 58.6608C13.9474 56.2101 14.0174 53.6193 14.0174 51.0985ZM14.0174 31.2823C14.0174 28.7615 13.9474 26.2407 14.0174 23.7199C14.0174 22.5295 13.6673 21.8293 12.4769 21.4092C9.81611 20.4289 7.15528 19.4486 4.56447 18.3282C3.30408 17.8381 2.67388 17.8381 2.67388 19.5886C2.67388 24.4902 2.53384 29.3217 2.46382 34.2232C2.46382 35.2735 2.67388 35.9737 3.79423 36.3939C6.73515 37.5142 9.67607 38.6346 12.547 39.8249C13.7373 40.3151 14.0874 40.035 14.0174 38.8446C13.9474 36.3239 14.0174 33.8031 14.0174 31.2823ZM14.0174 77.7068C14.0174 72.5252 14.0174 67.7637 14.0174 62.9322C14.0174 61.9519 13.5973 61.5317 12.757 61.1816C9.60605 59.8512 6.52509 58.5908 3.44412 57.1904C2.04369 56.5602 1.83362 57.1203 1.83362 58.3107C1.7636 62.512 1.69358 66.6433 1.55353 70.8446C1.55353 71.8249 1.83362 72.4551 2.81393 72.8753C6.38504 74.4157 9.95616 76.0263 14.0174 77.7068ZM16.5382 21.5492C21.7899 23.5098 26.5513 25.3304 31.3128 27.151C32.2231 27.5011 33.0634 27.221 33.8336 26.8009C36.7045 25.4705 39.5054 24.07 42.3763 22.8096C43.0765 22.4595 43.7067 21.9694 43.7767 21.3392C43.8467 20.5689 42.9365 20.4989 42.3763 20.2888C39.2953 18.9584 36.0743 17.7681 32.9934 16.4376C31.803 15.9475 30.8227 15.9475 29.6323 16.4376C25.431 18.1182 21.2297 19.7287 16.5382 21.5492ZM34.0437 28.2713C38.7351 30.0919 42.9365 31.6324 47.0678 33.2429C47.908 33.593 48.6082 33.3129 49.3085 33.0328C52.5995 31.7024 55.8205 30.302 59.1115 28.9716C59.6017 28.7615 60.3719 28.7615 60.3019 28.0613C60.2319 27.361 59.4616 27.4311 59.0415 27.221C55.6804 25.7505 52.2494 24.3501 48.8183 22.9497C47.6279 22.4595 46.3675 22.4595 45.1772 23.0197C41.606 24.6302 38.0349 26.3807 34.0437 28.2713ZM75.6367 22.0394C73.8161 21.3392 72.5557 21.0591 71.3653 20.4289C67.9343 18.6783 64.2231 17.698 60.582 16.4376C60.1618 16.2976 59.6017 16.2976 59.1815 16.5077C55.7505 18.0481 52.3894 19.6586 48.6082 21.4092C53.0896 23.2998 57.2209 25.0503 61.3522 26.7309C62.3325 27.151 63.4529 27.151 64.3632 26.8009C68.0043 25.3304 71.5054 23.7899 75.6367 22.0394ZM33.9737 14.8271C33.9737 15.0372 33.9036 15.3173 33.9737 15.3173C38.0349 16.9978 42.0962 18.6783 46.1575 20.3589C46.4376 20.4989 46.7877 20.5689 47.0678 20.4989C50.5688 18.8884 54.0699 17.2779 58.1312 15.4573C53.5798 13.8468 49.7286 12.5164 45.8774 11.186C45.0371 10.8359 44.2669 10.8359 43.3566 11.186C40.2756 12.4464 37.0546 13.5667 33.9737 14.8271ZM61.7023 15.2473C67.3741 17.2079 72.4857 18.9584 77.5973 20.779C78.2975 21.0591 78.7877 20.779 79.3478 20.4989C81.2384 19.7287 83.129 18.9584 85.0196 18.1182C85.5098 17.9081 86.42 17.9781 86.4901 17.1379C86.5601 16.2276 85.5798 16.3676 85.0896 16.1575C80.8883 14.547 76.687 13.0066 72.4857 11.4661C71.5754 11.116 70.6651 10.9759 69.7548 11.3961C67.2341 12.6565 64.7833 13.7768 61.7023 15.2473ZM4.49445 16.7877C9.95616 19.0284 14.9977 22.3195 20.9496 18.3983C22.4201 17.4179 24.3106 17.1379 25.9912 16.3676C26.6214 16.0875 27.6717 16.2276 27.7417 15.1072C27.8117 13.9869 26.7614 13.9869 26.1312 13.7068C24.8008 13.0766 23.4004 12.5164 21.9999 11.8862C20.3194 11.116 18.6389 11.046 16.9583 11.7462C12.8971 13.4267 8.76579 15.0372 4.49445 16.7877ZM69.0546 10.2757C65.1334 8.80525 61.8424 7.61488 58.5513 6.35449C57.8511 6.0744 57.1509 5.86433 56.5207 6.0744C53.3697 7.26477 50.2888 8.45514 46.6476 9.9256C51.199 11.5361 55.1203 12.9365 59.1115 14.337C59.6017 14.477 60.0218 14.477 60.4419 14.267C63.1728 13.0066 65.8336 11.8162 69.0546 10.2757ZM21.2297 10.2057C24.6608 11.6061 27.6017 12.8665 30.5426 14.0569C31.0327 14.267 31.6629 14.1969 32.1531 14.0569C35.4441 12.7965 38.7351 11.4661 41.9562 10.2057C36.0743 6.84464 29.9824 5.16411 23.6804 9.22538C23.1203 9.57549 22.4201 9.71554 21.2297 10.2057ZM55.0502 5.09409C51.9693 3.90372 49.3785 2.92341 46.7877 1.94311C46.2975 1.73304 46.0174 1.66302 45.5973 2.36324C44.8271 3.48359 43.4966 3.76368 42.3063 2.64333C41.9562 2.29322 41.6761 2.22319 41.326 2.36324C38.8752 3.34354 36.4244 4.25383 33.8336 5.30416C43.8467 9.57549 43.8467 9.57549 53.4397 5.79431C53.7899 5.65427 54.14 5.51422 55.0502 5.09409Z" fill="#0C0E0F"/>
<path d="M49.0983 91.8512C49.0983 90.6608 49.0983 89.7506 49.0983 88.8403C49.0983 71.6849 49.0983 54.5296 49.0283 37.4442C49.0283 35.4136 49.6585 34.3633 51.6191 33.593C63.1027 28.9716 74.5163 24.1401 85.9299 19.4486C88.3106 18.4683 88.3806 18.4683 88.3806 21.1291C88.3806 36.9541 88.3806 52.709 88.3806 68.5339C88.3806 69.9344 88.2406 71.0547 86.7701 71.825C74.5163 78.407 62.3325 84.9891 50.1487 91.5711C49.9386 91.5711 49.7285 91.6412 49.0983 91.8512ZM74.3762 44.5164C73.606 44.1663 73.0458 43.8862 72.4857 43.7462C70.8751 43.3261 69.2646 43.046 70.7351 40.7352C71.1552 40.105 70.8051 39.0547 69.7548 38.9147C68.9846 38.8447 68.4244 39.4048 68.3544 40.1751C68.2843 40.8053 68.3544 41.4355 68.4244 42.0657C68.7045 43.5361 67.5141 44.7265 65.6235 44.8665C63.943 44.9366 63.873 43.9563 64.2931 42.6959C64.5032 42.1357 64.1531 41.5755 63.5229 41.5055C62.7526 41.4355 62.3325 41.7856 62.2625 42.5558C62.1224 43.6762 62.4725 44.5864 63.2428 45.3567C63.943 46.0569 64.083 46.6871 63.3128 47.3173C62.6126 47.9475 62.2625 49.3479 60.932 48.7878C60.0918 48.4377 59.1815 47.9475 59.6716 46.6171C59.9517 45.9169 59.4616 45.3567 58.8314 45.0766C58.2712 44.7965 57.711 45.0066 57.3609 45.4967C56.8708 46.1269 57.0808 46.6871 57.4309 47.2473C57.9911 48.2976 58.8314 49.2079 59.8117 49.8381C60.5819 50.3282 61.0721 50.7484 60.4419 51.7287C59.9517 52.4989 59.3215 53.2692 58.3412 52.779C57.641 52.4289 56.1706 52.709 56.7307 51.0985C57.0808 50.1882 56.5907 49.558 55.8204 49.2079C55.3303 48.9978 54.7001 48.9978 54.28 49.488C53.7198 50.1882 53.8598 51.0285 54.28 51.7287C55.1202 52.9191 56.3106 53.7593 57.711 54.0394C58.7614 54.2495 58.9714 54.6696 58.4113 55.6499C57.7811 56.8403 57.2909 58.1007 56.8008 59.3611C56.2406 60.6915 57.0808 61.3917 58.1312 60.9716C60.3018 60.2013 62.0524 61.8118 64.083 61.4617C64.5032 61.3917 64.7132 61.8118 64.6432 62.302C64.5732 62.9322 64.3631 63.7024 65.3434 63.7024C66.1837 63.7024 66.1837 62.8622 66.3237 62.302C66.4638 61.7418 66.7439 61.2517 67.3741 61.1816C67.9342 61.1116 68.2843 61.3917 68.3544 61.9519C68.4244 62.5121 68.2843 63.4924 69.1246 63.4223C70.245 63.3523 69.7548 62.372 69.7548 61.7418C69.8248 60.8315 70.1749 60.2013 70.9452 59.8512C71.9955 59.4311 71.7854 60.4814 72.0655 60.9015C72.4857 61.3917 72.9058 61.6018 73.466 61.2517C73.8861 60.9716 74.0261 60.5514 73.676 60.0613C72.6957 58.8009 73.536 57.8906 74.3762 56.9803C75.3566 55.86 76.4769 54.8096 77.4572 53.6893C78.4375 52.4989 79.6279 52.2188 81.0283 52.5689C81.5885 52.709 82.2887 53.3392 82.7089 52.639C83.199 51.8687 82.3587 51.3786 81.9386 50.8184C80.6782 49.2079 78.9277 48.0175 77.5272 46.5471C76.757 45.7768 74.9364 44.7965 77.1771 43.3261C77.8773 42.9059 77.6673 41.7856 76.897 41.2954C76.1268 40.8053 75.4266 41.1554 74.7964 41.7856C74.3062 42.6258 74.7264 43.5361 74.3762 44.5164ZM72.7657 68.604C72.7657 67.9738 72.9758 67.2735 72.0655 67.1335C71.2953 67.0635 71.2953 67.6937 71.2253 68.2538C71.1552 68.814 71.6454 69.7243 70.8752 69.8643C69.8948 70.0744 69.9649 69.0941 69.7548 68.4639C69.5447 67.9738 69.1946 67.4136 68.5644 67.6937C67.9342 67.9738 68.0743 68.6039 68.2843 69.0941C68.7745 70.4245 69.6148 71.5449 71.1552 71.3348C72.8358 71.3348 72.6957 69.8643 72.7657 68.604Z" fill="#33B8CD"/>
<path d="M32.4336 49.2078C37.3351 51.0984 42.0266 52.9889 46.7181 54.7395C47.6984 55.0896 47.7684 55.7198 47.7684 56.5601C47.7684 62.0218 47.7684 67.4135 47.7684 72.8752C47.7684 74.0655 47.6283 74.6957 46.2279 73.9955C42.1666 72.1749 38.0353 70.4244 33.9041 68.7439C33.1338 68.3938 32.5036 68.1137 32.5036 67.1334C32.4336 61.2515 32.4336 55.3697 32.4336 49.2078Z" fill="#7ECFE4"/>
<path d="M30.9632 37.9345C30.9632 40.4553 30.8932 42.976 30.9632 45.4968C30.9632 46.6872 30.6831 47.0373 29.4928 46.5472C25.2914 44.7966 21.0201 43.1861 16.7488 41.5056C15.7685 41.0855 15.2783 40.5253 15.2783 39.4049C15.3483 34.3633 15.3483 29.3218 15.3483 24.2802C15.3483 22.8798 15.7685 22.6697 17.0289 23.1598C21.1602 24.7704 25.2214 26.3809 29.3527 27.8513C30.6131 28.3415 31.0332 29.0417 30.9632 30.3721C30.8932 32.8929 30.9632 35.4137 30.9632 37.9345Z" fill="#9A84BC"/>
<path d="M15.418 42.4858C20.4595 44.4465 25.081 46.267 29.7024 48.0876C30.6127 48.4377 31.0328 48.9979 31.0328 50.0482C30.9628 55.3699 30.9628 60.6215 31.0328 65.9432C31.0328 67.2036 30.7528 67.4837 29.5624 66.9935C25.2911 65.1029 21.0197 63.3524 16.7484 61.5318C15.8381 61.1817 15.488 60.4815 15.488 59.5012C15.418 53.8994 15.418 48.3677 15.418 42.4858ZM21.4398 49.418C20.7396 49.5581 20.4595 49.8381 20.5996 50.2583C20.9497 51.3086 21.1598 52.429 22.4202 52.7791C22.7703 52.8491 23.2604 52.499 23.0504 52.0788C22.6302 51.0985 22 50.2583 21.4398 49.418ZM21.6499 59.7812C20.9497 59.2911 21.1598 57.8907 19.8994 57.8907C19.4792 57.8907 19.4092 58.5209 19.5493 58.871C19.8293 59.6412 19.8994 60.6915 21.0197 60.6915C21.5099 60.6915 21.79 60.4114 21.6499 59.7812ZM27.1816 60.2714C26.6215 59.7812 26.9016 58.5209 25.7112 58.3108C25.221 58.2408 25.151 58.8009 25.221 59.1511C25.3611 60.0613 25.5711 61.0416 26.6915 61.2517C27.1816 61.3918 27.1816 60.9016 27.1816 60.2714ZM27.2517 50.5384C26.5514 50.6784 26.4814 51.0985 26.5514 51.5887C26.7615 52.2889 26.7615 53.2692 27.7418 53.3392C28.232 53.3392 28.302 52.8491 28.232 52.429C28.0219 51.7287 28.0919 50.8885 27.2517 50.5384Z" fill="#33B7CB"/>
<path d="M32.3631 38.4944C32.3631 35.9036 32.3631 33.3128 32.3631 30.652C32.3631 29.5316 32.5732 29.0415 33.8335 29.6016C37.9648 31.2822 42.1662 32.8927 46.3675 34.4332C47.3478 34.7833 47.6979 35.4135 47.6979 36.3938C47.6979 41.5754 47.6979 46.827 47.6979 52.0086C47.6979 53.129 47.5578 53.6192 46.2274 53.129C42.0961 51.4485 37.8948 49.838 33.6935 48.2275C32.6432 47.8073 32.2931 47.1771 32.3631 46.0568C32.4331 43.536 32.3631 41.0152 32.3631 38.4944ZM40.9058 35.8336C40.7657 35.2034 40.3456 34.7833 39.9255 35.2034C38.9451 36.1137 38.525 37.3741 38.1049 38.6345C38.0349 38.7745 38.2449 39.1246 38.385 39.1946C38.6651 39.4047 39.0152 39.3347 39.2252 39.0546C39.8554 38.0043 40.4156 36.8839 40.9058 35.8336ZM44.5469 37.6542C44.6169 37.234 44.4069 36.8839 44.0567 36.9539C42.7963 37.094 42.3762 38.2143 41.8861 39.1946C41.676 39.5448 41.9561 40.1049 42.3762 40.0349C43.5666 39.5448 43.9167 38.4244 44.5469 37.6542ZM41.3959 44.8664C41.3959 44.3763 41.1158 44.0262 40.6957 44.0962C39.8554 44.3763 39.2953 45.0065 38.8751 45.7767C38.6651 46.1968 39.0852 46.617 39.4353 46.5469C40.4156 46.4769 40.9758 45.6367 41.3959 44.8664Z" fill="#4B7DBE"/>
<path d="M15.3476 62.302C20.4592 64.4727 25.1507 66.5033 29.8421 68.4639C30.8224 68.8841 30.9625 69.5843 30.9625 70.4946C30.9625 74.6259 30.8924 78.6871 30.9625 82.8184C30.9625 84.709 30.2622 84.9191 28.6517 84.2188C24.8005 82.4683 20.8793 80.7878 17.0281 79.1073C15.9778 78.6871 15.2776 78.197 15.3476 76.9366C15.4176 72.1751 15.3476 67.4836 15.3476 62.302Z" fill="#CE9CC6"/>
<path d="M47.6981 84.2188C47.6981 86.4595 47.6981 88.6302 47.6981 90.8709C47.6981 92.1313 47.348 92.4114 46.1576 91.8512C42.0263 90.0306 37.965 88.2101 33.8337 86.4595C32.7134 85.9694 32.3633 85.2692 32.3633 84.0788C32.4333 79.8775 32.4333 75.6762 32.3633 71.5449C32.3633 70.2144 32.5033 69.6543 34.0438 70.3545C38.1051 72.1751 42.1663 73.8556 46.2276 75.5361C47.348 76.0263 47.6981 76.7265 47.6981 77.9169C47.6281 79.9475 47.6281 82.1182 47.6981 84.2188ZM35.5843 78.0569C36.2845 77.3567 36.8447 76.4464 37.2648 75.3961C37.3348 75.116 37.1948 74.6958 36.7747 74.8359C35.6543 75.256 35.0941 76.0963 34.814 77.2166C34.744 77.6368 34.9541 77.9869 35.5843 78.0569ZM40.9059 83.7287C41.8162 83.3085 42.4464 82.5383 42.7265 81.488C42.8666 81.1379 42.4464 80.8578 42.1663 80.9278C41.046 81.3479 40.4858 82.1882 40.1357 83.2385C40.0657 83.6586 40.4858 83.7987 40.9059 83.7287ZM38.1051 79.5974C38.0351 80.1576 38.2451 80.6477 38.6653 80.4376C39.5755 80.0175 40.2057 79.1772 40.6959 78.337C40.976 77.9169 40.4858 77.5667 40.0657 77.6368C39.0154 77.9169 38.5252 78.8271 38.1051 79.5974Z" fill="#3D459A"/>
<path d="M14.0171 51.0984C14.0171 53.6192 13.9471 56.14 14.0171 58.6608C14.0171 59.9212 13.737 60.1313 12.5466 59.6411C9.46568 58.2407 6.3147 56.9803 3.16371 55.6499C2.25343 55.2297 1.90332 54.6695 1.90332 53.6892C2.11339 48.9277 2.18341 44.0962 2.25343 39.2647C2.25343 37.7242 2.67356 37.3041 4.21404 37.9343C6.87487 39.1247 9.67575 40.175 12.4766 41.2253C13.597 41.6455 14.0171 42.2757 14.0171 43.5361C13.9471 46.0569 14.0171 48.5776 14.0171 51.0984Z" fill="#C0ABD1"/>
<path d="M14.0175 31.2823C14.0175 33.8031 14.0175 36.3239 14.0175 38.8447C14.0175 40.0351 13.7374 40.3852 12.547 39.825C9.67612 38.6346 6.7352 37.4443 3.79428 36.3939C2.67393 35.9738 2.46387 35.2736 2.46387 34.2233C2.53389 29.3217 2.67393 24.4902 2.67393 19.5887C2.67393 17.8381 3.30413 17.8381 4.63455 18.3983C7.22536 19.4486 9.88619 20.499 12.547 21.4793C13.7374 21.8994 14.0875 22.5996 14.0875 23.79C13.9475 26.2408 14.0175 28.7615 14.0175 31.2823ZM7.71551 23.5099C6.87525 23.72 6.66518 24.5602 6.24505 25.1904C5.82492 25.8907 5.40479 26.5208 5.82492 27.3611C6.03498 27.7812 6.45511 27.9213 6.7352 27.4311C7.29538 26.3808 7.78553 25.3305 8.27568 24.2801C8.48575 23.93 8.27568 23.5799 7.71551 23.5099ZM9.25599 34.7134C9.88619 34.0832 10.0262 33.1029 10.3063 32.2626C10.5164 31.7725 10.1663 31.4224 9.74614 31.4924C8.69582 31.7025 8.69582 32.7528 8.41573 33.523C8.27568 34.0132 8.48575 34.4333 9.25599 34.7134ZM10.3763 28.6215C11.2866 27.9913 11.4267 26.871 11.9868 25.8907C12.1969 25.5405 11.9168 24.9804 11.4967 25.0504C10.3763 25.3305 10.1663 26.5208 9.74614 27.4311C9.46606 27.9913 9.74614 28.4114 10.3763 28.6215ZM5.47481 30.5821C4.77459 30.8622 4.77459 31.6324 4.63455 32.3327C4.56452 32.6828 4.84461 33.1729 5.33476 33.0329C6.17503 32.8228 6.10501 31.9125 6.24505 31.2823C6.38509 30.8622 6.10501 30.5821 5.47481 30.5821Z" fill="#90CFC3"/>
<path d="M14.0176 77.7069C10.0264 75.9563 6.38522 74.4158 2.8141 72.8753C1.90382 72.4552 1.55371 71.895 1.55371 70.8447C1.69375 66.6434 1.76378 62.5121 1.8338 58.3108C1.8338 57.1204 2.04386 56.5602 3.4443 57.1904C6.52526 58.5909 9.67625 59.8513 12.7572 61.1817C13.5275 61.5318 14.0176 62.022 14.0176 62.9322C14.0176 67.7637 14.0176 72.5953 14.0176 77.7069ZM11.987 66.6434C11.9169 66.0832 11.6369 65.7331 11.2167 65.9432C10.3064 66.3633 9.32614 66.7134 9.04605 67.8338C8.97603 68.0438 9.25612 68.464 9.67625 68.3239C10.5865 68.0438 11.4968 67.4837 11.987 66.6434ZM7.36553 64.5427C7.2955 63.9826 7.78566 63.0023 6.9454 62.9322C5.82505 62.8622 6.03511 63.9826 5.96509 64.6828C5.89507 65.383 5.75502 66.4333 6.66531 66.4333C7.71564 66.3633 7.08544 65.1729 7.36553 64.5427ZM8.13577 72.4552C7.57559 72.0351 7.9257 70.7747 6.87537 70.5646C6.24518 70.4246 6.17515 71.0548 6.3152 71.5449C6.52526 72.3852 6.52526 73.2955 7.64562 73.4355C8.13577 73.4355 8.27581 73.0154 8.13577 72.4552ZM4.56465 62.8622C5.26487 62.4421 5.685 61.8119 5.82505 61.0416C5.89507 60.6915 5.685 60.4114 5.26487 60.4815C4.35459 60.6215 4.00448 61.3217 3.79441 62.092C3.79441 62.5121 4.00448 62.8622 4.56465 62.8622Z" fill="#CCDC84"/>
<path d="M16.5381 21.5493C21.2296 19.7287 25.4309 18.1182 29.6322 16.4377C30.8225 15.9475 31.8729 15.9475 32.9932 16.4377C36.0742 17.7681 39.2252 19.0285 42.3762 20.2889C42.9363 20.499 43.8466 20.569 43.7766 21.3392C43.7066 21.9694 43.1464 22.4596 42.3762 22.8097C39.5053 24.0701 36.7044 25.4705 33.8335 26.8009C33.0632 27.151 32.223 27.5011 31.3127 27.151C26.5512 25.3305 21.7897 23.5099 16.5381 21.5493ZM31.5228 21.6193C31.4527 21.1291 31.8029 20.3589 31.0326 20.2889C30.1924 20.2189 30.2624 21.0591 30.1223 21.6193C29.9823 22.1795 29.9823 22.8797 30.6825 22.9497C31.5228 23.0197 31.3827 22.1795 31.5228 21.6193Z" fill="#BAA6CD"/>
<path d="M34.0439 28.2713C38.0352 26.3807 41.5363 24.7002 45.1074 23.0197C46.2978 22.4595 47.5582 22.4595 48.7485 22.9496C52.1796 24.3501 55.5407 25.7505 58.9717 27.221C59.4619 27.431 60.2321 27.361 60.2321 28.0612C60.3021 28.8315 59.5319 28.7614 59.0418 28.9715C55.8208 30.372 52.5297 31.7024 49.2387 33.0328C48.5385 33.3129 47.8383 33.593 46.998 33.2428C42.9367 31.6323 38.7354 30.0218 34.0439 28.2713Z" fill="#9A84BC"/>
<path d="M75.6364 22.0394C71.5052 23.79 68.0041 25.3305 64.503 26.8009C63.5927 27.151 62.4023 27.151 61.492 26.7309C57.3607 25.0504 53.2294 23.2998 48.748 21.4092C52.4592 19.6587 55.8903 18.0482 59.3214 16.5077C59.7415 16.2976 60.3017 16.2976 60.7218 16.4377C64.2929 17.6981 68.0741 18.6784 71.5052 20.4289C72.4855 20.9891 73.8159 21.3392 75.6364 22.0394ZM68.2141 21.1992C68.2141 20.779 67.864 20.569 67.654 20.639C66.7437 20.9191 65.9734 21.4092 65.6233 22.3896C65.4833 22.7397 65.8334 23.1598 66.3235 23.0197C67.2338 22.7397 67.864 22.1795 68.2141 21.1992ZM60.2316 19.2386C60.4417 18.6084 60.0916 18.3283 59.7415 18.3983C58.6211 18.5383 58.4111 19.5887 58.061 20.4289C57.8509 20.9191 58.061 21.5493 58.6211 21.4793C59.8115 21.1992 59.6014 19.7987 60.2316 19.2386ZM63.7327 24.1401C63.2426 23.2998 62.3323 23.2998 61.562 23.1598C61.1419 23.0898 60.7218 23.3699 60.7918 23.79C61.0019 24.7703 61.9822 24.6303 62.6824 24.8403C63.2426 25.0504 63.6627 24.7703 63.7327 24.1401ZM63.3826 22.3896C64.2229 22.1095 64.3629 21.2692 64.573 20.569C64.713 20.0788 64.4329 19.7287 64.0128 19.7987C63.1025 20.0088 62.9625 20.8491 62.7524 21.5493C62.6124 21.9694 62.8925 22.3195 63.3826 22.3896Z" fill="#33B7CB"/>
<path d="M33.9735 14.8273C37.0545 13.6369 40.2755 12.4466 43.3564 11.1862C44.1967 10.8361 44.9669 10.8361 45.8772 11.1862C49.7284 12.5866 53.5796 13.917 58.1311 15.4575C54.0698 17.2781 50.5687 18.9586 47.0676 20.4991C46.8575 20.6391 46.4374 20.4991 46.1573 20.359C42.096 18.6785 38.0348 16.998 33.9735 15.3175C33.9035 15.2474 33.9735 15.0374 33.9735 14.8273Z" fill="#4B7DBE"/>
<path d="M61.7021 15.2473C64.7831 13.7768 67.2339 12.5865 69.7547 11.4661C70.6649 11.046 71.5752 11.186 72.4855 11.5361C76.6868 13.1467 80.8881 14.6871 85.0895 16.2276C85.5796 16.4377 86.5599 16.3677 86.4899 17.2079C86.4199 18.0482 85.5796 17.9782 85.0194 18.1882C83.1288 19.0285 81.2383 19.7987 79.3477 20.569C78.7875 20.779 78.2973 21.0591 77.5971 20.8491C72.4855 19.0285 67.3039 17.2079 61.7021 15.2473Z" fill="#CE9CC6"/>
<path d="M4.49414 16.7876C8.8355 15.0371 12.8968 13.4266 16.958 11.8161C18.6386 11.1159 20.3191 11.2559 21.9996 11.9561C23.33 12.5863 24.7305 13.1465 26.1309 13.7767C26.7611 14.0568 27.8114 14.0568 27.7414 15.1771C27.6714 16.2975 26.6211 16.1574 25.9909 16.4375C24.3103 17.2078 22.4197 17.4878 20.9493 18.4682C14.9974 22.3194 9.95585 19.0283 4.49414 16.7876Z" fill="#CCDC84"/>
<path d="M69.0545 10.2756C65.8335 11.8161 63.1726 13.0064 60.4418 14.2668C60.0216 14.4769 59.5315 14.4769 59.1114 14.3368C55.1201 12.9364 51.1989 11.536 46.6475 9.92547C50.2886 8.52503 53.3696 7.26464 56.5205 6.07427C57.1507 5.79418 57.921 6.07427 58.5512 6.35436C61.8422 7.61475 65.1332 8.80512 69.0545 10.2756Z" fill="#90CFC3"/>
<path d="M21.2295 10.2058C22.3498 9.78568 23.1201 9.64563 23.6803 9.2255C29.9822 5.16423 36.0041 6.84476 42.026 10.1358C38.805 11.3962 35.514 12.7266 32.2229 13.987C31.7328 14.1971 31.1026 14.1971 30.6124 13.987C27.6015 12.8666 24.6606 11.6062 21.2295 10.2058Z" fill="#7ECFE4"/>
<path d="M55.0506 5.09391C54.1403 5.51404 53.7902 5.65409 53.4401 5.79413C43.8471 9.57531 43.8471 9.57531 33.834 5.30398C36.4948 4.25365 38.8756 3.34336 41.3263 2.43308C41.6764 2.29304 41.9565 2.36306 42.3066 2.71317C43.427 3.7635 44.8274 3.55343 45.5977 2.43308C46.0878 1.73286 46.2979 1.80288 46.788 2.01295C49.3788 2.92323 51.9697 3.90354 55.0506 5.09391Z" fill="#CCDC84"/>
<path d="M74.3759 44.5163C74.726 43.536 74.3059 42.5557 74.9361 41.8555C75.4963 41.1553 76.2665 40.8052 77.0368 41.3653C77.807 41.8555 77.9471 42.9758 77.3169 43.396C75.0762 44.7964 76.8967 45.7767 77.667 46.617C79.0674 48.0874 80.8179 49.2778 82.0783 50.8883C82.4985 51.3785 83.3387 51.9386 82.8486 52.7089C82.4285 53.4091 81.7282 52.7789 81.1681 52.6388C79.7676 52.2887 78.5772 52.5688 77.5969 53.7592C76.6166 54.8795 75.5663 55.9299 74.516 57.0502C73.7457 57.9605 72.8355 58.8708 73.8158 60.1312C74.1659 60.6213 74.0258 61.0415 73.6057 61.3216C73.0455 61.6717 72.6254 61.5316 72.2053 60.9715C71.8552 60.5513 72.0652 59.501 71.0849 59.9211C70.2446 60.2712 69.9646 60.9014 69.8945 61.8117C69.8245 62.4419 70.3147 63.4922 69.2643 63.4922C68.4241 63.4922 68.5641 62.582 68.4941 62.0218C68.4241 61.4616 68.074 61.1815 67.5138 61.2515C66.8836 61.3216 66.6035 61.7417 66.4635 62.3719C66.3234 63.0021 66.3934 63.7723 65.4832 63.7723C64.5028 63.7723 64.7129 63.0021 64.7829 62.3719C64.853 61.9518 64.6429 61.4616 64.2228 61.5316C62.1921 61.8817 60.3716 60.2012 58.2709 61.0415C57.2206 61.4616 56.4503 60.6914 56.9405 59.431C57.4306 58.1706 57.9208 56.9102 58.551 55.7198C59.1112 54.7395 58.9011 54.3194 57.8508 54.1093C56.3803 53.8292 55.1899 52.989 54.4197 51.7986C53.9295 51.1684 53.8595 50.3281 54.4197 49.5579C54.7698 49.0677 55.4 48.9977 55.9602 49.2778C56.7304 49.6279 57.2206 50.1881 56.8705 51.1684C56.3103 52.7789 57.8508 52.4988 58.481 52.8489C59.4613 53.3391 60.0214 52.5688 60.5816 51.7986C61.2118 50.8183 60.7217 50.3981 59.9514 49.908C58.9711 49.2778 58.2009 48.3675 57.5707 47.3172C57.2206 46.757 57.0805 46.1268 57.5007 45.5666C57.8508 45.0765 58.4109 44.8664 58.9711 45.1465C59.6013 45.4266 60.0214 45.9868 59.8114 46.687C59.3212 48.0174 60.2315 48.5076 61.0718 48.8577C62.4022 49.4178 62.7523 48.0174 63.4525 47.3872C64.2228 46.757 64.0827 46.0568 63.3825 45.4266C62.6123 44.6564 62.2622 43.7461 62.4022 42.6257C62.4722 41.8555 62.9624 41.5054 63.6626 41.5754C64.3628 41.6454 64.6429 42.2056 64.4328 42.7658C64.0127 44.0962 64.0827 45.0065 65.7632 44.9364C67.6538 44.8664 68.7742 43.606 68.5641 42.1356C68.4941 41.5054 68.4241 40.8752 68.4941 40.245C68.5641 39.4047 69.0543 38.8445 69.8945 38.9846C70.8748 39.1246 71.295 40.175 70.8748 40.8052C69.4044 43.1159 71.0149 43.396 72.6254 43.8161C73.1155 43.8861 73.6757 44.2362 74.3759 44.5163ZM64.5029 60.0612C68.074 60.3413 70.9449 59.0108 73.2556 56.28C74.516 54.8095 75.9164 53.3391 77.3169 51.9386C79.5576 49.768 79.5576 49.768 76.8267 47.8073C76.1965 47.3172 75.4963 46.8971 74.8661 46.4769C71.0149 44.0962 68.4941 44.3763 65.063 47.4572C62.7523 49.5579 61.772 52.4288 60.3716 55.0896C58.4109 58.9408 59.0411 59.8511 63.5225 59.9911C63.8727 60.0612 64.1527 60.0612 64.5029 60.0612Z" fill="#080F10"/>
<path d="M72.7658 68.6038C72.6958 69.8642 72.8358 71.3347 71.0853 71.4747C69.5448 71.6148 68.7046 70.5644 68.2144 69.234C68.0043 68.6739 67.8643 68.1137 68.4945 67.8336C69.1947 67.5535 69.5448 68.0437 69.6849 68.6038C69.8949 69.234 69.8249 70.2143 70.8052 70.0043C71.5755 69.7942 71.0853 68.9539 71.1553 68.3938C71.2253 67.8336 71.2253 67.2034 71.9956 67.2734C72.9759 67.2734 72.7658 68.0437 72.7658 68.6038Z" fill="#080F10"/>
<path d="M21.4397 49.418C21.9299 50.2582 22.5601 51.0985 23.0502 52.0788C23.2603 52.4989 22.7701 52.9191 22.42 52.779C21.1596 52.4289 20.8796 51.3086 20.5995 50.2582C20.4594 49.8381 20.7395 49.558 21.4397 49.418Z" fill="#080F10"/>
<path d="M21.6499 59.7812C21.7199 60.3414 21.5098 60.6915 21.0897 60.6915C19.8993 60.6915 19.8993 59.6412 19.6193 58.8709C19.4792 58.5208 19.5492 57.8906 19.9694 57.8906C21.1597 57.9606 20.9497 59.3611 21.6499 59.7812Z" fill="#080F10"/>
<path d="M27.1819 60.2713C27.1819 60.8315 27.1118 61.3917 26.6917 61.3217C25.6414 61.1116 25.3613 60.1313 25.2212 59.221C25.1512 58.8709 25.2212 58.3107 25.7114 58.3807C26.9018 58.5208 26.6217 59.7812 27.1819 60.2713Z" fill="#080F10"/>
<path d="M27.2519 50.5383C28.0922 50.8884 28.0922 51.7287 28.2323 52.4289C28.3723 52.8491 28.2323 53.3392 27.7421 53.3392C26.6918 53.2692 26.6918 52.2889 26.5517 51.5887C26.4117 51.0985 26.5517 50.6084 27.2519 50.5383Z" fill="#080F10"/>
<path d="M40.9056 35.8337C40.3454 36.8841 39.8553 38.0044 39.2251 39.0547C39.085 39.3348 38.6649 39.4049 38.3848 39.1948C38.2448 39.0547 38.0347 38.7747 38.1047 38.6346C38.5249 37.3742 38.945 36.1138 39.9253 35.2035C40.4155 34.7834 40.8356 35.2035 40.9056 35.8337Z" fill="#080F10"/>
<path d="M44.547 37.6543C43.9168 38.4245 43.5667 39.6149 42.4464 39.965C42.0262 40.105 41.7461 39.5449 41.9562 39.1247C42.4464 38.1444 42.8665 37.0941 44.1269 36.884C44.477 36.884 44.617 37.2341 44.547 37.6543Z" fill="#080F10"/>
<path d="M41.3955 44.8666C40.9753 45.6368 40.4852 46.4771 39.4348 46.6171C39.0847 46.6871 38.6646 46.267 38.8747 45.8469C39.2948 45.0766 39.855 44.4464 40.6952 44.1664C41.1154 43.9563 41.3955 44.3064 41.3955 44.8666Z" fill="#080F10"/>
<path d="M35.5839 78.0569C34.9537 77.9869 34.7436 77.6368 34.8136 77.2167C35.0237 76.0963 35.6539 75.186 36.7743 74.8359C37.1244 74.6959 37.3344 75.116 37.2644 75.3961C36.8443 76.4464 36.2841 77.3567 35.5839 78.0569Z" fill="#080F10"/>
<path d="M40.9054 83.7287C40.4853 83.7287 40.0652 83.5887 40.2052 83.3086C40.5553 82.2583 41.1155 81.348 42.2358 80.9979C42.5159 80.9278 42.866 81.2079 42.796 81.558C42.4459 82.5383 41.8157 83.3086 40.9054 83.7287Z" fill="#080F10"/>
<path d="M38.1051 79.5975C38.5252 78.7572 39.0154 77.917 40.0657 77.6369C40.4858 77.5668 40.9059 77.8469 40.6959 78.3371C40.2057 79.1773 39.5755 80.0176 38.6652 80.4377C38.2451 80.6478 38.035 80.1577 38.1051 79.5975Z" fill="#080F10"/>
<path d="M7.71561 23.5098C8.27578 23.5798 8.48585 23.9299 8.27578 24.28C7.78563 25.3303 7.29548 26.3807 6.7353 27.431C6.45522 27.8511 6.03508 27.7811 5.82502 27.361C5.40489 26.5207 5.89504 25.8205 6.24515 25.1903C6.66528 24.5601 6.94537 23.7899 7.71561 23.5098Z" fill="#080F10"/>
<path d="M9.25613 34.7133C8.48589 34.4332 8.27583 34.0831 8.48589 33.5229C8.76598 32.7527 8.69596 31.7024 9.81631 31.4923C10.2364 31.4223 10.5865 31.8424 10.3765 32.2626C9.95635 33.1028 9.88633 34.0831 9.25613 34.7133Z" fill="#0C0E0F"/>
<path d="M10.3765 28.6214C9.74627 28.4113 9.46618 27.9912 9.74627 27.5011C10.1664 26.5908 10.3765 25.4704 11.4968 25.1203C11.9169 24.9803 12.197 25.6105 11.987 25.9606C11.4268 26.8709 11.3568 27.9912 10.3765 28.6214Z" fill="#0C0E0F"/>
<path d="M5.47493 30.582C6.03511 30.582 6.3152 30.8621 6.24517 31.3523C6.10513 31.9825 6.17515 32.8928 5.33489 33.1028C4.84474 33.2429 4.56465 32.7527 4.63467 32.4026C4.77471 31.6324 4.77471 30.8621 5.47493 30.582Z" fill="#0C0E0F"/>
<path d="M11.9865 66.6433C11.4264 67.4836 10.5861 67.9737 9.60578 68.3939C9.18565 68.5339 8.97559 68.1138 8.97559 67.9037C9.25567 66.7834 10.236 66.3632 11.1463 66.0131C11.6364 65.8031 11.9865 66.1532 11.9865 66.6433Z" fill="#0C0E0F"/>
<path d="M7.36575 64.5425C7.08566 65.1727 7.71586 66.3631 6.59551 66.3631C5.75524 66.3631 5.82526 65.3128 5.89529 64.6126C5.96531 63.9123 5.82526 62.792 6.87559 62.862C7.78588 63.0721 7.2257 63.9824 7.36575 64.5425Z" fill="#0C0E0F"/>
<path d="M8.13508 72.4551C8.27513 73.0853 8.13508 73.4355 7.64493 73.4355C6.52458 73.2954 6.52458 72.3151 6.31451 71.5449C6.17447 71.0547 6.24449 70.4945 6.87469 70.5646C7.92502 70.7746 7.57491 71.965 8.13508 72.4551Z" fill="#0C0E0F"/>
<path d="M4.56478 62.8622C4.0046 62.8622 3.79454 62.5121 3.86456 62.092C4.0046 61.3218 4.42473 60.6215 5.33502 60.4815C5.68513 60.4115 5.89519 60.6916 5.89519 61.0417C5.68513 61.8819 5.265 62.5121 4.56478 62.8622Z" fill="#0C0E0F"/>
<path d="M31.5227 21.6193C31.4527 22.1795 31.5928 23.0197 30.6825 22.9497C29.9823 22.8797 30.0523 22.1795 30.1223 21.6193C30.2623 21.0591 30.1923 20.1488 31.0326 20.2889C31.8028 20.3589 31.4527 21.1291 31.5227 21.6193Z" fill="#0C0E0F"/>
<path d="M68.2144 21.1992C67.9343 22.1795 67.2341 22.7397 66.2538 23.0197C65.7636 23.1598 65.4135 22.7397 65.5536 22.3895C65.9037 21.4793 66.6739 20.9891 67.5842 20.639C67.8643 20.569 68.2144 20.779 68.2144 21.1992Z" fill="#080F10"/>
<path d="M60.2318 19.2387C59.6016 19.7988 59.8117 21.1993 58.6213 21.4093C58.1312 21.4794 57.9211 20.8492 58.0611 20.359C58.4113 19.5187 58.6213 18.5384 59.7417 18.3284C60.0918 18.3284 60.4419 18.6085 60.2318 19.2387Z" fill="#080F10"/>
<path d="M63.7328 24.1401C63.5927 24.7703 63.2426 25.0504 62.6825 24.8403C61.9822 24.5602 61.0019 24.7703 60.7919 23.79C60.7218 23.3698 61.142 23.0197 61.5621 23.1598C62.4024 23.2998 63.3127 23.2998 63.7328 24.1401Z" fill="#080F10"/>
<path d="M63.383 22.3896C62.8929 22.3196 62.6128 22.0395 62.7528 21.6193C62.9629 20.9191 63.103 20.0088 64.0132 19.8688C64.4334 19.7988 64.7135 20.1489 64.5734 20.639C64.3633 21.2692 64.2233 22.1095 63.383 22.3896Z" fill="#080F10"/>
<path d="M64.5031 60.0612C64.153 60.0612 63.8729 60.0612 63.5228 60.0612C59.0414 59.9211 58.4112 58.9408 60.3718 55.1596C61.7022 52.4988 62.6826 49.6279 65.0633 47.5273C68.4243 44.4463 71.0152 44.1662 74.8664 46.547C75.5666 46.9671 76.1968 47.3872 76.827 47.8774C79.6278 49.838 79.5578 49.838 77.3171 52.0087C75.9167 53.4091 74.5163 54.8095 73.2559 56.35C70.9451 59.0108 68.0742 60.3413 64.5031 60.0612ZM71.9254 51.9386C71.9254 49.6979 71.0152 48.7176 68.8445 48.7176C66.3937 48.7176 64.6432 50.1881 64.6432 52.2187C64.6432 54.1793 66.2537 55.8599 68.2143 55.8599C70.455 55.8599 71.9254 54.3194 71.9254 51.9386Z" fill="#F6F6F6"/>
<path d="M71.9258 51.9388C71.9258 54.3895 70.4554 55.93 68.2147 55.86C66.2541 55.79 64.6436 54.1795 64.6436 52.2189C64.6436 50.1882 66.3941 48.7178 68.8449 48.7178C71.0155 48.7178 71.9258 49.6981 71.9258 51.9388ZM68.0746 51.8688C68.0046 51.3086 67.8646 50.6084 66.8843 50.6084C66.114 50.6084 65.6939 51.0985 65.7639 51.7987C65.8339 52.569 66.2541 53.1292 67.1643 53.1292C67.8646 53.1992 68.0746 52.639 68.0746 51.8688Z" fill="#0C0E0F"/>
<path d="M68.0741 51.8688C68.0741 52.6391 67.8641 53.1992 67.1639 53.1992C66.3236 53.1992 65.8334 52.6391 65.7634 51.8688C65.6934 51.1686 66.1135 50.6784 66.8838 50.6784C67.8641 50.6084 68.0041 51.3086 68.0741 51.8688Z" fill="#F6F6F6"/>
</svg>
