<svg width="200" height="140" viewBox="0 0 200 140" fill="none" xmlns="http://www.w3.org/2000/svg">
<path d="M151.593 0C124.872 0 103.185 21.6871 103.185 48.4075C103.185 56.0313 104.962 63.211 108.07 69.5765L99.8545 73.2774L110.957 74.7577C119.617 88.0809 134.569 96.8889 151.593 96.8889C178.313 96.8889 200 75.2018 200 48.4815C200 21.7612 178.313 0 151.593 0Z" fill="#E3051B"/>
<path d="M93.1926 34.122C93.1926 31.3834 93.1186 31.3094 90.602 32.3456C78.5371 37.3788 66.4722 42.412 54.3334 47.2972C52.3349 48.1114 51.5947 49.2216 51.5947 51.3681C51.6687 69.5024 51.6687 87.6367 51.6687 105.697C51.6687 106.659 51.6687 107.695 51.6687 108.88C52.3349 108.658 52.5569 108.584 52.779 108.51C65.658 101.552 78.6111 94.5203 91.4902 87.6367C93.0445 86.8225 93.1926 85.6382 93.1926 84.1579C93.1926 67.5039 93.1926 50.85 93.1926 34.122ZM87.3452 67.578C86.9011 68.3181 86.1609 67.652 85.5688 67.5039C84.0884 67.1339 82.8301 67.4299 81.7939 68.6882C80.7576 69.8725 79.6474 70.9828 78.5371 72.167C77.7229 73.1293 76.7607 74.0915 77.7969 75.4238C78.167 75.9419 78.019 76.386 77.5749 76.6821C76.9827 77.0522 76.5386 76.9042 76.0945 76.312C75.7244 75.8679 75.9465 74.7577 74.9103 75.2018C74.022 75.5718 73.726 76.238 73.6519 77.2002C73.5779 77.8664 74.0961 78.9767 72.9858 78.9767C72.0976 78.9767 72.2456 78.0144 72.1716 77.4223C72.0976 76.8302 71.7275 76.5341 71.1354 76.6081C70.4692 76.6821 70.1731 77.1262 70.0251 77.7924C69.8771 78.4585 69.9511 79.2727 68.9888 79.2727C67.9526 79.2727 68.1747 78.4585 68.2487 77.7924C68.3227 77.3483 68.1006 76.8302 67.6565 76.9042C65.51 77.2743 63.5856 75.4978 61.365 76.386C60.2548 76.8301 59.4406 76.016 59.9587 74.6836C60.4768 73.3513 60.9949 72.019 61.6611 70.7607C62.2532 69.7245 62.0312 69.2804 60.9209 69.0583C59.3666 68.7622 58.1083 67.874 57.2941 66.6157C56.7759 65.9496 56.7019 65.0614 57.2941 64.2472C57.6642 63.729 58.3303 63.655 58.9225 63.9511C59.7367 64.3212 60.2548 64.9133 59.8847 65.9496C59.2925 67.652 60.9209 67.3559 61.5871 67.726C62.6233 68.2441 63.2155 67.4299 63.8076 66.6157C64.4738 65.5795 63.9556 65.1354 63.1414 64.6173C62.1052 63.9511 61.291 62.9889 60.6249 61.8786C60.2548 61.2865 60.1067 60.6203 60.5508 60.0282C60.9209 59.51 61.5131 59.288 62.1052 59.5841C62.7714 59.8801 63.2155 60.4723 62.9934 61.2125C62.4753 62.6188 63.4375 63.1369 64.3257 63.507C65.7321 64.0991 66.1021 62.6188 66.8423 61.9526C67.6565 61.2865 67.5085 60.5463 66.7683 59.8801C65.9541 59.0659 65.584 58.1037 65.7321 56.9194C65.8061 56.1052 66.3242 55.7352 67.0644 55.8092C67.8046 55.8832 68.1006 56.4753 67.8786 57.0675C67.4345 58.4738 67.5085 59.436 69.2849 59.362C71.2834 59.288 72.4677 57.9557 72.2456 56.4013C72.1716 55.7352 72.0976 55.069 72.1716 54.4028C72.2456 53.5146 72.7637 52.9225 73.6519 53.0705C74.6882 53.2186 75.1323 54.3288 74.6882 54.995C73.1338 57.4376 74.8362 57.7336 76.5386 58.1777C77.2048 58.3258 77.7229 58.6959 78.5371 58.9919C78.9072 57.9557 78.4631 56.9194 79.1292 56.1793C79.7214 55.4391 80.5356 55.069 81.3498 55.6611C82.164 56.1793 82.312 57.3635 81.6458 57.8076C79.2773 59.288 81.2017 60.3242 82.0159 61.2125C83.4963 62.7668 85.3467 64.0251 86.679 65.7275C86.9751 66.2456 87.8633 66.7638 87.3452 67.578Z" fill="#33B8CD"/>
<path d="M126.871 23.5376C127.315 23.5376 127.537 23.6116 127.537 23.8337C127.685 31.0874 127.759 37.823 127.685 43.8924C127.685 44.4105 127.463 44.7806 127.093 45.0027C126.723 45.0767 126.353 45.0767 126.056 44.8546C125.908 44.4846 125.834 43.8184 125.834 42.7822C125.908 39.9695 125.908 37.2308 125.76 34.5662C125.612 34.2701 124.798 34.2701 123.466 34.5662C123.17 34.5662 123.022 36.9348 123.244 41.6719C123.318 43.3743 123.244 44.4105 123.022 44.7806C122.948 44.9287 122.578 45.0027 121.911 44.9287C121.541 44.9287 121.319 44.2625 121.319 42.8562C121.319 42.4121 121.319 41.8199 121.393 40.9317C121.467 39.9695 121.467 39.3774 121.467 39.0073L121.689 27.4605C121.689 25.6101 121.763 24.6479 121.763 24.5738C121.837 24.2778 121.985 24.0557 122.134 23.8337C122.356 23.6116 122.726 23.6116 123.096 23.7596C123.392 23.9077 123.466 25.314 123.466 27.9786C123.392 30.7173 123.392 32.1236 123.54 32.2717C123.54 32.3457 123.91 32.4197 124.724 32.3457C125.464 32.3457 125.908 32.2717 125.908 32.2717C125.982 32.1236 126.056 30.8653 125.982 28.4968C125.908 26.0542 125.982 24.5738 126.13 24.2038C126.353 23.8337 126.575 23.5376 126.871 23.5376Z" fill="white"/>
<path d="M131.163 26.2762C131.163 27.0164 131.237 28.2007 131.311 29.8291C131.459 31.4575 131.459 32.6417 131.459 33.4559C132.496 33.678 132.94 34.0481 132.792 34.5662C132.718 34.9363 132.347 35.2324 131.607 35.4544C131.681 36.1946 131.755 37.5269 131.829 39.5254C131.903 41.2278 131.977 42.5601 132.125 43.5223C133.384 43.2263 134.346 43.2263 135.086 43.6704C135.308 43.8184 135.308 44.0404 135.16 44.4105C135.012 44.7806 134.864 45.0027 134.642 45.0027C133.384 45.1507 132.051 45.2247 130.793 45.2987C130.201 45.2987 129.905 44.7806 129.905 43.8184C129.609 39.8214 129.461 35.6024 129.313 31.0874C129.313 30.3472 129.239 29.0889 129.091 27.2385C129.017 25.8321 129.239 25.0179 129.905 24.6479C130.053 24.5738 131.163 24.4258 133.384 24.0557C133.902 23.9817 134.272 24.0557 134.568 24.2778C134.79 24.4998 134.864 24.8699 134.642 25.24C134.346 25.6841 133.828 25.9061 133.088 25.9061C132.125 25.9061 131.459 26.0542 131.163 26.2762Z" fill="white"/>
<path d="M141.6 31.2354C142.266 32.4197 142.71 33.5299 142.932 34.4922C143.525 36.7127 143.673 38.7112 143.45 40.5616C143.006 43.2262 142.266 44.7066 141.082 45.1507C140.638 45.3728 140.046 45.3728 139.306 45.2987C138.639 45.2247 138.121 45.0027 137.751 44.7806C137.307 44.4845 137.085 43.5223 137.085 41.8939C137.085 41.6719 137.011 39.1553 136.937 34.4922C136.937 34.0481 136.937 33.3819 136.937 32.3457V29.9031C136.937 29.533 136.937 28.7188 136.789 27.3125C136.715 26.2762 136.715 25.462 136.789 24.9439C136.937 24.0557 137.603 23.5376 138.935 23.3895C140.194 23.2415 141.23 23.5376 142.118 24.2778C142.71 24.8699 143.154 25.388 143.302 25.8321C143.747 26.8684 143.747 27.9046 143.376 28.9409C143.08 29.9031 142.488 30.7173 141.6 31.2354ZM139.157 29.9031C140.046 29.9771 140.712 29.681 141.23 29.0889C141.748 28.4968 141.97 27.7566 141.822 26.8684C141.748 26.2762 141.452 25.7581 140.86 25.462C140.342 25.092 139.676 24.9439 139.009 25.092C139.009 25.6841 139.009 26.4243 139.083 27.4605C139.083 28.6448 139.157 29.459 139.157 29.9031ZM139.231 32.1236C139.157 32.1976 139.083 32.1976 139.083 32.2716C139.083 33.3819 139.083 34.8623 139.157 36.6387L139.231 41.0057C139.231 42.6341 139.38 43.5223 139.602 43.5963C139.972 43.6703 140.342 43.5223 140.712 43.0782C141.082 42.6341 141.304 42.264 141.378 41.8939C141.748 39.8214 141.822 37.7489 141.452 35.5284C141.082 33.3819 140.342 32.2717 139.231 32.1236Z" fill="white"/>
<path d="M147.077 26.5723C147.077 27.3124 147.151 28.4967 147.225 30.1251C147.373 31.7535 147.373 32.9378 147.373 33.752C148.41 33.974 148.854 34.3441 148.706 34.8622C148.632 35.2323 148.262 35.5284 147.521 35.7504C147.595 36.4906 147.669 37.8229 147.743 39.8214C147.817 41.5238 147.891 42.8561 148.04 43.8183C149.298 43.5223 150.26 43.5223 151 43.9664C151.222 44.1144 151.222 44.3365 151.074 44.7066C150.926 45.0766 150.778 45.2987 150.556 45.2987C149.298 45.4467 147.966 45.5207 146.707 45.5948C146.115 45.5948 145.819 45.0766 145.819 44.1144C145.523 40.1175 145.375 35.8985 145.227 31.3834C145.227 30.6432 145.153 29.3849 145.005 27.5345C144.931 26.1282 145.153 25.314 145.819 24.9439C145.967 24.8699 147.077 24.7218 149.298 24.3517C149.816 24.2777 150.186 24.3517 150.482 24.5738C150.704 24.7958 150.778 25.1659 150.556 25.536C150.26 25.9801 149.742 26.2022 149.002 26.2022C148.04 26.2022 147.447 26.3502 147.077 26.5723Z" fill="white"/>
<path d="M155.442 31.0874C155.812 31.0874 155.59 34.7142 154.775 41.968C154.775 42.19 154.701 42.6341 154.701 43.3003C154.701 43.8924 154.627 44.4105 154.627 44.6326C154.479 45.5948 154.035 45.9649 153.295 45.6688C152.925 45.5948 152.703 45.1507 152.629 44.2625L152.925 27.2385C152.999 24.7219 153.073 23.4636 153.295 23.4636C153.665 23.2415 154.553 23.2415 156.108 23.3895C157.736 23.5376 158.846 23.8337 159.439 24.3518C159.809 24.6478 160.105 25.462 160.179 26.7203C160.253 28.1267 159.883 29.311 158.994 30.1992C158.698 30.4952 158.032 30.7173 156.922 30.7913C155.96 30.9393 155.442 31.0134 155.442 31.0874ZM154.923 28.7928C154.923 29.0149 155.442 29.1629 156.404 29.0889C157.44 29.0889 158.106 28.8668 158.402 28.5708C158.624 28.3487 158.698 27.9046 158.772 27.1644C158.846 26.4243 158.772 25.9061 158.55 25.6841C158.254 25.314 157.588 25.092 156.478 25.0179C155.368 24.9439 154.849 25.0179 154.923 25.314C154.701 25.388 154.701 26.5723 154.923 28.7928Z" fill="white"/>
<path d="M166.396 24.2777C166.84 24.2777 167.062 24.3517 167.062 24.5738C167.21 31.8275 167.284 38.5631 167.21 44.6325C167.21 45.1507 166.988 45.5207 166.618 45.7428C166.248 45.8168 165.878 45.8168 165.582 45.5948C165.434 45.2247 165.36 44.5585 165.36 43.5223C165.434 40.7096 165.434 37.971 165.286 35.3063C165.138 35.0103 164.324 35.0103 162.991 35.3063C162.695 35.3063 162.547 37.6749 162.769 42.412C162.843 44.1144 162.769 45.1507 162.547 45.5207C162.473 45.6688 162.103 45.7428 161.437 45.6688C161.067 45.6688 160.845 45.0026 160.845 43.5963C160.845 43.1522 160.845 42.56 160.919 41.6718C160.993 40.7096 160.993 40.1175 160.993 39.7474L161.215 28.2006C161.215 26.3502 161.289 25.388 161.289 25.314C161.363 25.0179 161.511 24.7958 161.659 24.5738C161.881 24.3517 162.251 24.3517 162.621 24.4998C162.917 24.6478 162.991 26.0541 162.991 28.7188C162.917 31.4574 162.917 32.8637 163.065 33.0118C163.065 33.0858 163.435 33.1598 164.25 33.0858C164.99 33.0858 165.434 33.0118 165.434 33.0118C165.508 32.8637 165.582 31.6054 165.508 29.2369C165.434 26.7943 165.508 25.314 165.656 24.9439C165.878 24.4998 166.1 24.2777 166.396 24.2777Z" fill="white"/>
<path d="M175.279 33.3078C175.279 34.7142 175.205 36.0465 175.057 37.3048L174.909 39.1552C174.835 39.9694 174.761 40.6356 174.761 41.1537C174.687 42.7821 174.391 43.9664 173.946 44.6325C173.428 45.4467 172.836 45.8168 172.17 45.8908C170.838 46.0389 169.95 45.5207 169.283 44.4105C168.913 43.8183 168.691 43.2262 168.691 42.7821C168.617 42.1159 168.617 41.5978 168.617 41.1537C168.691 40.4135 168.691 39.3033 168.765 37.7489C168.839 35.9725 168.913 34.7882 168.913 33.974L168.987 30.3471C169.061 27.9786 169.209 26.4982 169.653 25.8321C170.098 25.0919 170.616 24.6478 171.282 24.4998C172.836 24.2777 174.02 24.7218 174.835 25.9061C175.205 26.4982 175.353 27.3864 175.279 28.7188V33.3078ZM173.206 26.9423C173.058 26.7943 172.91 26.6463 172.688 26.4982C172.392 26.3502 172.096 26.3502 171.874 26.4982C171.282 26.7203 170.912 27.3124 170.764 28.2006C170.69 28.4967 170.69 29.4589 170.69 31.0133C170.69 32.0495 170.69 33.3819 170.616 35.0843L170.468 39.0072C170.468 39.2292 170.394 39.8214 170.32 40.7096C170.246 41.3758 170.246 41.8939 170.32 42.264C170.394 43.3002 170.986 43.8183 171.948 43.8924C172.392 43.8924 172.688 43.4482 172.762 42.412C172.762 42.1899 172.836 41.8199 172.836 41.1537C172.836 40.6356 172.91 40.3395 172.91 40.1175C173.576 36.7867 173.798 33.0118 173.502 28.7928C173.502 28.0526 173.428 27.4605 173.206 26.9423Z" fill="white"/>
<path d="M178.831 27.0904C178.831 27.8306 178.905 29.0149 178.979 30.6433C179.127 32.2717 179.127 33.456 179.127 34.2701C180.164 34.4922 180.608 34.8623 180.46 35.3804C180.386 35.7505 180.016 36.0466 179.275 36.2686C179.349 37.0088 179.423 38.3411 179.497 40.3396C179.571 42.042 179.645 43.3743 179.793 44.3365C181.052 44.0405 182.014 44.0405 182.754 44.4846C182.976 44.6326 182.976 44.8547 182.828 45.2247C182.68 45.5948 182.532 45.8169 182.31 45.8169C181.052 45.9649 179.719 46.0389 178.461 46.113C177.869 46.113 177.573 45.5948 177.573 44.6326C177.277 40.6357 177.129 36.4167 176.981 31.9016C176.981 31.1614 176.907 29.9031 176.759 28.0527C176.685 26.6463 176.907 25.8321 177.573 25.4621C177.721 25.388 178.831 25.24 181.052 24.8699C181.57 24.7959 181.94 24.8699 182.236 25.092C182.458 25.314 182.532 25.6841 182.31 26.0542C182.014 26.4983 181.496 26.7204 180.756 26.7204C179.793 26.7944 179.201 26.8684 178.831 27.0904Z" fill="white"/>
<path d="M126.278 61.8787C126.648 61.8787 126.648 65.5055 126.426 72.7592C126.426 72.9813 126.426 73.4254 126.5 74.0916C126.5 74.6837 126.574 75.2018 126.5 75.4239C126.426 76.3861 125.982 76.7562 125.242 76.6082C124.872 76.5341 124.65 76.09 124.502 75.2758L123.54 58.2518C123.392 55.7352 123.466 54.4769 123.614 54.4029C123.984 54.1808 124.872 54.1068 126.426 54.1808C128.055 54.2548 129.165 54.4769 129.831 54.847C130.275 55.1431 130.571 55.8832 130.719 57.2156C130.941 58.6219 130.645 59.8062 129.757 60.7684C129.461 61.0645 128.795 61.3605 127.685 61.5086C126.796 61.6566 126.278 61.8046 126.278 61.8787ZM125.612 59.6581C125.612 59.8802 126.13 59.9542 127.093 59.8802C128.129 59.8062 128.795 59.5841 129.017 59.214C129.165 58.992 129.313 58.4739 129.313 57.8077C129.313 57.0675 129.165 56.5494 128.943 56.3273C128.647 55.9573 127.907 55.8092 126.796 55.8092C125.686 55.8092 125.168 55.9573 125.242 56.1793C125.168 56.2533 125.316 57.4376 125.612 59.6581Z" fill="white"/>
<path d="M133.31 57.0676C133.384 57.8078 133.532 58.9921 133.754 60.6205C133.976 62.2488 134.124 63.4331 134.198 64.1733C135.234 64.3213 135.678 64.6174 135.604 65.1355C135.604 65.5056 135.234 65.8017 134.494 66.0978C134.642 66.8379 134.79 68.1702 135.012 70.0947C135.234 71.7971 135.382 73.1294 135.604 74.0176C136.789 73.6475 137.825 73.5735 138.565 73.9436C138.787 74.0176 138.787 74.3137 138.713 74.6838C138.565 75.1279 138.417 75.2759 138.269 75.3499C137.011 75.572 135.752 75.72 134.42 75.9421C133.828 75.9421 133.458 75.498 133.458 74.5357C132.866 70.6128 132.421 66.3938 131.977 61.8788C131.903 61.1386 131.755 59.8803 131.459 58.1039C131.237 56.6975 131.459 55.8093 132.125 55.5132C132.273 55.4392 133.384 55.1432 135.53 54.6991C136.048 54.625 136.418 54.625 136.715 54.8471C137.011 55.0691 137.011 55.3652 136.863 55.8093C136.641 56.2534 136.122 56.4755 135.308 56.6235C134.272 56.6975 133.606 56.8456 133.31 57.0676Z" fill="white"/>
<path d="M144.117 73.3514C144.043 72.9073 144.043 72.2411 143.969 71.4269C143.969 70.4647 143.969 69.8726 143.895 69.5025L143.228 57.9557C143.154 56.1053 143.08 55.1431 143.08 55.0691C143.154 54.773 143.228 54.4769 143.45 54.3289C143.673 54.1068 143.969 54.0328 144.339 54.1808C144.635 54.3289 144.857 55.7352 145.005 58.3998C145.523 68.1702 145.893 73.1293 145.967 73.2033C145.967 73.2774 146.189 73.2774 146.559 73.2033C147.299 73.1293 147.669 73.0553 147.743 73.0553C147.818 72.9073 147.595 68.1702 146.929 58.7699C146.707 56.3274 146.633 54.921 146.781 54.4769C146.929 53.9588 147.225 53.6627 147.521 53.6627C147.966 53.6627 148.188 53.7367 148.262 53.8848C149.002 61.1385 149.52 67.8001 149.89 73.8695C149.89 74.3876 149.742 74.7577 149.372 74.9798C149.002 75.1278 148.262 75.2018 147.225 75.2758C146.189 75.3498 145.153 75.3499 144.117 75.4239C142.34 75.5719 141.23 75.5719 140.86 75.4979C140.49 75.3499 140.268 74.9798 140.268 74.4616C139.972 68.3922 139.75 61.6566 139.602 54.4029C139.602 54.1808 139.824 54.1068 140.268 54.1068C140.564 54.1068 140.86 54.3289 141.082 54.847C141.23 55.2171 141.378 56.6974 141.452 59.14C141.896 68.5402 142.192 73.2774 142.34 73.4254C142.34 73.3514 142.932 73.3514 144.117 73.3514Z" fill="white"/>
<path d="M152.481 55.9573C152.555 56.6974 152.703 57.8817 152.925 59.5101C153.147 61.1385 153.295 62.3228 153.369 63.0629C154.405 63.211 154.849 63.507 154.775 64.0252C154.775 64.3953 154.405 64.6913 153.665 64.9874C153.813 65.7276 153.961 67.0599 154.183 68.9843C154.405 70.6867 154.553 72.0191 154.775 72.9073C155.959 72.5372 156.996 72.4632 157.736 72.8333C157.958 72.9073 157.958 73.2033 157.884 73.5734C157.736 74.0175 157.588 74.1656 157.44 74.2396C156.181 74.4616 154.923 74.6097 153.591 74.8317C152.999 74.8317 152.629 74.3876 152.629 73.4254C152.036 69.5025 151.592 65.2835 151.148 60.7684C151.074 60.0282 150.926 58.7699 150.63 56.9935C150.408 55.5872 150.63 54.699 151.296 54.4029C151.444 54.3289 152.555 54.0328 154.701 53.5887C155.219 53.5147 155.589 53.5147 155.885 53.7367C156.181 53.9588 156.181 54.2549 156.033 54.699C155.811 55.1431 155.293 55.3651 154.479 55.5132C153.443 55.5872 152.851 55.7352 152.481 55.9573Z" fill="white"/>
<path d="M163.213 52.7006C163.657 52.7006 163.879 52.7746 163.953 52.9226C164.693 60.1763 165.212 66.8379 165.582 72.9074C165.582 73.4255 165.434 73.7956 165.064 74.0176C164.693 74.1656 164.323 74.0916 164.027 73.9436C163.805 73.5735 163.731 72.9073 163.657 71.9451C163.509 69.1325 163.287 66.3938 162.917 63.7292C162.769 63.4331 161.955 63.5071 160.622 63.9512C160.326 63.9512 160.4 66.3198 160.919 71.0569C161.141 72.6853 161.067 73.7956 160.919 74.1656C160.845 74.3137 160.474 74.3877 159.882 74.3877C159.512 74.4617 159.216 73.7215 159.142 72.3892C159.142 71.9451 159.068 71.353 159.068 70.4648C159.068 69.5025 159.068 68.9104 158.994 68.5403L158.402 57.1416C158.328 55.2912 158.254 54.329 158.254 54.2549C158.328 53.9589 158.402 53.6628 158.624 53.5148C158.846 53.2927 159.142 53.2187 159.512 53.3667C159.808 53.5148 160.03 54.9211 160.178 57.5857C160.326 60.3244 160.4 61.7307 160.548 61.8787C160.548 61.9528 160.919 61.9528 161.733 61.8787C162.473 61.8047 162.843 61.7307 162.917 61.7307C162.991 61.5827 162.917 60.3244 162.695 57.9558C162.473 55.5132 162.399 54.1069 162.547 53.6628C162.695 52.9966 162.917 52.7746 163.213 52.7006Z" fill="white"/>
<path d="M168.246 74.4617C167.876 74.4617 167.654 74.3136 167.432 74.0176C167.21 73.2774 167.062 71.723 166.988 69.5025C166.988 68.6143 166.84 66.6898 166.618 63.7291C166.396 61.1385 166.322 59.14 166.322 57.8817L166.248 55.5872L166.1 53.7368C166.1 53.1446 166.322 52.7745 166.766 52.7745C167.432 52.7745 167.802 53.2186 168.024 54.2549C168.098 54.625 168.172 55.5872 168.246 57.0675L168.69 66.8379C168.616 66.9859 168.764 66.4678 168.986 65.2835C169.948 62.1748 170.319 59.6582 170.245 57.6597C170.245 57.3636 170.245 56.8455 170.393 55.9573C170.541 54.847 170.615 54.3289 170.541 54.4029C170.615 53.5887 170.837 53.0706 171.281 52.8486C171.725 52.7005 171.947 52.7745 172.095 53.2186C172.391 54.625 172.613 56.6234 172.761 59.14C172.909 62.6929 173.057 64.8394 173.131 65.5796C173.205 66.4678 173.279 67.6521 173.279 69.2064C173.279 70.9088 173.279 72.0191 173.353 72.6112C173.427 73.7215 173.131 74.2396 172.539 74.0916C172.169 74.2396 171.873 74.0916 171.651 73.5735C171.503 73.1294 171.355 72.6112 171.355 72.0191L171.281 62.4708C170.615 68.0962 169.949 71.8711 169.282 73.7955C168.986 74.2396 168.69 74.4617 168.246 74.4617Z" fill="white"/>
<path d="M175.944 54.625C176.018 55.3652 176.166 56.5494 176.389 58.1778C176.611 59.8062 176.759 60.9905 176.833 61.7307C177.869 61.8787 178.313 62.1748 178.239 62.6929C178.239 63.063 177.869 63.3591 177.129 63.6551C177.277 64.3953 177.425 65.7276 177.647 67.6521C177.869 69.3545 178.017 70.6868 178.239 71.575C179.423 71.2049 180.459 71.1309 181.2 71.501C181.422 71.575 181.422 71.8711 181.348 72.2412C181.2 72.6853 181.052 72.8333 180.904 72.9073C179.645 73.1294 178.387 73.2774 177.055 73.4995C176.463 73.4995 176.092 73.0554 176.092 72.0931C175.5 68.1702 175.056 63.9512 174.612 59.4361C174.538 58.696 174.39 57.4377 174.094 55.6612C173.872 54.2549 174.094 53.3667 174.76 53.0706C174.908 52.9966 176.018 52.7005 178.165 52.2564C178.683 52.1824 179.053 52.1824 179.349 52.4045C179.645 52.6265 179.645 52.9226 179.497 53.3667C179.275 53.8108 178.757 54.0328 177.943 54.1809C176.907 54.2549 176.241 54.4029 175.944 54.625Z" fill="white"/>
<path d="M70.6173 138.635C70.3953 138.117 70.1732 137.525 70.0992 137.006C69.285 133.306 69.285 133.306 65.5842 133.75C64.3999 133.898 63.2896 134.046 62.1053 134.194C61.2911 134.268 60.551 134.268 60.4029 133.232C60.2549 132.195 60.921 131.825 61.8093 131.529C64.0298 130.937 66.2503 131.381 68.5449 131.085C68.6189 129.901 67.5826 129.827 66.9905 129.309C66.4724 128.864 65.2881 128.642 65.8802 127.754C66.5464 126.644 67.2865 127.754 67.9527 128.124C68.6189 128.42 68.989 129.235 70.0252 129.161C70.0252 128.864 70.0992 128.568 70.0992 128.272C69.9512 122.351 69.4331 116.43 69.5071 110.508C69.5811 107.844 69.359 104.513 67.4346 103.106C66.1763 102.144 63.5117 104.735 61.4392 105.771C58.7745 107.103 56.1099 108.584 53.5933 110.138C51.5948 111.322 49.8184 111.322 47.7459 110.36C42.4907 107.844 37.0874 105.623 31.7581 103.254C30.4258 102.662 30.0557 102.736 29.3896 104.291C26.873 109.546 27.5391 114.801 28.7234 120.204C29.0195 121.611 29.0935 123.017 29.3156 124.423C29.4636 125.608 29.0195 127.384 31.314 126.718C31.6841 126.644 32.0542 126.866 31.9802 127.236C31.9062 128.198 30.7959 127.976 30.2038 128.642C31.9062 129.679 33.6086 130.715 35.237 131.825C36.0512 132.417 37.4575 133.083 36.5693 134.268C35.7551 135.378 34.7188 134.268 33.9787 133.75C32.4243 132.639 30.944 131.455 29.3156 130.123C28.6494 131.603 28.7234 132.935 28.5014 134.342C28.4274 135.082 28.2793 135.896 27.2431 135.896C26.4289 135.822 26.2808 135.082 26.1328 134.416C26.1328 134.342 26.1328 134.268 26.1328 134.194C25.6887 132.787 27.021 130.863 25.7627 130.049C24.6524 129.383 22.876 129.975 21.3217 129.975C20.8776 129.975 20.5075 129.975 20.0634 129.901C18.8791 129.679 16.8066 130.345 16.8806 128.494C16.9546 126.792 19.0271 127.384 20.2114 127.236C21.9138 127.088 23.5422 127.384 25.1706 127.754C26.4289 128.05 27.2431 127.828 26.873 126.126C26.0588 122.277 25.5407 118.428 24.7265 114.579C23.7642 110.434 24.4304 106.289 24.3564 102.07C24.3564 100.516 23.8383 99.8496 22.5059 99.3315C15.8444 96.5188 9.25681 93.5581 2.59523 90.7455C0.744791 90.0053 -0.0694021 88.969 0.00461544 86.8225C0.448721 68.7623 0.89283 50.628 1.1889 32.5677C1.26292 30.1991 2.22514 29.0148 4.37165 28.2006C17.7688 23.0934 31.092 17.9122 44.4151 12.657C46.1916 11.9908 47.7459 11.9908 49.4483 12.657C64.5479 18.3563 79.6475 23.9816 94.8211 29.607C94.8211 49.1476 94.8211 68.6882 94.8211 88.3029C87.3453 91.6337 80.4617 96.0007 73.282 99.7016C71.9497 100.368 72.2457 101.404 72.1717 102.514C71.7276 110.878 73.0599 119.168 71.8756 127.532C71.5056 130.197 72.2457 131.751 75.1324 132.121C76.3167 132.269 77.501 132.935 78.6112 133.454C79.3514 133.75 80.5357 134.046 80.1656 135.008C79.7955 136.192 78.6112 135.674 77.7971 135.452C76.0206 135.008 74.2442 134.416 72.3198 133.824C72.9119 135.822 72.9119 137.377 72.2457 139.005C71.5796 138.635 71.1355 138.635 70.6173 138.635ZM51.6688 109.028C52.335 108.806 52.5571 108.732 52.7791 108.658C65.6582 101.7 78.6112 94.6684 91.4903 87.7848C93.0446 86.9706 93.1927 85.7863 93.1927 84.3059C93.1927 67.578 93.1927 50.924 93.1927 34.1961C93.1927 31.4574 93.1187 31.3834 90.6021 32.4196C78.5372 37.4528 66.4724 42.486 54.3335 47.3712C52.335 48.1854 51.5948 49.2956 51.5948 51.4422C51.6689 69.5765 51.6688 87.7107 51.6688 105.771C51.6688 106.807 51.6688 107.769 51.6688 109.028ZM33.9787 63.9511C33.9787 70.4647 33.9787 76.6821 33.9787 82.8996C33.9787 83.9358 34.7188 84.3059 35.459 84.602C39.826 86.4524 44.1931 88.2289 48.4861 90.1533C50.0405 90.8195 50.1145 90.2273 50.1145 88.969C50.1145 83.1957 50.1145 77.4963 50.1145 71.723C50.1145 70.8347 50.0405 70.1686 49.0042 69.7985C44.1191 67.874 39.2339 65.9496 33.9787 63.9511ZM32.4983 52.0343C32.4983 49.3697 32.4243 46.705 32.4983 44.0404C32.5723 42.7081 32.0542 41.8939 30.7959 41.3758C26.4289 39.7474 22.0618 38.119 17.7688 36.4166C16.4365 35.8985 15.9924 36.1205 15.9924 37.6009C16.0664 42.9301 15.9924 48.2594 15.9184 53.5887C15.9184 54.7729 16.3625 55.4391 17.4728 55.8092C21.9878 57.5116 26.5029 59.288 30.9439 61.1384C32.2022 61.6566 32.5723 61.2865 32.4983 60.0282C32.4243 57.3636 32.4983 54.6989 32.4983 52.0343ZM15.9924 56.8454C15.9924 63.0629 15.9924 68.9103 15.9924 74.7577C15.9924 75.7939 16.3625 76.5341 17.3247 76.9042C21.8398 78.8286 26.3549 80.6791 30.8699 82.6775C32.1282 83.1957 32.4983 82.8996 32.4243 81.5673C32.3503 75.942 32.3503 70.3906 32.4243 64.7653C32.4243 63.655 31.9802 63.0629 31.018 62.6928C26.2068 60.8424 21.3217 58.9179 15.9924 56.8454ZM33.9787 52.6264C33.9787 55.2911 34.0527 57.9557 33.9787 60.6203C33.9787 61.8046 34.2747 62.4708 35.385 62.9149C39.826 64.6173 44.2671 66.3197 48.6341 68.0961C50.0405 68.6882 50.1885 68.0961 50.1885 66.9118C50.1885 61.4345 50.1885 55.8832 50.1885 50.4059C50.1885 49.3697 49.8924 48.7035 48.7822 48.3334C44.3411 46.705 39.9001 45.0026 35.533 43.2262C34.2007 42.7081 33.9787 43.1522 33.9787 44.3365C33.9787 47.1491 33.9787 49.8878 33.9787 52.6264ZM15.9924 77.7924C15.9924 83.1957 16.0664 88.2289 15.9924 93.2621C15.9924 94.6684 16.7326 95.1125 17.7688 95.5566C21.9138 97.333 25.9848 99.1094 30.0557 100.96C31.7581 101.7 32.4983 101.552 32.4983 99.4795C32.4243 95.1125 32.4983 90.8195 32.4983 86.4524C32.4983 85.4902 32.3503 84.75 31.314 84.3059C26.3549 82.2334 21.3957 80.0869 15.9924 77.7924ZM50.1145 100.96C50.1145 98.7393 50.0405 96.4448 50.1145 94.2243C50.1885 92.966 49.7444 92.2258 48.5601 91.7077C44.2671 89.9313 39.9741 88.1548 35.6811 86.2304C34.0527 85.4902 33.9046 86.0824 33.9046 87.4887C33.9787 91.9297 33.9787 96.3708 33.9046 100.738C33.9046 101.996 34.2747 102.736 35.459 103.254C39.826 105.105 44.1931 107.029 48.4861 108.954C49.6704 109.472 50.1145 109.25 50.1145 107.918C50.1145 105.697 50.1145 103.328 50.1145 100.96ZM14.5861 65.9496C14.5861 63.285 14.5121 60.6203 14.5861 57.9557C14.6601 56.6974 14.142 55.9572 12.9577 55.5131C9.99698 54.4029 7.03629 53.2926 4.1496 52.0343C2.52122 51.3681 2.15111 51.8122 2.0771 53.4406C2.00308 58.5478 1.92907 63.655 1.78103 68.7623C1.78103 69.8725 2.07712 70.4647 3.11336 70.8347C6.44415 72.1671 9.70092 73.5734 13.0317 75.0537C14.29 75.6459 14.6601 75.3498 14.5861 74.0175C14.5121 71.3529 14.5861 68.6142 14.5861 65.9496ZM14.5861 45.0026C14.5861 42.338 14.5121 39.6734 14.5861 37.0087C14.5861 35.7504 14.216 35.0103 12.9577 34.5662C10.145 33.5299 7.33236 32.4937 4.59371 31.3094C3.18738 30.7172 2.52121 30.7913 2.52121 32.5677C2.52121 37.7489 2.37318 42.8561 2.29916 48.0373C2.29916 49.1476 2.52121 49.8878 3.70549 50.3319C6.81423 51.5162 9.92297 52.7005 12.9577 53.9588C14.216 54.4769 14.5861 54.1808 14.5121 52.9225C14.5121 50.3319 14.5861 47.6673 14.5861 45.0026ZM14.5861 94.0762C14.5861 88.599 14.5861 83.5658 14.5861 78.4585C14.5861 77.4223 14.142 76.9782 13.2537 76.6081C9.92296 75.2018 6.6662 73.8695 3.40943 72.3891C1.92908 71.723 1.70701 72.3151 1.70701 73.5734C1.63299 78.0144 1.55898 82.3815 1.41094 86.8225C1.41094 87.8588 1.70703 88.5249 2.74327 88.969C6.51817 90.5974 10.2931 92.2998 14.5861 94.0762ZM17.2507 34.7142C22.802 36.7867 27.8352 38.7111 32.8684 40.6356C33.8306 41.0057 34.7188 40.7096 35.533 40.2655C38.5678 38.8592 41.5285 37.3788 44.5632 36.0465C45.3034 35.6764 45.9695 35.1583 46.0435 34.4921C46.1175 33.6779 45.1553 33.6039 44.5632 33.3819C41.3064 31.9755 37.9016 30.7172 34.6448 29.3109C33.3865 28.7928 32.3503 28.7928 31.092 29.3109C26.6509 31.0873 22.2099 32.7897 17.2507 34.7142ZM35.7551 41.8199C40.7143 43.7443 45.1553 45.3727 49.5223 47.0751C50.4106 47.4452 51.1507 47.1491 51.8909 46.8531C55.3697 45.4467 58.7745 43.9664 62.2534 42.56C62.7715 42.338 63.5857 42.338 63.5117 41.5978C63.4376 40.8576 62.6235 40.9317 62.1793 40.7096C58.6265 39.1552 54.9996 37.6749 51.3728 36.1945C50.1145 35.6764 48.7822 35.6764 47.5239 36.2686C43.675 37.971 39.9741 39.8214 35.7551 41.8199ZM79.7215 35.2323C77.7971 34.4921 76.4647 34.1961 75.2064 33.5299C71.5796 31.6795 67.6567 30.6432 63.8077 29.3109C63.3636 29.1629 62.7715 29.1629 62.3274 29.3849C58.7005 31.0133 55.1477 32.7157 51.1507 34.5662C55.8879 36.5646 60.2549 38.4151 64.6219 40.1915C65.6582 40.6356 66.8425 40.6356 67.8047 40.2655C71.6536 38.7111 75.3545 37.0828 79.7215 35.2323ZM35.6811 27.6085C35.6811 27.8306 35.6071 28.1266 35.6811 28.1266C39.9741 29.9031 44.2671 31.6795 48.5601 33.4559C48.8562 33.6039 49.2263 33.6779 49.5223 33.6039C53.2232 31.9015 56.9241 30.1991 61.2171 28.2747C56.406 26.5723 52.335 25.1659 48.2641 23.7596C47.3758 23.3895 46.5617 23.3895 45.5994 23.7596C42.2686 25.0919 38.9379 26.2762 35.6811 27.6085ZM64.992 28.0526C70.9874 30.1251 76.3907 31.9755 81.794 33.9C82.5342 34.1961 83.0523 33.9 83.6444 33.6039C85.6429 32.7897 87.6414 31.9755 89.6398 31.0873C90.158 30.8653 91.1202 30.9393 91.1942 30.0511C91.2682 29.0889 90.232 29.2369 89.7139 29.0148C85.2728 27.3124 80.8318 25.6841 76.3907 24.0557C75.4285 23.6856 74.4662 23.5375 73.504 23.9817C70.8394 25.314 68.2488 26.5723 64.992 28.0526ZM4.44567 29.681C10.219 32.0496 15.5483 35.5284 21.8398 31.3834C23.3942 30.3472 25.3926 30.0511 27.1691 29.2369C27.8352 28.9408 28.9455 29.0889 29.0195 27.9046C29.0935 26.7203 27.9832 26.7203 27.3171 26.4242C25.9107 25.7581 24.4304 25.1659 22.9501 24.4998C21.1736 23.6856 19.3972 23.6116 17.6208 24.3517C13.4018 26.1282 9.03475 27.8306 4.44567 29.681ZM72.7638 22.7974C68.6189 21.243 65.14 19.9847 61.6612 18.6524C60.921 18.3563 60.1809 18.1343 59.5147 18.3563C56.1839 19.6146 52.9271 20.8729 49.0782 22.4273C53.8894 24.1297 58.0344 25.61 62.2534 27.0904C62.7715 27.2384 63.2156 27.2384 63.6597 27.0164C66.4724 25.6841 69.359 24.4258 72.7638 22.7974ZM22.2099 22.7234C25.8367 24.2037 28.9455 25.536 32.0542 26.7943C32.5723 27.0164 33.2385 26.9424 33.7566 26.7943C37.2354 25.462 40.7143 24.0557 44.1191 22.7234C37.8276 19.2445 31.388 17.4681 24.7265 21.7611C24.2083 22.0572 23.3942 22.2052 22.2099 22.7234ZM57.9603 17.3201C54.7036 16.0618 51.8909 15.0255 49.1523 13.9893C48.6341 13.7672 48.3381 13.6932 47.894 14.4334C47.0798 15.6177 45.6734 15.9137 44.4151 14.7295C44.0451 14.3594 43.749 14.2854 43.3789 14.4334C40.7883 15.3956 38.2717 16.3578 35.459 17.4681C46.0435 21.9832 46.0435 21.9832 56.1839 17.9862C56.628 17.9122 56.9981 17.7642 57.9603 17.3201Z" fill="#0C0E0F"/>
<path d="M33.9785 63.9512C39.1597 65.9496 44.1189 67.9481 49.0781 69.7986C50.1143 70.1686 50.1884 70.8348 50.1884 71.723C50.1884 77.4964 50.1884 83.1957 50.1884 88.9691C50.1884 90.2274 50.0403 90.8936 48.56 90.1534C44.267 88.2289 39.8999 86.3785 35.5329 84.6021C34.7187 84.232 34.0525 83.9359 34.0525 82.8997C33.9785 76.6822 33.9785 70.4647 33.9785 63.9512Z" fill="#7ECFE4"/>
<path d="M32.4989 52.0344C32.4989 54.699 32.4249 57.3636 32.4989 60.0283C32.4989 61.2866 32.2028 61.6567 30.9445 61.1385C26.5034 59.2881 21.9884 57.5857 17.4733 55.8093C16.4371 55.3652 15.9189 54.773 15.9189 53.5887C15.993 48.2595 15.993 42.9302 15.993 37.601C15.993 36.1206 16.4371 35.8986 17.7694 36.4167C22.1364 38.1191 26.4294 39.8215 30.7965 41.3758C32.1288 41.894 32.5729 42.6341 32.4989 44.0405C32.4249 46.7051 32.4989 49.3697 32.4989 52.0344Z" fill="#9A84BC"/>
<path d="M15.9922 56.8455C21.3215 58.9179 26.2066 60.8424 31.0918 62.7669C32.054 63.1369 32.4981 63.7291 32.4981 64.8393C32.4241 70.4647 32.4241 76.016 32.4981 81.6413C32.4981 82.9736 32.202 83.2697 30.9437 82.7516C26.4286 80.7531 21.9136 78.9027 17.3985 76.9782C16.4363 76.6081 16.0662 75.868 16.0662 74.8317C16.0662 68.9103 15.9922 63.0629 15.9922 56.8455ZM22.4317 64.1732C21.6915 64.3212 21.3955 64.6173 21.5435 65.0614C21.9136 66.1717 22.1356 67.3559 23.468 67.726C23.8381 67.8001 24.3562 67.43 24.1341 66.9859C23.616 65.9496 22.9498 65.0614 22.4317 64.1732ZM22.6538 75.1278C21.9136 74.6097 22.1356 73.1293 20.8033 73.1293C20.3592 73.1293 20.2852 73.7955 20.4332 74.1656C20.7293 74.9797 20.8033 76.09 21.9876 76.09C22.5057 76.09 22.7278 75.7939 22.6538 75.1278ZM28.5012 75.6459C27.909 75.1278 28.2051 73.7955 26.9468 73.5734C26.4287 73.4994 26.3546 74.0915 26.4287 74.4616C26.5767 75.4239 26.7987 76.4601 27.983 76.6822C28.5011 76.8302 28.5012 76.3121 28.5012 75.6459ZM28.5012 65.3575C27.761 65.5055 27.687 65.9496 27.761 66.4677C27.983 67.2079 27.983 68.2442 29.0193 68.3182C29.5374 68.3182 29.6114 67.8001 29.5374 67.3559C29.3894 66.6158 29.3894 65.7276 28.5012 65.3575Z" fill="#33B7CB"/>
<path d="M33.9788 52.6265C33.9788 49.8878 33.9788 47.1492 33.9788 44.3365C33.9788 43.1522 34.2009 42.6341 35.5332 43.2263C39.9002 45.0027 44.3413 46.7051 48.7823 48.3335C49.8186 48.7036 50.1887 49.3697 50.1887 50.406C50.1887 55.8833 50.1887 61.4346 50.1887 66.9119C50.1887 68.0961 50.0406 68.6143 48.6343 68.0961C44.2673 66.3197 39.8262 64.6173 35.3851 62.9149C34.2749 62.4708 33.9048 61.8047 33.9788 60.6204C34.0528 57.9557 33.9788 55.2911 33.9788 52.6265ZM43.009 49.8138C42.8609 49.1477 42.4168 48.7036 41.9727 49.1477C40.9365 50.1099 40.4924 51.4422 40.0483 52.7745C39.9742 52.9226 40.1963 53.2926 40.3443 53.3667C40.6404 53.5887 41.0105 53.5147 41.2325 53.2186C41.8987 52.1084 42.4908 50.9241 43.009 49.8138ZM46.8579 51.7383C46.9319 51.2942 46.7098 50.9241 46.3398 50.9981C45.0074 51.1461 44.5633 52.3304 44.0452 53.3667C43.8232 53.7367 44.1192 54.3289 44.5633 54.2549C45.8216 53.7367 46.1917 52.5525 46.8579 51.7383ZM43.4531 59.3621C43.4531 58.844 43.157 58.4739 42.7129 58.5479C41.8247 58.844 41.2325 59.5101 40.7884 60.3243C40.5664 60.7684 41.0105 61.2125 41.3806 61.1385C42.4908 61.0645 43.083 60.1763 43.4531 59.3621Z" fill="#4B7DBE"/>
<path d="M15.9924 77.7925C21.3957 80.087 26.3548 82.2335 31.314 84.306C32.3503 84.7501 32.4983 85.4903 32.4983 86.4525C32.4983 90.8196 32.4243 95.1126 32.4983 99.4796C32.4983 101.478 31.7581 101.7 30.0557 100.96C25.9848 99.1095 21.8398 97.3331 17.7688 95.5567C16.6585 95.1126 15.9184 94.5945 15.9924 93.2621C16.0664 88.2289 15.9924 83.2698 15.9924 77.7925Z" fill="#CE9CC6"/>
<path d="M50.1142 100.96C50.1142 103.328 50.1142 105.623 50.1142 107.992C50.1142 109.324 49.7441 109.62 48.4858 109.028C44.1187 107.103 39.8257 105.179 35.4587 103.328C34.2744 102.81 33.9043 102.07 33.9043 100.812C33.9783 96.3708 33.9783 91.9297 33.9043 87.5627C33.9043 86.1564 34.0523 85.5642 35.6807 86.3044C39.9738 88.2289 44.2668 90.0053 48.5598 91.7817C49.7441 92.2998 50.1142 93.04 50.1142 94.2983C50.1142 96.4448 50.1142 98.7394 50.1142 100.96ZM37.3091 94.4463C38.0493 93.7062 38.6414 92.7439 39.0855 91.6337C39.1595 91.3376 39.0115 90.8935 38.5674 91.0415C37.3831 91.4856 36.791 92.3739 36.4949 93.5581C36.4209 94.0022 36.717 94.3723 37.3091 94.4463ZM43.0085 100.442C43.9707 99.9977 44.6369 99.1835 44.9329 98.0732C45.081 97.7031 44.6368 97.407 44.3408 97.4811C43.1565 97.9252 42.5644 98.8134 42.1943 99.9236C42.1203 100.368 42.5644 100.516 43.0085 100.442ZM40.0478 96.0747C39.9737 96.6669 40.1958 97.185 40.6399 96.9629C41.6021 96.5188 42.2683 95.6306 42.7864 94.7424C43.0825 94.2983 42.5644 93.9282 42.1202 94.0022C41.01 94.2983 40.4179 95.2605 40.0478 96.0747Z" fill="#3D459A"/>
<path d="M14.5863 65.9496C14.5863 68.6142 14.5123 71.2789 14.5863 73.9435C14.5863 75.2758 14.2902 75.4979 13.0319 74.9797C9.77515 73.4994 6.44437 72.1671 3.11358 70.7607C2.15135 70.3166 1.78125 69.7245 1.78125 68.6882C1.92929 63.581 2.0033 58.4738 2.07732 53.3666C2.07732 51.7382 2.52143 51.2941 4.14982 51.9603C7.0365 53.2186 9.9972 54.3288 12.9579 55.4391C14.1422 55.8832 14.5863 56.5494 14.5863 57.8817C14.5123 60.6203 14.5863 63.285 14.5863 65.9496Z" fill="#C0ABD1"/>
<path d="M14.5859 45.0026C14.5859 47.6673 14.5859 50.3319 14.5859 52.9965C14.5859 54.2548 14.2899 54.6249 13.0316 54.0328C9.99685 52.7745 6.88811 51.5162 3.77938 50.4059C2.59509 49.9618 2.37305 49.2216 2.37305 48.1114C2.52108 42.9302 2.59509 37.8229 2.59509 32.6417C2.59509 30.7913 3.26124 30.7913 4.66757 31.3834C7.40622 32.4937 10.2189 33.6039 13.0316 34.6402C14.2899 35.0843 14.6599 35.8245 14.6599 37.0828C14.5119 39.6734 14.5859 42.338 14.5859 45.0026ZM7.92436 36.7867C7.03615 37.0088 6.81409 37.897 6.36999 38.5631C5.92588 39.3033 5.48177 39.9695 5.92588 40.8577C6.14793 41.3018 6.59203 41.4498 6.8881 40.9317C7.48024 39.8214 7.99837 38.7112 8.51649 37.6009C8.73855 37.2308 8.5165 36.8607 7.92436 36.7867ZM9.47871 48.6295C10.1449 47.9633 10.2929 46.9271 10.589 46.0389C10.811 45.5208 10.4409 45.1507 9.99684 45.2247C8.88658 45.4468 8.88659 46.557 8.59052 47.3712C8.5165 47.8893 8.66452 48.3334 9.47871 48.6295ZM10.737 42.19C11.6992 41.5238 11.8473 40.3395 12.4394 39.3033C12.6615 38.9332 12.3654 38.3411 11.9213 38.4151C10.737 38.7112 10.515 39.9695 10.0709 40.9317C9.7748 41.5238 10.0709 41.9679 10.737 42.19ZM5.55579 44.2625C4.7416 44.5585 4.81561 45.4468 4.66757 46.1129C4.59355 46.483 4.88962 47.0011 5.40775 46.8531C6.29596 46.631 6.22195 45.6688 6.36999 45.0026C6.51802 44.5585 6.14793 44.2625 5.55579 44.2625Z" fill="#90CFC3"/>
<path d="M14.5863 94.0763C10.3673 92.2259 6.51836 90.5975 2.74346 88.9691C1.78123 88.525 1.41113 87.9329 1.41113 86.8226C1.55917 82.3816 1.63318 78.0145 1.7072 73.5735C1.7072 72.3152 1.92926 71.7231 3.40962 72.3892C6.66639 73.8696 9.99717 75.2019 13.2539 76.6082C14.0681 76.9783 14.5863 77.4964 14.5863 78.4586C14.5122 83.5659 14.5863 88.6731 14.5863 94.0763ZM12.4397 82.3816C12.3657 81.7894 12.0697 81.4194 11.6256 81.6414C10.6633 82.0855 9.62709 82.4556 9.33102 83.6399C9.257 83.8619 9.55307 84.306 9.99717 84.158C10.9594 83.8619 11.8476 83.2698 12.4397 82.3816ZM7.48058 80.1611C7.40656 79.5689 7.92468 78.5327 7.03647 78.4586C5.85219 78.3846 6.07425 79.5689 6.00023 80.3091C5.92621 81.0493 5.77818 82.1595 6.7404 82.1595C7.92469 82.0855 7.25853 80.8272 7.48058 80.1611ZM8.36878 88.525C7.77664 88.0809 8.14673 86.7486 7.03647 86.5266C6.37031 86.3785 6.2963 87.0447 6.44434 87.5628C6.66639 88.451 6.66639 89.4132 7.85067 89.5613C8.36879 89.5613 8.51681 89.1172 8.36878 88.525ZM4.5939 78.3846C5.33408 77.9405 5.77817 77.2744 5.92621 76.4602C6.00022 76.0901 5.77818 75.794 5.33408 75.868C4.37185 76.0161 4.00176 76.7562 3.7797 77.5704C3.7797 78.0145 4.00176 78.3846 4.5939 78.3846Z" fill="#CCDC84"/>
<path d="M17.251 34.7142C22.2102 32.7898 26.6512 31.0874 31.0923 29.311C32.3506 28.7928 33.4608 28.7928 34.6451 29.311C37.9019 30.7173 41.2327 32.0496 44.5635 33.3819C45.1556 33.604 46.1178 33.678 46.0438 34.4922C45.9698 35.1583 45.3777 35.6765 44.5635 36.0466C41.5287 37.3789 38.568 38.8592 35.5333 40.2656C34.7191 40.6356 33.8309 41.0057 32.8687 40.6356C27.8355 38.7112 22.7283 36.7867 17.251 34.7142ZM33.0167 34.7883C32.9427 34.2701 33.3128 33.4559 32.4986 33.3819C31.6104 33.3079 31.6844 34.1961 31.5364 34.7883C31.3883 35.3804 31.3883 36.1206 32.1285 36.1946C33.0907 36.3426 32.9427 35.3804 33.0167 34.7883Z" fill="#BAA6CD"/>
<path d="M35.7549 41.82C39.9739 39.8215 43.6748 38.0451 47.4497 36.2686C48.708 35.6765 50.0403 35.6765 51.2986 36.1946C54.9254 37.675 58.4783 39.1553 62.1051 40.7097C62.6233 40.9317 63.4375 40.8577 63.4375 41.5979C63.5115 42.4121 62.6973 42.3381 62.1792 42.5601C58.7743 44.0405 55.2955 45.4468 51.8167 46.8531C51.0765 47.1492 50.3363 47.4453 49.4481 47.0752C45.1551 45.3728 40.7141 43.6704 35.7549 41.82Z" fill="#9A84BC"/>
<path d="M79.7216 35.2323C75.3545 37.0828 71.6537 38.7112 67.9528 40.2655C66.9905 40.6356 65.7323 40.6356 64.77 40.1915C60.403 38.4151 56.036 36.5647 51.2988 34.5662C55.2218 32.7157 58.8486 31.0133 62.4755 29.385C62.9196 29.1629 63.5117 29.1629 63.9558 29.3109C67.7307 30.6432 71.7277 31.6795 75.3545 33.5299C76.3908 34.1221 77.7971 34.4922 79.7216 35.2323ZM71.8017 34.3441C71.8017 33.9 71.4316 33.678 71.2096 33.752C70.2473 34.0481 69.4331 34.5662 69.063 35.6024C68.915 35.9725 69.2851 36.4166 69.8032 36.2686C70.7654 35.9725 71.5056 35.3804 71.8017 34.3441ZM63.4377 32.2716C63.6598 31.6055 63.2897 31.3094 62.9196 31.3834C61.7353 31.5315 61.5133 32.6417 61.1432 33.5299C60.9211 34.0481 61.1432 34.7142 61.7353 34.6402C62.9196 34.3441 62.7716 32.8638 63.4377 32.2716ZM67.1386 37.4529C66.6205 36.5647 65.6582 36.5647 64.8441 36.4166C64.3999 36.3426 63.9558 36.6387 64.0299 37.0828C64.2519 38.119 65.2882 37.971 66.0283 38.193C66.6205 38.4151 66.9906 38.119 67.1386 37.4529ZM66.7685 35.6024C67.6567 35.3064 67.8047 34.4181 68.0268 33.678C68.1748 33.1598 67.8788 32.7898 67.4347 32.8638C66.4724 33.0858 66.3244 33.974 66.1023 34.7142C65.9543 35.1583 66.1764 35.5284 66.7685 35.6024Z" fill="#33B7CB"/>
<path d="M35.6813 27.6085C38.9381 26.3502 42.3429 25.0919 45.5997 23.7596C46.4879 23.3895 47.3021 23.3895 48.2643 23.7596C52.3353 25.24 56.4062 26.6463 61.2174 28.2747C56.9244 30.1991 53.2235 31.9756 49.5226 33.604C49.3005 33.752 48.8564 33.604 48.5604 33.4559C44.2674 31.6795 39.9744 29.9031 35.6813 28.1267C35.6073 28.0526 35.6813 27.8306 35.6813 27.6085Z" fill="#4B7DBE"/>
<path d="M64.9922 28.0527C68.249 26.4983 70.8396 25.24 73.5042 24.0557C74.4664 23.6116 75.4287 23.7597 76.3909 24.1298C80.832 25.8322 85.273 27.4605 89.7141 29.0889C90.2322 29.311 91.2684 29.237 91.1944 30.1252C91.1204 31.0134 90.2322 30.9394 89.64 31.1614C87.6415 32.0496 85.6431 32.8638 83.6446 33.678C83.0525 33.9001 82.5343 34.1961 81.7942 33.9741C76.3169 32.0496 70.9136 30.1252 64.9922 28.0527Z" fill="#CE9CC6"/>
<path d="M4.44531 29.6811C9.0344 27.8306 13.3274 26.1282 17.6204 24.4258C19.3968 23.6857 21.1733 23.8337 22.9497 24.5739C24.356 25.24 25.8364 25.8322 27.3167 26.4983C27.9829 26.7944 29.0932 26.7944 29.0191 27.9787C28.9451 29.163 27.8349 29.0149 27.1687 29.311C25.3923 30.1252 23.3938 30.4213 21.8394 31.4575C15.622 35.5285 10.2187 32.0496 4.44531 29.6811Z" fill="#CCDC84"/>
<path d="M72.7637 22.7975C69.3589 24.4258 66.5463 25.6841 63.6596 27.0165C63.2155 27.2385 62.6974 27.2385 62.2533 27.0905C58.0343 25.6101 53.8893 24.1298 49.0781 22.4274C52.927 20.947 56.1838 19.6147 59.5146 18.3564C60.1808 18.0603 60.9949 18.3564 61.6611 18.6525C65.1399 19.9848 68.6188 21.2431 72.7637 22.7975Z" fill="#90CFC3"/>
<path d="M22.21 22.7234C23.3942 22.2793 24.2084 22.1313 24.8006 21.6872C31.4622 17.3941 37.8277 19.1706 44.1932 22.6494C40.7884 23.9817 37.3095 25.388 33.8307 26.7203C33.3126 26.9424 32.6464 26.9424 32.1283 26.7203C28.9456 25.5361 25.8368 24.2038 22.21 22.7234Z" fill="#7ECFE4"/>
<path d="M57.9605 17.3201C56.9983 17.6902 56.6282 17.8382 56.2581 17.9863C46.1177 21.9832 46.1177 21.9832 35.5332 17.4682C38.3459 16.3579 40.8625 15.3957 43.4531 14.4334C43.8232 14.2854 44.1192 14.3594 44.4893 14.7295C45.6736 15.8398 47.1539 15.6177 47.9681 14.4334C48.4863 13.6933 48.7083 13.7673 49.2264 13.9893C51.9651 15.0256 54.7037 16.0618 57.9605 17.3201Z" fill="#CCDC84"/>
<path d="M78.3897 58.992C78.7598 57.9558 78.3157 56.9195 78.9819 56.1793C79.574 55.4392 80.3882 55.0691 81.2024 55.6612C82.0166 56.1793 82.1646 57.3636 81.4985 57.8077C79.1299 59.2881 81.0544 60.3243 81.8685 61.2125C83.3489 62.7669 85.1994 64.0252 86.5317 65.7276C86.9758 66.2457 87.864 66.8379 87.3459 67.6521C86.9018 68.3922 86.1616 67.7261 85.5694 67.578C84.0891 67.2079 82.8308 67.504 81.7945 68.7623C80.7583 69.9466 79.648 71.0569 78.5378 72.2411C77.7236 73.2034 76.7614 74.1656 77.7976 75.4979C78.1677 76.016 78.0196 76.4601 77.5755 76.7562C76.9834 77.1263 76.5393 76.9783 76.0952 76.3861C75.7251 75.942 75.9472 74.8318 74.9109 75.2759C74.0227 75.6459 73.7266 76.3121 73.6526 77.2743C73.5786 77.9405 74.0967 79.0508 72.9865 79.0508C72.0983 79.0508 72.2463 78.0885 72.1723 77.4964C72.0983 76.9042 71.7282 76.6082 71.136 76.6822C70.4699 76.7562 70.1738 77.2003 70.0258 77.8665C69.8777 78.5326 69.9518 79.3468 68.9895 79.3468C67.9533 79.3468 68.1753 78.5326 68.2493 77.8665C68.3234 77.4224 68.1013 76.9042 67.6572 76.9783C65.5107 77.3483 63.5862 75.5719 61.3657 76.4601C60.2554 76.9042 59.4413 76.0901 59.9594 74.7577C60.4775 73.4254 60.9956 72.0931 61.6618 70.8348C62.2539 69.7986 62.0319 69.3545 60.9216 69.1324C59.3672 68.8363 58.1089 67.9481 57.2947 66.6898C56.7766 66.0237 56.7026 65.1355 57.2947 64.3213C57.6648 63.8031 58.331 63.7291 58.9231 64.0252C59.7373 64.3953 60.2554 64.9874 59.8854 66.0237C59.2932 67.7261 60.9216 67.43 61.5878 67.8001C62.624 68.3182 63.2162 67.504 63.8083 66.6898C64.4745 65.6536 63.9563 65.2095 63.1421 64.6914C62.1059 64.0252 61.2917 63.063 60.6255 61.9527C60.2554 61.3606 60.1074 60.6944 60.5515 60.1023C60.9216 59.5841 61.5137 59.3621 62.1059 59.6582C62.772 59.9542 63.2162 60.5464 62.9941 61.2865C62.476 62.6929 63.4382 63.211 64.3264 63.5811C65.7327 64.1732 66.1028 62.6929 66.843 62.0267C67.6572 61.3606 67.5092 60.6204 66.769 59.9542C65.9548 59.14 65.5847 58.1778 65.7327 56.9935C65.8068 56.1793 66.3249 55.8092 67.0651 55.8833C67.8052 55.9573 68.1013 56.5494 67.8793 57.1416C67.4352 58.5479 67.5092 59.5101 69.2856 59.4361C71.2841 59.3621 72.4683 58.0298 72.2463 56.4754C72.1723 55.8092 72.0983 55.1431 72.1723 54.4769C72.2463 53.5887 72.7644 52.9966 73.6526 53.1446C74.6889 53.2927 75.133 54.4029 74.6889 55.0691C73.1345 57.5117 74.8369 57.8077 76.5393 58.2518C76.9834 58.3258 77.5755 58.6959 78.3897 58.992ZM67.9533 75.4239C71.7282 75.72 74.7629 74.3136 77.2055 71.4269C78.5378 69.8726 80.0181 68.3182 81.4985 66.8379C83.867 64.5433 83.867 64.5433 80.9804 62.4708C80.3142 61.9527 79.574 61.5086 78.9079 61.0645C74.8369 58.5479 72.1723 58.844 68.5454 62.1007C66.1028 64.3213 65.0666 67.356 63.5862 70.1686C61.5137 74.2396 62.1799 75.2018 66.917 75.3499C67.2871 75.4239 67.5832 75.4239 67.9533 75.4239Z" fill="#080F10"/>
<path d="M76.7602 85.4903C76.3901 84.232 76.2421 82.6776 74.3916 82.8996C72.7633 83.1217 72.0971 84.38 71.875 85.8603C71.801 86.4525 71.801 87.1186 72.5412 87.2667C73.2814 87.4147 73.5774 86.8226 73.6515 86.2304C73.7255 85.5643 73.4294 84.528 74.5397 84.528C75.4279 84.528 75.0578 85.5643 75.2799 86.1564C75.5019 86.7486 75.6499 87.3407 76.3901 87.1186C77.2783 86.8226 76.9082 86.0824 76.7602 85.4903Z" fill="#080F10"/>
<path d="M22.432 64.1732C22.9502 65.0614 23.6163 65.9496 24.1345 66.9859C24.3565 67.43 23.8384 67.8741 23.4683 67.7261C22.136 67.356 21.8399 66.1717 21.5438 65.0614C21.3958 64.6173 21.6919 64.3213 22.432 64.1732Z" fill="#080F10"/>
<path d="M22.6543 75.1277C22.7283 75.7199 22.5062 76.09 22.0621 76.09C20.8038 76.09 20.8038 74.9797 20.5078 74.1655C20.3597 73.7954 20.4337 73.1293 20.8779 73.1293C22.1361 73.2033 21.9141 74.6836 22.6543 75.1277Z" fill="#080F10"/>
<path d="M28.5011 75.6459C28.5011 76.2381 28.4271 76.8302 27.983 76.7562C26.8727 76.5341 26.5766 75.4979 26.4286 74.5357C26.3546 74.1656 26.4286 73.5734 26.9467 73.6474C28.205 73.7955 27.9089 75.1278 28.5011 75.6459Z" fill="#080F10"/>
<path d="M28.5016 65.3574C29.3898 65.7275 29.3898 66.6157 29.5379 67.3559C29.6859 67.8 29.5379 68.3181 29.0198 68.3181C27.9095 68.2441 27.9095 67.2079 27.7615 66.4677C27.6874 65.9496 27.8355 65.4314 28.5016 65.3574Z" fill="#080F10"/>
<path d="M43.0086 49.8138C42.4165 50.9241 41.8984 52.1083 41.2322 53.2186C41.0842 53.5147 40.64 53.5887 40.344 53.3666C40.1959 53.2186 39.9739 52.9225 40.0479 52.7745C40.492 51.4422 40.9361 50.1099 41.9724 49.1476C42.4905 48.7035 42.9346 49.1476 43.0086 49.8138Z" fill="#080F10"/>
<path d="M46.8581 51.7383C46.1919 52.5525 45.8218 53.8108 44.6376 54.1808C44.1935 54.3289 43.8974 53.7367 44.1195 53.2926C44.6376 52.2564 45.0817 51.1461 46.414 50.9241C46.7841 50.9241 46.9321 51.2942 46.8581 51.7383Z" fill="#080F10"/>
<path d="M43.4527 59.3621C43.0086 60.1763 42.4904 61.0645 41.3802 61.2125C41.0101 61.2865 40.566 60.8424 40.788 60.3983C41.2322 59.5841 41.8243 58.918 42.7125 58.6219C43.1566 58.3998 43.4527 58.7699 43.4527 59.3621Z" fill="#080F10"/>
<path d="M37.3092 94.4464C36.6431 94.3724 36.421 94.0023 36.495 93.5582C36.7171 92.3739 37.3833 91.4117 38.5676 91.0416C38.9376 90.8936 39.1597 91.3377 39.0857 91.6338C38.7156 92.744 38.0494 93.7062 37.3092 94.4464Z" fill="#080F10"/>
<path d="M43.0085 100.442C42.5644 100.442 42.1203 100.294 42.2683 99.9977C42.6384 98.8874 43.2305 97.9252 44.4148 97.5551C44.7109 97.4811 45.0809 97.7772 45.0069 98.1473C44.6368 99.1835 43.9707 99.9977 43.0085 100.442Z" fill="#080F10"/>
<path d="M40.0482 96.0747C40.4923 95.1865 41.0104 94.2983 42.1207 94.0022C42.5648 93.9282 43.0089 94.2243 42.7868 94.7424C42.2687 95.6306 41.6026 96.5188 40.6403 96.9629C40.1962 97.185 39.9742 96.6668 40.0482 96.0747Z" fill="#080F10"/>
<path d="M7.92454 36.7867C8.51668 36.8608 8.73872 37.2308 8.51667 37.6009C7.99855 38.7112 7.48041 39.8215 6.88827 40.9317C6.5922 41.3758 6.14811 41.3018 5.92605 40.8577C5.48195 39.9695 6.00008 39.2293 6.37016 38.5632C6.81427 37.897 7.03633 37.0828 7.92454 36.7867Z" fill="#080F10"/>
<path d="M9.47925 48.6295C8.66506 48.3334 8.44302 47.9633 8.66508 47.3712C8.96115 46.557 8.88713 45.4467 10.0714 45.2247C10.5155 45.1507 10.8856 45.5948 10.6635 46.0389C10.2934 46.9271 10.2194 47.9633 9.47925 48.6295Z" fill="#0C0E0F"/>
<path d="M10.737 42.19C10.0708 41.968 9.77475 41.5238 10.0708 41.0057C10.5149 40.0435 10.737 38.8592 11.9213 38.4891C12.3654 38.3411 12.6614 39.0073 12.4394 39.3773C11.8472 40.3396 11.6992 41.5238 10.737 42.19Z" fill="#0C0E0F"/>
<path d="M5.55572 44.2625C6.14786 44.2625 6.44394 44.5585 6.36992 45.0766C6.22189 45.7428 6.29589 46.705 5.40768 46.9271C4.88956 47.0751 4.59349 46.557 4.66751 46.1869C4.81554 45.4467 4.74153 44.5585 5.55572 44.2625Z" fill="#0C0E0F"/>
<path d="M12.4396 82.3816C11.8474 83.2698 10.9592 83.7879 9.92299 84.232C9.47888 84.38 9.25684 83.9359 9.25684 83.7139C9.55291 82.5296 10.5892 82.0855 11.5514 81.7154C12.0695 81.4933 12.3656 81.8634 12.4396 82.3816Z" fill="#0C0E0F"/>
<path d="M7.4802 80.161C7.18413 80.8271 7.85028 82.0854 6.666 82.0854C5.77779 82.0854 5.85181 80.9751 5.92582 80.235C5.99984 79.4948 5.8518 78.3105 6.96206 78.3845C7.99831 78.6066 7.40618 79.5688 7.4802 80.161Z" fill="#0C0E0F"/>
<path d="M8.36839 88.5249C8.51642 89.1911 8.3684 89.5612 7.85028 89.5612C6.666 89.4131 6.666 88.3769 6.44395 87.5627C6.29591 87.0446 6.36992 86.4524 7.03608 86.5264C8.14634 86.7485 7.77625 88.0068 8.36839 88.5249Z" fill="#0C0E0F"/>
<path d="M4.59376 78.3846C4.00162 78.3846 3.77956 78.0145 3.85358 77.5704C4.00162 76.7562 4.4457 76.016 5.40793 75.868C5.77802 75.794 6.00008 76.09 6.00008 76.4601C5.77803 77.3483 5.33393 78.0145 4.59376 78.3846Z" fill="#0C0E0F"/>
<path d="M33.0162 34.7882C32.9422 35.3803 33.0902 36.2685 32.128 36.1945C31.3878 36.1205 31.4618 35.3803 31.5358 34.7882C31.6839 34.196 31.6099 33.2338 32.4981 33.3819C33.3123 33.4559 33.0162 34.2701 33.0162 34.7882Z" fill="#0C0E0F"/>
<path d="M71.8016 34.3441C71.5055 35.3803 70.7654 35.9725 69.7291 36.2685C69.211 36.4166 68.8409 35.9725 68.9889 35.6024C69.359 34.6402 70.1732 34.122 71.1355 33.7519C71.4315 33.6779 71.8016 33.9 71.8016 34.3441Z" fill="#080F10"/>
<path d="M63.4382 32.2717C62.772 32.8638 62.9941 34.3442 61.7358 34.5662C61.2177 34.6402 60.9956 33.9741 61.1437 33.456C61.5137 32.5677 61.7358 31.5315 62.9201 31.3094C63.2902 31.3094 63.6603 31.6055 63.4382 32.2717Z" fill="#080F10"/>
<path d="M67.1384 37.4528C66.9903 38.119 66.6202 38.4151 66.0281 38.193C65.2879 37.8969 64.2517 38.119 64.0296 37.0827C63.9556 36.6386 64.3997 36.2685 64.8438 36.4166C65.658 36.5646 66.6943 36.5646 67.1384 37.4528Z" fill="#080F10"/>
<path d="M66.7687 35.6024C66.2506 35.5284 65.9545 35.2323 66.1026 34.7882C66.3246 34.048 66.4727 33.0858 67.4349 32.9378C67.879 32.8638 68.175 33.2338 68.027 33.752C67.7309 34.4181 67.6569 35.3063 66.7687 35.6024Z" fill="#080F10"/>
<path d="M67.9522 75.4239C67.5822 75.4239 67.2861 75.4239 66.916 75.4239C62.1789 75.2759 61.5127 74.2396 63.5852 70.2427C64.9915 67.43 66.0278 64.3953 68.5444 62.1748C72.0972 58.918 74.8359 58.6219 78.9069 61.1385C79.647 61.5826 80.3132 62.0267 80.9793 62.5448C83.94 64.6173 83.866 64.6173 81.4974 66.9119C80.0171 68.3922 78.5367 69.8726 77.2044 71.501C74.7619 74.3136 71.7271 75.72 67.9522 75.4239ZM75.7981 66.8379C75.7981 64.4693 74.8359 63.4331 72.5413 63.4331C69.9507 63.4331 68.1003 64.9874 68.1003 67.1339C68.1003 69.2064 69.8027 70.9828 71.8752 70.9828C74.2437 70.9828 75.7981 69.3545 75.7981 66.8379Z" fill="#F6F6F6"/>
<path d="M75.7984 66.8378C75.7984 69.4284 74.244 71.0568 71.8755 70.9828C69.803 70.9088 68.1006 69.2064 68.1006 67.1339C68.1006 64.9874 69.951 63.433 72.5416 63.433C74.8362 63.433 75.7984 64.4692 75.7984 66.8378ZM71.7274 66.7638C71.6534 66.1716 71.5054 65.4315 70.4692 65.4315C69.655 65.4315 69.2109 65.9496 69.2849 66.6898C69.3589 67.504 69.803 68.0961 70.7652 68.0961C71.5054 68.1701 71.6534 67.578 71.7274 66.7638Z" fill="#0C0E0F"/>
<path d="M71.7279 66.7638C71.7279 67.578 71.5059 68.1701 70.7657 68.1701C69.8775 68.1701 69.3593 67.578 69.2853 66.7638C69.2113 66.0236 69.6554 65.5055 70.4696 65.5055C71.5059 65.4315 71.6539 66.1717 71.7279 66.7638Z" fill="#F6F6F6"/>
</svg>
